<?xml version="1.0" encoding="utf-8"?>
<!DOCTYPE svg PUBLIC "-//W3C//DTD SVG 20010904//EN" "http://www.w3.org/TR/2001/REC-SVG-20010904/DTD/svg10.dtd">
<svg version="1.0" xmlns="http://www.w3.org/2000/svg" width="244px" height="70px" viewBox="0 0 244 70" preserveAspectRatio="xMidYMid meet">
 <g fill="#ffffff">
  <path d="M0 58 c0 -10.5 0.2 -12 1.6 -12 0.9 0 2.3 0.8 3 1.8 1.2 1.5 1.3 1 1.3 -3.8 0 -4.8 -0.1 -5.3 -1.3 -3.7 -0.7 0.9 -2.1 1.7 -3 1.7 -1.4 0 -1.6 -2.2 -1.6 -21 l0 -21 122 0 122 0 0 35 0 35 -122 0 -122 0 0 -12z m226.3 -33.2 l-12.8 -12.8 -2 2 -2 2.1 9.3 9.1 c12 11.8 12 11.8 0.2 23.4 l-9 8.8 2.2 2.3 2.2 2.4 12.3 -12.3 12.3 -12.3 -12.7 -12.7z m-88.3 15.9 c0 -9.8 -0.3 -12.8 -1.2 -12.5 -1 0.4 -1.4 4.4 -1.5 14.9 -0.2 12.9 -0.1 14.2 1.2 12.5 1.2 -1.5 1.5 -5 1.5 -14.9z m67.5 6.3 l9 -9 -9.2 -9.2 c-5.1 -5.1 -9.6 -8.9 -10 -8.5 -0.4 0.4 2.1 3.6 5.5 7 5.8 5.8 6.2 6.6 6.2 10.8 0 4.1 -0.4 4.9 -6 10.4 -5.7 5.6 -7 7.5 -5.2 7.5 0.4 0 4.8 -4.1 9.7 -9z m-188.5 -7.4 c0 -5.3 -0.4 -9.8 -1 -10.1 -0.6 -0.4 -1 3 -1 9.4 0 6.1 0.4 10.1 1 10.1 0.6 0 1 -3.8 1 -9.4z m76 -7.1 c0 -10.3 -0.4 -16.5 -1 -16.5 -0.6 0 -1 6.2 -1 16.5 0 10.3 0.4 16.5 1 16.5 0.6 0 1 -6.2 1 -16.5z m55 5.5 c0 -6.7 -0.4 -11 -1 -11 -0.6 0 -1 4.3 -1 11 0 6.7 0.4 11 1 11 0.6 0 1 -4.3 1 -11z m-120 0.3 c-0.1 -8.8 -0.2 -9.6 -1.5 -7.9 -2.5 3.3 -1.6 17.6 1 17.6 0.3 0 0.5 -4.4 0.5 -9.7z m88 0.2 c0 -3.8 -0.5 -6.8 -1.5 -8.1 -1.3 -1.7 -1.4 -0.9 -1.4 8.1 0 9 0.1 9.8 1.4 8.1 1 -1.3 1.5 -4.3 1.5 -8.1z m10 -0.7 c0 -7 -0.3 -9.8 -1 -8.8 -1.8 2.7 -1.2 19 0.7 19 0.2 0 0.3 -4.6 0.3 -10.2z m33 0.5 c-0.1 -8.8 -0.2 -9.6 -1.5 -7.9 -2.5 3.3 -1.6 17.6 1 17.6 0.3 0 0.5 -4.4 0.5 -9.7z m11 6.5 c0 -0.5 -0.4 -0.8 -1 -0.8 -0.5 0 -1 1 -1 2.3 0 1.8 0.2 1.9 1 0.7 0.5 -0.8 1 -1.8 1 -2.2z m-121 -7 c0 -7 -0.3 -8.9 -1.2 -8 -2.4 2.4 -1.9 17.2 0.7 17.2 0.3 0 0.5 -4.1 0.5 -9.2z m21 0 c0 -6.4 -0.3 -8.8 -1 -7.8 -1.6 2.5 -1.1 17 0.6 17 0.2 0 0.4 -4.2 0.4 -9.2z m33 0 c0 -6.4 -0.3 -8.8 -1 -7.8 -1.8 2.7 -1.2 17 0.7 17 0.2 0 0.3 -4.2 0.3 -9.2z m88.7 -1.5 c-1.6 -1.6 -1.7 -1.5 -1.7 1.7 0 3.2 0.1 3.3 1.7 1.7 1.6 -1.6 1.6 -1.8 0 -3.4z m-108.7 -2.2 c0 -1.6 -0.7 -3.4 -1.5 -4.1 -1.3 -1.1 -1.5 -0.7 -1.5 2.9 0 3 0.4 4.1 1.5 4.1 1 0 1.5 -1 1.5 -2.9z"/>
 </g>
 <g fill="#036e66">
  <path d="M123.7 60.8 c-0.9 -0.7 -1.8 -2.4 -1.9 -3.8 -0.3 -2.1 0.2 -2.6 2.6 -2.8 1.6 -0.2 3.3 0.1 3.9 0.7 1.8 1.8 3.7 1.2 3.7 -1.2 0 -2 -0.4 -2.2 -4 -1.9 -6.5 0.6 -7 -0.4 -7 -13.4 0 -8.9 0.3 -11.6 1.6 -12.8 1.7 -1.8 6.1 -2.1 8.4 -0.6 0.9 0.5 1.9 0.5 2.7 -0.1 0.6 -0.6 2.4 -0.9 4 -0.7 l2.8 0.3 0.3 16.3 c0.2 16.1 0.2 16.3 -2.2 18.7 -2.1 2 -3.5 2.5 -7.9 2.5 -2.9 0 -6.1 -0.6 -7 -1.2z m8.3 -22.9 c0 -6 -0.3 -8 -1.2 -7.7 -0.9 0.3 -1.4 3.1 -1.6 8.1 -0.2 6.4 0 7.7 1.3 7.7 1.2 0 1.5 -1.5 1.5 -8.1z"/>
  <path d="M177.7 53.2 c-1 -1 -1.7 -2.3 -1.7 -2.8 0 -0.5 2.5 -3.4 5.5 -6.4 3 -3 5.5 -5.8 5.5 -6.3 0 -0.5 -2.5 -3.4 -5.5 -6.6 -5.2 -5.5 -5.4 -5.8 -3.9 -7.9 0.8 -1.2 2.3 -2.2 3.2 -2.2 2.1 0 17.2 15 17.2 17 0 2 -15.1 17 -17.1 17 -0.9 0 -2.3 -0.8 -3.2 -1.8z"/>
  <path d="M4 52.3 c-2.8 -1 -4 -3.6 -4 -8.5 0 -6.5 2.6 -9.2 8.1 -8.5 3.8 0.5 3.9 0.4 3.9 -2.4 0 -3.1 -2.3 -4.1 -3.4 -1.3 -0.4 1 -1.6 1.4 -3.8 1.2 -2.7 -0.2 -3.4 -0.8 -3.6 -2.9 -0.5 -4.1 2.1 -5.9 8.6 -5.9 3.6 0 6.6 0.6 8 1.6 2.1 1.4 2.2 2.2 2.2 14 l0 12.5 -4.7 -0.1 c-2.7 0 -5.9 0.1 -7.3 0.4 -1.4 0.3 -3.2 0.3 -4 -0.1z m7.8 -8.8 c-0.4 -3.3 -2.2 -3.3 -2.6 0 -0.2 1.8 0.1 2.5 1.3 2.5 1.2 0 1.5 -0.7 1.3 -2.5z"/>
  <path d="M27.5 51.9 c-4.7 -1.4 -5.5 -3.3 -5.5 -13.6 0 -8.6 0.2 -9.6 2.5 -11.8 1.9 -2 3.4 -2.5 7.7 -2.5 6.9 0 9.8 1.9 9.8 6.6 0 3.2 -0.2 3.4 -3.4 3.4 -2.6 0 -3.6 -0.5 -4.1 -2.1 -1.4 -4.3 -3 -1.1 -3.3 6.5 -0.3 7 -0.1 7.7 1.5 7.4 1 -0.2 1.9 -1.3 2.1 -2.6 0.3 -1.8 1 -2.2 3.8 -2.2 3.3 0 3.4 0.1 3.4 3.8 0 4.8 -0.9 6 -5.1 7.2 -4 1.2 -5.3 1.1 -9.4 -0.1z"/>
  <path d="M49.4 52.4 c-4.8 -1.1 -5.9 -3.9 -5.9 -14.6 0 -9.3 0.2 -10.1 2.4 -11.9 1.6 -1.3 3.9 -1.9 7.5 -1.9 6.7 0 9.6 2 9.6 6.6 0 3.2 -0.2 3.4 -3.4 3.4 -2.6 0 -3.5 -0.5 -3.9 -2.1 -0.3 -1.2 -1.2 -1.9 -1.9 -1.7 -0.9 0.3 -1.4 2.9 -1.6 8.1 -0.3 7.2 -0.1 7.7 1.8 7.7 1.5 0 2 -0.6 2 -2.5 0 -2.3 0.4 -2.5 4.1 -2.5 l4.2 0 -0.6 4.1 c-0.3 2.3 -1.2 4.8 -1.9 5.5 -1.5 1.5 -8.9 2.5 -12.4 1.8z"/>
  <path d="M70.3 52.3 c-4.2 -0.8 -5.3 -4 -5.3 -14.3 0 -12.3 0.6 -13.3 9.1 -13.8 5.4 -0.3 6.8 -0.1 9.2 1.8 2.4 1.9 2.7 2.8 2.7 8.1 l0 5.9 -6.5 0 -6.5 0 0 3 c0 2.5 0.4 3 2.5 3 1.6 0 2.5 -0.6 2.5 -1.5 0 -1.1 1.1 -1.5 4 -1.5 3.7 0 4 0.2 4 2.8 0 1.6 -0.8 3.6 -1.9 4.6 -1.9 1.7 -9.8 2.8 -13.8 1.9z m6.7 -19.8 c0 -1.8 -0.5 -2.5 -2 -2.5 -1.5 0 -2 0.7 -2 2.5 0 1.8 0.5 2.5 2 2.5 1.5 0 2 -0.7 2 -2.5z"/>
  <path d="M103.5 52.3 c-4.8 -1.2 -5.5 -3 -5.5 -13.8 0 -12.9 0.5 -13.7 9.3 -14.3 6 -0.4 6.8 -0.2 9.1 2.1 2.4 2.4 2.6 3.3 2.6 11.7 0 5 -0.5 10 -1 11 -1.6 3 -9 4.6 -14.5 3.3z m6.5 -14.4 c0 -7.1 -0.2 -8 -1.7 -7.7 -1.5 0.3 -1.9 1.6 -2.1 6.7 -0.3 7.3 0.1 9.1 2.3 9.1 1.2 0 1.5 -1.5 1.5 -8.1z"/>
  <path d="M158.5 51.9 c-4.7 -1.4 -5.5 -3.3 -5.5 -13.6 0 -8.6 0.2 -9.6 2.5 -11.8 1.9 -2 3.4 -2.5 7.7 -2.5 6.9 0 9.8 1.9 9.8 6.6 0 3.3 -0.1 3.4 -4 3.4 -3.4 0 -4 -0.3 -4 -2.1 0 -1.2 -0.5 -1.9 -1.2 -1.7 -0.9 0.3 -1.4 3.1 -1.6 8.1 -0.2 6.4 0 7.7 1.3 7.7 0.9 0 1.5 -0.9 1.5 -2.5 0 -2.2 0.4 -2.5 4 -2.5 4 0 4 0 4 3.8 0 4.8 -0.9 6 -5.1 7.2 -4 1.2 -5.3 1.1 -9.4 -0.1z"/>
  <path d="M88 32.5 l0 -19.5 4 0 4 0 0 19.5 0 19.5 -4 0 -4 0 0 -19.5z"/>
  <path d="M143 38 l0 -14 4 0 4 0 0 14 0 14 -4 0 -4 0 0 -14z"/>
  <path d="M143 16.5 c0 -3.4 0.1 -3.5 4 -3.5 3.9 0 4 0.1 4 3.5 0 3.4 -0.1 3.5 -4 3.5 -3.9 0 -4 -0.1 -4 -3.5z"/>
 </g>
 <g fill="#e9e6c0">
  <path d="M209.8 63.3 c-1.9 -2.1 -3.8 -4.5 -4.1 -5.4 -0.4 -1.2 2.4 -4.6 9.2 -11.3 l9.8 -9.6 -9.3 -9.2 c-5.1 -5 -9.1 -9.4 -8.9 -9.9 0.3 -0.4 -0.1 -1 -0.7 -1.3 -1.1 -0.5 -1.1 -0.7 0 -1.2 0.6 -0.3 1 -0.9 0.7 -1.3 -0.2 -0.5 0.8 -2 2.4 -3.5 2.1 -2 3.4 -2.6 5.3 -2.1 1.4 0.4 8 6.2 14.9 13.1 6.8 6.8 12.9 12.4 13.6 12.4 0.7 0 1.3 1 1.3 2.3 0 1.5 -4.3 6.5 -14.3 16.5 -7.8 7.8 -14.7 14.2 -15.3 14.2 -0.5 0 -2.6 -1.7 -4.6 -3.7z"/>
  <path d="M202 55 c0 -0.8 3.7 -5.2 8.2 -9.7 l8.3 -8.3 -8 -8.2 -8 -8.3 8.3 8 c4.5 4.4 8.2 8.6 8.2 9.4 0 0.7 -3.8 5.3 -8.5 10 -4.7 4.7 -8.5 7.9 -8.5 7.1z"/>
 </g>
 <g fill="#c0af2c">
  <path d="M191.5 58 l-2.9 -3 7.7 -7.8 c4.2 -4.3 7.7 -8.4 7.7 -9.2 0 -0.9 -3.1 -4.7 -7 -8.5 -3.8 -3.8 -7 -7.7 -7 -8.5 0 -2 4.1 -6 6.1 -6 0.8 0 6.3 4.9 12.3 10.9 8.4 8.5 10.7 11.3 10.2 12.8 -0.8 2.6 -20.9 22.3 -22.8 22.3 -0.8 0 -2.7 -1.4 -4.3 -3z"/>
 </g>
</svg>