<?xml version="1.0" standalone="no"?>
<!DOCTYPE svg PUBLIC "-//W3C//DTD SVG 20010904//EN"
 "http://www.w3.org/TR/2001/REC-SVG-20010904/DTD/svg10.dtd">
<svg version="1.0" xmlns="http://www.w3.org/2000/svg"
 width="300.000000pt" height="295.000000pt" viewBox="0 0 300.000000 295.000000"
 preserveAspectRatio="xMidYMid meet">
<metadata>
Created by potrace 1.10, written by Peter Selinger 2001-2011
</metadata>
<g transform="translate(0.000000,295.000000) scale(0.100000,-0.100000)"
fill="#000000" stroke="none">
<path d="M1371 2928 c-5 -13 -19 -45 -30 -72 -24 -54 -14 -56 -109 23 -50 42
-53 43 -67 25 -19 -26 -19 -27 13 -46 15 -9 49 -36 76 -61 l50 -43 -25 -43
c-23 -41 -29 -45 -103 -66 l-78 -23 -28 62 c-16 33 -35 85 -44 114 l-15 52 60
17 c45 12 59 21 59 35 0 10 -1 18 -3 18 -2 0 -41 -13 -88 -29 -94 -32 -153
-58 -221 -96 l-46 -26 37 -62 c36 -59 91 -162 91 -170 0 -5 -77 -57 -84 -57
-3 0 -2 15 0 33 5 26 1 37 -21 57 -24 22 -34 25 -95 22 -59 -2 -71 1 -79 16
-14 26 6 52 47 60 25 6 29 10 22 22 -8 13 -14 12 -47 -5 -48 -25 -67 -63 -52
-101 14 -39 25 -44 97 -44 72 0 102 -12 102 -41 0 -29 -44 -69 -76 -69 -26 0
-26 -1 -11 -18 16 -18 13 -19 -73 -21 l-90 -2 0 36 c0 41 -38 85 -74 85 -43 0
-97 -60 -96 -107 1 -10 29 -40 66 -68 35 -27 76 -62 90 -76 25 -26 25 -28 8
-54 l-17 -27 -12 22 c-11 21 -12 20 -19 -18 -3 -23 -17 -53 -30 -68 -22 -26
-25 -27 -54 -15 -53 22 -58 36 -28 75 28 37 32 51 17 60 -5 4 -20 -10 -33 -31
-12 -20 -26 -41 -29 -46 -7 -10 -42 5 -71 31 -20 17 -12 39 29 83 22 24 22 27
7 33 -9 4 -18 5 -19 4 -14 -16 -74 -118 -79 -134 -5 -17 -2 -23 16 -28 13 -3
64 -32 115 -65 l92 -59 -26 -66 c-15 -37 -30 -63 -33 -59 -49 55 -162 198
-171 214 -10 19 -12 20 -27 5 -14 -14 -14 -17 0 -33 8 -10 43 -52 77 -93 l62
-75 -58 -17 c-32 -10 -84 -23 -115 -29 -59 -12 -68 -22 -45 -53 10 -14 17 -15
40 -7 28 11 220 61 232 61 4 0 4 -8 0 -17 -4 -10 -13 -38 -19 -63 l-12 -45
-60 4 c-32 2 -92 12 -133 22 -41 11 -75 18 -77 16 -1 -1 -5 -14 -9 -29 -7 -25
-5 -27 42 -33 26 -4 86 -14 133 -24 78 -15 85 -18 88 -41 5 -49 -4 -52 -129
-35 -63 9 -122 18 -131 21 -14 4 -18 0 -18 -19 0 -23 3 -25 80 -29 44 -3 83
-8 88 -12 4 -5 -33 -46 -82 -92 -87 -80 -89 -84 -78 -110 12 -25 13 -26 32 -9
16 15 34 17 119 13 55 -2 102 -6 104 -8 2 -3 7 -18 11 -34 6 -25 5 -28 -7 -18
-10 9 -22 10 -41 2 -15 -5 -57 -14 -94 -20 -138 -21 -129 -17 -124 -50 2 -17
5 -30 7 -30 1 0 20 6 41 14 22 7 64 16 95 20 93 12 136 -22 105 -82 -17 -33
-61 -54 -154 -72 l-61 -12 14 -28 14 -27 91 29 c60 20 100 39 119 59 l30 30
12 -43 c17 -66 66 -168 80 -168 7 0 9 -3 6 -6 -4 -4 -13 -1 -22 6 -8 7 -23 9
-32 6 -15 -6 -13 -11 15 -32 25 -20 32 -33 32 -60 0 -42 -25 -94 -45 -94 -8 0
-29 28 -46 63 -38 75 -33 69 -52 62 -12 -5 -8 -18 24 -70 45 -74 46 -80 19
-95 -44 -23 -107 21 -116 82 -4 23 -12 38 -20 38 -35 0 -2 -96 44 -129 36 -25
109 -28 152 -6 32 17 69 63 79 102 l7 27 23 -33 24 -33 -49 -50 c-27 -28 -74
-69 -105 -93 l-57 -42 19 -24 18 -24 43 43 44 42 30 -32 c73 -80 71 -72 25
-114 -23 -21 -41 -42 -41 -46 0 -11 144 -132 207 -174 44 -29 56 -33 73 -24
20 11 18 13 -29 37 -28 13 -51 28 -51 32 0 12 51 80 104 138 l46 51 53 -35
c60 -41 192 -105 255 -124 30 -9 41 -17 37 -27 -3 -7 -8 -26 -11 -40 -3 -15
-17 -64 -31 -110 -27 -91 -25 -112 9 -112 21 0 25 7 34 68 6 37 22 94 35 127
l24 60 40 -3 c50 -5 51 -6 31 -34 -18 -26 -21 -74 -5 -83 6 -5 -1 -19 -20 -37
-54 -53 -33 -119 42 -133 83 -16 137 61 92 132 -12 18 -12 23 0 33 18 15 20
71 3 88 -9 9 3 12 55 12 64 0 67 -1 57 -19 -13 -26 -13 -74 1 -88 9 -9 8 -18
-5 -37 -39 -61 -7 -126 63 -126 79 0 115 78 62 134 -20 21 -22 28 -11 41 8 10
11 30 7 60 l-7 45 34 0 c19 0 42 3 50 6 15 6 15 3 0 -23 -46 -79 48 -159 120
-102 l26 20 0 -26 c0 -72 -51 -121 -98 -96 -14 7 -23 8 -27 1 -11 -18 6 -30
45 -30 51 0 96 38 111 92 17 65 -6 162 -42 173 -31 10 -22 20 28 33 97 26 343
161 368 202 14 22 23 8 14 -22 -22 -77 44 -168 122 -168 71 0 131 49 145 117
4 21 18 35 52 53 62 34 85 68 84 125 -1 120 -124 185 -205 109 -15 -13 -29
-20 -32 -14 -3 5 4 15 17 21 20 8 44 37 79 92 8 11 123 -49 180 -94 20 -16 42
-29 48 -29 10 0 36 39 29 44 -2 1 -21 13 -43 26 -75 44 -175 113 -175 120 0
15 27 29 104 54 43 14 82 26 86 26 3 0 24 -30 45 -66 31 -52 40 -62 47 -49 7
11 -2 29 -32 68 l-42 52 49 13 c26 7 55 16 63 21 14 7 42 52 36 58 -1 1 -33
-9 -72 -22 -38 -14 -76 -25 -84 -25 -9 0 -34 31 -58 69 -47 76 -53 98 -23 82
18 -10 18 -8 9 22 -15 51 3 87 44 87 18 0 44 -3 57 -7 21 -5 22 -10 17 -44 -3
-20 -9 -44 -12 -53 -4 -10 -1 -16 9 -16 10 0 17 16 22 56 l7 55 41 -6 c23 -4
45 -9 50 -12 12 -7 8 -52 -8 -83 -13 -25 -13 -29 1 -34 8 -3 17 0 19 7 8 23
24 150 20 156 -2 4 -18 8 -37 9 -50 3 -191 22 -210 28 -11 3 -18 15 -18 29 0
20 8 25 53 36 28 7 91 13 139 13 122 1 119 17 -17 93 -57 32 -104 61 -102 65
3 10 159 128 169 128 12 0 9 13 -7 34 -14 18 -16 18 -34 2 -15 -14 -36 -16
-120 -14 l-102 3 -32 97 -33 97 75 7 c41 4 105 4 143 1 62 -5 69 -4 66 11 -3
15 -18 17 -111 17 -59 0 -107 1 -107 3 0 9 72 114 101 146 32 37 32 39 14 52
-10 8 -21 14 -24 14 -3 0 -20 -22 -38 -48 -31 -45 -34 -47 -73 -44 -22 2 -40
6 -40 8 0 8 79 112 104 137 l25 25 -24 22 -23 22 -16 -30 c-20 -39 -135 -192
-144 -192 -4 0 -20 23 -37 51 -16 28 -47 66 -67 84 -21 17 -38 38 -38 46 0 9
6 7 18 -7 9 -12 31 -29 48 -38 28 -14 33 -14 44 -1 10 12 9 15 -9 15 -28 0
-71 43 -71 70 0 11 7 37 16 58 l15 37 54 -57 c32 -35 57 -53 61 -47 3 6 -18
35 -47 65 -51 52 -52 54 -34 69 49 36 119 9 143 -55 9 -22 11 -23 17 -7 16 40
-62 107 -126 107 -74 0 -143 -77 -137 -152 2 -21 3 -38 3 -38 -1 0 -23 21 -49
46 l-48 46 23 26 c13 15 56 61 97 103 59 61 71 78 59 87 -10 9 -26 -4 -77 -65
-70 -83 -78 -83 -79 7 -1 25 -4 75 -8 113 -6 66 -6 67 -35 67 -25 0 -28 -3
-23 -20 7 -22 -28 -84 -88 -154 l-33 -39 -101 49 c-99 48 -101 50 -96 79 3 17
12 43 20 58 15 30 27 30 85 1 22 -12 27 -11 32 2 3 9 -1 17 -12 21 -90 32 -94
38 -62 90 l19 33 47 -21 c55 -23 85 -11 36 15 -70 36 -133 56 -136 43 -28 -95
-71 -217 -82 -234 -12 -19 -18 -21 -40 -13 -14 6 -36 10 -50 10 -35 0 -29 12
16 33 50 23 85 90 76 142 -26 135 -212 150 -261 21 -20 -51 -10 -105 28 -148
23 -26 45 -39 33 -19 -9 14 32 1 44 -14 9 -10 7 -13 -7 -10 -10 2 -20 4 -23 5
-3 1 -9 2 -14 1 -4 -1 -14 3 -20 8 -19 16 -172 23 -251 13 -38 -5 -71 -8 -73
-7 -11 10 40 139 106 268 2 4 -6 7 -17 7 -13 0 -25 -9 -30 -22z m392 -39 c75
-58 45 -199 -41 -199 -14 0 -38 14 -58 34 -29 29 -34 41 -34 81 0 38 5 52 29
76 35 34 68 37 104 8z m-787 -107 c15 -34 64 -172 64 -179 0 -5 -83 -43 -87
-40 -1 2 -26 41 -53 88 -63 104 -63 125 0 156 25 11 48 19 53 16 4 -2 14 -21
23 -41z m1281 -133 c2 -16 -1 -19 -9 -11 -5 5 -7 15 -4 21 10 15 12 14 13 -10z
m-537 -29 c529 -108 913 -585 913 -1135 0 -480 -281 -903 -720 -1084 -234 -96
-532 -108 -773 -29 -220 72 -430 221 -571 407 -72 94 -164 286 -195 406 -35
136 -44 367 -20 500 73 389 324 710 675 865 217 95 451 119 691 70z m-630 -13
c0 -7 -4 -6 -10 3 -8 12 -10 12 -10 1 0 -8 -3 -12 -6 -8 -9 9 6 28 17 22 5 -4
9 -12 9 -18z m1153 -94 c3 -51 3 -93 0 -93 -4 0 -30 16 -59 36 -60 42 -60 39
5 126 23 31 38 44 42 35 3 -6 9 -54 12 -104z m-1309 17 c-6 -6 -10 -2 -11 12
-2 16 1 18 10 9 7 -7 8 -14 1 -21z m-459 -76 c24 -10 48 -62 40 -92 l-6 -25
70 7 c39 3 71 2 71 -2 0 -14 -58 -64 -69 -61 -5 2 -48 37 -96 77 -69 60 -84
77 -74 88 12 15 37 18 64 8z m200 -94 c3 -5 2 -10 -4 -10 -5 0 -13 5 -16 10
-3 6 -2 10 4 10 5 0 13 -4 16 -10z m-100 -109 c3 -5 2 -12 -3 -15 -5 -3 -9 1
-9 9 0 17 3 19 12 6z m2062 -169 c9 -5 4 -21 -19 -55 -17 -26 -34 -47 -39 -47
-5 0 -20 22 -34 49 l-25 50 23 4 c38 7 82 7 94 -1z m-2184 -29 c-15 -22 -16
-22 -29 -6 -10 15 -10 19 4 24 33 12 41 7 25 -18z m2367 -328 c0 -8 -143 -105
-148 -100 -2 2 -8 22 -12 45 -7 36 -5 41 14 45 11 2 30 6 41 8 29 7 105 8 105
2z m40 1 c0 -2 -7 -6 -15 -10 -8 -3 -15 -1 -15 4 0 6 7 10 15 10 8 0 15 -2 15
-4z m-2530 -22 c0 -8 -4 -12 -10 -9 -5 3 -10 10 -10 16 0 5 5 9 10 9 6 0 10
-7 10 -16z m2449 -158 c93 -46 90 -56 -17 -56 l-89 0 -2 51 c-1 48 0 50 21 44
13 -4 52 -21 87 -39z m-2479 -40 c0 -87 1 -86 -108 -86 l-77 0 80 80 c44 44
85 80 92 80 9 0 13 -21 13 -74z m2585 -26 c3 -6 -1 -7 -9 -4 -18 7 -21 14 -7
14 6 0 13 -4 16 -10z m-200 -16 c13 -5 14 -8 3 -15 -19 -13 -28 -11 -28 6 0
17 2 18 25 9z m-2575 -33 c0 -13 -7 -18 -25 -18 -13 0 -22 4 -19 9 3 5 12 7
20 4 8 -3 13 -2 13 2 -2 12 1 22 6 22 3 0 5 -8 5 -19z m2559 -85 c9 -10 8 -15
-2 -19 -8 -3 -13 3 -13 14 0 23 0 23 15 5z m-2349 -96 c-1 -12 -4 -11 -15 4
-8 10 -12 23 -8 29 7 11 23 -12 23 -33z m17 -45 c-2 -14 -6 -25 -10 -25 -8 0
-9 9 -1 33 8 25 15 21 11 -8z m2363 -156 c0 -8 -7 -11 -77 -29 -24 -6 -43 -17
-43 -24 0 -8 -7 -16 -15 -20 -22 -8 -18 7 10 40 13 15 30 50 37 77 l12 50 38
-43 c21 -23 38 -46 38 -51z m-150 -175 c0 -1 -9 0 -20 3 -11 3 -20 12 -20 19
0 11 5 10 20 -3 11 -10 20 -18 20 -19z m-2076 -10 c3 -8 2 -12 -4 -9 -6 3 -10
10 -10 16 0 14 7 11 14 -7z m71 -115 c-10 -15 -25 -10 -19 6 4 8 10 12 15 9 5
-3 7 -10 4 -15z m2018 -31 c44 -17 70 -84 51 -133 -7 -18 -55 -45 -81 -45 -10
0 -26 14 -35 30 -9 16 -33 38 -53 47 -46 22 -56 55 -25 88 34 36 76 40 143 13z
m-1933 -78 c0 -3 -18 -24 -40 -45 l-40 -39 -46 47 -46 46 33 28 c66 56 61 56
101 10 20 -23 37 -44 38 -47z m1746 5 c-3 -8 -15 -15 -27 -15 l-22 0 24 26
c23 24 37 19 25 -11z m-1706 -19 c0 -2 -8 -10 -17 -17 -16 -13 -17 -12 -4 4
13 16 21 21 21 13z m1644 -11 c-4 -8 -13 -15 -22 -15 -13 0 -12 3 4 15 24 18
25 18 18 0z m-1605 -135 c-22 -31 -56 -73 -77 -93 l-38 -37 -37 36 c-20 21
-37 41 -37 46 0 4 34 44 76 88 l76 79 38 -32 38 -31 -39 -56z m1571 106 c0 -2
-7 -7 -16 -10 -8 -3 -12 -2 -9 4 6 10 25 14 25 6z m123 -10 c74 -32 105 -112
60 -158 -46 -45 -145 -27 -183 34 -24 40 -25 66 -4 96 28 41 74 51 127 28z
m-1626 -70 c-23 -23 -28 -20 -15 9 7 16 15 22 21 16 6 -6 4 -15 -6 -25z m-142
-166 c-3 -5 -12 -10 -18 -10 -7 0 -6 4 3 10 19 12 23 12 15 0z m543 -31 c-6
-16 -12 -28 -14 -26 -5 5 13 57 20 57 3 0 0 -14 -6 -31z m622 -39 c35 -35 20
-80 -26 -80 -24 0 -54 34 -54 60 0 41 48 52 80 20z m-210 -9 c14 -27 13 -44
-5 -67 -15 -19 -15 -19 -35 5 -23 26 -26 51 -8 69 18 18 36 15 48 -7z m-232
-3 c15 -15 16 -55 1 -64 -17 -10 -61 39 -53 59 7 20 35 22 52 5z m-28 -88 c0
-5 -2 -10 -4 -10 -3 0 -8 5 -11 10 -3 6 -1 10 4 10 6 0 11 -4 11 -10z m3 -45
c43 -41 32 -95 -20 -95 -29 0 -63 33 -63 62 0 23 26 58 44 58 6 0 24 -11 39
-25z m246 -14 c41 -38 40 -69 -2 -84 -43 -16 -85 40 -67 88 12 33 31 32 69 -4z"/>
<path d="M1302 2586 c-117 -23 -211 -55 -312 -107 -661 -341 -813 -1214 -307
-1767 56 -61 173 -153 256 -201 285 -167 650 -192 958 -67 312 128 565 413
652 737 82 306 36 628 -130 897 -57 94 -185 233 -279 304 -91 70 -266 153
-385 184 -124 32 -338 42 -453 20z m363 -37 c376 -62 715 -355 833 -719 203
-626 -171 -1279 -810 -1411 -86 -18 -125 -20 -238 -16 -284 11 -513 111 -716
312 -90 90 -144 165 -202 281 -86 170 -117 324 -109 531 10 282 104 506 297
707 249 259 591 373 945 315z"/>
<path d="M1385 2501 l-60 -6 32 -17 c17 -10 34 -27 38 -38 8 -26 23 -26 27 1
8 56 89 44 96 -14 3 -23 -2 -30 -32 -42 -48 -20 -70 -19 -151 10 -90 32 -151
32 -196 2 -36 -24 -44 -44 -35 -83 10 -37 56 -55 134 -52 37 2 77 -1 90 -5 33
-12 28 11 -8 31 -16 9 -30 25 -30 35 0 9 -4 17 -10 17 -5 0 -10 -7 -10 -15 0
-19 -51 -45 -88 -45 -18 0 -38 10 -53 26 -22 23 -23 27 -8 52 22 40 56 54 116
48 52 -4 66 -11 243 -109 36 -20 73 -37 82 -37 16 0 38 -28 38 -48 0 -6 -11
-13 -25 -16 -14 -4 -46 -27 -72 -51 -26 -25 -47 -45 -48 -45 -1 0 0 23 3 52 4
41 2 50 -9 46 -8 -3 -44 -15 -81 -27 l-67 -22 -3 -552 -3 -552 -23 -52 c-13
-28 -31 -58 -40 -67 -16 -14 -17 30 -14 630 1 354 -1 644 -5 644 -4 0 -37 -12
-73 -26 l-65 -25 2 -612 c2 -364 7 -626 13 -648 21 -77 83 -74 164 9 l46 46 0
-61 0 -61 61 19 c33 10 70 19 80 19 14 0 18 4 12 13 -12 19 -4 1086 9 1130 6
21 27 54 45 75 l34 37 -5 -620 c-3 -341 -8 -632 -11 -646 l-7 -27 59 14 c32 7
71 14 87 14 26 0 28 2 21 28 -5 15 -11 306 -14 647 -5 498 -9 625 -20 647 -17
33 -8 75 19 83 29 9 59 58 57 91 -2 29 -2 29 68 35 l70 5 -55 4 -55 3 55 7 55
7 -49 1 c-27 1 -65 8 -84 14 -28 11 -38 10 -62 -4 -16 -9 -38 -14 -49 -11 -15
4 -21 1 -21 -12 0 -14 6 -16 34 -11 64 12 46 -54 -20 -70 -37 -9 -118 2 -156
22 -28 15 -30 19 -13 22 88 15 122 83 69 136 -16 16 -25 17 -129 7z m330 -111
c-3 -5 -11 -10 -16 -10 -6 0 -7 5 -4 10 3 6 11 10 16 10 6 0 7 -4 4 -10z m-30
-84 c-18 -28 -51 -41 -82 -33 -13 3 -9 6 15 12 17 4 32 12 32 17 0 5 4 6 10 3
5 -3 15 3 22 14 7 11 14 18 16 16 2 -2 -4 -15 -13 -29z m-55 -81 c0 -14 -4
-25 -10 -25 -5 0 -10 11 -10 25 0 14 5 25 10 25 6 0 10 -11 10 -25z m-1 -76
c18 -30 19 -57 15 -602 -2 -321 1 -589 6 -612 10 -43 1 -63 -28 -64 -9 0 -28
-1 -42 -3 -20 -2 -25 1 -23 17 6 54 9 968 4 1088 -5 115 -9 141 -23 151 -16
12 -14 15 20 34 49 27 49 27 71 -9z m-440 -609 c0 -473 3 -613 13 -629 11 -18
10 -23 -7 -35 -23 -18 -55 -21 -55 -5 0 5 -4 8 -9 5 -5 -4 -12 6 -15 21 -5 24
-9 719 -5 793 3 42 -11 402 -16 409 -2 4 0 12 3 19 9 13 74 42 84 36 3 -2 7
-278 7 -614z m267 543 c10 -7 13 -13 8 -13 -9 0 -33 -70 -40 -115 -1 -11 -3
-257 -4 -547 l-2 -527 -36 -7 c-38 -7 -62 11 -62 47 0 10 -9 24 -21 32 -11 8
-16 18 -11 21 13 8 30 85 37 161 2 32 5 270 5 527 1 258 5 466 10 463 4 -3 10
0 12 6 2 6 19 14 38 18 33 7 35 5 42 -23 3 -17 14 -36 24 -43z"/>
<path d="M2040 2270 c-13 -13 -20 -33 -19 -57 0 -35 1 -36 10 -13 14 35 39 60
60 60 9 0 31 -16 48 -35 33 -38 40 -32 16 15 -27 52 -80 65 -115 30z"/>
<path d="M830 2247 c-14 -7 -26 -23 -28 -35 -3 -18 1 -22 25 -21 17 1 21 3 11
6 -24 6 -22 15 8 36 28 21 89 17 97 -6 2 -7 7 -9 11 -6 4 4 0 14 -9 23 -20 19
-80 21 -115 3z"/>
<path d="M2201 2191 c-12 -22 -34 -47 -49 -54 -59 -30 -142 -31 -142 -1 0 8
-9 14 -20 14 -32 0 -23 -18 21 -40 37 -20 40 -23 34 -53 -8 -40 -35 -95 -57
-119 -20 -20 -24 -63 -8 -73 6 -3 10 2 10 11 0 14 3 15 12 6 7 -7 26 -12 43
-13 26 -1 25 -2 -15 -12 l-44 -12 3 -60 c1 -33 7 -77 12 -98 7 -28 6 -48 -6
-82 -8 -25 -15 -78 -15 -118 0 -60 3 -75 20 -90 25 -21 27 -86 5 -167 -17 -65
-19 -143 -5 -226 17 -96 19 -102 38 -107 15 -4 15 -5 1 -6 -17 -1 -34 -45 -24
-61 7 -11 171 -11 202 1 33 12 21 26 -29 34 -23 4 -52 18 -65 31 -22 22 -23
31 -23 144 0 85 4 129 14 148 8 15 17 44 21 65 4 20 10 37 14 37 3 0 17 -28
30 -62 105 -273 144 -367 151 -363 5 3 -29 118 -75 256 -61 181 -82 259 -78
280 3 16 11 29 17 29 7 0 12 30 13 88 1 59 -1 77 -7 57 l-8 -30 -1 38 c-2 65
-16 40 -16 -31 -1 -82 -9 -109 -29 -93 -11 10 -16 8 -21 -8 -14 -46 -61 -1
-50 49 5 24 2 32 -19 45 -33 22 -33 31 4 50 43 22 37 30 81 -90 l18 -50 -2 93
c-1 95 -10 117 -23 60 -6 -29 -8 -30 -15 -13 -4 11 -8 28 -8 38 -1 24 53 23
79 -3 21 -21 21 -20 25 30 1 14 8 62 15 107 15 100 11 116 -40 180 -43 55 -47
67 -27 80 14 9 37 78 37 112 0 12 7 36 16 52 8 17 13 33 10 36 -2 3 -14 -13
-25 -36z m-11 -70 c0 -10 -30 -24 -37 -17 -3 3 -2 9 2 15 8 13 35 15 35 2z
m-70 -45 c0 -9 -9 -12 -27 -8 -24 5 -25 6 -8 18 20 15 35 10 35 -10z m32 -13
c-6 -2 -9 -10 -6 -15 4 -7 2 -8 -5 -4 -13 9 -5 26 12 25 9 0 8 -2 -1 -6z m-36
-28 c17 -13 16 -14 -15 -5 -41 11 -51 20 -25 20 11 0 29 -7 40 -15z m10 -44
c45 -28 94 -106 94 -152 0 -67 -22 -189 -34 -188 -6 0 -20 5 -31 10 -16 8 -15
8 8 4 19 -4 26 -2 22 5 -3 5 -17 10 -31 10 -51 0 -64 16 -64 80 0 32 5 71 11
87 18 44 28 93 18 87 -5 -3 -9 -1 -9 5 0 5 3 11 8 14 4 2 2 3 -3 1 -6 -1 -19
4 -30 12 -10 8 -28 14 -38 14 -16 0 -17 3 -7 15 17 20 49 19 86 -4z m-62 -27
c18 -7 23 -84 6 -84 -5 0 -10 16 -10 35 0 19 -4 35 -10 35 -5 0 -10 -16 -10
-35 0 -37 -15 -47 -25 -16 -6 19 13 71 26 71 4 0 14 -3 23 -6z m5 -123 c10 -7
12 -21 7 -55 -4 -28 -2 -69 5 -102 11 -47 10 -57 -2 -65 -22 -14 -27 -11 -45
23 -18 36 -30 142 -20 182 7 27 29 33 55 17z m-46 -233 c-4 -7 -11 -51 -14
-98 l-6 -85 -1 82 c-2 84 3 113 20 113 5 0 6 -6 1 -12z m31 -84 c3 -9 6 -39 6
-67 0 -71 -24 -46 -27 28 -2 53 8 72 21 39z m150 -283 c31 -90 55 -166 53
-168 -4 -4 -127 328 -127 343 0 27 24 -31 74 -175z m-75 115 c13 -35 12 -42
-15 -119 -25 -73 -28 -96 -29 -204 0 -121 0 -123 -23 -123 -29 0 -38 25 -54
141 -10 73 -9 99 2 137 7 26 16 81 19 122 6 73 7 75 36 81 43 9 48 7 64 -35z
m46 -501 c39 -13 37 -13 -52 -14 -74 -1 -93 2 -93 13 0 27 59 27 145 1z"/>
<path d="M885 2189 c-33 -14 -66 -19 -97 -17 -47 3 -66 -9 -29 -19 22 -6 34
-50 20 -76 -13 -23 -3 -37 26 -37 36 0 36 -21 -1 -62 -39 -44 -59 -78 -45 -78
6 0 17 12 25 28 26 49 109 112 149 112 8 0 21 -21 30 -52 22 -73 24 -93 10
-90 -7 1 -13 -4 -13 -12 0 -8 6 -16 13 -19 6 -2 9 -8 5 -12 -11 -12 -28 4 -29
28 -1 18 -3 16 -10 -8 -8 -29 -8 -28 -6 8 2 20 -1 37 -5 37 -4 0 -8 -16 -8
-36 0 -21 -4 -33 -10 -29 -6 4 -8 11 -4 16 9 15 -6 80 -17 74 -5 -4 -10 -25
-11 -48 l-1 -42 -7 50 -7 50 -3 -45 -3 -45 -7 40 -7 40 -2 -45 c-1 -33 -4 -41
-11 -30 -8 13 -10 12 -10 -2 0 -10 -4 -18 -9 -18 -5 0 -5 15 -1 35 4 20 4 35
-1 35 -5 0 -9 -12 -9 -27 0 -22 -2 -25 -10 -13 -7 11 -10 5 -10 -23 0 -24 4
-36 10 -32 7 4 9 -3 5 -22 -5 -24 -4 -25 5 -8 30 55 100 69 100 20 0 -18 4
-23 15 -19 8 4 15 1 15 -6 0 -6 -4 -8 -10 -5 -6 4 -10 -6 -11 -22 0 -15 -3
-21 -6 -13 -2 8 -7 21 -9 29 -9 28 -13 3 -5 -27 5 -18 6 -32 1 -32 -5 0 -10 8
-13 18 -2 9 -2 -3 1 -28 5 -48 -12 -48 -21 0 -2 14 -3 6 -1 -17 2 -24 -1 -43
-6 -43 -6 0 -11 15 -11 33 l-2 32 -4 -30 c-6 -44 -53 -76 -53 -36 0 17 -18 31
-41 31 -5 0 -9 -12 -10 -27 0 -16 -3 -22 -6 -15 -2 6 -9 10 -14 6 -5 -3 -9 2
-9 10 0 9 -6 13 -14 10 -10 -4 -16 5 -21 25 -4 17 -10 29 -15 26 -13 -8 -21
44 -9 66 10 20 11 20 24 2 14 -17 14 -17 15 5 0 13 -6 22 -15 22 -21 0 -85 70
-85 94 0 27 -15 50 -28 43 -6 -4 -5 -21 2 -47 8 -33 8 -43 -3 -49 -17 -11 -7
-57 17 -84 12 -13 13 -20 4 -29 -19 -19 -14 -43 13 -70 21 -21 32 -58 70 -238
31 -151 41 -217 34 -226 -7 -9 -5 -20 7 -39 12 -18 15 -38 11 -70 -2 -25 -1
-48 4 -51 14 -8 11 -168 -3 -182 -21 -21 2 -27 110 -27 l107 0 1 65 c0 38 10
90 22 125 34 98 33 150 -4 194 -14 18 -36 37 -48 43 -20 11 -20 10 -3 -9 9
-11 14 -23 10 -26 -8 -9 27 -48 37 -42 4 3 11 -2 14 -11 11 -30 6 -74 -16
-124 -18 -42 -24 -48 -37 -37 -12 10 -14 9 -8 -5 22 -57 22 -54 2 -38 -10 8
-16 10 -12 4 3 -6 0 -34 -8 -62 -10 -40 -10 -52 -1 -52 7 0 17 5 23 11 8 8 13
8 18 0 8 -14 -6 -18 -80 -23 -103 -7 -141 9 -63 26 18 4 37 21 55 49 25 39 27
49 26 151 -1 103 -2 110 -27 135 -31 30 -35 15 -6 -22 17 -21 20 -40 20 -115
0 -50 -5 -103 -12 -119 -11 -27 -12 -25 -20 37 -5 35 -15 71 -22 80 -7 8 -16
44 -20 80 -3 36 -17 104 -30 152 -20 70 -22 89 -11 98 22 18 51 -20 64 -82 7
-32 17 -61 23 -64 8 -5 9 -1 4 11 -15 40 -26 109 -20 124 14 34 22 81 13 81
-5 0 -10 -15 -10 -32 l-2 -33 -7 35 -7 35 -3 -30 -3 -30 -6 35 -7 35 -8 -35
c-7 -30 -9 -32 -15 -15 -8 19 -8 19 -15 -3 -4 -13 -11 -21 -14 -17 -7 7 -61
218 -57 223 1 2 19 -5 40 -15 l37 -18 -5 -70 c-4 -46 -3 -65 3 -55 5 8 10 27
10 42 0 26 1 26 53 21 50 -5 54 -4 82 29 17 18 37 44 46 57 15 23 15 22 33
-49 12 -51 14 -76 7 -83 -6 -6 -11 -19 -11 -29 0 -10 -6 -27 -12 -38 -12 -18
-13 -17 -24 18 l-12 37 -1 -38 c-1 -25 -5 -36 -12 -31 -6 3 -9 19 -7 35 3 16
0 29 -5 29 -5 0 -7 -17 -4 -40 3 -22 1 -40 -4 -40 -5 0 -10 19 -11 43 -1 36
-2 38 -5 10 -3 -20 -10 -33 -19 -33 -8 0 -14 -4 -14 -10 0 -5 9 -10 20 -10 17
0 26 -11 18 -24 -2 -2 6 -13 16 -25 18 -20 11 -30 -10 -14 -5 5 -1 0 9 -9 29
-27 36 -22 30 22 -4 26 -2 40 6 40 7 0 11 -21 11 -57 0 -44 -3 -54 -12 -45 -7
7 -19 12 -27 12 -11 0 -6 -9 14 -25 17 -13 32 -24 35 -25 3 0 5 30 6 67 1 50
5 69 18 78 25 19 32 138 12 208 -9 30 -16 65 -16 76 0 14 -6 21 -20 21 -26 0
-26 27 0 60 23 31 32 23 21 -18 -5 -18 -6 -32 -1 -32 5 0 12 15 15 33 4 17 15
47 24 65 14 28 16 45 8 100 -4 36 -13 74 -18 83 -5 10 -9 26 -9 36 0 10 -9 24
-20 31 -19 11 -19 15 -6 33 8 12 28 30 45 40 39 23 41 56 5 69 -35 14 -51 12
-109 -11z m96 -22 c-1 -4 -3 -6 -5 -4 -2 1 -18 -14 -35 -33 -26 -30 -31 -32
-31 -14 0 11 -5 25 -11 31 -8 8 -4 15 17 26 26 14 66 10 65 -6z m-91 -37 c0
-5 -5 -10 -11 -10 -5 0 -7 5 -4 10 3 6 8 10 11 10 2 0 4 -4 4 -10z m-42 -12
c-3 -7 -11 -13 -18 -13 -7 0 -15 6 -17 13 -3 7 4 12 17 12 13 0 20 -5 18 -12z
m62 -53 c0 -8 -13 -21 -30 -30 -36 -19 -41 -3 -9 32 23 23 39 22 39 -2z m-13
-167 c-3 -8 -6 -5 -6 6 -1 11 2 17 5 13 3 -3 4 -12 1 -19z m-271 -112 c-10
-42 -45 -30 -60 21 -6 17 -2 22 16 25 33 6 52 -15 44 -46z m334 34 c0 -5 -4
-10 -10 -10 -5 0 -10 5 -10 10 0 6 5 10 10 10 6 0 10 -4 10 -10z m-362 -125
c0 -13 -4 -22 -9 -19 -5 3 -9 14 -9 25 0 10 4 19 9 19 5 0 9 -11 9 -25z m37
-14 c3 -5 1 -12 -5 -16 -5 -3 -10 1 -10 9 0 18 6 21 15 7z m272 -23 c-3 -8 -6
-5 -6 6 -1 11 2 17 5 13 3 -3 4 -12 1 -19z m-160 -30 c-3 -7 -5 -2 -5 12 0 14
2 19 5 13 2 -7 2 -19 0 -25z m143 12 c0 -10 -32 -30 -50 -30 -7 0 -2 9 11 20
27 21 39 25 39 10z m-196 -231 c35 -135 56 -236 56 -271 0 -41 5 -59 19 -72
14 -12 21 -38 26 -88 6 -63 5 -73 -11 -85 -10 -7 -25 -13 -33 -13 -14 0 -16
13 -13 80 2 44 0 86 -6 93 -5 6 -10 39 -10 72 -1 33 -21 159 -46 279 -26 121
-46 222 -46 225 0 21 16 -34 64 -220z m177 177 c-13 -13 -34 -27 -47 -30 -29
-8 -64 9 -64 30 0 11 12 14 50 13 28 -1 53 1 57 4 3 4 11 7 16 7 6 0 0 -11
-12 -24z m18 -690 c-9 -8 -10 -7 -5 7 3 10 7 26 7 35 1 9 4 6 6 -7 3 -13 -1
-28 -8 -35z"/>
<path d="M1762 2179 c-54 -27 -62 -43 -68 -132 l-5 -72 25 59 c56 133 53 190
43 -927 -1 -152 -2 -277 -2 -277 0 1 159 30 162 30 3 0 3 7 -1 15 -3 8 -6 284
-6 613 -1 353 -5 612 -11 634 -10 38 -50 78 -78 78 -9 0 -35 -10 -59 -21z m73
-19 c-3 -5 0 -7 9 -4 16 6 32 -29 20 -47 -4 -7 -3 -10 2 -6 6 3 10 -228 11
-591 0 -328 2 -603 4 -611 2 -8 -7 -17 -21 -22 -37 -10 -82 -10 -75 0 3 6 6
283 8 616 2 604 2 607 -19 624 -11 9 -19 22 -16 29 3 10 8 8 19 -5 8 -10 11
-12 7 -4 -3 7 0 17 7 22 19 12 52 11 44 -1z"/>
<path d="M2140 2181 c0 -9 -48 -25 -77 -26 -27 -1 -24 -15 3 -15 36 1 101 34
85 44 -6 4 -11 3 -11 -3z"/>
<path d="M745 1871 c-3 -6 -2 -28 1 -51 7 -41 7 -41 -21 -34 -20 5 -26 4 -21
-5 4 -6 14 -11 22 -11 8 0 14 -8 14 -17 0 -10 7 -27 15 -37 14 -19 15 -19 15
5 0 14 5 30 12 37 9 9 8 12 -5 12 -15 0 -16 7 -11 55 5 37 3 55 -4 55 -6 0
-13 -4 -17 -9z"/>
<path d="M2090 1496 c0 -9 7 -16 16 -16 17 0 14 22 -4 28 -7 2 -12 -3 -12 -12z"/>
<path d="M832 1460 c0 -19 2 -27 5 -17 2 9 2 25 0 35 -3 9 -5 1 -5 -18z"/>
<path d="M932 1470 c0 -14 2 -19 5 -12 2 6 2 18 0 25 -3 6 -5 1 -5 -13z"/>
<path d="M915 1163 c11 -18 23 -33 28 -33 11 0 -8 34 -29 51 -16 12 -16 10 1
-18z"/>
<path d="M904 1133 c9 -18 12 -33 6 -33 -6 0 -5 -10 3 -27 l12 -26 6 33 c6 27
3 38 -18 59 l-25 26 16 -32z"/>
<path d="M902 1045 c6 -14 13 -24 14 -22 6 6 -9 47 -17 47 -5 0 -3 -11 3 -25z"/>
<path d="M835 910 c-3 -5 1 -10 10 -10 9 0 13 5 10 10 -3 6 -8 10 -10 10 -2 0
-7 -4 -10 -10z"/>
<path d="M790 859 c0 -5 5 -7 10 -4 6 3 10 8 10 11 0 2 -4 4 -10 4 -5 0 -10
-5 -10 -11z"/>
<path d="M787 802 c-21 -4 -21 -11 0 -34 15 -16 15 -22 4 -40 -19 -30 -1 -38
97 -38 80 0 82 -1 82 -24 0 -14 4 -27 8 -30 4 -2 78 -21 164 -40 187 -43 329
-60 418 -51 106 10 424 67 438 78 6 5 12 20 12 33 0 23 2 24 79 24 44 0 87 3
96 6 14 6 14 9 0 30 -14 22 -14 27 0 46 8 13 15 26 15 31 0 4 -62 6 -137 5
l-138 -3 -5 -40 -5 -40 -105 -18 c-58 -9 -171 -20 -251 -23 -151 -7 -257 4
-416 44 -65 16 -68 18 -71 49 -3 31 -4 32 -65 38 -59 5 -183 4 -220 -3z m243
-24 c-48 -20 -55 -25 -58 -47 -3 -20 -9 -21 -88 -21 -83 0 -95 5 -72 28 9 9 7
16 -7 32 -18 20 -18 20 116 19 102 0 128 -3 109 -11z m1137 -16 c-15 -16 -15
-20 -1 -40 l15 -22 -85 0 c-79 0 -86 2 -86 20 0 13 -13 26 -37 37 l-38 18 120
5 c66 3 122 4 124 3 2 -2 -3 -11 -12 -21z m-1070 -47 l31 -7 -19 -32 c-10 -17
-19 -34 -19 -37 0 -4 19 -9 42 -12 43 -6 58 2 58 32 0 11 -4 9 -16 -5 -15 -19
-15 -18 -11 4 3 12 1 22 -4 22 -5 0 -9 -9 -9 -20 0 -13 -7 -20 -20 -20 -25 0
-25 11 -2 40 18 22 21 22 73 11 30 -7 59 -14 66 -16 8 -3 9 -15 3 -39 -4 -21
-4 -36 1 -36 5 0 9 7 9 15 0 8 5 15 10 15 6 0 10 -6 10 -14 0 -23 33 -29 47
-10 12 17 13 17 13 -2 1 -19 1 -19 15 0 8 11 15 14 15 7 0 -7 5 -9 10 -6 6 3
10 -1 10 -9 0 -9 5 -16 10 -16 14 0 12 40 -2 45 -29 11 -84 12 -95 3 -10 -8
-13 -6 -13 7 0 12 -5 15 -17 11 -16 -6 -16 -5 -3 8 13 13 31 13 130 4 85 -8
141 -7 215 2 117 13 313 46 338 56 14 5 17 0 17 -38 l0 -45 -77 -16 c-232 -48
-258 -52 -423 -51 -155 1 -175 4 -335 41 l-170 39 -3 33 c-6 63 -6 63 115 36z"/>
<path d="M1843 656 c-25 -31 -37 -34 -28 -6 4 11 2 20 -4 20 -6 0 -11 -13 -11
-30 0 -28 2 -29 33 -23 42 8 49 15 39 43 l-8 23 -21 -27z"/>
<path d="M1209 667 c-8 -20 -2 -46 10 -50 20 -5 23 40 4 48 -7 2 -13 3 -14 2z"/>
<path d="M1718 644 c-4 -4 -2 -16 4 -27 10 -20 11 -20 24 -2 18 24 18 41 0 26
-10 -9 -15 -9 -18 -1 -2 6 -7 8 -10 4z"/>
<path d="M1772 630 c0 -14 2 -19 5 -12 2 6 2 18 0 25 -3 6 -5 1 -5 -13z"/>
<path d="M1618 632 c-11 -2 -18 -12 -18 -25 1 -22 1 -22 15 -3 15 20 15 20 15
0 1 -19 1 -19 15 0 13 17 15 18 15 3 0 -9 5 -17 10 -17 12 0 13 20 2 35 -8 11
-27 13 -54 7z"/>
<path d="M1440 605 c0 -14 5 -25 10 -25 6 0 10 11 10 25 0 14 -4 25 -10 25 -5
0 -10 -11 -10 -25z"/>
<path d="M1481 603 c1 -17 3 -21 6 -10 2 9 8 17 13 17 5 0 11 -8 13 -17 3 -11
5 -7 6 10 1 21 -4 27 -19 27 -15 0 -20 -6 -19 -27z"/>
<path d="M1541 608 c-1 -23 3 -28 23 -28 20 0 22 4 18 28 -4 19 -7 22 -10 10
-2 -10 -7 -18 -12 -18 -5 0 -11 8 -13 18 -3 10 -5 6 -6 -10z"/>
<path d="M2144 345 c-7 -18 3 -35 21 -35 21 0 28 19 15 35 -16 19 -29 19 -36
0z"/>
<path d="M820 321 c0 -27 19 -36 37 -18 18 18 9 37 -18 37 -12 0 -19 -7 -19
-19z"/>
<path d="M1974 265 c-4 -9 -2 -21 3 -26 14 -14 45 1 41 20 -4 22 -37 26 -44 6z"/>
<path d="M986 254 c-4 -10 -2 -22 3 -27 14 -14 43 0 39 20 -4 24 -34 28 -42 7z"/>
<path d="M2192 187 c-46 -49 -14 -121 53 -121 44 0 75 30 75 73 0 64 -84 95
-128 48z m86 -3 c41 -28 18 -104 -31 -104 -49 0 -75 64 -40 102 20 22 42 23
71 2z"/>
<path d="M2219 173 c-6 -57 -6 -73 2 -73 5 0 9 7 9 15 0 8 5 15 10 15 6 0 10
-7 10 -15 0 -8 5 -15 11 -15 6 0 8 7 5 16 -4 9 -1 23 5 30 6 7 8 18 4 24 -7
11 -55 14 -56 3z m36 -13 c3 -5 -1 -10 -9 -10 -9 0 -16 5 -16 10 0 6 4 10 9
10 6 0 13 -4 16 -10z"/>
</g>
</svg>
