<svg xmlns="http://www.w3.org/2000/svg" height="249.98" width="250" viewBox="0 0 249.99948 249.98376"><g transform="matrix(1.0585 0 0 1.0585 -.46182 -.11209)"><path stroke-linejoin="round" d="m1.7425 118.27c0 64.46 52.245 116.7 116.68 116.7 64.465 0 116.7-52.24 116.7-116.7-0.005-64.43-52.245-116.67-116.71-116.67-64.43-0.002-116.68 52.24-116.68 116.67z" stroke="#b3a369" stroke-miterlimit="3.864" stroke-width=".90745" fill="#fff"/><path d="m213.55 118.42c0 52.48-42.542 95.02-95.02 95.02s-95.02-42.542-95.02-95.02c0-52.475 42.54-95.02 95.02-95.02 52.475 0 95.02 42.542 95.02 95.02" fill="#003057"/><path d="m112.62 6.9766-1.7344 0.12891 0.87304 12.443 1.7441-0.11523-0.88281-12.455v-0.00195zm9.3652 0.00195-0.66211 12.463 1.7441 0.07617 0.34375-6.5254 1.707 6.6484 1.748 0.08594 0.65235-12.457-1.7539-0.083984-0.375 7.3379-1.9043-7.4688-1.5-0.076172zm16.322 1.5703c-1.2479 0.027716-2.1579 0.87374-2.3867 2.2949-0.17913 1.0886 0.0249 1.9882 0.84375 3.748l0.64258 1.3984c0.6673 1.2579 0.80182 1.7612 0.66797 2.584-0.11417 0.7874-0.44521 1.1824-0.95703 1.0938-0.685-0.1063-0.82384-0.54841-0.61719-1.8535l0.0703-0.50195-1.7129-0.19727c-0.0551 0.29133-0.0838 0.40617-0.11328 0.66602-0.17323 1.065-0.12756 1.6026 0.20117 2.2246 0.36219 0.7224 0.97511 1.1159 1.9102 1.2754 1.5925 0.24409 2.6524-0.54592 2.9043-2.1719 0.17125-1.0512-0.0891-2.3845-0.68555-3.6738l-0.68164-1.4004c-0.87005-1.8956-0.91693-2.0605-0.80078-2.8262 0.12401-0.74015 0.44172-1.1041 0.90625-1.0332 0.39566 0.05905 0.61726 0.38077 0.60351 0.89453-0.004 0.26574-0.0247 0.48324-0.125 1.127l1.7109 0.07813c0.15748-1.0039 0.16808-1.0666 0.15234-1.541-0.0669-1.1654-0.81321-1.9595-1.9785-2.1465-0.19009-0.030296-0.37338-0.042515-0.55078-0.039063h-0.004zm12.617 3.0234-0.56445 1.5352 1.5371 0.54102-3.7207 10.207 1.6387 0.58789 3.707-10.199 1.5996 0.5918 0.56446-1.5312-4.7617-1.7324zm-53.225 2.0742c-0.7106 0-1.2949 0.58814-1.2949 1.3047 0 0.7362 0.58432 1.2969 1.2949 1.2969 0.72045 0 1.3047-0.56067 1.3047-1.2969 0-0.7165-0.58424-1.3047-1.3047-1.3047zm-17.635 0.08789-2.1133 0.77344 2.6582 12.299 1.5879-0.57227-0.66992-2.7422 1.4609-0.53516 1.2656 2.5332 1.6055-0.58594-5.7949-11.17zm-0.33789 2.5352 2.5391 5.2227-1.125 0.41016-1.4141-5.6328zm83.82 0.13477-5.4668 11.205 1.5703 0.75586 5.4766-11.195-1.5801-0.76562zm-95.221 2.3828-1.5527 0.76562 5.4629 11.199 1.5605-0.75976-5.4688-11.203-0.002-0.002zm104.12 2.0156-0.83399 1.3867 1.4043 0.83594-5.5879 9.2988 1.4824 0.89844 5.5859-9.3008 1.4648 0.88672 0.82813-1.4004-4.3438-2.6055zm-114.19 3.918c-0.41824 0.0043-0.85368 0.14011-1.3027 0.41016-1.3937 0.8307-1.5841 2.1274-0.55664 3.8301l3.3965 5.6504c0.5728 0.95865 0.90421 1.357 1.4121 1.6582 0.63385 0.38779 1.464 0.40714 2.0801 0.04297 0.52165-0.31692 0.79645-0.87426 0.8457-1.7246l0.67578 0.5918 0.80469-0.47852-3.2773-5.4336-2.1426 1.2969 0.75781 1.252 0.66016-0.38672 0.92578 1.541c0.35433 0.5866 0.41548 0.68572 0.48438 0.91602 0.12795 0.34842 0.0062 0.71742-0.29883 0.88672-0.24409 0.15354-0.59187 0.10551-0.82812-0.15039-0.1752-0.19291-0.18617-0.19964-0.60742-0.90039l-3.4062-5.6621c-0.5551-0.9311-0.57413-1.2536-0.08594-1.541 0.5236-0.30708 0.85568-0.08359 1.584 1.123 0.14172 0.23228 0.23893 0.38784 0.40625 0.74414l1.4824-0.90625c-0.219-0.438-0.343-0.632-0.475-0.868-0.77-1.27-1.615-1.902-2.535-1.892zm59.707 2.5234c-0.39517-0.0074-0.73913 0.06673-1.0078 0.27539-0.5374 0.41731-1.133 2.9231-1.6094 3.5195-0.47834 0.59645-2.6865 2.2095-3.8203 4.8945l-1.4316 0.23828s-0.23952-2.5062-0.83593-4.7148c-0.59646-2.2067-1.4316-3.1621-1.4316-3.1621s-0.41753-0.23818-1.7285 0c-1.313 0.23818-1.4941 0.65625-1.4941 0.65625s-0.41638 1.3138-0.11914 3.4023c0.29921 2.0886 0.89648 4.4141 0.89648 4.4141s-1.193 0.12073-2.7461 0.41797c-1.5512 0.2992-2.6855 0.6582-2.6855 0.6582s-0.35871-2.2693-1.1934-4.2988c-0.8366-2.0275-1.7285-3.1016-1.7285-3.1016s-0.59816-0.17857-1.791 0.17969c-1.1949 0.35826-1.4922 0.65625-1.4922 0.65625s-0.23902 1.5521 0.35742 3.6387c0.5984 2.0905 1.3125 4.1172 1.3125 4.1172s-1.0143 0.23802-2.6836 0.77539c-1.6712 0.5374-2.4473 0.95508-2.4473 0.95508s-0.71476-1.9095-1.7285-3.998c-1.0157-2.0886-2.1504-3.043-2.1504-3.043s-0.47653-0.23856-1.7305 0.29883c-1.252 0.5374-1.3711 1.0137-1.3711 1.0137s0.05935 1.9098 0.7168 3.4609c0.6555 1.5512 1.9082 3.9395 1.9082 3.9395s-1.0148 0.41627-2.625 1.1328c-1.6122 0.7165-2.3262 1.1934-2.3262 1.1934s-0.71825-1.7884-2.0312-3.6387c-1.313-1.8504-2.625-2.8066-2.625-2.8066s-0.89346 0.0017-1.7891 0.53906c-0.8937 0.5374-1.1348 1.1328-1.1348 1.1328s0.05906 1.3719 1.2539 3.5195c1.1929 2.1496 2.1484 3.4023 2.1484 3.4023s-0.89657 0.53749-2.3887 1.4922c-1.4901 0.9547-2.1465 1.4922-2.1465 1.4922s-1.1339-1.7316-2.5059-3.3418c-1.372-1.6122-2.8652-2.4453-2.8652-2.4453s-0.71667-0.06118-1.7305 0.77539c-1.0138 0.83465-1.0137 1.252-1.0137 1.252s0.18026 1.3128 1.6113 3.2832c1.4331 1.9685 2.625 3.2207 2.625 3.2207s-0.77494 0.53658-2.0879 1.6113c-1.313 1.0728-2.1484 1.8496-2.1484 1.8496s-1.3118-1.5519-3.1621-3.1621c-1.8504-1.6102-2.8652-1.8516-2.8652-1.8516s-0.59608-0.05823-1.5508 0.89648c-0.9547 0.95471-0.83398 1.4316-0.83398 1.4316s0.11749 0.95396 2.0859 3.1035c1.9704 2.1476 2.8652 2.8027 2.8652 2.8027s-0.89504 0.83789-2.0879 2.0898c-1.1929 1.2539-1.6113 1.8496-1.6113 1.8496s-1.2518-1.194-3.2812-2.627c-2.0275-1.4311-3.3418-1.7285-3.3418-1.7285s-0.53645 0.06044-1.373 1.0742c-0.8346 1.0138-0.77539 1.5508-0.77539 1.5508s0.24008 0.95479 2.2676 2.7441c2.0295 1.7913 3.4004 2.5664 3.4004 2.5664s-0.59471 0.59728-1.7285 2.1484c-1.1339 1.5512-1.4922 2.207-1.4922 2.207s-1.3144-1.0141-3.582-2.207c-2.262-1.191-3.453-1.252-3.453-1.252s-0.53586 0.12054-1.1934 1.1953c-0.6555 1.0728-0.65625 1.668-0.65625 1.668s0.77336 1.3135 3.041 2.6875c2.2677 1.372 3.1641 1.8477 3.1641 1.8477s-0.41836 0.65887-1.373 2.3281c-0.9547 1.6712-1.3125 2.3867-1.3125 2.3867s-1.2524-0.89582-3.7012-1.7305c-2.4448-0.8366-3.5781-0.83594-3.5781-0.83594s-0.53682 0.11904-1.0742 1.1328c-0.6122 1.1575-0.53516 1.8516-0.53516 1.8516s0.77353 1.1934 3.5195 2.4473c2.7441 1.252 3.2812 1.3711 3.2812 1.3711s-0.23811 0.41724-1.0137 2.2676c-0.77557 1.8503-1.0742 2.8047-1.0742 2.8047s-1.0764-0.6565-4.0586-1.373c-2.9842-0.71455-3.5801-0.35938-3.5801-0.35938s-0.41665 0.06103-0.83398 1.2539c-0.41731 1.1929-0.29883 1.9102-0.29883 1.9102s0.47676 0.95546 3.459 1.9102c2.9842 0.9547 3.7598 1.0742 3.7598 1.0742s-0.23653 0.59546-0.71484 2.3848c-0.47636 1.7913-0.7168 2.8652-0.7168 2.8652s-1.3721-0.4777-3.9961-0.83594c-2.6259-0.35826-3.8809 0.12109-3.8809 0.12109s-0.53329 0.41708-0.77539 1.7891c-0.17913 1.0137 0.17969 1.4316 0.17969 1.4316s0.41633 0.83668 3.6387 1.4922c3.2224 0.65745 3.8789 0.65625 3.8789 0.65625s-0.29699 1.133-0.53516 2.8652c-0.23818 1.7303-0.29883 2.4453-0.29883 2.4453s-1.1339-0.29883-3.998-0.29883-3.8789 0.41797-3.8789 0.41797-0.47804-0.0583-0.53711 1.9102c0 0-0.0585 1.254 0.17969 1.4922 0.23818 0.23818 0.65609 0.77547 3.9355 1.0137 3.2834 0.23818 3.9395 0.11914 3.9395 0.11914s-0.17969 1.4917-0.17969 3.8184v3.8789s-1.9677-0.11848-4.3555 0.29883c-2.3858 0.41731-3.5195 1.0723-3.5195 1.0723s-0.35836 0.47946-0.23828 1.6133 0.53516 1.7891 0.53516 1.7891 0.89574 0.59561 4 0.35742c3.1023-0.23819 3.8789-0.5371 3.8789-0.5371s0.05868 0.65799 0.29883 2.6855c0.23818 2.0295 0.35547 2.8047 0.35547 2.8047s-1.6698 0.11794-3.9375 0.77539c-2.2677 0.6555-3.6406 1.6094-3.6406 1.6094s-0.29724 0.71771 0 1.8516c0.2992 1.1338 0.7168 1.4922 0.7168 1.4922s0.8952 0.41676 3.8184-0.17968c2.9251-0.59645 3.8789-1.0137 3.8789-1.0137s0.23894 0.89325 0.65625 2.5644 0.7168 2.7461 0.7168 2.7461-1.5522 0.41836-3.8789 1.373c-2.3287 0.9547-3.4004 2.0273-3.4004 2.0273s-0.05941 0.59517 0.29688 1.6699c0.35826 1.0748 0.83594 1.4316 0.83594 1.4316s1.0139 0.35946 3.9961-0.6543c2.9842-1.0138 3.582-1.3144 3.582-1.3144s0.29808 0.95516 0.89453 2.4473 1.0137 2.5664 1.0137 2.5664-1.7303 0.65526-3.7578 1.7891c-2.0295 1.1338-3.043 2.3867-3.043 2.3867s-0.0584 0.65812 0.41797 1.6719c0.47834 1.0138 1.0742 1.3711 1.0742 1.3711s0.77361 0.41981 3.7578-1.0723 3.5801-1.9707 3.5801-1.9707 0.18004 0.59736 1.1348 2.3867c0.95472 1.7894 1.4336 2.5059 1.4336 2.5059s-1.9102 1.1347-3.4043 2.1484c-1.4901 1.0138-2.8027 2.8633-2.8027 2.8633s-0.12082 0.47991 0.5957 1.5527c0.7165 1.0748 1.3125 1.3125 1.3125 1.3125s1.2529-0.11878 3.6406-1.6699c2.3858-1.5531 3.2227-2.1484 3.2227-2.1484s0.59654 1.0132 1.4922 2.3262c0.8937 1.313 1.5508 2.1484 1.5508 2.1484s-1.0755 0.53882-2.9258 2.3281c-1.8484 1.7893-2.623 3.2226-2.623 3.2226s-0.12128 0.47501 0.6543 1.4297c0.77555 0.9547 1.4922 1.3144 1.4922 1.3144s1.3139-0.23857 3.6406-2.209c2.3267-1.9685 2.6855-2.3867 2.6855-2.3867s0.35743 0.29942 1.6113 1.7305c1.252 1.433 2.0859 2.2676 2.0859 2.2676s-2.0854 2.0303-3.1602 3.4023-1.6133 2.7441-1.6133 2.7441 0.06186 0.71659 0.89648 1.4922c0.8366 0.77555 1.5508 0.95312 1.5508 0.95312s1.4329-0.5374 3.2812-2.5059c1.8504-1.9704 2.3887-2.8633 2.3887-2.8633s0.47621 0.47612 2.0273 1.7891c1.5531 1.313 2.1484 1.791 2.1484 1.791s-1.371 1.4909-2.3867 3.1621c-1.0138 1.6712-1.6719 3.6387-1.6719 3.6387s-0.000583 0.47834 1.0742 1.2539 1.5527 0.77539 1.5527 0.77539 1.167-0.37668 3.043-2.9238c1.6712-2.2657 2.1484-2.9238 2.1484-2.9238s0.53674 0.35931 2.0879 1.373c1.5512 1.0157 2.3867 1.5508 2.3867 1.5508s-0.90911 1.3949-1.791 3.1035c-1.0138 1.9684-1.3691 4.1172-1.3691 4.1172s-0.000992 0.35819 1.1309 1.0156c1.1339 0.6555 1.791 0.6543 1.791 0.65429 0 0 1.1934-0.71688 2.6855-3.4609 1.4901-2.7441 1.6719-3.1016 1.6719-3.1016s0.47629 0.41732 2.2676 1.252c1.7893 0.8366 2.5469 1.252 2.5469 1.252s-1.3385 2.5371-1.7617 4.2988c-0.42322 1.7638-0.49414 3.1738-0.49414 3.1738s0.07103 0.56205 1.4805 1.127c1.4094 0.56495 1.6914 0.21094 1.6914 0.21094s1.2682-1.127 2.1855-3.3809c0.91535-2.2558 1.2676-3.668 1.2676-3.668s0.98596 0.49559 2.5371 1.0586c1.5512 0.563 2.5391 0.77539 2.5391 0.77539s-0.63539 1.8337-1.0586 3.877c-0.44881 2.1672-0.35156 3.875-0.35156 3.875s0.63382 0.63451 1.7617 0.91797c1.1279 0.28149 1.6914 0 1.6914 0s0.98666-1.0569 1.6914-3.5254c0.7047-2.4685 0.84766-3.8047 0.84766-3.8047s1.0498 0.38172 2.6797 0.77344c1.7618 0.42518 2.5371 0.42382 2.5371 0.42382s-0.44382 2.2668-0.63672 3.877c-0.27165 2.2834 0.20508 3.8945 0.20508 3.8945s0.53204 0.63169 1.4336 0.77539c1.4901 0.23819 1.9688-0.11914 1.9688-0.11914s1.132-1.2548 1.4902-5.6699c0.35826-4.4152-0.2986-5.6073-0.83399-6.3828-0.5374-0.77555-7.9547-7.6771-14.74-15.037-7.7555-8.413-10.918-14.977-10.918-14.977l18.379-1.8496s-0.04077 2.1387-1.0742 4.8945c-2.1476 5.728-3.9188 6.6288-4.0566 7.6953-0.1811 1.372 0.41603 2.089 1.668 2.4473 1.2539 0.35826 3.471-0.50187 5.4316-1.0156 5.25-1.372 9.6641-1.8496 9.6641-1.8496l7.3418 6.0273 7.9961-6.3262s3.8173 0.89557 6.9785 1.0156c3.1633 0.11811 5.8637 0.18783 6.3262-1.6113 0.47833-1.8484-0.99294-4.3024-2.1484-6.8613-1.1555-2.557-2.207-4.8926-2.207-4.8926s3.34 0.83527 10.561 1.6699c7.2205 0.8366 10.621 0.95508 10.621 0.95508s-4.7122 8.5318-11.574 14.736c-2.1338 1.931-5.1962 5.3763-8.1172 8.2363-2.9192 2.8602-5.6066 5.43-6.6816 6.623-1.2933 1.439-1.0146 5.1909-0.89453 6.5039 0.24606 2.7184 0.77518 4.8941 1.5508 5.7285 0 0 0.12075 0.35781 1.6719 0.0605 1.5512-0.29921 1.7285-0.59765 1.7285-0.59765s0.41834-2.0283 0.11914-4.4141c-0.29724-2.3878-0.5957-3.5215-0.5957-3.5215s0.59705-0.0588 2.6856-0.53711c2.0886-0.47637 2.625-0.71484 2.625-0.71484s0.23757 2.0856 0.83398 3.877c0.5984 1.7893 1.6719 3.5195 1.6719 3.5195s0.17884 0.47884 1.791-0.0586c1.6102-0.5374 1.5508-0.89649 1.5508-0.89649s0.29762-1.5508-0.29883-4.0566c-0.59644-2.5058-1.0137-3.6973-1.0137-3.6973s0.65655-0.12136 2.627-0.8379c1.9684-0.71455 2.4434-0.95507 2.4434-0.95507s0.77511 2.2706 1.3145 3.6406c0.77555 1.9704 2.0879 3.4004 2.0879 3.4004s0.17884 0.41769 1.791-0.29883c1.6102-0.71455 1.4316-1.0723 1.4316-1.0723s0.0577-1.7304-0.83593-3.998c-0.89565-2.2676-1.4316-3.5215-1.4316-3.5215s0.47729-0.17812 2.3867-1.1328c1.9094-0.95469 2.5059-1.373 2.5058-1.373 0 0 0.91403 1.985 1.6719 3.4023 0.9547 1.7913 2.5059 3.1621 2.5059 3.1621s0.35893 0.29706 1.6699-0.47851c1.313-0.77556 1.3711-1.1934 1.3711-1.1934s-0.11721-1.8495-1.3711-4.1152c-1.252-2.2676-1.791-3.1035-1.791-3.1035s0.59637-0.4174 2.2676-1.4922c1.6712-1.0728 2.207-1.6113 2.207-1.6113s1.2075 1.9152 2.1484 3.2812c1.1948 1.7303 2.8047 2.8066 2.8047 2.8066s0.47851 0.2364 1.7305-0.77734c1.2539-1.0138 1.1348-1.3711 1.1348-1.3711s-0.2393-1.3138-1.6113-3.4023c-1.372-2.0886-2.4473-3.1621-2.4473-3.1621s0.29853-0.23794 2.0898-1.7891c1.7893-1.5512 2.0274-1.9102 2.0274-1.9102s1.0192 1.4883 2.5664 2.9844c1.8504 1.7894 3.1016 2.3867 3.1016 2.3867s0.41844 0.11871 1.6133-1.0762c1.1929-1.1929 0.95508-1.4297 0.95508-1.4297s-0.41861-1.1932-2.0898-3.2227-2.7441-2.8652-2.7441-2.8652 0.53674-0.4162 2.0879-2.1465c1.5512-1.7302 1.6113-1.9102 1.6113-1.9102s0.98583 1.1668 2.8027 2.5644c2.3287 1.7894 3.4609 2.0293 3.4609 2.0293s0.30021 0.23878 1.375-1.0742 0.77539-1.4922 0.77539-1.4922-0.2992-1.2508-2.5059-3.1602c-1.9488-1.685-3.0449-2.4473-3.0449-2.4473s0.65671-0.77556 1.8496-2.5059c1.1948-1.7302 1.373-2.0293 1.373-2.0293s1.5254 1.1569 3.2812 2.3262c2.1476 1.433 3.5195 1.4336 3.5195 1.4336s0.41777 0.0591 1.1953-1.2539c0.7736-1.311 0.71485-1.6113 0.71485-1.6113s-1.1921-1.4907-2.8633-2.6836c-1.6692-1.1929-3.4609-2.1484-3.4609-2.1484s0.77518-1.254 1.5508-2.7461c0.77555-1.4921 1.0742-2.207 1.0742-2.207s1.2544 0.95104 3.6992 1.9688c2.8641 1.1929 3.6406 1.0137 3.6406 1.0137s0.22973 0.11555 1.0742-1.4316c0.7165-1.313 0.35742-1.6113 0.35742-1.6113s-0.955-1.2524-3.2226-2.4473c-2.2677-1.1929-3.5801-1.668-3.5801-1.668s0.47925-1.135 1.1348-2.8652c0.65552-1.7302 0.83594-2.2676 0.83594-2.2676s1.562 0.80124 3.8789 1.4922c2.805 0.8346 3.6973 0.53516 3.6973 0.53516s0.42013 0.0009 0.89649-1.3711c0.47834-1.372 0.23828-1.7305 0.23828-1.7305s-0.53816-0.95454-3.1641-2.0273c-2.624-1.0748-4.1738-1.3125-4.1738-1.3125s0.47575-1.3736 0.83398-2.8066c0.35826-1.431 0.53711-2.5059 0.53711-2.5059s1.5669 0.50823 3.7578 0.95508c2.9251 0.59645 4 0.12109 4 0.12109s0.41762-0.0626 0.71485-1.5527c0.29921-1.4921 0.0586-1.6699 0.0586-1.6699s-0.59638-0.83774-3.5195-1.6133c-2.9232-0.7756-4.2363-0.77539-4.2363-0.77539s0.23838-1.3713 0.47656-3.1016c0.24016-1.7302 0.29883-2.5059 0.29883-2.5059s1.1341 0.47562 4.2363 0.5957c3.1023 0.12007 3.6406-0.35742 3.6406-0.35742s0.47803-0.29897 0.5371-1.7891c0.061-1.4921-0.23828-1.6133-0.23828-1.6133s-1.1339-0.71546-3.998-1.1328c-2.8641-0.41732-3.8184-0.23829-3.8184-0.23829s0.0591-1.4932 0-4.1191c-0.061-2.624-0.17969-3.5781-0.17969-3.5781s0.35781 0.29817 3.8184-0.11914c3.4606-0.41732 3.9375-1.0137 3.9375-1.0137s0.41936-0.41808 0.24023-1.9102c-0.17912-1.4921-0.47851-1.4922-0.47851-1.4922s-1.2521-0.53757-3.9961-0.47851c-2.746 0.061-3.9394 0.41992-3.9394 0.41992s-0.0602-1.1345-0.35742-2.9258c-0.2992-1.7893-0.47656-2.5059-0.47656-2.5059s1.7901-0.0588 4.416-0.77539c2.624-0.71455 3.1602-1.3125 3.1602-1.3125s0.3307-0.45547 0-1.9102c-0.29724-1.311-0.77539-1.3105-0.77539-1.3105s-0.95471-0.59895-3.7598-0.18164c-2.8031 0.41928-3.9961 0.95508-3.9961 0.95508s-0.299-1.611-0.77735-3.1621c-0.47637-1.5512-0.65625-2.1465-0.65625-2.1465s0.9922 0.0074 3.998-1.1934c3.2814-1.313 3.2227-1.9707 3.2227-1.9707s0.11849-0.59517-0.29883-1.6699c-0.41731-1.0728-0.89648-1.373-0.89648-1.373s-1.7279-0.05888-3.8184 0.47852c-2.0866 0.5354-3.8184 1.3125-3.8184 1.3125s-0.47733-1.2531-1.1328-2.8633c-0.65745-1.6122-0.89453-2.2676-0.89453-2.2676s1.7899-0.47901 3.9375-1.6719c2.1496-1.1929 2.8047-2.0293 2.8047-2.0293s0.0578-0.89354-0.59766-2.0273c-0.65745-1.1339-0.95312-1.0742-0.95312-1.0742s-1.4935-0.000663-3.582 0.83594c-2.0886 0.8346-3.6973 1.7891-3.6973 1.7891s-0.53799-1.0744-1.4316-2.5664c-0.89565-1.4901-1.3125-2.1484-1.3125-2.1484s1.788-0.77456 3.9356-2.3848c2.1496-1.6122 2.3887-2.2676 2.3887-2.2676s0.0593-0.47901-0.77734-1.6719c-0.8346-1.1929-1.1934-1.0742-1.1934-1.0742s-1.3729 0.06148-3.4004 1.1953c-2.0295 1.1339-3.5215 2.3262-3.5215 2.3262s-0.59517-1.0748-1.6699-2.5059c-1.0728-1.4331-1.5508-1.9707-1.5508-1.9707s2.0294-1.2525 3.5215-2.6855c1.4901-1.4311 2.1465-2.5645 2.1465-2.5645s-0.0599-0.71567-0.89453-1.6094c-0.8346-0.89565-1.3145-0.95508-1.3145-0.95508s-1.3119 0.29745-3.3984 1.7285c-2.0905 1.4331-3.1641 2.5664-3.1641 2.5664s-0.59674-0.71734-1.9688-2.1484c-1.374-1.4331-1.7324-1.791-1.7324-1.791s2.5082-2.2656 3.4629-3.5195 1.4316-2.3867 1.4316-2.3867 0.23827-0.53503-1.0137-1.5508c-1.2185-0.98425-1.4922-0.89453-1.4922-0.89453s-1.2517 0.47576-3.043 2.0859c-1.7893 1.6122-2.8652 3.0449-2.8652 3.0449s-0.41619-0.47759-2.1465-1.8496-2.0898-1.6113-2.0898-1.6113 1.1354-1.1348 2.8066-3.6406c1.6712-2.5059 1.4297-3.043 1.4297-3.043s-0.0586-0.41822-1.0723-1.1348c-1.0157-0.71455-1.6719-0.71289-1.6719-0.71289s-1.0749 0.29716-2.7441 2.2656c-1.6712 1.9704-2.625 3.5215-2.625 3.5215s-0.71592-0.71717-2.3281-1.6719c-1.6102-0.9547-2.1484-1.252-2.1484-1.252s1.1923-1.6122 2.3281-3.998c1.1318-2.3878 1.0137-3.043 1.0137-3.043s0-0.35768-1.2539-1.0742c-1.2539-0.7165-1.7285-0.47656-1.7285-0.47656s-1.0753 0.53649-2.4473 2.623c-1.372 2.0886-2.1484 3.7012-2.1484 3.7012s-0.7747-0.41732-2.625-1.2539c-1.8504-0.8346-2.2656-0.95508-2.2656-0.95508s1.1932-2.327 1.9688-4.4746c0.7756-2.1496 0.59571-2.9844 0.59571-2.9844s-0.24024-0.53732-1.4922-1.0137c-1.2539-0.47834-1.7305-0.23828-1.7305-0.23828s-1.0131 0.83528-2.0879 2.9238c-1.0728 2.0886-1.6719 3.998-1.6719 3.998s-0.65604-0.29958-2.6855-0.95508c-2.0295-0.65745-2.3848-0.7168-2.3848-0.7168s0.89474-2.4452 1.3711-4.7129c0.47834-2.2677 0.17968-2.9824 0.17968-2.9824s-0.11962-0.35856-1.3125-0.7168c-1.1929-0.35826-1.9102-0.12109-1.9102-0.12109s-0.96622 0.57252-1.791 3.043c-0.8346 2.5078-1.1934 4.2363-1.1934 4.2363l-2.6836-0.53516c-2.0886-0.41928-2.6856-0.47852-2.6856-0.47852s0.65633-1.7306 0.89453-4.4746c0.23819-2.746-0.11914-3.4004-0.11914-3.4004s-0.53757-0.41656-1.7305-0.5957c-1.1929-0.17913-1.6719 0.17773-1.6719 0.17773s-0.89279 1.0741-1.3711 3.3418c-0.47637 2.2677-0.65625 4.4141-0.65625 4.4141l-4.6543-0.53516s-0.0597-3.5801-0.41797-5.3105c-0.35629-1.7303-1.4926-2.6856-2.4473-2.9238-0.47735-0.12008-0.92319-0.20942-1.3184-0.2168zm65.834 0.87695 0.008 0.0059 0.006-0.0059h-0.0137zm0.008 0.0059-5.5957 7.4336c-0.88974 1.1732-1.0504 1.4618-1.0996 2.1074-0.0433 0.7362 0.35393 1.5233 1.0508 2.0449 0.7106 0.54525 1.5649 0.70117 2.2656 0.44922 0.59056-0.22834 0.82902-0.44976 1.7227-1.6328l5.6152-7.4375-1.3984-1.043-6.0312 8.0078c-0.43109 0.5669-0.77025 0.69008-1.1836 0.36133-0.41534-0.30905-0.41539-0.67329 0.0176-1.2441l6.0137-7.9961-1.377-1.0508zm-137.39 5.9688v0.002c-0.6413-0.01236-1.2466 0.32149-2.1133 1.1113l-1.2637 1.125 8.3516 9.2695 1.2891-1.168-3.543-3.9297c0.1811-0.17913 0.22308-0.2207 0.41992-0.47266l4.3301 3.3145 1.3926-1.2461-4.8945-3.6133c-0.0725-1.181-0.32214-1.6901-1.3691-2.8496-0.7045-0.787-1.28-1.19-1.9355-1.418-0.233-0.0775-0.45056-0.1205-0.66406-0.125zm-0.11133 1.7148c0.3644-0.05771 0.71975 0.1727 1.2168 0.72266 0.7736 0.8681 0.91888 1.0544 1.0527 1.3398 0.15748 0.37794 0.04275 0.73891-0.43164 1.1602l-0.17969 0.16797-2.5449-2.8184 0.1875-0.16602c0.25836-0.234 0.4806-0.37162 0.69922-0.40625zm147.63 0.62109-1.0977 1.2051 1.2109 1.0996-7.2578 8.0547 1.293 1.166 7.2578-8.0664 1.2656 1.1465 1.0938-1.2188-3.7656-3.3867zm-157.24 7.08c-0.65745-0.000485-1.3427 0.31878-1.8594 0.89062-0.59055 0.66335-0.82568 1.51-0.64062 2.2305 0.17716 0.6004 0.38408 0.85751 1.4766 1.8496l4.5566 4.0996c1.1043 0.98815 1.3701 1.1533 2.0039 1.2793 0.73815 0.11024 1.5559-0.2039 2.1504-0.85547 0.587-0.661 0.82-1.495 0.621-2.228-0.175-0.614-0.364-0.859-1.469-1.863l-4.556-4.102c-1.103-0.996-1.372-1.165-2.004-1.283-0.093-0.013-0.186-0.019-0.28-0.019zm-0.09961 1.7188c0.19906 0.02264 0.42172 0.15534 0.68945 0.39648l5.6191 5.0664c0.5354 0.47243 0.6042 0.83689 0.26367 1.2148-0.35629 0.39566-0.70686 0.35141-1.2285-0.13086l-5.633-5.07c-0.5236-0.47243-0.5944-0.8389-0.25976-1.2168 0.17618-0.1939 0.3517-0.28045 0.55078-0.25781v-0.002zm167.71 1.9395-9.9648 7.5117 2.625 3.4785 1.3008-0.98242-1.5742-2.0879 3.2676-2.4707 1.0449 1.3809 1.2988-0.99023-1.0449-1.3594 2.7969-2.1035 1.4844 1.9766 1.291-0.99024-2.5254-3.3633zm-176.2 6-2.5332 3.3496 9.957 7.5117 2.6211-3.4883-1.2969-0.99024-1.5801 2.1074-3.2617-2.4551 1.0293-1.3809-1.2988-0.97461-1.0371 1.3672-2.7988-2.1133 1.4961-1.9609-1.2969-0.97266zm181.33 11.18c-0.602 0.05875-1.0949 0.533-1.1621 1.1582-0.0847 0.7106 0.44174 1.3608 1.1543 1.4336 0.72045 0.07283 1.353-0.44765 1.4219-1.1523 0.0807-0.7224-0.43389-1.3646-1.1504-1.4375-0.0896-0.0093-0.17767-0.01025-0.26368-0.002zm-188.35 1.9766-0.002 0.002c-0.93445-0.0152-1.6333 0.4446-2.0996 1.3809-0.7106 1.4744-0.15637 2.6514 1.6152 3.5273l5.935 2.89c1 0.48818 1.4895 0.64474 2.0879 0.61719 0.74015-0.02955 1.4527-0.45003 1.7598-1.0957 0.27165-0.5433 0.1987-1.1601-0.23633-1.9199l0.89648 0.14648 0.40234-0.8418-5.6934-2.7754-1.0938 2.2402 1.3184 0.65234 0.33594-0.6875 1.623 0.79297c0.61615 0.30315 0.72112 0.36023 0.91797 0.50195 0.28346 0.23031 0.3742 0.58731 0.22656 0.91016-0.13582 0.26574-0.44852 0.39904-0.78711 0.32226-0.24409-0.05709-0.26381-0.06946-0.99805-0.42969l-5.9297-2.8867c-0.9803-0.47046-1.1621-0.73047-0.91602-1.2324 0.26968-0.56495 0.6796-0.55174 1.9414 0.07227 0.23228 0.10826 0.40164 0.18785 0.74023 0.39453l0.76172-1.5684c-0.42317-0.2343-0.6368-0.3487-0.873-0.47271-0.73225-0.35137-1.3788-0.53192-1.9395-0.54102zm199.68 11.036c-0.41753-0.0145-0.85564 0.11134-1.9023 0.48633l-5.7578 2.1035c-1.3858 0.50985-1.6688 0.67582-2.0664 1.1699-0.45865 0.6122-0.55309 1.4799-0.25781 2.3027 0.30118 0.83855 0.94939 1.4383 1.6816 1.5957 0.62005 0.12992 0.91868 0.08794 2.332-0.41992l5.7539-2.1152c1.3996-0.49212 1.6766-0.6641 2.0703-1.1562 0.43307-0.60235 0.53551-1.4603 0.24023-2.2988-0.30511-0.82085-0.94561-1.4243-1.6621-1.6113-0.15649-0.032-0.29246-0.05182-0.43164-0.05664zm-0.008 1.7578v0.002c0.28385 0.01395 0.46474 0.1669 0.57422 0.46094 0.16338 0.49409-0.0378 0.79297-0.69727 1.0449l-7.13 2.59c-0.67125 0.22637-1.024 0.12873-1.1973-0.34961-0.1752-0.50195 0.0379-0.79509 0.69922-1.0254l7.1191-2.5977c0.25024-0.09079 0.45858-0.13338 0.62891-0.125zm-202.41 5.111c-0.72045 0-1.2969 0.57647-1.2969 1.293 0 0.7165 0.57637 1.3086 1.2969 1.3086 0.7185 0 1.2949-0.59209 1.2949-1.3086 0-0.7165-0.57647-1.293-1.2949-1.293zm208.02 6.0684-12.158 2.8066 0.38867 1.6953 5.5684-1.3008 0.39453 1.6875 1.5801-0.37891-0.375-1.668 3.4043-0.78125 0.54883 2.4062 1.5859-0.37305-0.9375-4.0938zm-217.55 8.4453-0.65625 4.1621 12.32 1.9473 0.67774-4.2969-1.6113-0.25586-0.40234 2.582-4.0469-0.64844 0.26172-1.6914-1.6016-0.24219-0.26953 1.6816-3.4551-0.53711 0.39453-2.4258-1.6113-0.27539zm214.63 9.545c-0.7126-0.0393-1.3395 0.48067-1.3867 1.2051-0.0472 0.7067 0.49442 1.3376 1.209 1.3809 0.7165 0.065 1.3336-0.48862 1.3828-1.1953 0.0512-0.71455-0.48854-1.3493-1.2051-1.3906zm-216.15 3.6426v0.002l-0.089844 1.748 5.1152 0.25781-0.07422 1.4238-5.1152-0.28125-0.10156 1.7559 12.463 0.64649 0.08984-1.7363-5.7148-0.29688 0.07617-1.418 5.7148 0.28516 0.08984-1.7324-12.453-0.6543zm220.73 11.338-0.082 1.6172-10.83-0.54688-0.0977 1.7402 10.846 0.54883-0.0938 1.7012 1.627 0.0918 0.25781-5.0625-1.627-0.0898zm-219.13 2.1894-1.627 0.10547 0.35156 5.0449 1.627-0.10547-0.11914-1.6191 10.82-0.75586-0.11523-1.7266-10.828 0.75-0.10938-1.6934zm207.03 9.377-0.69531 4.3125 1.6191 0.25781 0.41601-2.5859 4.041 0.63477-0.28125 1.7012 1.6191 0.25 0.26172-1.6953 3.459 0.54297-0.39258 2.4394 1.6113 0.25781 0.6582-4.1504-12.316-1.9648zm-199.7 7.6543c-0.7244 0-1.3066 0.58033-1.3066 1.2988 0 0.7067 0.58229 1.2891 1.3066 1.2891 0.7126 0 1.3008-0.58241 1.3008-1.2891 0-0.7185-0.58818-1.2988-1.3008-1.2988zm198.21 4.8066c-1.0032 0.01-1.7023 0.54461-2.084 1.6016-0.5807 1.5925 0.15566 2.7323 2.2383 3.5059 0.32086 0.10039 0.61225 0.19366 1.248 0.40429l0.59375-1.6367c-0.58265-0.18505-0.87006-0.28807-1.2559-0.41602-1.2165-0.44094-1.4956-0.75349-1.3008-1.3066 0.19291-0.5236 0.50968-0.57905 1.5215-0.21094l6.4531 2.3398c1.0157 0.39567 1.2379 0.62284 1.0312 1.1504-0.19684 0.57675-0.60901 0.61497-1.9121 0.14648-0.27558-0.1122-0.41704-0.17637-0.78907-0.35156l-0.5957 1.6406c0.43897 0.21062 0.62866 0.27461 0.91211 0.37696 2.0432 0.73425 3.347 0.32871 3.9316-1.252 0.5433-1.5394-0.11833-2.6529-1.9785-3.332l-6.459-2.3476c-0.57945-0.21285-1.0986-0.31697-1.5547-0.3125zm-187.05 9.8027-5.2266 2.3281-0.69922-1.584-1.4863 0.67383 0.69726 1.5644-3.1953 1.4277-1.002-2.2559-1.4883 0.65234 1.7109 3.8496 11.393-5.0742-0.70312-1.582zm181.45 1.3887-0.75586 1.5566 5.1348 2.5039-0.63086 1.2793-5.1308-2.5039-0.76368 1.5566 11.205 5.4668 0.75977-1.5469-4.6094-2.2539 0.63282-1.2793 4.6055 2.2363 0.76172-1.5547-11.209-5.4609zm-177.88 7.91c-0.6299-0.0374-0.92159 0.0723-2.2129 0.82617l-5.3125 3.0469c-1.2795 0.748-1.529 0.95862-1.8242 1.5117-0.33464 0.6614-0.28273 1.5349 0.1582 2.3184 0.44487 0.74605 1.17 1.232 1.9141 1.2793 0.63385 0.0276 0.93725-0.10179 2.2207-0.82813l5.3047-3.0644c1.2874-0.7362 1.5309-0.93883 1.8262-1.5195 0.35629-0.66335 0.30029-1.5371-0.13867-2.291-0.44094-0.7736-1.1737-1.2537-1.9355-1.2793zm0.04102 1.7207c0.20152 0.0222 0.3584 0.14284 0.48438 0.35938 0.26181 0.46062 0.10637 0.79018-0.50976 1.1484l-6.5566 3.7852c-0.61615 0.35039-0.99414 0.3022-1.2441-0.13086-0.25984-0.44881-0.1083-0.79214 0.50781-1.1504l6.5664-3.7832c0.3061-0.17519 0.55045-0.25066 0.75195-0.22852zm171.96 1.4922-0.89453 1.4805 5.6172 3.3789-6.6719-1.6035-0.88867 1.4746 10.684 6.4336 0.89257-1.4727-6.3066-3.793 7.4883 1.8047 0.77344-1.2695-10.693-6.4336zm-7.6543 12.023c-0.66941-0.01-1.3593 0.3067-1.8691 0.86133-0.59056 0.6732-0.82181 1.5099-0.62696 2.2383 0.18504 0.63581 0.35836 0.86316 1.4902 1.8789l4.5391 4.0938c1.0925 0.99405 1.3799 1.1594 2.0078 1.2617 0.72635 0.10827 1.5461-0.21171 2.1426-0.86523 0.5866-0.64371 0.81-1.4905 0.62695-2.209-0.18504-0.60825-0.36835-0.87317-1.4707-1.8594l-4.5606-4.1074c-1.0886-0.98225-1.3662-1.1573-1.9961-1.2695-0.0942-0.015-0.18757-0.022-0.2832-0.0234zm-0.10743 1.7109c0.19709 0.0229 0.41884 0.15536 0.68555 0.39453l5.6348 5.0625c0.51375 0.47833 0.59451 0.83882 0.2461 1.2266-0.34843 0.38385-0.69498 0.33779-1.2363-0.15039l-5.6309-5.0625c-0.5236-0.47834-0.59255-0.8369-0.24414-1.2148 0.17323-0.1929 0.34783-0.27874 0.54492-0.25586zm-158.48 0.0254c-0.7185 0-1.2988 0.57048-1.2988 1.2969 0 0.7283 0.58033 1.3008 1.2988 1.3008 0.7224 0 1.2988-0.57248 1.2988-1.3008 0-0.72635-0.57638-1.2969-1.2988-1.2969zm149.81 6.6465-3.1192 2.8066 1.0742 1.1973 1.8398-1.6465 7.2578 8.0723 1.3008-1.1602-8.3535-9.2695zm-135.88 0.42383-1.0645 1.2246 1.8555 1.6211-7.1152 8.1914 1.3145 1.1387 8.1855-9.4238-3.1758-2.752zm9.0195 7.5098-5.8145 11.15 1.8281 1.2891 8.5527-9.2441-1.3789-0.96679-1.8535 2.127-1.2891-0.9043 1.3457-2.4824-1.3906-0.96875zm117.33 0.31836c-0.48758 0.0308-0.98778 0.22028-1.4258 0.55859-0.6988 0.51576-1.0942 1.3066-1.0391 2.0625 0.0531 0.62401 0.1883 0.89101 1.0898 2.0957l3.6856 4.9004c0.8937 1.1673 1.134 1.4064 1.7324 1.627 0.6988 0.24802 1.555 0.0743 2.2637-0.43164 0.70075-0.55315 1.0863-1.3263 1.041-2.0527-0.0472-0.6555-0.20801-0.93031-1.0879-2.0996l-3.6895-4.9238c-0.89565-1.1791-1.1341-1.3731-1.7226-1.6191-0.26722-0.0967-0.55511-0.13564-0.84766-0.11719zm-0.006 1.666c0.24002 0.006 0.47498 0.18227 0.73828 0.53906l4.5703 6.0488c0.42321 0.57085 0.42298 0.94685 0.0195 1.252-0.41339 0.32086-0.76036 0.184-1.1895-0.36914l-4.5605-6.0566c-0.42717-0.56299-0.42698-0.93708-0.0215-1.2422 0.15501-0.11736 0.29935-0.1755 0.44336-0.17187zm-118.06 2.916 0.97852 0.67969-3.8066 4.3906 2.8281-5.0703zm11.559 2.0781-0.73242 1.4375 2.3301 1.1973-1.8613 3.6426-1.5254-0.79883-0.74219 1.4727 1.5273 0.77344-1.5879 3.1094-2.1914-1.1113-0.74414 1.4453 3.752 1.9043 5.668-11.113-3.8926-1.959zm95.174 0.36133c-0.26874 0.005-0.53133 0.0655-0.76758 0.18359-0.561 0.25787-0.88381 0.80789-1.0039 1.6543l-0.61914-0.66993-0.83007 0.41211 2.7656 5.7168 2.25-1.1035-0.64258-1.3359-0.68554 0.34179-0.79297-1.6113c-0.2933-0.62796-0.34724-0.73455-0.40039-0.9668-0.0827-0.34841 0.0542-0.69015 0.36914-0.8457 0.28542-0.13779 0.60571-0.037 0.82422 0.21093 0.15157 0.19292 0.16116 0.22081 0.52929 0.95703l2.8848 5.9277c0.48424 0.9842 0.46885 1.3008-0.041 1.5488-0.5433 0.26771-0.86436 0.00004-1.4766-1.2617-0.11417-0.23031-0.20797-0.40533-0.33789-0.77344l-1.5644 0.77344c0.18307 0.46258 0.2862 0.67985 0.40234 0.9082 0.9468 1.935 2.1836 2.5507 3.6934 1.8066 1.4547-0.72045 1.7607-1.9704 0.88476-3.7656l-2.8926-5.9277c-0.48227-1.0118-0.77161-1.4171-1.2559-1.7773-0.3814-0.26821-0.84507-0.41096-1.293-0.40234zm-83.186 5.1348c-0.9989-0.036-1.7898 0.5603-2.2578 1.7207-0.39763 0.96851-0.45942 2.3113-0.15234 3.7168l0.33594 1.5098c0.42125 2.0354 0.43393 2.219 0.14063 2.9375-0.27165 0.70075-0.67437 0.97606-1.1055 0.79101-0.36417-0.13582-0.52253-0.49611-0.39062-0.99414 0.0689-0.25786 0.13488-0.46804 0.37109-1.0586l-1.6367-0.48633c-0.37991 0.9567-0.40157 1.0021-0.50195 1.4824-0.20079 1.1398 0.3548 2.0981 1.4453 2.5391 1.435 0.57085 2.7667-0.0175 3.375-1.5352 0.41929-1.0216 0.42497-1.952 0.02539-3.8477l-0.32227-1.5098c-0.36416-1.372-0.36758-1.9062-0.06641-2.6699 0.2992-0.7362 0.70134-1.0503 1.1816-0.85546 0.64565 0.25786 0.67765 0.7249 0.18555 1.9394l-0.19141 0.4707 1.623 0.58985c0.13386-0.25591 0.17503-0.37908 0.27148-0.60743 0.40944-1.0138 0.4798-1.5495 0.31445-2.2188-0.21062-0.80315-0.70608-1.3156-1.5801-1.6641-0.3745-0.15452-0.73145-0.238-1.0645-0.25zm71.557 0.13672-1.6367 0.58984 1.7695 4.8691 0.66211 7.5117 1.7227-0.63476-0.67383-4.6309 2.4668 3.9863 1.7773-0.64454-4.3262-6.1875-1.7617-4.8594zm-23.24 5.1836-4.248 0.52539 0.62109 6.7266 1.5469-0.1836c0.0984-0.7165 0.3408-1.1227 0.7168-1.1699 0.37204-0.0453 0.60879 0.24123 0.68164 0.86719l0.49023 3.9297c0.0827 0.6732-0.10219 1.0797-0.52539 1.123-0.55315 0.0551-0.82891-0.41456-0.97656-1.6016l-0.0547-0.49805-1.7031 0.21289c0 0.34054 0.0192 0.5072 0.0547 0.83985 0.25787 1.9783 1.2673 2.9526 2.8086 2.7695 0.80115-0.10039 1.5089-0.5266 1.873-1.125 0.38188-0.6063 0.427-1.1517 0.27149-2.4844l-0.36328-3.0273c-0.23424-1.9074-1.0225-2.9387-2.1504-2.791-0.52755 0.0571-0.89686 0.3673-1.3477 1.1055l-0.23828-3.1758 2.6992-0.31445-0.15625-1.7285zm-24.279 0.1543c-0.5866 0.50785-0.92927 0.71003-1.7344 1.0801l-0.14258 1.3047 0.92773 0.0996-1.1055 10.533 1.8164 0.18359 1.3809-13.061-1.1426-0.14063zm6.4824 0.45313c-0.64485 0.0321-1.2005 0.28298-1.5742 0.71874-0.44487 0.55116-0.61469 1.1231-0.68359 2.373-0.11024 2.1909-0.028 2.4848 0.80859 3.1875-1.0512 0.34645-1.1354 0.63382-1.3047 3.7637-0.0669 1.2598 0.0575 1.9505 0.45312 2.5391 0.39369 0.57086 1.0778 0.91174 1.8691 0.95898 1.7027 0.0906 2.5635-1.0037 2.6895-3.2949 0.15551-3.0196 0.076-3.3616-0.91211-3.832 0.8858-0.58855 0.99917-0.89105 1.1074-3.0938 0.0689-1.2224-0.0402-1.8296-0.40235-2.3926-0.36613-0.55905-1.0097-0.89233-1.7695-0.92773-0.0955-0.004-0.18912-0.004-0.28125 0zm7.7734 0.0918c-0.77755 0.0276-1.4151 0.33944-1.791 0.89258-0.40353 0.55905-0.50615 1.1701-0.46875 2.4023 0.0768 2.2008 0.18448 2.4775 1.0742 3.1113-1.0157 0.45077-1.0849 0.71963-0.97461 3.8672 0.0532 1.2519 0.23284 1.9312 0.6836 2.4863 0.43896 0.53345 1.154 0.81856 1.9375 0.79101 1.7027-0.065 2.4694-1.2164 2.3828-3.5176-0.10039-3.0275-0.21272-3.3583-1.2344-3.7383 0.83265-0.66929 0.91464-0.97521 0.83984-3.1582-0.0335-1.2421-0.19404-1.8397-0.60938-2.3633-0.41535-0.5256-1.0761-0.80099-1.8398-0.77344zm-7.5703 1.4922c0.4488 0.008 0.59977 0.33001 0.57617 1.0918l-0.0937 1.7422c-0.0413 0.76375-0.23671 1.0392-0.69141 1.0215-0.46653-0.0295-0.63505-0.32209-0.59375-1.0957l0.0937-1.7383c0.0393-0.76375 0.23064-1.0608 0.70899-1.0215zm7.6152 0.082c0.46062-0.0177 0.64433 0.27522 0.67188 1.0508l0.0566 1.7383c0.0276 0.7618-0.14107 1.0662-0.58203 1.0859-0.47637 0.0177-0.67957-0.28514-0.69532-1.041l-0.0625-1.75c-0.0315-0.76376 0.13694-1.0564 0.61133-1.084zm22.893 1.7012c-0.7185-0.063-1.3512 0.47277-1.4023 1.207-0.0689 0.70865 0.45533 1.3257 1.1738 1.3887 0.71651 0.0649 1.3432-0.45148 1.418-1.168 0.0492-0.72835-0.47094-1.3608-1.1894-1.4277zm-50.01 0.16602c-0.7165 0-1.3027 0.57251-1.3027 1.291 0 0.7185 0.58618 1.2969 1.3027 1.2969 0.71455 0 1.3027-0.57838 1.3027-1.2969 0-0.7185-0.58818-1.291-1.3027-1.291zm19.199 3.7754c0.5118 0.0453 0.68584 0.34887 0.64844 1.1973l-0.10937 2.209c-0.0571 0.84445-0.26559 1.1584-0.77344 1.1328-0.54525-0.0275-0.7016-0.31533-0.65235-1.207l0.10743-2.209c0.0571-0.88581 0.24977-1.1486 0.77929-1.123zm8.1211 0.10937c0.51575-0.0177 0.71451 0.28648 0.75586 1.123l0.0742 2.2207c0.0276 0.8346-0.15615 1.1503-0.66796 1.168-0.5295 0.0374-0.7205-0.25092-0.75-1.1328l-0.0879-2.1914c-0.0275-0.8917 0.1443-1.1698 0.67578-1.1875z" transform="translate(-.000076294)" fill="#b3a369"/><g stroke="#003057" stroke-miterlimit="3.864"><path d="m177.84 149.5c-0.55315-2.37-9.7165-6.2245-9.7165-6.2245l2.4291-5.4645s8.047 2.7322 11.537 2.5806c3.492-0.15157 4.2676-10.478 4.4034-11.234 0.75785-4.2499 0.91335-10.892 0.8307-13.791-0.17913-6.2675-1.309-10.942-2.1397-12.688-1.6378-3.4881-3.9034-2.2637-6.5765-1.433-2.6594 0.811-5.3485 1.6397-5.3485 1.6397l-3.8976-6.5705s6.37-3.0786 9.665-5.132c3.2873-2.063 0.4055-5.362-1.6476-7.3955-2.059-2.061-16.035-18.5-22.653-23.838-6.6335-5.352-7.356-2.059-9.8185 4.1102-2.4606 6.163-3.6908 9.864-7.797 20.545l-6.177-1.2322s7.813-21.159 9.055-25.29c1.2283-4.1003-1.8504-5.132-3.9133-5.541-1.37-0.26771-3.4862-1.2775-8.3185-1.9153l-19.897 0.05118c-2.6732 0.56495-6.0945 1.6653-7.126 1.8641-2.0393 0.40944-5.1395 1.4409-3.9054 5.541 1.2382 4.1318 9.049 25.29 9.049 25.29l-6.171 1.2322c-4.1121-10.681-5.3425-14.382-7.809-20.545-2.4586-6.169-3.187-9.4625-9.8145-4.1102-6.62 5.3385-20.596 21.777-22.655 23.838-2.0413 2.0334-4.9251 5.3325-1.6417 7.3955 3.2952 2.0531 9.663 5.132 9.663 5.132l-3.9015 6.5705s-2.6712-0.8287-5.3485-1.6397c-2.6633-0.8307-4.933-2.055-6.5725 1.433-0.8228 1.746-1.9527 6.421-2.1318 12.688-0.08858 3.1338 0.2559 9.1495 0.7992 12.913l1.5138 8.3405 11.572 1.1909 3.1889-0.60825 3.1358 5.9625c-3.49 1.0216-6.5745 2.872-8.8285 3.9034-2.2657 1.0138-2.7519 4.3916-0.20669 8.626l8.431 11.754c3.5255 4.1436 7.2145 7.3875 12.394 10.836 6.108 4.0688 19.659 1.1673 19.659 1.1673l17.74 19.194 16.576-19.588s16.762 1.2598 20.822-1.1516c5.3405-3.1889 9.0925-6.8245 12.336-10.936 0 0 10.276-12.915 9.2125-17.47z" stroke-width=".95470" fill="#fff"/><g stroke-width=".90745"><path d="m113.07 61.796v-1.7519c-2.4665-2.6633-8.73-10.781-3.185-18.384 0.9311-6.8855 4.2086-9.2635 5.1375-10.478 0.91925-1.2322 1.2303-4.6318 3.179-4.1022 1.9626 0.49999 2.2598 1.0138 2.9862 1.5216 0.7165 0.5177 0.7165 3.1948 0.8189 5.047 0.10433 1.8543 0.30314 5.232 2.3562 7.3975 2.061 2.1535 4.8326 8.8345 1.3425 13.14-3.1653 3.931-2.9527 6.48-2.4252 7.61h-10.21z" fill="#b3a369"/><path d="m125 55.122c-2.687 2.9546-4.6318 4.5078-4.6318 5.9465v3.0885m0.30314-35.864c-0.5039 0.7224-1.5078 8.791 0.10433 17.976 0.7185 4.114-1.2283 4.9388-3.0786 8.6375-1.8543 3.6948-2.6712 5.6615-2.2657 7.911m-5.455-22.303c-0.20078 3.3995-1.0177 11.724 6.376 17.266m1.6476-30.814c0.6181 0.9291-0.20866 14.586-0.30905 16.746-0.10629 2.1496-4.0117 5.6515-4.5196 11.198" fill="none"/><path stroke-linejoin="round" d="m186.8 129.89c1.3326 2.4763 2.9724 7.4015-4.5235 8.8365m-129.55-7.7c-1.6496 2.3484-2.679 3.7007-2.679 6.2695m56.855-22.135c0-6.3815 5.173-11.144 11.551-11.144 6.3855 0 11.572 4.7617 11.572 11.144 0 0.16142 5.0315 0.0512 5.0315 0.0512-0.0472-9.1495-7.4705-15.762-16.638-15.762-9.169 0-16.594 6.612-16.594 15.762l5.0765-0.0512zm29.898 4.442v0.34251c0 0.22244-0.17913 0.40157-0.41535 0.40157h-35.544c-0.21653 0-0.41534-0.17913-0.41534-0.40157v-0.34251-0.0728c-0.39763-0.0512-0.7185-0.39565-0.7185-0.8228v-1.9114c0-0.0728-0.50195-0.1555-0.50985-0.58069v-0.47047c0-0.2244 0.18306-0.41534 0.40747-0.41534h37.635c0.2185 0 0.40353 0.19094 0.40353 0.41534v0.47047c0 0.2244-0.17519 0.46455-0.38975 0.46455 0 0-0.061 0.0433-0.061 0.11614v1.9114c0 0.30904-0.12795 0.5787-0.38189 0.7244 0 0-0.01 0.0984-0.01 0.17125zm-30.309 13.899c1.0787 1.4468 1.433 5.118-0.87795 6.002-4.1082 1.5649-6.3465-1.1122-12.366 3.5806 2.2244-4.2518 5.7025-5.3485 7.356-5.689 1.9468-0.4055 6.4545-0.76375 5.8875-3.8936zm0-9.297c0.6181 1.9054-0.15551 2.8366-3.2342 4.1062-3.0826 1.2874-2.055 3.866-1.3838 4.6869 0.6102-1.7047 4.2322-2.7302 5.382-4.2164 1.0354-1.3444 0.57675-3.4901-0.76375-4.5766zm23.95 9.8295c-1.0394 0.9114-1.1417 2.4684-1 3.3798 0.13976 0.8937 2.8996 4.622 15.088 2.4862-1.7322-0.27755-1.7952-0.35826-2.2834-0.83855 0.9094-0.9547 1.933-1.0944 2.2145-1.998-3.935 1.1791-15.232 0.7657-13.915-3.055l-0.10433 0.0256zm0.0402-9.147c-1.3799 1.5826-2.1712 3.4232 0.0827 4.6298 1.813 0.9744 3.9034 1.3898 4.1338 3.0374 1.0394-1.0354 1.372-3.0196-0.75-4.1239-0.9114-0.48424-4.3404-0.99405-3.4664-3.5432zm-22.962-4.4276c2.563 4.99 3.9546 7.7145 11.146 7.7145 8.116 0 9.295-4.1613 10.795-7.4625-4.4644 3.2362-7.244 4.2125-11.006 4.2125-3.7381 0-6.364-0.66535-10.935-4.4644zm23.01 18.562c-0.01 4.8384-0.0315 5.4075-0.0315 5.4075s0.0846 1.2224-0.7244 2.0354v4.4684h5.744v-4.4684c-0.8189-0.81295-0.7185-2.0354-0.7185-2.0354s-0.0256 0.874-0.0374-3.9644c0 0-0.39763 0.0138-2.2913-0.6437-1.7421-0.60235-1.9409-0.7992-1.9409-0.7992zm2.2236-8.4635c-1.7913-0.748-2.2539-1.0748-2.2539-1.0748v4.5747s-0.5374 1.2618 1.3188 2.307c1.2578 0.7067 2.9251 0.9409 2.9251 0.9409v-4.7774s-0.27362-1.2539-1.9901-1.9704zm-2.2114-4.0194s-0.01-1.7224-0.0334-2.1043c-0.0492-0.685-0.0216-1.3307-0.27952-2.0866-0.33661-0.17323-0.50785-0.61415-0.5787-1.122-0.17716-0.26181-0.41141-0.5492-0.6791-0.8622h7.191c-0.16338 0.17716-0.13976 0.36613-0.26771 0.5118-0.0531 0.7185-0.23031 1.3917-0.75785 1.5295-0.002 0.4055-0.11614 0.70865-0.26771 0.9291-0.0551 0.36416-0.0551 0.72835-0.0748 1.1004-0.0177 0.30314-0.0275 4.5629-0.0275 4.5629s-0.37598-0.46849-1.187-0.73815c-0.811-0.26968-1.5236-0.4429-2.3366-1.0078-0.37007-0.25787-0.7106-0.8858-0.7106-0.8858m-9.909-1.5478c0.0413-0.685 0-1.681 0.2618-2.437 0.33661-0.17322 0.50195-0.6161 0.5787-1.122 0.17913-0.2618 0.4055-0.5492 0.687-0.86415h-7.376c0.16535 0.17913 0.31299 0.3681 0.437 0.51375 0.0571 0.7185 0.24015 1.3917 0.7559 1.5295 0.01 0.4055 0.12204 0.70865 0.28345 0.9291 0.0393 0.36416 0.0374 1.0531 0.0689 1.4252 0 0 0.58465 0.17913 2.2382 0.14763 1.6496-0.0315 2.0649-0.12204 2.0649-0.12204zm0.11555 3.319 0.0335 16.204s-0.0748 1.2244 0.73425 2.0334v4.557h-5.752v-4.557c0.80905-0.80905 0.73225-2.0334 0.73225-2.0334l0.0236-16.254s0.39959 0.0728 1.998 0.0728c2.0413 0 2.2382-0.0492 2.2382-0.0492m-16.368-0.32205c0.7795-0.43896 1.7618-1.0295 2.0078-1.5708 0 0 0.0393-0.8366 0.0393-1.75 0-0.70865 0.0216-1.3307 0.27952-2.0866 0.33858-0.17519 0.50785-0.61615 0.57675-1.122 0.17913-0.2618 0.41338-0.5492 0.6811-0.86415h-6.7775c0.16142 0.17716-0.27361 0.36614-0.14763 0.51375 0.0571 0.7185 0.23228 1.3898 0.7598 1.5295 0.002 0.40353 0.11614 0.70865 0.26771 0.92715 0.0551 0.36417 0.0551 0.7303 0.0748 1.1024 0.0177 0.30118 0.0296 4.5156 0.0296 4.5156s1.437-0.7598 2.2086-1.1948zm0.16594 8.6325c-1.8188 0.6791-2.3759 0.63975-2.3759 0.63975v-4.5747s0.87595-0.95665 2.0078-1.62c1.244-0.7303 2.2362-1.2559 2.2362-1.2559v5.0925s-0.22047 1.1043-1.868 1.7184zm-1.0324 3.5902c0.5413-0.0256 1.4252-0.22243 2.1141-0.46652 0.44881-0.15945 0.8366-0.5669 0.8366-0.5669l-0.0374 5.4505s-0.0748 1.2224 0.7362 2.0354v4.4664h-5.752v-4.4664c0.80705-0.81295 0.7303-2.0354 0.7303-2.0354l0.0256-4.2204s0.24016-0.14567 1.3464-0.19685zm-7.0865 12.811c0-0.45077-0.23424-1.3661 0.82675-1.8582h42.528c0.9232 0.13386 0.8169 1.6142 0.8169 2.0649m-13.786 6.357h-20.145m29.307 4.5198c-3.494-1.1338-6.7165-1.3425-8.3165 0.21456-3.7007 3.5964 11.092 4.5274 12.224 10.795m-40.784-10.694c2.4684-0.20472 7.6335-0.80315 7.9095 1.0295 0.40747 2.679-8.8365 7.291-11.72 9.352m-51.875-34.94c-4.114-1.5354-3.0885-4.116-2.679-5.541 0.41141-1.433 2.2618-5.1415 3.6968-7.1985 3.498-1.4272 5.9605 1.0394 8.224 4.1239 3.494-1.8504 11.708-1.252 12.118 10.679-4.309 5.3465-11.09 7.502-9.657 13.153 11.716 3.9034 48.084-5.3485 51.575-0.22046-0.20669 5.356 0.60825 8.6515 0.4114 11.322 4.1042 0 14.574-0.9429 19.915-0.31889-0.20275-5.539-0.38975-11.004-0.38975-11.004 5.539-8 39.635 8.937 58.345-4.6318-2.8818-3.2972-2.437-2.1338-4.931-2.3464-2.4527-0.20275-12.33-5.752-5.132-16.421 4.3995-6.537 10.686-3.7106 11.931-1.252 3.6908-4.1062 5.9445-4.7144 8.616-2.6653 0.8189 2.874 0.6161 4.1082 1.0295 6.5765 0.40747 2.4665-0.6122 4.9251-6.167 7.5945 1.6496-2.8641 1.8504-4.1968 2.059-6.563-5.1375 4.307-11.098 7.805-12.336 4.5196-1.2283-3.2952 5.9725-3.9232 2.4724-7.411-3.4901-3.4782-9.6515 7.8165-0.41141 14.803 3.5491 2.679 3.2912 3.496 3.0786 7.2085-0.20078 3.681 0 5.541 0 7.998 0 2.4684-2.7775 3.1023-7.5925 3.9133-12.334 2.0531-30.83-0.2126-41.72-2.0728 1.8523 5.1475 4.5216 8.6355 4.116 11.11-0.41338 2.4586-1.8504 2.8838-12.75 1.2244-10.888-1.6378-21.767 0.8307-27.33 2.4783-5.543 1.6299-6.982-1.244-5.132-3.2873 1.8444-2.061 4.1121-6.986 4.3168-11.108-10.48-0.41732-34.753 6.931-48.7 0.42125-1.5394-0.72635-1.0295-3.2854-1.2342-5.7615-0.20669-2.4763-0.81495-7.4015 1.4508-9.0315 2.2558-1.6554 5.541-3.7086 9.23-4.3168 0.8287-3.0846 0.21456-3.7086-0.20276-5.1555-2.866 1.8504-9.659 1.4468-9.659-3.0649-2.0472-2.2558-3.0767-2.6692-5.75-2.872-0.7047 1.5728-1.0276 2.872-0.81295 5.118zm143.38-9.769c1.3326 2.4763 2.9724 7.4015-4.5235 8.8365m-129.55-7.7c-1.6496 2.3484-2.679 3.7026-2.679 6.2695" fill="#fff"/></g></g><path d="m79.488 58.488c-6.803 0.2405-13.366 5.9682-16.23 12.055-2.8639 6.0865-4.4153 12.29-5.0117 20.404-0.5984 8.116-0.35862 14.8 1.5508 27.928 2.6615 18.309 14.08 36.396 14.08 36.396s5.1333-0.714 8.834-1.0723c3.699-0.35827 9.1875-0.83789 9.1875-0.83789s-11.337-14.796-15.99-37.232c-2.3484-11.319-0.12109-22.197-0.12109-22.197s15.396 5.4258 42.486 5.4258 42.842-5.4258 42.842-5.4258 2.1799 8.0245-0.35937 22.437c-3.6985 21.003-15.871 36.992-15.871 36.992s4.4147 0.71605 8.5918 1.3125c4.1769 0.59644 9.0703 0.95508 9.0703 0.95508s9.8046-13.839 14.32-36.039c2.1476-10.563 2.5449-20.66 1.791-28.76-0.75395-8.098-2.6602-14.196-4.416-18.617-3.9385-9.9052-11.577-13.605-17.305-13.725-5.4921-0.114-10.979 6.8033-9.4277 13.01 1.551 6.2045 9.0703 6.9199 9.0703 6.9199s-7.9952 5.4903-20.406 3.2227c-7.4367-1.358-9.7871-6.9219-9.7871-6.9219s2.4091-0.62721 1.791-3.1035c-0.23815-0.95472-2.625-1.1934-2.625-1.1934s0.59625-2.8627 2.0293-3.9375c1.5078-1.1319 4.5329-1.3114 3.8184-3.4609-0.815-2.437-7.5187-1.1934-13.365-1.1934-5.848 0-11.7-1.3755-12.412 1.1934-0.59645 2.1496 1.4325 1.9098 3.5801 3.4609 2.1496 1.5532 2.0352 4.0508 2.0352 4.0508s-2.1545-0.35089-2.6328 1.3184c-0.6043 2.1181 1.8027 2.9766 1.8027 2.9766s-2.3977 5.4986-10.99 6.9297c-10.043 1.6752-19.209-3.2227-19.209-3.2227l-0.24609-0.11719s6.5665-0.0014 9.3105-6.5664c2.1005-5.0215-2.9841-13.603-9.7852-13.365zm115.76 74.602c-1.1679 0.0403-2.1174 0.61166-3.4062 1.7617 0 0 1.632 0.48807-1.0254 5.8047-0.31692 0.6319 2.3279-0.0508 4.1113-2.0566 1.2657-1.4232 2.3733-5.2 1.582-5.375-0.45865-0.10236-0.87241-0.1482-1.2617-0.13476zm-151.32 1.0352c-1.449-0.0556-3.5691 0.6887-3.7402 2.6543-0.07677 0.87205 3.4023 3.0859 3.4023 3.0859-0.7913-3.7952 1.6854-5.3851 1.2012-5.5781-0.23068-0.0926-0.52888-0.14928-0.86328-0.16211zm10.242 1.6152c-0.76841 0.0177-1.566 0.27814-2.3633 0.88476-2.4114 1.8346-0.005 3.6972 0.60938 3.9551 0 0 0.80976 1.0562 3.666 0.86719 4.746-0.31692 3.8457-1.377 3.8457-1.377-0.63805-1.3591-3.0101-4.3901-5.7559-4.3301h-0.002zm6.4316 9.8379s-9.6983 2.4259-11.07 6.168c-0.5295 1.4448-0.08256 2.2421 1.7383 2.752 3.1653 0.8858 5.2207 1.0449 5.2207 1.0449s-2.3084-1.1503-1.582-3.1641c1.4232-3.9527 5.6934-6.8008 5.6934-6.8008zm40.49 9.8262c-1.0965 0.0275-2.0607 0.5143-2.0469 1.6856 0.0118 0.42125 0.18502 0.81815 0.50391 1.0938 0.38976 0.31298 0.91826 0.4056 1.3789 0.48828l0.33984 0.0371c0.5748 0.0728 0.75482 0.0903 0.88477 0.27539 0.0393 0.0453 0.0625 0.12834 0.0625 0.20117 0 0.14763-0.0654 0.26693-0.19336 0.34961-0.19881 0.14763-0.52409 0.18555-0.6875 0.18555-0.85035 0.008-1.223-0.43332-1.4277-0.71875l-0.98633 0.81054c0.58855 0.80906 1.6407 1.0021 2.3789 0.98438 1.1043-0.0197 2.2678-0.50548 2.2383-1.8027-0.0177-1.1142-0.81253-1.3451-1.0547-1.4199-0.21457-0.065-0.2908-0.0635-1.0684-0.18359-0.53541-0.063-0.77444-0.10064-0.9004-0.21875-0.0827-0.065-0.13281-0.14955-0.13281-0.25781 0-0.30314 0.3506-0.453 0.72852-0.47071 0.7067-0.01 1.1059 0.44372 1.3027 0.64649l0.88867-0.72852c-0.54525-0.7283-1.4177-0.96688-2.209-0.95703zm-6.2695 0.50391c-0.10139 0.002-0.20211 0.007-0.30078 0.0176-1.0846 0.12007-1.995 0.69202-1.8789 1.8613 0.0433 0.41337 0.24534 0.80282 0.59375 1.041 0.41535 0.28543 0.93975 0.32199 1.4043 0.35742l0.362-0.01c0.5787 0.0296 0.74684 0.0359 0.90039 0.19141 0.03545 0.0571 0.0663 0.14005 0.07813 0.21289 0.0138 0.13779-0.04797 0.26678-0.1582 0.36914-0.18504 0.15748-0.51638 0.22063-0.67383 0.23047-0.8484 0.0906-1.2559-0.33402-1.4922-0.58204l-0.904 0.89c0.65155 0.7559 1.7326 0.86399 2.457 0.77344 1.0984-0.10039 2.2179-0.68908 2.0723-1.9883-0.11614-1.1063-0.92782-1.2613-1.1699-1.3164-0.22244-0.0354-0.28868-0.0643-1.0898-0.0918-0.5354-0.0296-0.78021-0.0363-0.91211-0.13867-0.07677-0.0531-0.13655-0.16538-0.1582-0.24805-0.0315-0.32283 0.30763-0.48787 0.68555-0.54296 0.70865-0.063 1.135 0.34023 1.3574 0.54296l0.83398-0.80859c-0.53565-0.58735-1.2922-0.79024-2.002-0.77734zm45.82 0.34961c-0.91735-0.0123-1.7257 0.36544-1.8652 1.373-0.0512 0.41338 0.0466 0.86677 0.32422 1.168 0.32676 0.37992 0.83257 0.54381 1.2656 0.69141l0.34766 0.10156c0.561 0.15551 0.71796 0.2035 0.81836 0.40625 0.0296 0.0551 0.0371 0.11836 0.0293 0.21875-0.0157 0.12992-0.11224 0.23177-0.24609 0.31445-0.21653 0.11811-0.54372 0.0901-0.70117 0.0547-0.8425-0.12007-1.1354-0.61677-1.3008-0.92187l-1.0938 0.62695c0.45077 0.9035 1.465 1.2707 2.1914 1.3711 1.0905 0.13779 2.311-0.14613 2.498-1.4453 0.15748-1.1043-0.58215-1.4543-0.81445-1.5469-0.20275-0.12007-0.28119-0.13696-1.041-0.35743-0.50985-0.14762-0.73546-0.24135-0.84766-0.34961-0.063-0.0847-0.10355-0.18663-0.0996-0.29687 0.0571-0.29329 0.42872-0.40278 0.80078-0.34766 0.70075 0.0925 1.0143 0.58777 1.1875 0.85547l1-0.59765c-0.42912-0.78346-1.2575-1.1611-2.0547-1.2891-0.13386-0.017-0.26739-0.0276-0.39844-0.0293zm-50.035 0.24804-3.9082 0.48047 0.63477 5.1836 4.127-0.50782-0.12891-1.084-2.8223 0.34766-0.15039-1.207 2.0605-0.26562-0.12695-0.99414-2.0566 0.25-0.10352-0.83789 2.5957-0.3125-0.12109-1.0527zm54.83 0.51758-0.73437 5.1816 4.125 0.56445 0.14648-1.0976-2.8184-0.39453 0.16602-1.1875 2.0527 0.27539 0.14844-1.0039-2.0488-0.30273 0.10547-0.82227 2.5996 0.35352 0.14063-1.0332-3.8828-0.5332zm-62.164 0.44531c-0.31791-0.0182-0.63643 0.0202-0.92383 0.0605l-2.0352 0.25781 0.63477 5.1836 1.3223-0.15625-0.20898-1.7598 0.66992-0.082 1.1484 1.6465 1.4395-0.19335-1.291-1.8301c0.6752-0.30511 0.94594-0.96551 0.86719-1.6289-0.06693-0.55315-0.3587-0.97665-0.69922-1.2168-0.28937-0.18799-0.60593-0.26304-0.92383-0.28125zm92.504 0.10938-3.8613 0.7539 0.98633 5.127 4.0957-0.78516-0.22266-1.0762-2.7793 0.53516-0.22461-1.1797 2.0273-0.39453-0.18945-1.0234-2.041 0.40625-0.16211-0.82812 2.5684-0.49805-0.19726-1.0371zm-24.383 0.14453-0.45312 5.2012 1.3203 0.10938 0.14844-1.7559 0.67187 0.0527 0.80079 1.8418 1.4453 0.14648-0.88867-2.0703c0.72835-0.16535 1.1285-0.74477 1.1836-1.418 0.0551-0.561-0.14423-1.0308-0.43359-1.334-0.48818-0.49802-1.1829-0.53279-1.7676-0.58789l-2.0274-0.18555zm-75.016 0.46289c-0.1551-0.008-0.32089-0.004-0.49805 0.0156-1.6791 0.17519-2.4425 1.5198-2.2969 2.9922 0.16535 1.5728 1.279 2.558 2.8164 2.3848 0.85235-0.0827 1.1359-0.50644 1.2402-0.68164l0.04883 0.46875 1.0098-0.12891-0.28711-2.8066-2.1387 0.23047 0.09961 1.0391 0.96094-0.11719c-0.01575 0.53151-0.56109 0.77889-0.99414 0.83594-1.0335 0.0925-1.316-0.8588-1.3711-1.4375-0.0433-0.45077 0.0055-0.90163 0.30664-1.2422 0.19094-0.23032 0.52086-0.39615 0.85156-0.43946 0.77165-0.065 1.171 0.4948 1.2891 0.66016l0.86328-0.79883c-0.2532-0.26869-0.81474-0.92011-1.9004-0.97461zm-20.787 0.0156-0.72656 5.1641 1.3242 0.19336 0.21484-1.5469 0.73828 0.10157c0.76575 0.0925 1.2364 0.1118 1.7305-0.19922 0.15944-0.12204 0.5967-0.42657 0.7168-1.3281 0.0295-0.19487 0.13964-1.0034-0.48633-1.5664-0.42716-0.38385-0.96289-0.46829-1.4648-0.52343l-2.0469-0.29492zm113.35 0.17578c-0.43306 0-1.2274 0.0825-1.8672 0.77148-0.6299 0.68305-0.68164 1.4736-0.68164 1.8516 0 1.4272 0.90069 2.791 2.6211 2.791 0.70471 0 1.3907-0.26763 1.8789-0.76563 0.0374-0.0551 0.0875-0.10105 0.13672-0.16601l-0.92773-0.82813c-0.14764 0.20275-0.44455 0.60743-1.043 0.60743-0.6614 0-1.2695-0.50695-1.2695-1.6211 0-0.937 0.54005-1.4902 1.1602-1.4902 0.5807 0 0.89702 0.39466 1.0762 0.625l0.9668-0.79102c-0.14764-0.1752-0.39032-0.50769-0.92969-0.77344-0.30315-0.12795-0.67624-0.21093-1.1211-0.21093zm-12.248 0.0547 1.5781 5.2207h1.4629l1.584-5.2207h-1.3164l-1.0039 3.4609-1-3.4609h-1.3047zm6.3008 0.0274-0.0273 5.2188h1.3516l0.0332-5.2188h-1.3574zm-80.205 0.13086c0.16462-0.00025 0.31648 0.02 0.43164 0.0801 0.08267 0.0374 0.26927 0.15574 0.30274 0.4707 0.0256 0.22046-0.0234 0.47929-0.27734 0.62695-0.16732 0.10039-0.38689 0.1284-0.86914 0.19336l-0.44922 0.0449-0.16406-1.3066 0.52148-0.0644c0.16338-0.0237 0.33928-0.0447 0.50391-0.0449zm-13.266 0.17773c-0.09781-0.003-0.19818-0.001-0.30078 0.006-0.47243 0.0275-1.1011 0.17162-1.6641 0.70703-0.7618 0.7362-0.79122 1.6563-0.76367 2.1465 0.04725 0.72635 0.33379 1.4083 0.85938 1.8965 0.71455 0.65355 1.5162 0.66036 1.9355 0.63281 0.48228-0.0355 1.109-0.16561 1.6621-0.71875 0.76965-0.7441 0.7874-1.6721 0.75195-2.1426-0.09412-1.3712-1.0132-2.4844-2.4805-2.5274zm-8.3047 0.14258-0.28125 5.2012 1.3301 0.0742 0.0957-1.7578 0.67578 0.0351 0.85938 1.8047 1.4492 0.0742-0.9668-2.0332c0.7224-0.17519 1.0973-0.784 1.1426-1.4375 0.0236-0.5787-0.18711-1.0388-0.48828-1.3262-0.49998-0.47834-1.2006-0.51538-1.7695-0.54493l-2.0469-0.0898zm91.395 0.01 0.51954 0.0371c0.33267 0.0275 0.71131 0.073 0.91406 0.22852 0.0807 0.0669 0.23857 0.23003 0.20117 0.53516-0.0138 0.20275-0.12089 0.45047-0.39648 0.54101-0.19291 0.0669-0.41419 0.0667-0.9004 0.0293l-0.4414-0.0742 0.10351-1.2969zm-95.85 0.53515 0.50195 0.0723c0.5177 0.0728 1.0593 0.13888 0.96875 0.86523-0.04525 0.29527-0.20493 0.51505-0.47461 0.58985-0.16928 0.0433-0.36478 0.018-0.67578-0.0195l-0.5293-0.082 0.20898-1.4258zm12.525 0.45899c0.84445-0.0827 1.2515 0.60659 1.3145 1.4629 0.02165 0.4429-0.02322 0.90363-0.29688 1.2422-0.1181 0.14763-0.38162 0.37869-0.78711 0.40625-0.81495 0.0472-1.2573-0.60626-1.3262-1.5078-0.05118-0.8563 0.30045-1.5405 1.0957-1.6035zm-6.8047 0.13867 0.51758 0.0273c0.33267 0.0197 0.70932 0.036 0.91797 0.18164 0.07677 0.0669 0.23445 0.2399 0.22461 0.53516-0.0118 0.20275-0.10723 0.46219-0.38281 0.55469-0.18306 0.0925-0.40437 0.0724-0.89844 0.0547l-0.45312-0.0391 0.07422-1.3144zm57.395 7.9531-1.2559 0.0274 0.0527 3.1094-1.9551-3.0742-1.2852 0.0293 0.10156 5.2188 1.2402-0.0273-0.0469-3.1289 1.9336 3.084 1.3027-0.01-0.0879-5.2285zm2.9805 0.0527-0.45117 5.2207 1.3887 0.11133c0.8996 0.0827 1.4415 0.12814 1.9258-0.0195 0.91925-0.24802 1.2393-0.98379 1.3633-1.3066 0.11417-0.31298 0.17746-0.63613 0.21289-0.95703 0.0846-0.92126-0.19655-1.6298-0.54101-2.0176-0.60826-0.7185-1.5271-0.79787-2.8164-0.91797l-1.082-0.11328zm-11.658 0.35156-1.291 0.17383-1.1348 5.4316 1.3027-0.17383 0.14453-0.73633 1.9199-0.25781 0.33789 0.63477 1.4004-0.1836-2.6797-4.8887zm12.861 0.92773 0.54688 0.0488c0.40944 0.0571 1.0669 0.1186 1.2559 0.9375 0.0551 0.24015 0.0548 0.48838 0.0371 0.72852-0.0197 0.19094-0.0484 0.33855-0.0977 0.50586-0.27558 0.7815-0.87833 0.76396-1.457 0.72656l-0.54297-0.0547 0.25781-2.8926zm-13.273 0.84961 0.88086 1.7402-1.25 0.1914 0.36914-1.9316z" transform="translate(-.000076294)" fill="#003057"/><path d="m99.514 115.33h37.704c0.24015 0 0.41535 0.19094 0.41535 0.41535v0.32085c0 0.22244-0.17519 0.40748-0.41535 0.40748h-37.704c-0.22637 0-0.4114-0.18504-0.4114-0.40748v-0.32085c0-0.22441 0.18504-0.41535 0.4114-0.41535zm1.3299 3.848h35.546c0.23621 0 0.41337 0.18897 0.41337 0.42519v0.34448c0 0.22047-0.17716 0.40156-0.41337 0.40156h-35.546c-0.21653 0-0.41338-0.18109-0.41338-0.40156v-0.34448c0-0.23622 0.19685-0.42519 0.41338-0.42519zm29.738 1.1728c0 0.80115 0.061 1.6023 0.8976 1.6023 0.9055 0 0.80315-0.9803 0.80315-1.5688-0.44094 0-1.185-0.0335-1.7008-0.0335zm-0.27972 2.0062c0 2.0078 2.4133 1.6299 2.4133 0.5728m2.0887-2.579c0 0.80115-0.0728 1.6023-0.90745 1.6023-0.89565 0-0.7992-0.9803-0.7992-1.5688 0.43897 0 1.183-0.0335 1.7066-0.0335zm-5.2705 0.0344c0 0.9468 0.15157 2.055 0.9783 2.055 0.45866 0 0.69485-0.059 0.9488-0.48818 0 0 0.42716 1.0039 1.2244 1.0039 0.80115 0 1.2342-1.0039 1.2342-1.0039 0.25 0.42913 0.49408 0.48818 0.9547 0.48818 0.82085 0 0.9744-1.1082 0.9744-2.055m-3.1842 2.5434c0 1.059 2.4094 1.435 2.4094-0.5728m-14.558-1.8663c0 0.80115-0.0492 1.6023-0.90155 1.6023-0.8976 0-0.7913-0.9803-0.7913-1.5688 0.43109 0 1.1791-0.0334 1.6928-0.0334zm0.28622 2.0064c0 2.0078-2.4212 1.6299-2.4212 0.5728m-2.0808-2.5792c0 0.80115 0.0571 1.6023 0.90155 1.6023 0.9035 0 0.80115-0.9803 0.80115-1.5688-0.44094 0-1.1929-0.0334-1.7027-0.0334zm-0.27618 2.0064c0 2.0078 2.4074 1.6299 2.4074 0.5728m-3.1802-2.5446c0 0.9468 0.15748 2.055 0.9803 2.055 0.46456 0 0.69095-0.059 0.9429-0.48818 0 0 0.44291 1.0039 1.2264 1.0039 0.7992 0 1.246-1.0039 1.246-1.0039 0.26181 0.42913 0.48818 0.48818 0.9429 0.48818 0.82085 0 0.9724-1.1082 0.9724-2.055m-15.27-0.14724c0 0.80115-0.061 1.6023-0.8976 1.6023-0.9035 0-0.80315-0.9803-0.80315-1.5688 0.44094 0 1.185-0.0335 1.7008-0.0335zm0.28051 2.0062c0 2.0078-2.4133 1.6299-2.4133 0.57085m-2.0893-2.5771c0 0.80115 0.0728 1.6023 0.90745 1.6023 0.89565 0 0.7992-0.9803 0.7992-1.5688-0.43897 0-1.183-0.0335-1.7066-0.0335zm-1.0456 0.0345c0 0.9468 0.15551 2.055 0.97635 2.055 0.45865 0 0.7047-0.059 0.9547-0.48818 0 0 0.43109 1.0039 1.2322 1.0039 0.7992 0 1.2264-1.0039 1.2264-1.0039 0.25393 0.42913 0.48818 0.48818 0.94685 0.48818 0.8287 0 0.9803-1.1082 0.9803-2.055m-5.541 1.9704c0 2.0078 2.4094 1.6318 2.4094 0.5728m-3.185-2.5432c0 0.9468 0.15551 2.055 0.97635 2.055 0.45865 0 0.7047-0.059 0.9547-0.48818m27.452 22.384h4.6101m-5.2415 6.393v-3.6377c0-0.45078 0.37007-0.8189 0.8248-0.8189h4.0747c0.45077 0 0.8189 0.3681 0.8189 0.8189v3.6377m-19.772 0.21436v-3.8444c0-0.45077 0.37007-0.8189 0.8228-0.8189h4.0766c0.45077 0 0.8189 0.3681 0.8189 0.8189v3.8444m-19.429-6.6305h4.6082m-5.1875 6.2435v-3.4664c0-0.44881 0.37007-0.8169 0.8228-0.8169h4.0766c0.45077 0 0.8189 0.3681 0.8189 0.8169v3.4664m9.25-6.213h4.6101" stroke="#003057" stroke-miterlimit="3.864" stroke-width=".61615" fill="none"/></g></svg>
