<?xml version="1.0" encoding="utf-8"?>
<!DOCTYPE svg PUBLIC "-//W3C//DTD SVG 20010904//EN" "http://www.w3.org/TR/2001/REC-SVG-20010904/DTD/svg10.dtd">
<svg version="1.0" xmlns="http://www.w3.org/2000/svg" width="300px" height="103px" viewBox="0 0 300 103" preserveAspectRatio="xMidYMid meet">
 <g fill="#ffffff">
  <path d="M0 51.5 l0 -51.5 150 0 150 0 0 51.5 0 51.5 -150 0 -150 0 0 -51.5z m63.4 29 c3.6 -1.5 6.6 -3.2 6.6 -3.7 0 -0.4 0.5 -0.8 1.1 -0.8 0.6 0 2.5 -1.5 4.2 -3.3 8.5 -8.7 12 -18.9 9.8 -27.8 -1.9 -7.2 -3.5 -10 -9.4 -16.2 -6.3 -6.6 -8.3 -7.9 -16.6 -10.8 -5 -1.7 -7.9 -2 -13.5 -1.7 -6.3 0.4 -7.8 1 -14.1 5 -10.2 6.6 -14.6 11.3 -18 19.4 -1.8 4.4 -2.2 16.1 -0.5 17.8 0.5 0.5 1 1.6 1 2.2 0 1.7 5.2 9.3 8.7 12.8 3.2 3.2 11 7.5 16.8 9.3 6.3 1.9 16.4 1 23.9 -2.2z"/>
  <path d="M42.6 78.5 c-1.1 -0.8 -2.8 -1.5 -3.8 -1.5 -1.4 0 -1.8 -0.8 -1.8 -3.4 0 -3.1 -0.4 -3.5 -3.2 -4.1 -4.3 -1 -9.8 -4.2 -12.4 -7.2 -3.5 -4.1 -4.4 -13.6 -1.9 -19.6 2.4 -5.8 8.7 -10.6 14.4 -10.8 1.7 -0.1 2 -0.3 0.9 -0.6 -2 -0.5 -3.1 -3.8 -2.6 -7.4 0.3 -2.6 2.7 -3.3 16.1 -4.5 5.8 -0.6 6.7 -0.4 6.7 1 0 0.9 0.7 1.6 1.6 1.6 1.3 0 1.5 0.9 1.3 4.4 l-0.4 4.4 3.9 0.5 c6.2 0.9 12.8 4.8 15.3 9.3 2.7 4.7 3.1 14.5 0.8 19 -2.7 5.4 -8.7 9.4 -14.1 9.4 -1.4 0 -2.2 0.4 -1.9 1 0.3 0.6 1.5 1 2.6 1 1.5 0 1.9 0.7 1.9 3.6 l0 3.7 -5.4 -0.7 c-4.3 -0.5 -5.5 -0.3 -6 0.9 -0.7 2 -9.4 2 -12 0z m-2.7 -29.2 c0 -4.9 -0.3 -8.1 -0.6 -7.3 -0.4 0.8 -1.2 2.1 -2 2.8 -2.6 2.7 -1.1 13 2 13.2 0.4 0 0.7 -3.9 0.6 -8.7z m22 3.8 c1.2 -3.9 1.2 -4.5 -0.6 -6.9 -3.5 -4.6 -4.3 -3.9 -4.3 3.6 0 3.8 0.3 7.2 0.7 7.6 1.4 1.3 2.8 -0.1 4.2 -4.3z"/>
 </g>
 <g fill="#000000">
  <path d="M113.5 86.8 c-2.8 -1.5 -2.8 -1.4 -2 -3.7 0.6 -2 0.8 -2 3.6 -0.5 3.2 1.6 7.4 1.6 7.4 -0.1 0 -0.5 -2.2 -2.1 -5 -3.5 -4.2 -2.1 -5 -3 -5.3 -5.7 -0.5 -5.1 5.2 -7.6 12.6 -5.7 3 0.9 2.8 5.1 -0.3 4.5 -7.6 -1.6 -9.7 0.8 -3 3.3 6.5 2.5 8.3 6.8 4.5 10.6 -2.3 2.3 -9.1 2.7 -12.5 0.8z"/>
  <path d="M135.4 87 c-4.7 -1.9 -7.1 -10 -4.4 -15.1 1.5 -2.7 6.2 -4.9 10.6 -4.9 5.1 0 10.4 5.3 10.4 10.5 0 5.4 -5.3 10.5 -10.6 10.4 -2.2 0 -4.9 -0.4 -6 -0.9z m9.6 -5 c1.1 -1.1 2 -3.1 2 -4.5 0 -2.9 -3.2 -6.5 -5.8 -6.5 -3.3 0 -6.2 2.9 -6.2 6.2 0 6.1 5.9 8.9 10 4.8z"/>
  <path d="M158.4 86.9 c-2.9 -1.4 -5.4 -6.1 -5.4 -9.9 0 -4.7 5.5 -10 10.5 -10 3 0 6.6 1.1 8.3 2.5 0.2 0.2 -0.1 1.3 -0.8 2.4 -1 2 -1.2 2 -3.5 0.5 -3.2 -2.1 -7.2 -1.1 -8.7 2.1 -2.6 5.7 2.4 10.9 8.2 8.5 2.7 -1.1 3.3 -1.1 4.1 0.1 2.3 3.5 -7.3 6.4 -12.7 3.8z"/>
  <path d="M175.2 77.8 c0.3 -9.8 0.4 -10.3 2.6 -10.6 2.2 -0.3 2.2 -0.2 2.2 10.2 l0 10.6 -2.5 0 -2.6 0 0.3 -10.2z"/>
  <path d="M185 77.5 l0 -10.6 7.7 0.3 c6.4 0.2 7.8 0.6 8.1 2 0.3 1.4 -0.6 1.7 -5.5 2 -5 0.3 -5.8 0.6 -5.8 2.3 0 1.7 0.8 2 5.3 2.3 4.4 0.3 5.3 0.6 5 2 -0.2 1.3 -1.6 1.8 -5.6 2 -4.4 0.3 -5.3 0.6 -5 2 0.2 1.3 1.6 1.8 6.1 2 4.9 0.3 5.7 0.6 5.7 2.2 0 1.8 -0.7 2 -8 2 l-8 0 0 -10.5z"/>
  <path d="M209 79.6 l0 -8.6 -3.6 0 c-2.8 0 -3.5 -0.3 -3.2 -1.7 0.3 -1.6 1.8 -1.8 11.5 -2.1 l11.1 -0.3 2.3 4.1 c1.2 2.2 2.6 4 3.1 4 0.4 0 1.7 -1.8 2.8 -4 1.6 -3 2.6 -4 4.5 -4 l2.5 0 -4 8 c-2.2 4.4 -4 9.1 -4 10.5 0 1.8 -0.5 2.5 -2 2.5 -1.6 0 -2 -0.7 -2 -3.1 0 -3.5 -7.3 -18 -7.8 -15.5 -0.2 1 -1.4 1.6 -3.2 1.6 l-2.9 0 -0.3 8.3 c-0.3 7.6 -0.5 8.2 -2.5 8.5 -2.2 0.3 -2.3 0.1 -2.3 -8.2z"/>
  <path d="M124.4 58 c-6.6 -2.7 -8.5 -12 -3.5 -17.1 2.5 -2.4 3.7 -2.9 7.8 -2.9 2.6 0 5.7 0.7 6.8 1.5 1.8 1.4 1.8 1.6 0.2 3.2 -1.3 1.3 -1.9 1.4 -2.9 0.5 -1.8 -1.8 -6.3 -1.5 -8.1 0.6 -4.9 5.4 2.1 13.1 8.3 9.2 1.5 -0.9 4 0.4 4 2.2 0 1.1 -6.3 3.8 -8.7 3.7 -1 0 -2.8 -0.4 -3.9 -0.9z"/>
  <path d="M143 56.8 c-3.8 -2.6 -5.6 -7.1 -4.6 -11.3 1.9 -7.7 12.9 -10.3 18.7 -4.6 6.3 6.3 2.4 16.6 -6.7 17.8 -3 0.4 -4.7 -0.1 -7.4 -1.9z m10.8 -4.6 c1.7 -2.2 1.5 -6.7 -0.4 -8.6 -2.5 -2.5 -7.1 -2 -9 1 -4.2 6.3 4.6 13.4 9.4 7.6z"/>
  <path d="M164 48.6 l0 -10.6 2.5 0 c2.1 0 3 1 5.2 5.5 1.5 3 3.1 5.5 3.5 5.5 0.5 0 2 -2.5 3.5 -5.5 2.3 -4.7 3.1 -5.5 5.5 -5.5 l2.9 0 -0.3 10.3 c-0.3 9.4 -0.4 10.2 -2.3 10.2 -1.7 0 -2 -0.8 -2.3 -6 l-0.3 -6 -2.7 4.9 c-1.5 2.7 -3.3 5.1 -3.9 5.4 -0.7 0.2 -2.5 -2.1 -4 -5.3 l-2.8 -5.7 -0.5 6.3 c-0.4 5 -0.9 6.5 -2.2 6.7 -1.6 0.3 -1.8 -0.7 -1.8 -10.2z"/>
  <path d="M191.7 58.3 c-0.4 -0.3 -0.7 -5.1 -0.7 -10.5 l0 -9.8 6.3 0 c8.1 0 10.7 1.7 10.7 7 0 4.9 -1.8 6.7 -7.5 7.6 -4.1 0.6 -4.5 0.9 -4.5 3.5 0 2.1 -0.5 2.9 -1.8 2.9 -1 0 -2.2 -0.3 -2.5 -0.7z m11.8 -11.3 c0.3 -0.6 0.3 -1.9 0 -3 -0.5 -1.5 -1.5 -2 -4.1 -2 -3.1 0 -3.4 0.2 -3.4 3 0 2.8 0.3 3 3.4 3 1.9 0 3.8 -0.5 4.1 -1z"/>
  <path d="M214.4 56.7 c-2.7 -2.3 -2.9 -3.1 -3.2 -10.6 l-0.4 -8.1 2.6 0 c2.6 0 2.6 0.1 2.6 7 0 6.3 0.2 7.1 2.5 8.6 2.4 1.6 2.7 1.6 4.5 -0.1 1.6 -1.5 2 -3.1 2 -8.7 0 -6.7 0.1 -6.8 2.6 -6.8 l2.6 0 -0.4 8 c-0.4 9.3 -2.1 11.8 -8.5 12.7 -3.2 0.4 -4.5 0.1 -6.9 -2z"/>
  <path d="M238.7 58.4 c-0.4 -0.4 -0.7 -4.3 -0.7 -8.6 l0 -7.8 -3 0 c-2.3 0 -3 -0.4 -3 -2 0 -1.8 0.7 -2 8.5 -2 7.8 0 8.5 0.2 8.5 2 0 1.5 -0.7 2 -3 2 l-2.9 0 -0.3 8.2 c-0.2 6.5 -0.6 8.3 -1.8 8.6 -0.9 0.1 -1.9 0 -2.3 -0.4z"/>
  <path d="M252 48.5 l0 -10.5 8 0 c7.3 0 8 0.2 8 2 0 1.8 -0.7 2 -5.5 2 -4.8 0 -5.5 0.3 -5.5 1.9 0 1.7 0.8 2 4.8 2.3 3.4 0.2 4.7 0.7 4.7 1.8 0 1.1 -1.3 1.6 -4.8 1.8 -4.3 0.3 -4.8 0.5 -4.5 2.5 0.3 1.9 1 2.2 5.6 2.5 4.4 0.3 5.3 0.6 5 2 -0.3 1.4 -1.7 1.8 -8.1 2 l-7.7 0.3 0 -10.6z"/>
  <path d="M272 48.6 l0 -10.6 6.3 0 c8 0 10.7 1.7 10.7 6.7 0 2 -0.7 4.5 -1.6 5.4 -1.5 1.7 -1.5 2 0 4.4 0.9 1.4 1.4 3 1.1 3.5 -1.2 1.9 -3.6 1 -5.3 -2 -2.3 -4 -5.9 -4.1 -6.4 -0.2 -0.2 1.9 -0.9 2.8 -2.5 3 -2.3 0.3 -2.3 0.2 -2.3 -10.2z m12.4 -2.2 c0.9 -2.4 -1.2 -4.4 -4.5 -4.4 -2.6 0 -2.9 0.4 -2.9 3 0 2.7 0.3 3 3.4 3 2.2 0 3.6 -0.6 4 -1.6z"/>
  <path d="M126 22.5 c0 -7.3 0.1 -7.5 2.5 -7.5 2.4 0 2.5 0.2 2.5 7.5 0 7.3 -0.1 7.5 -2.5 7.5 -2.4 0 -2.5 -0.2 -2.5 -7.5z"/>
  <path d="M134 22.5 l0 -7.5 5 0 c3.8 0 5 0.4 5 1.5 0 0.9 -0.9 1.5 -2.5 1.5 -1.6 0 -2.5 0.6 -2.5 1.5 0 0.9 0.9 1.5 2.5 1.5 1.6 0 2.5 0.6 2.5 1.5 0 0.9 -1 1.5 -2.6 1.5 -3.4 0 -2.6 2.4 0.9 2.8 1.8 0.2 2.4 0.8 2 1.8 -0.3 0.9 -2.1 1.4 -5.4 1.4 l-4.9 0 0 -7.5z"/>
  <path d="M147 22.5 l0 -7.5 5 0 c3.8 0 5 0.4 5 1.5 0 0.9 -0.9 1.5 -2.5 1.5 -1.6 0 -2.5 0.6 -2.5 1.5 0 0.8 0.9 1.5 2 1.5 1.1 0 2 0.7 2 1.5 0 0.8 -0.9 1.5 -2 1.5 -1.1 0 -2 0.7 -2 1.5 0 0.9 0.9 1.5 2.5 1.5 1.6 0 2.5 0.6 2.5 1.5 0 1.1 -1.2 1.5 -5 1.5 l-5 0 0 -7.5z"/>
  <path d="M159 22.5 l0 -7.5 5 0 c3.8 0 5 0.4 5 1.5 0 0.9 -0.9 1.5 -2.5 1.5 -1.6 0 -2.5 0.6 -2.5 1.5 0 0.9 0.9 1.5 2.5 1.5 1.6 0 2.5 0.6 2.5 1.5 0 0.9 -0.9 1.5 -2.5 1.5 -1.6 0 -2.5 0.6 -2.5 1.5 0 1 1 1.5 3 1.5 2.2 0 2.8 0.4 2.4 1.5 -0.4 1.1 -2.1 1.5 -5.5 1.5 l-4.9 0 0 -7.5z"/>
 </g>
 <g fill="#f9a319">
  <path d="M72.7 87.5 c-0.3 -1.8 0.1 -2.9 1.4 -3.5 2.5 -1.4 3.9 -1.2 3.9 0.4 0 0.8 0.4 1.7 0.9 2 0.5 0.4 0.7 -0.3 0.4 -1.4 -0.6 -2.4 2.2 -2.8 3.1 -0.4 1.5 3.8 0.7 5.1 -3 5.1 -3.2 0 -3.5 -0.3 -3.1 -2.3 0.2 -1.3 0 -2.1 -0.4 -1.8 -0.5 0.3 -0.9 1.4 -0.9 2.5 0 2.8 -1.7 2.3 -2.3 -0.6z"/>
  <path d="M43.7 87.4 c-0.1 -0.1 -1.5 -0.5 -3.2 -0.8 -7.1 -1.2 -16.5 -5.8 -20.8 -10.2 -3.5 -3.5 -8.7 -11.1 -8.7 -12.8 0 -0.6 -0.5 -1.7 -1.1 -2.3 -0.6 -0.6 -1.2 -4.9 -1.4 -9.4 -0.5 -14.8 5.3 -24.7 19.8 -33.5 3.1 -2 5.7 -4 5.7 -4.6 0 -0.6 0.9 -0.8 2 -0.5 1.1 0.3 2 0.2 2 -0.1 0 -0.4 4.5 -0.7 10 -0.7 5.5 0 10 0.4 10 0.8 0 0.5 0.6 0.7 1.2 0.5 0.7 -0.3 1.9 0.2 2.7 0.9 1.1 1.2 1.5 1.2 2.2 0.1 0.7 -1.1 0.9 -1.1 0.9 0 0 0.7 0.5 1 1 0.7 0.6 -0.3 1 -0.1 1 0.5 0 0.6 0.5 0.8 1 0.5 0.6 -0.3 1 -0.1 1 0.6 0 0.7 0.3 0.9 0.6 0.6 1 -1 14.1 12.8 16.1 17 1 2.1 1.8 4.1 1.9 4.6 0.1 0.4 0.2 0.8 0.4 1 1.2 1.4 1.7 13 0.7 16.7 -1.6 6.2 -2.3 8 -4.6 11.5 -3.2 4.9 -8.6 10.5 -10 10.5 -0.6 0 -1.1 0.4 -1.1 0.8 0 0.8 -5 3.6 -5.8 3.3 -0.1 -0.1 -1.6 0.6 -3.2 1.4 -1.7 0.9 -4.7 1.8 -6.8 2.1 -4.2 0.5 -13.2 1.1 -13.5 0.8z m7.9 -11.9 c0.4 -0.8 1.8 -1.5 3.3 -1.5 1.6 0 2.1 -0.3 1.4 -0.8 -0.7 -0.4 -1.4 -1.7 -1.6 -2.7 -0.1 -1.1 -0.6 -2.6 -1 -3.2 -0.5 -0.8 -0.3 -1.3 0.7 -1.3 0.9 0 1.6 0.6 1.6 1.3 0.1 0.7 0.6 0.4 1.5 -0.6 0.9 -1.2 2 -1.7 3.3 -1.3 3.9 1.3 11 -3.2 13.7 -8.8 4.8 -9.4 -3.9 -21.2 -16.2 -22.1 l-3.8 -0.2 0.1 -4.7 c0 -3.2 -0.4 -4.6 -1.3 -4.6 -0.7 0 -1.3 -0.7 -1.3 -1.6 0 -1.2 -0.7 -1.4 -3.2 -0.9 -1.8 0.3 -5.5 0.8 -8.1 1.2 -2.6 0.3 -4.9 0.9 -5.2 1.2 -0.8 1.4 1.2 3.1 3.8 3.3 3.5 0.3 3.7 0.9 4 19.2 0.2 14.5 0.3 14.9 2 13.1 1.6 -1.6 2.3 -1.7 5.1 -0.7 1.8 0.7 3.4 1.2 3.7 1.2 0.6 0 0.1 -22.9 -0.6 -24 -1.1 -1.7 1.7 -1.1 3.1 0.8 0.8 1 1.3 1.2 1.4 0.5 0 -1.5 2 -1.8 2 -0.4 0 0.5 1.4 2.3 3 3.9 2.3 2.3 3 3.9 3 6.9 0 5.9 -1.8 10.9 -4.5 12.7 -6.8 4.5 -21 3.7 -26.3 -1.3 -2.5 -2.4 -2.8 -3.4 -2.7 -8.7 0.1 -6.4 1.1 -10.4 2.6 -10.4 0.5 0 0.9 -1 0.9 -2.1 0 -1.6 0.5 -2 1.9 -1.6 1.3 0.3 2.1 -0.1 2.4 -1.4 0.4 -1.5 0 -1.7 -2.7 -1.3 -4.3 0.8 -8.7 2.9 -11.4 5.4 -2.7 2.5 -5.2 8.2 -4.7 10.7 0.2 1 0.4 2.7 0.4 3.8 0.2 4.8 9.7 11.6 16.4 11.9 3.1 0.1 3.9 0.5 4.4 2.5 0.4 1.7 0 2.8 -1.2 3.8 -1.8 1.2 -1.8 1.3 0.1 1.3 1.1 0 2.9 0.7 4 1.5 2.5 1.9 5.3 1.9 6 0z"/>
 </g>
 <g fill="#fff9ef">
  <path d="M82.1 87.8 c-0.1 -2 -0.5 -2.6 -1.6 -2.2 -0.9 0.4 -1.5 0 -1.5 -1 0 -0.9 0.7 -1.6 1.5 -1.6 1.6 0 3 4.1 2.2 6.2 -0.3 0.7 -0.6 0.1 -0.6 -1.4z"/>
  <path d="M74 84 c2 -1.3 4 -1.3 4 0 0 0.6 -1.2 1 -2.7 1 -2.2 0 -2.5 -0.2 -1.3 -1z"/>
  <path d="M35 75.5 c0 -2.3 2.3 -2.8 6.9 -1.5 6.3 1.7 6 3 -0.8 3 -4.8 0 -6.1 -0.3 -6.1 -1.5z"/>
  <path d="M51.6 75.5 c0.4 -0.8 1.6 -1.5 2.8 -1.6 1.1 0 3 -0.2 4.1 -0.4 2.2 -0.4 4.8 1.3 3.9 2.6 -0.3 0.5 -3 0.9 -5.9 0.9 -4.4 0 -5.3 -0.3 -4.9 -1.5z"/>
  <path d="M58 66 c0 -0.5 0.6 -1 1.4 -1 0.8 0 1.8 0.5 2.1 1 0.3 0.6 -0.3 1 -1.4 1 -1.2 0 -2.1 -0.4 -2.1 -1z"/>
  <path d="M45.4 60.5 c1.8 -1.8 3.4 -1.8 6.6 0 2.4 1.4 2.3 1.4 -2.8 1.5 -4.8 0 -5.2 -0.2 -3.8 -1.5z"/>
  <path d="M54.4 49.5 c0 -6 0.1 -8.4 0.3 -5.2 0.2 3.2 0.2 8.1 0 11 -0.2 2.9 -0.3 0.3 -0.3 -5.8z"/>
  <path d="M65.3 49.5 c0 -2.7 0.2 -3.8 0.4 -2.2 0.2 1.5 0.2 3.7 0 5 -0.2 1.2 -0.4 0 -0.4 -2.8z"/>
  <path d="M89.2 49 c0 -1.9 0.2 -2.7 0.5 -1.7 0.2 0.9 0.2 2.5 0 3.5 -0.3 0.9 -0.5 0.1 -0.5 -1.8z"/>
  <path d="M36 38.4 c0 -1.1 0.6 -1.5 2 -1.1 1.4 0.4 2 0 2.1 -1.1 0 -1.3 0.2 -1.4 0.6 -0.3 0.3 0.8 -0.2 2 -1.3 2.8 -2.4 1.7 -3.4 1.7 -3.4 -0.3z"/>
  <path d="M54.4 33.6 c-0.3 -0.8 -0.4 -2.7 -0.2 -4.3 0.3 -2.3 0.5 -2 0.9 1.5 0.5 4.3 0.2 5.3 -0.7 2.8z"/>
  <path d="M51.7 23 c-0.4 -1.5 0 -2 1.4 -2 1.2 0 1.9 0.7 1.9 2 0 1.1 -0.6 2 -1.4 2 -0.7 0 -1.6 -0.9 -1.9 -2z"/>
  <path d="M33.6 14.5 c0.4 -1 1.4 -1.5 2.5 -1.2 1 0.3 1.9 0.1 2.1 -0.5 0.2 -0.6 1.6 -0.6 3.3 -0.2 l3 0.8 -3.5 0.6 c-1.9 0.4 -4.5 1 -5.7 1.4 -1.9 0.6 -2.2 0.4 -1.7 -0.9z"/>
  <path d="M52.1 13.6 c1.2 -1 5.9 -1.5 5.9 -0.6 0 0.5 -1.4 1 -3.2 1 -1.7 0 -2.9 -0.2 -2.7 -0.4z"/>
 </g>
</svg>