<?xml version="1.0" encoding="utf-8"?>
<!DOCTYPE svg PUBLIC "-//W3C//DTD SVG 20010904//EN" "http://www.w3.org/TR/2001/REC-SVG-20010904/DTD/svg10.dtd">
<svg version="1.0" xmlns="http://www.w3.org/2000/svg" width="300px" height="400px" viewBox="0 0 300 400" preserveAspectRatio="xMidYMid meet">
 <g fill="#ffffff">
  <path d="M0 200 l0 -200 150 0 150 0 0 200 0 200 -150 0 -150 0 0 -200z m161.5 158.8 c6.6 -5.1 17.6 -14.8 24.5 -21.5 l12.5 -12.2 -11.7 -0.1 -11.8 0 0 -2.6 0 -2.5 -3.1 1.8 c-1.7 1 -6.6 4.6 -11 8.1 -7.4 5.8 -8.2 6.2 -13 6.2 -4.7 0 -5.7 -0.4 -10.3 -4.3 -2.8 -2.4 -7.6 -6 -10.6 -8.1 l-5.5 -3.6 -0.3 2.5 -0.3 2.5 -11.7 0 -11.7 0.1 12.5 12.2 c13 12.6 35.3 30.7 38 30.7 0.8 0 6.9 -4.2 13.5 -9.2z m54 -125.8 l5.5 0 0.2 32.2 0.3 32.1 4.4 -6.8 c6.1 -9.4 13.3 -24.3 16.8 -34.5 l2.8 -8.5 0.3 -78.2 0.3 -78.3 -98.1 0 -98 0 0 74.9 c0 81 0 81.1 5.5 95.6 3.3 8.8 8.5 19 14.4 28.4 l4.6 7.3 0.3 -32.2 0.2 -32.2 6 0.4 5.9 0.3 0.3 -6 0.3 -6 10 -0.8 c11 -0.9 23.5 -0.3 31.7 1.4 6.4 1.4 16.3 6.2 17.7 8.6 1.1 1.7 1.1 1.7 2.2 0 1.4 -2.3 9.5 -6.4 17.2 -8.5 4.8 -1.3 9.9 -1.6 23.4 -1.5 9.4 0 17.6 0.4 18.2 0.8 0.8 0.4 1.2 14.9 1.3 45.3 l0.3 44.7 0.2 -39.2 0.3 -39.3 5.5 0z m-128.8 23.7 c-0.1 -8.4 -0.3 -1.2 -0.3 15.8 0 17.1 0.2 23.9 0.3 15.2 0.2 -8.7 0.2 -22.7 0 -31z m71.5 24.3 c6 -5.6 10.5 -10.7 11.8 -13.5 2.2 -4.5 2.2 -4.5 0.2 -8.3 -1 -2 -3.4 -4.6 -5.1 -5.6 -3.3 -1.9 -3.3 -1.9 -7.7 0.3 -2.5 1.1 -4.7 2.8 -5 3.6 -0.4 1 -2 1.5 -4.4 1.5 -2.4 0 -4 -0.5 -4.4 -1.5 -0.3 -0.8 -2.5 -2.5 -5 -3.6 -4.4 -2.2 -4.4 -2.2 -7.7 -0.3 -1.7 1 -4.1 3.6 -5.1 5.6 -2 3.8 -2 3.8 0.2 8.3 1.9 3.9 20.1 22.5 22 22.5 0.4 0 5 -4.1 10.2 -9z m100.5 -162.8 c-0.1 -22.4 -0.2 -4 -0.2 40.8 0 44.8 0.1 63.2 0.2 40.7 0.2 -22.4 0.2 -59 0 -81.5z m-221 -0.5 c-0.1 -22.1 -0.2 -3.7 -0.2 40.8 0 44.6 0.1 62.6 0.2 40.2 0.2 -22.5 0.2 -58.9 0 -81z"/>
 </g>
 <g fill="#663817">
  <path d="M138.9 382.9 c-22.1 -15.3 -52.3 -43 -67.3 -61.9 -21.2 -26.8 -33.8 -52.3 -36.6 -74.1 -0.6 -5.2 -1 -39.1 -1 -90.1 l0 -81.8 114 0 114 0 0 82.4 c0 53.7 -0.4 85.2 -1.1 90.2 -4.1 29.4 -23.8 62.3 -57.4 96 -16.1 16.1 -31.2 28.9 -46 39 -4.4 3 -8.7 5.4 -9.6 5.4 -0.8 0 -4.9 -2.3 -9 -5.1z m21.8 -10.5 c47.8 -34.9 83.3 -80.2 92.3 -117.6 1.9 -7.9 2 -11.8 2 -91 l0 -82.8 -107 0 -107 0 0 82.8 c0 79.1 0.1 83.1 2 91 9.1 37.9 45.2 83.4 94.4 119.1 5.4 3.9 10.2 7.1 10.6 7.1 0.5 0 6.2 -3.9 12.7 -8.6z"/>
  <path d="M137 365.9 c-14.8 -11.1 -24.5 -19.7 -38 -33.6 -23.1 -23.7 -38.2 -45.7 -46.5 -67.8 -5.5 -14.6 -5.5 -14.3 -5.5 -98.6 l0 -77.9 101 0 101.1 0 -0.3 81.3 -0.3 81.2 -2.9 8.5 c-8.3 24.9 -23.5 47.6 -49.6 74.4 -16.4 16.9 -44.1 39.6 -48.2 39.6 -0.7 0 -5.6 -3.2 -10.8 -7.1z m22.7 -11.3 c5.9 -4.7 14.6 -12.1 19.3 -16.5 l8.5 -8 -8.2 -0.1 c-8.1 0 -8.2 0 -13.5 4.2 -2.9 2.3 -7.4 6.4 -10 9 -6.4 6.6 -9.4 6.6 -15.7 -0.1 -2.5 -2.6 -7 -6.7 -9.9 -9 -5.3 -4.1 -5.5 -4.1 -13.5 -4.1 l-8.2 0.1 8.4 7.9 c8.4 8 29.6 25 31.1 25 0.5 0 5.7 -3.8 11.7 -8.4z m-12.7 -36.6 c0 -9.3 0.4 -15 1 -15 0.6 0 1 5.7 1 15 0 8.3 0.2 15 0.5 15 0.3 0 4.2 -2.9 8.7 -6.5 14.1 -11.1 31.2 -18.5 43 -18.5 l4.8 0 0 -41.4 c0 -26.5 -0.4 -41.7 -1 -42.1 -0.5 -0.3 -7.4 -0.7 -15.2 -0.8 -15.6 -0.1 -22.6 1.1 -31.7 5.8 -5.7 2.8 -7 4.8 -8 11.4 -0.4 3.1 -1.1 4.6 -2.1 4.6 -1 0 -1.7 -1.5 -2.1 -4.6 -0.4 -2.6 -1.2 -5.6 -1.8 -6.8 -1.5 -2.8 -11.1 -7.5 -18.6 -9.2 -6 -1.3 -32.5 -1.6 -34.5 -0.4 -0.6 0.4 -1 16.5 -1 42.1 l0 41.4 4.3 0 c13.3 0 33 9 47.2 21.4 2.2 1.9 4.3 3.5 4.8 3.6 0.4 0 0.7 -6.7 0.7 -15z m-29.5 3.1 c-3 -2.9 -28.5 -8.8 -28.5 -6.7 0 0.4 1.2 2.3 2.8 4.2 l2.7 3.4 12 0 c7.4 0 11.5 -0.4 11 -0.9z m86.8 -2.5 c1.5 -1.9 2.7 -3.8 2.7 -4.2 0 -2.2 -25.5 3.8 -28.4 6.7 -0.6 0.5 3.5 0.9 11 0.9 l11.9 0 2.8 -3.4z m-121 -46.3 l-0.2 -35.8 -2.6 -0.3 -2.5 -0.3 0 32.7 c0 32.3 0 32.8 2.3 36.1 1.2 1.8 2.4 3.3 2.7 3.3 0.3 0 0.4 -16.1 0.3 -35.7z m134.7 -3.5 l0 -32.8 -2.5 0 -2.5 0 0 36.2 0 36.2 2.5 -3.4 2.5 -3.4 0 -32.8z m-143 -40.8 c2.8 0 5 -0.4 5 -1 0 -0.6 -5.1 -1 -13.2 -1 l-13.1 0 0.6 9.8 c0.8 12.5 3.5 22.1 10 35.2 l5.2 10.5 0.3 -26.7 0.2 -26.8 5 0z m157 42.8 c6.2 -13.1 8.9 -22.8 9.7 -35 l0.6 -9.8 -13.1 0 c-8.1 0 -13.2 0.4 -13.2 1 0 0.6 2.3 1 5 1 l5 0 0 26.5 c0 14.6 0.3 26.5 0.6 26.5 0.3 0 2.7 -4.6 5.4 -10.2z m-75.3 -52.2 c3.4 -1.5 9.9 -3.1 14.5 -3.8 4.6 -0.6 8.4 -1.2 8.6 -1.4 0.9 -0.7 -5.3 -10.7 -9 -14.6 -10 -10.2 -23.4 -13.1 -35 -7.5 -7.4 3.6 -14.3 10.3 -17.3 17 l-2.5 5.2 7.9 1.1 c8.3 1.2 15.9 3.5 20.1 5.9 3 1.8 4.5 1.5 12.7 -1.9z m84.6 -14.5 c1.3 -5 -6.2 -14.4 -14.5 -18.1 -4 -1.8 -5.9 -2 -12.7 -1.4 l-7.9 0.7 -0.4 -2.8 c-0.3 -2.6 -0.6 -2.3 -5 3.9 -4.8 6.6 -5.1 7.9 -1.1 5.1 1.2 -0.8 5 -2.2 8.5 -3.1 8.4 -2.2 17.5 -1.4 23.4 2.1 5 2.9 6.4 5 6.4 9.4 0 2.7 -0.4 3.1 -2.7 3.2 -2.7 0 -2.7 0.1 0.7 1.3 4.8 1.8 4.7 1.8 5.3 -0.3z m-184 -9.1 l-0.6 -6 4 0 c2.6 0 4.6 0.6 5.4 1.7 3 3.5 7.6 4.5 18.3 3.8 7.6 -0.5 11.1 -0.4 14.2 0.7 l4.2 1.5 -4.7 -6.5 -4.6 -6.4 -0.3 3.4 -0.3 3.5 -8.2 0.6 c-14.4 1.1 -19.9 -0.7 -21.9 -7.4 -1.1 -3.8 -1.2 -3.9 -3.1 -2.2 -2.5 2.3 -4.7 6.7 -4.7 9.4 0 2.2 2 9.9 2.6 9.9 0.2 0 0.1 -2.7 -0.3 -6z m55.1 -20 c-5.3 -7.4 -7.4 -13.7 -7.4 -22.5 0 -11.9 4.2 -19.5 10.7 -19.5 3.3 0 3.3 0 3.3 4.9 0 7 1.2 9.5 8.4 17 7.6 7.9 8.6 9.7 8.6 15.2 0 8.8 1.8 1.8 5 -19.1 1.8 -11.8 3.4 -21.8 3.7 -22.2 0.2 -0.5 1.9 -0.8 3.6 -0.8 l3.2 0 3.4 22.3 c1.9 12.2 3.7 22.6 4.1 23 0.4 0.4 1 -2.1 1.3 -5.6 1.6 -17.3 10 -28.7 22.2 -30.2 7.9 -1 10.5 -0.1 10.5 3.4 0 2.9 0.1 2.9 3.5 1.8 l3.5 -1 -2.6 -2.9 c-7.7 -7.9 -22 -5.1 -29.7 5.8 -2.7 3.9 -3.5 4.4 -6.8 4.4 l-3.7 0 -1.7 -7.7 c-5.1 -23 -7.3 -31.6 -7.9 -30.3 -0.5 1.4 -10.6 44.6 -10.6 45.6 0 0.2 -1.5 0.4 -3.4 0.4 -2.8 0 -4.2 -0.8 -7.4 -4.5 -5.3 -6.1 -6.7 -13.1 -3.8 -19.9 1.3 -3.1 1.3 -3.5 -0.4 -3.9 -3 -0.8 -9.4 2.7 -13.3 7.4 -4.7 5.4 -6.9 12.2 -5.6 17.6 0.5 2.1 0.9 5.5 0.9 7.6 0 3.5 -0.2 3.7 -3.1 3.7 -2.2 0 -7 -2.4 -15.9 -8 -7 -4.4 -13 -8 -13.3 -8 -0.4 0 1.3 3 3.6 6.6 2.6 4.1 4.3 6 4.5 5 0.2 -1.1 1.4 -1.6 3.7 -1.6 2.6 0 6.2 2.2 17.6 10.5 7.9 5.8 14.5 10.5 14.6 10.5 0.2 0 -1.3 -2.3 -3.3 -5z m101.3 -17 c1.7 0 3.3 0.5 3.5 1.1 0.2 0.6 2.1 -1.5 4.2 -4.6 2.1 -3.2 3.2 -5.6 2.5 -5.3 -0.8 0.3 -8.3 4.9 -16.7 10.2 -10.7 6.7 -16.2 9.6 -18.4 9.6 l-3 0 0.4 -9.4 c0.4 -13.3 -1.4 -9.2 -2.3 4.9 -0.3 6.1 -1 11.8 -1.4 12.8 -0.4 1.1 5.7 -2.9 13.6 -8.7 11.1 -8.1 15.1 -10.6 17.6 -10.6z"/>
  <path d="M45.1 57.2 c-8 -0.3 -8.3 -0.4 -6.7 -2.1 1.4 -1.6 1.6 -4.2 1.4 -18.2 l-0.3 -16.4 -2.8 -0.3 c-1.5 -0.2 -2.7 -0.8 -2.7 -1.3 0 -0.5 3.8 -0.9 8.5 -0.9 5 0 8.5 0.4 8.5 1 0 0.6 -1.1 1 -2.4 1 -1.3 0 -2.7 0.7 -3 1.6 -0.3 0.9 -0.6 8.7 -0.6 17.5 l0 15.9 7.8 0 c8.7 0 9.8 -0.4 10.7 -4.3 1.3 -4.9 2.8 -4.4 2.3 0.7 -0.3 2.6 -0.7 4.8 -0.9 5 -0.8 0.7 -11.7 1.1 -19.8 0.8z"/>
  <path d="M77 57.1 c-4.7 -0.3 -7.4 -0.8 -6 -1.1 l2.5 -0.5 0 -17.5 c0 -17.4 0 -17.5 -2.2 -17.8 -1.3 -0.2 -2.3 -0.8 -2.3 -1.3 0 -0.5 6.5 -0.9 15.1 -0.9 l15.1 0 -0.6 2.3 c-0.3 1.2 -0.6 3.2 -0.6 4.5 0 3.2 -1.8 2.7 -2.2 -0.5 -0.3 -2.8 -0.4 -2.8 -8 -3.1 l-7.8 -0.3 0 7.6 0 7.6 6.3 -0.3 c5.6 -0.3 6.2 -0.5 6.5 -2.5 0.7 -4.9 2.2 -2 2.2 4.2 0 6.2 -1.5 9.1 -2.2 4.3 -0.3 -2.1 -0.9 -2.3 -6.5 -2.6 l-6.3 -0.3 0 8.1 0 8 7.3 0 c8.2 0 9.1 -0.4 10.1 -4.2 1 -4.4 2.5 -3.3 1.9 1.5 -0.3 2.3 -0.6 4.3 -0.7 4.4 -0.5 0.6 -14.7 0.9 -21.6 0.4z"/>
  <path d="M104 56.8 c0 -0.5 0.6 -0.8 1.4 -0.8 0.8 0 2.2 -0.7 3 -1.6 1.3 -1.3 1.6 -4.2 1.6 -16 0 -15.1 -0.7 -18.4 -4 -18.4 -1.1 0 -2 -0.4 -2 -1 0 -1.3 15.7 -1.3 16.5 -0.1 0.3 0.5 -0.7 1.1 -2.2 1.3 -2.7 0.3 -2.8 0.5 -3.1 7.6 l-0.3 7.3 11.3 -0.3 11.3 -0.3 0.3 -5.2 c0.3 -6 -1 -9.3 -3.8 -9.3 -1.1 0 -2 -0.4 -2 -1 0 -0.6 3.5 -1 8.5 -1 4.7 0 8.5 0.4 8.5 0.9 0 0.5 -1.2 1.1 -2.7 1.3 l-2.8 0.3 -0.3 17.3 -0.2 17.2 3 0.7 c1.7 0.3 2.9 0.8 2.6 1 -0.7 0.8 -16.6 0.8 -16.6 0.1 0 -0.5 0.9 -0.8 2 -0.8 2.7 0 4 -3.6 4 -11.6 l0 -6.4 -11.5 0 -11.5 0 0 8.5 0 8.6 3 0.6 c1.7 0.3 2.9 0.8 2.6 1 -0.7 0.8 -16.6 0.8 -16.6 0.1z"/>
  <path d="M184.4 55.5 c-6.7 -3.4 -9.7 -8 -10.2 -16 -0.7 -10.4 4.7 -17.9 15 -21 6.2 -1.8 9.6 -1.9 17.2 -0.4 4.3 0.9 5.6 1.6 5.2 2.6 -0.4 0.8 -0.6 2.8 -0.6 4.4 0 3.7 -1.6 3.8 -2.3 0.1 -0.7 -3.7 -4.2 -5.2 -11.8 -5.2 -10.3 0 -15.6 4.6 -16.6 14.4 -1.3 12.4 6.3 21.6 17.7 21.6 6.6 0 8 -1.3 8 -7 0 -4.9 -0.1 -5 -3 -5 -1.6 0 -3 -0.4 -3 -1 0 -0.6 3 -1 7.1 -1 5.7 0 6.9 0.3 6.1 1.3 -0.6 0.7 -1.2 3.7 -1.4 6.7 -0.3 5.4 -0.3 5.5 -4.3 6.6 -2.2 0.7 -7.2 1.3 -11.1 1.3 -5.6 0.1 -8 -0.4 -12 -2.4z"/>
  <path d="M224.5 56.9 c-4.4 -0.3 -7.1 -0.6 -5.9 -0.7 4 -0.4 4.4 -1.9 4.4 -17.8 0 -8.4 -0.3 -15.9 -0.6 -16.8 -0.3 -0.9 -1.7 -1.6 -3 -1.6 -1.3 0 -2.4 -0.4 -2.4 -1 0 -0.6 3.5 -1 8.5 -1 5 0 8.5 0.4 8.5 1 0 0.6 -1.1 1 -2.4 1 -3 0 -3.6 1.6 -3.6 9.1 l0 5.9 11.5 0 11.5 0 0 -5.9 c0 -7.5 -0.6 -9.1 -3.6 -9.1 -1.3 0 -2.4 -0.4 -2.4 -1 0 -0.6 3.5 -1 8.5 -1 5 0 8.5 0.4 8.5 1 0 0.6 -1.1 1 -2.4 1 -1.3 0 -2.7 0.7 -3 1.6 -0.3 0.9 -0.6 8.4 -0.6 16.9 0 15.9 0.2 16.8 4.5 17.7 1.1 0.3 -0.8 0.7 -4.1 0.9 -3.4 0.2 -7.5 0.1 -9 -0.2 -2 -0.5 -2.3 -0.7 -0.8 -0.8 3.6 -0.2 4.4 -2.1 4.4 -10.3 l0 -7.8 -11.5 0 -11.5 0 0 7.9 c0 8.1 0.6 9.5 4.5 10.3 4.4 0.8 -0.5 1.3 -8 0.7z"/>
  <path d="M155.8 55.9 l3.2 -1 -0.2 -17.2 c-0.3 -17 -0.3 -17.2 -2.5 -17.5 -1.3 -0.2 -2.3 -0.8 -2.3 -1.3 0 -0.5 3.6 -0.9 8 -0.9 4.7 0 8 0.4 8 1 0 0.6 -0.9 1 -2 1 -3.3 0 -4.1 3.3 -3.9 17.6 0.1 16.1 0.3 17 3.8 18.3 2 0.7 0.6 0.9 -6.4 0.9 -7.3 0 -8.4 -0.2 -5.7 -0.9z"/>
  <path d="M264.6 16.1 c-0.9 -1.4 0.4 -4.1 1.9 -4.1 0.8 0 1.7 0.5 2 1 0.3 0.6 0.2 1 -0.4 1 -0.6 0 -0.8 0.7 -0.5 1.5 0.7 1.6 -2.1 2.2 -3 0.6z"/>
 </g>
 <g fill="#ffd13e">
  <path d="M139.4 362.2 c-11.3 -8.3 -24.8 -19.9 -32.9 -28.1 l-6.9 -7.1 14.1 0 14.1 0 5.4 4.1 c2.9 2.3 7.4 6.4 10 9.1 l4.7 5 4.8 -4.9 c2.6 -2.7 7.2 -6.8 10.1 -9.1 l5.4 -4.2 14.1 0 14.2 0.1 -11.3 10.9 c-10.8 10.4 -33.9 29.2 -36.6 29.8 -0.7 0.2 -4.9 -2.3 -9.2 -5.6z"/>
  <path d="M68.6 287.6 c-5.4 -8.3 -12.1 -22.6 -14.6 -31.6 -1.4 -5 -2.3 -11.8 -2.7 -20.3 l-0.6 -12.8 16.4 0.3 c14.9 0.3 16.4 0.5 16.3 2.1 -0.1 0.9 -0.2 2.6 -0.3 3.7 -0.1 1.7 -0.8 2 -5.1 2 l-5 0 -0.2 31.3 -0.3 31.2 -3.9 -5.9z"/>
  <path d="M223.1 291.5 c0.1 -1.1 0.1 -15.2 0 -31.2 l-0.1 -29.3 -5 0 -5 0 0 -4 0 -4 16.1 0 16.2 0 -0.6 12.8 c-0.4 8.3 -1.3 15.3 -2.7 20.2 -3.6 12.9 -19.4 42.6 -18.9 35.5z"/>
  <path d="M144.2 225.5 c-5.2 -3.7 -13.8 -6.6 -23.5 -7.8 l-8.9 -1.1 0.6 -3 c2.1 -10.2 10.2 -20.3 20.4 -25.3 5 -2.5 6.8 -2.8 15.2 -2.8 8.5 0 10.1 0.3 15.5 2.9 9.8 4.8 18.2 15.2 20 24.7 l0.6 3.5 -8.8 1.1 c-9.6 1.2 -18.2 4 -23.8 7.8 -2 1.4 -3.7 2.5 -3.8 2.4 -0.1 0 -1.7 -1.1 -3.5 -2.4z"/>
  <path d="M74.5 218.6 c-10.5 -3.3 -19 -10.7 -21.3 -18.4 -3.1 -10.4 -0.7 -18.9 6.8 -24 l3.5 -2.3 1.8 5.5 c2.7 8 5.1 9.1 19 8.7 3.1 0 5.7 -0.6 5.7 -1.1 0 -0.6 -4.4 -7.9 -9.8 -16.3 -14.8 -22.8 -22.2 -34.6 -22.2 -35.1 0 -0.2 9.6 5.6 21.2 12.9 11.7 7.4 21.4 13.3 21.5 13.1 0.1 -0.1 -0.3 -3.1 -0.9 -6.6 -1.4 -8.4 0.5 -15.7 5.9 -21.9 6.2 -7.3 13.7 -9.6 21 -6.6 3.4 1.4 3.5 1.6 2 3.3 -2.8 3.1 -4.7 8.9 -4.1 12.2 0.4 1.7 2.6 5.2 4.9 7.8 l4.2 4.6 2.6 -10.9 c1.4 -6.1 4.5 -19.7 6.9 -30.2 2.3 -10.6 4.5 -19.3 4.8 -19.3 0.4 0 2.8 9.9 10.6 44.8 0.9 3.9 1.9 7.2 2.3 7.2 0.4 0 2.1 -2 3.8 -4.4 5.6 -8 16.3 -12.3 26.1 -10.5 5.4 1.1 8.8 3.2 12 7.9 2.8 4.2 2.8 6 0 6 -1.3 0 -4.2 0.9 -6.6 2 -5.1 2.3 -7.2 6.4 -7.2 13.9 l0 5 24.5 -15.3 c13.5 -8.5 24.5 -15.2 24.5 -14.9 0 0.2 -6.2 10.2 -13.9 22.1 -7.6 11.9 -14.1 22.2 -14.5 22.9 -0.5 0.8 1.3 1 6.9 0.6 5.8 -0.5 8.5 -0.2 12.1 1.2 8.7 3.3 16.3 12.5 16.4 19.7 0 3.3 -2.8 10.8 -4.1 10.8 -0.5 0 -0.9 -0.3 -0.9 -0.7 0 -1.8 -7.1 -5.5 -10.5 -5.5 -3.8 0 -6.5 1.4 -13.6 7.4 -4.9 4.1 -7.8 4.6 -18.3 3.2 -5.6 -0.8 -6.1 -2.4 -0.7 -2.4 5.7 0 7.8 -1 15.9 -7.8 8 -6.7 12.6 -8.7 18.3 -7.9 3.5 0.5 3.8 0.3 2.9 -1.4 -1.4 -2.6 -8.7 -6.6 -13.5 -7.3 -7.7 -1.2 -19.5 3.4 -27.2 10.6 l-3.1 3 -1.7 -3.1 c-1.6 -3.1 -1.5 -3.3 1.3 -6.9 6.5 -8.4 24.4 -33.6 23.1 -32.6 -0.8 0.6 -8.9 6.6 -18.2 13.3 l-16.8 12.2 -2.9 -2.1 -3 -2.1 3.5 -3.4 c4.2 -4.2 5.5 -8.7 5.5 -18.8 0 -9 1.5 -13.2 5.9 -16.9 2.6 -2.3 2.8 -2.7 1.3 -3.2 -2.5 -0.8 -9.1 1 -12.1 3.1 -7.1 5.4 -11.8 15.5 -12.8 27.5 -0.6 7.1 -1.1 7.6 -5.5 5.9 -2.2 -0.8 -2.6 -2.2 -5.8 -23.5 -1.9 -12.4 -3.7 -22.2 -4.1 -21.8 -0.4 0.4 -2.2 10.4 -3.9 22.2 -1.8 11.8 -3.6 21.8 -3.9 22.2 -0.4 0.4 -2.1 1.1 -3.9 1.4 l-3.2 0.7 0 -4.7 c0 -6 -0.9 -7.7 -8.6 -15.7 -7.2 -7.6 -8.4 -10 -8.4 -17.1 l0 -5.1 -2.5 2.3 c-3.7 3.5 -5.8 10 -5.3 16.4 0.6 6.6 4.2 14.2 10.7 22.3 l5 6.2 -2.9 2.1 -2.9 2.1 -16.3 -11.9 c-9 -6.5 -16.9 -12.2 -17.7 -12.7 -2 -1.1 -1.6 -0.5 12.6 18.7 l12.3 16.8 -1.7 3.4 -1.6 3.5 -3.4 -2.9 c-4.7 -4.2 -9.8 -5.3 -19.1 -4.2 -9 1.1 -15.9 -0.3 -19.7 -3.8 -3.1 -2.9 -3.6 -2.4 -2.5 2.4 1.2 5.6 5.8 10.7 12.5 14.1 5.5 2.7 7.1 3 17.8 3.4 8.5 0.2 11.7 0.6 11.7 1.6 0 1.3 -6.3 2.5 -13.6 2.5 -2.3 0 -4.6 0.5 -4.9 1 -0.8 1.3 -5.1 1.2 -10 -0.4z"/>
 </g>
 <g fill="#d22030">
  <path d="M136.3 285.5 c-11.6 -10.9 -15.3 -16.4 -15.3 -22.4 0 -7.8 6 -14.1 13.3 -14.1 4.3 0 11.1 3.1 12.6 5.7 1.1 1.7 1.1 1.7 2.2 0 1.5 -2.6 8.3 -5.7 12.6 -5.7 5 0 9.5 2.9 11.6 7.3 4.2 8.8 1.2 15.3 -13.4 29 -6.1 5.6 -11.3 10.3 -11.7 10.4 -0.4 0.2 -5.7 -4.4 -11.9 -10.2z"/>
  <path d="M264.6 16.1 c-0.9 -1.4 0.4 -4.1 1.9 -4.1 2.1 0 2.8 2 0.8 2.1 -1 0 -1.3 0.3 -0.5 0.6 0.6 0.2 1.2 0.9 1.2 1.4 0 1.2 -2.7 1.2 -3.4 0z"/>
 </g>
</svg>