<?xml version="1.0" encoding="utf-8"?>
<!DOCTYPE svg PUBLIC "-//W3C//DTD SVG 20010904//EN" "http://www.w3.org/TR/2001/REC-SVG-20010904/DTD/svg10.dtd">
<svg version="1.0" xmlns="http://www.w3.org/2000/svg" width="4238px" height="985px" viewBox="0 0 4238 985" preserveAspectRatio="xMidYMid meet">
 <g fill="#146ee6">
  <path d="M2939.1 905.5 c-1.3 -1.3 -0.7 -5.2 1.8 -10.9 1.4 -3.2 2.6 -6.2 2.6 -6.8 0 -0.6 4.8 -11.1 10.7 -23.5 5.9 -12.4 10.9 -23.5 11.3 -24.8 0.4 -1.6 -1.9 -7.5 -7.6 -19.6 -10 -21.1 -14.5 -31.6 -14.5 -33 0 -0.7 -2.1 -5.6 -4.7 -11.1 -2.6 -5.4 -7.7 -16.4 -11.2 -24.5 -3.6 -8 -8.2 -17.8 -10.1 -21.7 -6.1 -12.2 -5.1 -13.3 11.6 -13.3 9.9 0 11.5 0.2 13.4 2 2.7 2.7 4.6 6.6 14.7 29.8 4.7 10.8 10 23 11.9 26.9 1.8 4 5.6 12.5 8.4 18.9 2.8 6.4 5.4 12.2 5.8 12.6 0.8 0.8 7.3 -12.7 7.3 -15.1 0 -1.3 5.2 -13.7 7.2 -17.2 0.6 -1 4.9 -10.6 9.6 -21.5 10.9 -25.1 15.4 -34.1 17.9 -35.5 2.9 -1.4 22.9 -1.3 24.4 0.2 1.6 1.6 1.5 6 -0.2 8.5 -1.9 2.8 -11.3 23.8 -12.3 27.3 -0.3 1.5 -3.5 8.7 -6.8 15.8 -3.5 7.3 -9.4 20.2 -13.4 28.9 -3.9 8.7 -8.3 18.2 -9.7 20.9 -4.7 9.4 -16.7 36.3 -16.7 37.4 0 0.6 -1.6 4.6 -3.7 8.9 -2.1 4.4 -6.9 14.8 -10.8 23.2 -3.8 8.5 -7.8 15.9 -8.7 16.7 -1.8 1.3 -27 1.8 -28.2 0.5z"/>
  <path d="M2050.5 849.9 c-3.7 -0.4 -9.1 -1.1 -12.2 -1.4 -3.8 -0.5 -6.2 -1.4 -7.9 -3.1 -2.2 -2.2 -2.5 -3.3 -2.5 -12.3 0 -7.5 0.3 -9.9 1.4 -10.3 0.8 -0.3 7 0.4 13.8 1.6 9.2 1.5 17.2 2.1 30.5 2.2 20.5 0.1 26.9 -1.1 32.9 -6.2 3.1 -2.6 3.6 -3.6 3.6 -7.5 0 -2.6 -0.7 -5.4 -1.5 -6.4 -2.7 -3.3 -13.3 -7.3 -34.7 -13.2 -22.5 -6.1 -34.5 -11.2 -41.1 -17.5 -5.7 -5.4 -7.3 -9.1 -7.8 -18.9 -0.7 -15.1 4.7 -25.3 17.2 -32.5 12.2 -7 16.4 -7.9 43.9 -7.9 26 0 36.9 1.2 41.4 4.8 2.3 1.8 2.6 2.6 2.6 11.2 l0 9.3 -6.8 -0.6 c-35.4 -2.9 -39.5 -3.1 -50 -1.9 -15.4 1.7 -20.1 4.7 -20.1 13 0 5.2 1.8 7.9 7.5 10.7 3.2 1.6 24.1 7.3 43.9 11.9 3.7 0.8 10.4 3.4 15 5.5 14.3 7 19.7 15.5 19.7 30.8 0 19.9 -12.5 33.5 -34.9 38.1 -8.6 1.7 -41.5 2.1 -53.9 0.5z"/>
  <path d="M2206.9 850.1 c-10.7 -1.3 -16.3 -3 -23.9 -6.9 -13.1 -6.7 -22.5 -18.8 -25.7 -32.5 -5.2 -22.6 -3.4 -51.2 4.3 -67.3 6.2 -13.3 20 -22.6 37.9 -25.7 12.9 -2.2 37.9 -1.3 48.2 1.6 10 3 20.7 8.6 24.6 13 11.2 12.9 10 37.3 -2.5 48.1 -8.2 7.3 -20.4 10.9 -58.8 17.7 -13.2 2.3 -24.4 4.6 -24.9 5.1 -1 1 1.6 9.4 4.3 13.8 1.5 2.5 3.6 3.6 10 5.6 8.5 2.7 10.6 2.8 62.2 1.7 l8.2 -0.2 0.3 8.7 c0.4 11 -0.1 12.9 -4 14.9 -5.4 2.8 -44.3 4.3 -60.2 2.5z m-4.4 -72.6 c9.3 -1.6 20.6 -3.5 25 -4 9.2 -1.1 18.3 -4.7 20.5 -8.4 2.2 -3.5 3 -9.4 1.8 -13.9 -2.6 -9.4 -12 -13 -31.7 -12.2 -19.7 0.8 -25.1 3.3 -30.1 13.4 -2.7 5.2 -3.1 7.4 -3.5 17.1 -0.3 6.1 -0.2 11.1 0.2 11.1 0.3 0 8.3 -1.4 17.7 -3.2z"/>
  <path d="M2398.6 850.5 c-0.4 -0.4 -0.7 -28.1 -0.7 -61.4 l0 -60.8 3 -3 c3 -2.9 3.3 -3 13.8 -3 l10.8 0 -0.2 64.2 -0.3 64.1 -12.9 0.3 c-7 0.1 -13.1 -0.1 -13.5 -0.4z"/>
  <path d="M2499.3 850.1 c-8.4 -1.2 -16.8 -3.7 -22.8 -6.6 -11.3 -5.8 -22.6 -20 -25.8 -32.7 -2.9 -11.1 -4 -29 -2.7 -40.4 2.8 -24.5 9.8 -36.1 26.9 -44.4 13.3 -6.5 19.2 -7.9 36.5 -8.4 16.6 -0.5 25 0.7 36 5.3 3.6 1.5 8.1 3.3 10 4 4.9 1.5 13.8 11 17.5 18.5 4.9 9.9 6.1 16.1 6.7 32.7 0.8 24.2 -2.2 38.1 -11.2 49.9 -2.1 2.7 -3.8 5.2 -3.8 5.6 -0.1 1.2 -8.3 6.9 -14.1 9.9 -8.8 4.4 -19.7 6.6 -33.9 7.2 -7 0.2 -15.6 0 -19.2 -0.5z m36.6 -27.6 c3.1 -1.3 6.7 -3.4 8 -4.5 5.5 -4.9 8.3 -14 9.1 -30.2 1.3 -25.6 -4.7 -39.5 -19.2 -44.5 -7.9 -2.8 -30.8 -2.8 -38.6 0 -14.5 5 -20.5 18.9 -19.2 44.5 1 20.1 4.9 29.4 14 33.4 8.4 3.7 12.8 4.3 26.6 4.1 11.9 -0.3 14.6 -0.7 19.4 -2.8z"/>
  <path d="M2633.4 849.3 c-15.3 -3.3 -25.2 -10.9 -30.4 -23.8 -2.2 -5.5 -2.2 -6.4 -2.6 -57 l-0.3 -51.4 13.6 0.3 13.6 0.3 0.5 47 c0.5 44.4 0.6 47.2 2.6 51.1 1.4 2.9 3.5 4.7 7.2 6.6 4.7 2.5 6.1 2.6 23.5 2.9 21.6 0.4 28.5 -0.2 31.3 -3 1.8 -1.8 1.9 -4.1 1.9 -53.5 l0 -51.7 13.6 0.3 13.5 0.3 0.3 59.8 c0.1 32.9 0 60.8 -0.3 62 -1.3 5.5 -8.4 8.1 -28.1 10.5 -13.2 1.5 -51.2 1.1 -59.8 -0.7z"/>
  <path d="M2759.2 849.4 c-12.1 -1.5 -15.4 -3.1 -17.1 -7.4 -1.3 -3.5 -0.7 -17.2 0.8 -18.7 0.8 -0.8 4.3 -0.6 13.8 1 15 2.6 45.3 3.3 52.9 1.1 10.4 -2.9 14.3 -6.2 14.3 -12.8 0 -8.7 -4 -10.6 -43.9 -21.5 -17.1 -4.7 -26.8 -9.2 -33.4 -15.6 -6.1 -5.7 -7.9 -10.4 -7.8 -21.1 0.1 -10.6 3.2 -18 10.7 -25.2 10.2 -9.9 22.3 -13 50.4 -13 24.5 0 38.3 1.9 42.5 6.1 1.7 1.7 1.9 3.2 1.7 10.4 l-0.3 8.4 -6.1 -0.1 c-3.4 0 -14.2 -0.6 -24 -1.4 -27.2 -2 -41.9 0.3 -45.5 7.3 -3.3 6.3 -0.9 12.9 5.8 16 4.1 1.9 26 7.9 43.7 12 9.9 2.2 21.7 7.9 26.5 12.7 4.6 4.6 8.3 14.9 8.3 23.4 0 3.2 -1 9.2 -2.2 13.4 -3.8 12.3 -10.9 18.8 -25.8 23.6 -6.4 2.1 -9.5 2.3 -30.7 2.7 -16.2 0.2 -27 -0.2 -34.6 -1.2z"/>
  <path d="M2869.1 850.3 c-1 -0.7 -1.2 -19.3 -1 -92 l0.3 -91.1 2.9 -2.8 c2.7 -2.8 3.4 -2.9 14.2 -3.2 8.7 -0.3 11.5 -0.1 12.2 1 0.5 0.7 0.9 42.8 0.9 93.5 0 82.3 -0.2 92.3 -1.6 93.7 -1.2 1.3 -4.1 1.6 -14 1.6 -6.8 0 -13.1 -0.4 -13.8 -0.8z"/>
  <path d="M3166.2 850.1 c-3.7 -0.5 -9.1 -1.2 -12.2 -1.5 -4.3 -0.5 -6.2 -1.4 -8.6 -3.7 -2.9 -3 -3 -3.3 -2.7 -11.6 0.2 -4.7 0.9 -9.1 1.5 -9.7 0.9 -0.9 4.6 -0.6 14.6 0.9 9.6 1.6 18.3 2.2 31 2.2 18.9 0.1 24 -0.6 31.3 -4.8 l4.3 -2.6 0 -6.5 0 -6.5 -4.3 -2.6 c-2.5 -1.4 -15.2 -5.6 -28.4 -9.3 -27.3 -7.8 -38.3 -12.4 -45.2 -19.1 -5.6 -5.4 -7.4 -10.5 -7.3 -20.7 0.2 -18 10.8 -30.1 31.5 -35.9 7.9 -2.2 41.6 -3.2 53.8 -1.5 18.8 2.6 20.4 3.8 20 15.7 l-0.3 8.4 -6.1 -0.1 c-3.4 0 -14 -0.6 -23.5 -1.4 -26.8 -2 -41.4 0.2 -45 7.3 -3.5 6.7 -0.9 12.9 6.8 16.6 4.7 2.2 17.2 5.6 42.6 11.5 9.2 2 20.9 8 25.8 12.9 6.5 6.5 8.5 11.9 8.5 23.3 0 8.3 -0.4 10.5 -2.7 15.3 -5 10.6 -12 16.7 -24.7 21.3 -7 2.5 -8.4 2.7 -30.9 2.9 -12.9 0.1 -26.5 -0.1 -30.1 -0.6z"/>
  <path d="M3313.4 849.6 c-13.8 -3.1 -21.7 -7 -29.3 -15.2 -7.5 -8 -10.5 -13.7 -12.8 -25 -2.8 -13.3 -3.1 -38.5 -0.6 -48.2 0.9 -3.7 2 -8.1 2.3 -9.9 0.8 -4.2 7.4 -14.1 12.4 -18.8 4.2 -4 14.6 -9 24.5 -11.7 6.8 -1.9 37.9 -3.2 48.9 -1.9 5.3 0.5 7.3 1.2 9.7 3.6 3.1 2.9 3.2 3.1 2.9 11.4 l-0.3 8.5 -8.2 -0.1 c-4.5 -0.1 -15 -0.3 -23.5 -0.5 -19.8 -0.5 -26 1.1 -33.9 8.8 -7.5 7.3 -9 12.8 -9 32.7 0 24.8 4.1 33.9 17.8 39.8 8.9 3.8 23.1 4.5 41.4 2 8.1 -1 13.5 -1.3 14 -0.8 0.6 0.6 1.2 5 1.6 9.8 1 15.1 -0.5 15.9 -30.9 16.6 -15 0.3 -22.2 0.1 -27.1 -0.9z"/>
  <path d="M3527 849.6 c-0.8 -1 -1.1 -24.9 -0.9 -91.1 0.3 -84.5 0.4 -90 2.1 -92.5 2.8 -4.2 6.3 -5.1 17.7 -4.8 l10.1 0.3 0.3 92.5 c0.1 50.9 0 93.5 -0.3 94.8 -0.5 2.1 -0.9 2.2 -14.2 2.2 -10.3 0 -13.9 -0.3 -14.8 -1.4z"/>
  <path d="M3752.7 850.1 c-14 -0.8 -32.1 -3.8 -36 -5.7 -1.5 -0.8 -3.3 -2.3 -3.9 -3.4 -0.7 -1.3 -1 -30.8 -1 -87.4 l0 -85.4 3 -3.3 3 -3.4 11.1 0 11 0 0.3 28.9 0.2 28.8 4.4 -0.7 c2.3 -0.5 13.1 -0.8 23.7 -0.8 21.8 0.1 27.1 1 40.1 7.3 12.9 6.2 22.5 19 26.6 35.7 2.5 9.7 2.3 36.6 0 47.5 -3.9 17.4 -14 30.7 -27.5 36.1 -13.3 5.3 -32.1 7.4 -55 5.8z m26.6 -25.5 c23.7 -2.8 28.1 -9.1 28.1 -40.9 0 -15.2 -0.3 -18.7 -2 -23.3 -5.1 -14 -16.2 -19.6 -38.7 -19.6 -13.1 0 -22.2 1.6 -24.3 4.2 -1.6 1.9 -1.8 5.5 -1.8 40.4 l0 38.1 3.4 0.6 c9 1.4 25 1.7 35.5 0.5z"/>
  <path d="M3854.7 849.9 c-1.7 -0.9 -1.8 -6.2 -1.8 -88.6 0 -56.6 0.4 -88.9 1 -91.3 0.6 -2 2.5 -4.9 4.2 -6.4 3.1 -2.6 3.6 -2.7 14.6 -2.3 l11.3 0.3 0.3 93.9 c0.2 74.5 0 94.1 -1 94.8 -1.9 1.1 -26.6 0.9 -28.6 -0.3z"/>
  <path d="M3954.5 850.4 c-26.9 -2.3 -45.6 -16.3 -51.8 -38.8 -1.9 -6.9 -2.2 -10.7 -2.2 -28.4 -0.1 -22.4 0.7 -27.8 6.4 -40.1 4.3 -9 9.9 -14.6 19.8 -19.6 11.7 -6 22 -7.7 42.6 -6.9 18 0.6 26.2 2.5 37.9 8.5 12.6 6.5 17.8 15.5 17.7 30.5 0 9.9 -1.5 14.9 -6.3 20.8 -8.8 10.9 -15.9 13.2 -72.2 23.4 l-15.3 2.8 0.4 4.1 c0.3 4.1 1.7 7.5 4.6 11 0.8 1 4.8 3.1 9 4.6 7.9 3 10.9 3 62.6 1.9 l8.2 -0.2 0.3 8.7 c0.4 11 -0.1 12.9 -4 14.9 -4.8 2.5 -41.2 4.2 -57.6 2.8z m-7 -72.9 c9.5 -1.7 20.7 -3.5 25 -3.9 9.1 -0.9 18.3 -4.8 20.8 -8.7 4 -6 2.3 -17.9 -3 -21.4 -9.3 -6.1 -37.3 -6.5 -48.6 -0.7 -6.5 3.4 -9.3 7.3 -10.8 15.5 -1.2 6.6 -2 22.3 -1 22.3 0.2 0 8.1 -1.4 17.6 -3.2z"/>
  <path d="M2298 799.8 c0.3 -50.1 0.3 -50.4 2.7 -56.3 4.9 -12.1 10.2 -16.4 26.8 -22.4 6 -2.1 8.4 -2.3 24 -2.2 19.4 0 24.5 1 26.2 5.2 1.1 3.1 1.2 15.6 0.1 17.5 -0.6 0.9 -5.4 1.2 -19.7 1.1 -22.1 -0.3 -25.7 0.6 -29.1 7 -1.8 3.5 -1.9 7 -2.5 51.8 l-0.5 48 -14.1 0.3 -14.1 0.3 0.3 -50.4z"/>
  <path d="M3424.3 848.5 c-14.1 -3 -26.8 -11.1 -31.2 -20.2 -4.6 -9.5 -4.6 -24.5 -0.1 -33.3 2.8 -5.5 9.3 -11 17.8 -14.9 8.3 -3.9 16.3 -5.9 30.2 -7.7 10.7 -1.3 31.6 -5.6 35.4 -7.4 3.1 -1.4 3.9 -4 3 -9.8 -1 -6.6 -6.2 -11.7 -13.6 -13.4 -7.8 -1.6 -37.6 -1.4 -49.7 0.4 -16.4 2.5 -15.5 2.9 -16.2 -6.1 -0.8 -8.9 0.1 -12.2 4.2 -14.2 4.4 -2.2 20.4 -3.7 41.6 -3.7 22.1 0 30.9 1.4 42.3 6.7 8.4 4.1 11.4 6.8 15.1 14.1 4.9 9.6 5.4 15.2 5.4 59.5 0 39.2 -0.1 41.1 -2 43.5 -4.3 5.5 -14.1 7 -48.5 7.6 -20.2 0.2 -28.2 0 -33.6 -1.1z m50.5 -22.8 l4.6 -0.7 0.3 -19.1 c0.1 -12 -0.1 -19.2 -0.7 -19.2 -2.8 0 -52.4 10.2 -54.1 11.1 -1 0.6 -3.2 2.5 -4.6 4.3 -3.6 4.2 -3.9 14 -0.5 17.4 3.1 3.1 10 5.9 17 7 6 0.9 29.8 0.4 38.1 -0.8z"/>
  <path d="M3609.1 848.6 c-18.3 -4.1 -29.7 -12.3 -33.8 -24.2 -2.8 -8 -2.5 -20.2 0.5 -27.2 5.2 -12 22.2 -21.6 42 -23.8 15.6 -1.7 35.5 -5.7 42.2 -8.4 3.6 -1.3 4.3 -4.5 2.8 -11 -1.5 -6.5 -6 -10.6 -13.5 -12.3 -6.8 -1.5 -41.3 -0.8 -54.7 1.1 -5.2 0.7 -9.7 1.1 -10 0.8 -0.3 -0.3 -0.8 -4 -1.1 -8.3 -0.7 -8.6 0.1 -11.2 4.6 -13.5 4.8 -2.6 24 -4 46.3 -3.5 22.2 0.5 28.6 1.7 39.6 7.6 9.4 4.9 15.2 14.1 17.3 27 1.4 8.4 1.5 83.7 0.1 87.3 -2.6 6.8 -12.5 8.7 -49 9.3 -20.2 0.3 -28.6 0.1 -33.2 -0.9z m49.6 -22.9 l4.6 -0.7 0.3 -19.1 c0.2 -12.8 -0.1 -19.2 -0.8 -19.2 -4.2 0 -53 10.5 -55.1 12 -4.5 2.9 -5.1 4.5 -5.2 12.7 0 7.3 0.2 7.8 2.9 9.8 3.3 2.5 8.9 4.4 15.9 5.5 5.5 0.8 29.5 0.3 37.4 -0.9z"/>
  <path d="M2403 693.9 c-5 -2.6 -7.5 -7.4 -7.5 -14.6 0.1 -10.8 5.7 -16.2 16.7 -16.2 10.8 0 15.1 4.7 15.1 16.3 0 7.9 -1.7 12.3 -5.9 14.5 -4.6 2.3 -13.6 2.5 -18.4 0z"/>
  <path d="M1415.1 630.7 c-21.5 -2 -27.5 -2.8 -37.7 -4.5 -15.4 -2.7 -25.7 -5.3 -38.9 -9.8 -22 -7.7 -34.4 -13.7 -48.7 -23.9 -4.7 -3.3 -8.9 -6 -9.3 -6 -2.9 0 -28.9 -26.6 -32.1 -32.7 -1.7 -3.4 -8.3 -13.7 -9.2 -14.3 -1.3 -1 -9 -16.1 -12.7 -25 -9 -22 -14.6 -42 -18.7 -66.9 -4.1 -25.2 -4.7 -34.2 -4.7 -73.6 0 -31.4 0.3 -40.9 1.8 -52.1 3.5 -25.2 9 -47.8 16.2 -65.9 5.5 -13.9 16.3 -34.6 21.3 -40.9 2.1 -2.8 4.8 -6.6 5.7 -8.6 2.6 -4.9 23.9 -26.3 33.1 -33.1 27.3 -20.1 63.7 -34.3 103.7 -40.6 21.5 -3.3 41.8 -4.4 68.5 -3.8 36.2 0.8 61.9 4.7 89.3 13.6 17.4 5.5 28.6 10.3 38.5 16.3 4 2.3 8.9 5 10.7 5.8 5.2 2.1 19.5 13.1 27.3 20.9 6.9 6.9 20.6 23.4 26.5 31.9 7.8 11.4 19.4 36.3 23.6 50.6 2.3 7.7 6.3 26.3 8.8 40.4 3.5 20.1 4.2 31.4 4.2 65.9 -0.1 37.5 -1.3 53.8 -6 78.8 -1.4 7.3 -3.1 15.9 -3.7 19.3 -4.8 25.2 -16.7 53.7 -30.5 73.6 -17.2 24.3 -26.9 34.1 -46.4 46.7 -34 22 -70.7 33.5 -119.8 37.6 -11.1 0.9 -52.3 1.1 -60.7 0.3z m51.6 -68.9 c25.7 -2.1 54.6 -11 65.2 -19.9 1.6 -1.3 3.5 -2.5 4.1 -2.5 2.1 0 13.7 -11 19 -18.3 5.5 -7.4 12.9 -22 16.2 -32.3 12.9 -38.6 15.3 -147.1 4.6 -202.3 -4.6 -23.9 -17 -47 -31.6 -59.4 -6.7 -5.6 -17.8 -13.1 -21.5 -14.4 -17.1 -6.4 -36.5 -10.9 -54.1 -12.7 -15.1 -1.5 -47 -0.6 -61.6 1.6 -12.3 1.9 -39.6 10.3 -46.8 14.4 -20.7 11.7 -36.9 32.6 -44.6 57.5 -3.5 11.1 -8.4 35.5 -9.8 49.1 -1.8 17.5 -2.5 65.7 -1.1 88.4 3.9 64.6 14.2 97.1 38.9 121.9 3.5 3.5 6.7 6.3 7.3 6.3 0.5 0 4.6 2.1 9.1 4.7 9.9 5.8 29.9 12.9 42.9 15.1 19.4 3.5 42.6 4.4 63.9 2.6z"/>
  <path d="M375 624.4 c-0.7 -1.3 -1 -67.7 -1 -207.4 l0 -205.5 -83.2 0 c-76 0 -83.3 -0.1 -84.5 -1.7 -1.8 -2.1 -2.6 -38.2 -0.9 -48.7 1.4 -9.8 6.1 -19.3 11.2 -23 9.3 -6.7 -4.9 -6.3 223.8 -6 l206.9 0.3 0 27.6 0 27.6 -2.8 5.6 c-4.1 8.6 -9.9 13.9 -17.9 16.3 -6.4 1.9 -9.2 2 -80.6 2 l-74 0 0 191.9 c0 155.9 -0.3 192.9 -1.4 197.5 -2.8 12 -9.6 19.7 -20.4 23.4 -5.6 1.8 -8.7 2 -40.2 2 -32.5 0 -34 -0.1 -35 -1.9z"/>
  <path d="M701.5 624.8 c-1.5 -1.5 -1.6 -19.8 -1.4 -234.8 0.3 -228.7 0.3 -233.3 2.3 -238.8 2.8 -7.8 11.2 -16.3 18.9 -19 5.4 -1.8 10.3 -1.9 135.9 -1.9 139.4 0 139.8 0 166.5 5.2 24.2 4.7 44.1 11.7 60.9 21.6 4.4 2.6 9.8 5.6 12.1 6.7 5.1 2.8 17.7 14.6 25.2 24 22.3 27.6 33.2 65.6 31.2 108.5 -1.8 41.2 -13.1 71.6 -36 97.4 -2.3 2.7 -4.7 4.8 -5.3 4.8 -0.6 0 -2.3 1.6 -4 3.6 -11.2 13.7 -43.1 29.1 -77.8 38 l-3.5 0.8 2.8 3.1 c4.4 4.7 28.7 36.6 30.4 39.9 0.8 1.6 3.7 5.4 6.3 8.5 3.7 4.3 28.3 36 37.8 48.6 0.8 1.1 8.7 11.7 17.6 23.5 8.8 11.9 16.9 22.2 17.8 23 2.2 2 14.2 18.1 14.2 19.1 0 0.4 1.6 2.8 3.6 5.2 1.8 2.5 4 6.1 4.7 8.1 2.1 6.5 2.9 6.4 -46.3 6.4 -41.3 0 -44 -0.1 -47.7 -1.9 -4.2 -2.1 -8.2 -6.6 -23 -25.6 -5.4 -7 -14.9 -19.2 -21 -27.1 -6.1 -7.9 -11.2 -14.7 -11.2 -15.3 -0.1 -0.5 -3.3 -4.9 -7.2 -9.7 -8.4 -10.2 -38.9 -49.8 -40.4 -52.2 -0.5 -0.9 -9.2 -12.4 -19.2 -25.3 l-18.2 -23.6 -65.8 0 -65.8 0 -0.3 77.4 -0.3 77.3 -2.3 5.8 c-2.9 7 -9.1 13.7 -16 17.2 -5.1 2.6 -5.1 2.6 -39.4 2.9 -30.8 0.3 -34.5 0.1 -36.1 -1.3z m270.6 -255.9 c17.9 -1.4 30.2 -3.7 37.5 -6.5 20.9 -8.5 33.6 -22.5 39.8 -44 2.1 -7.6 2.3 -10.1 2.3 -33.2 0 -27.6 -0.6 -31.4 -6.9 -43.2 -6.2 -11.7 -25.8 -26 -40.6 -29.2 -32.1 -7.3 -35.1 -7.5 -126.4 -8 l-83.1 -0.5 0 83.6 0 83.5 82 -0.6 c45.1 -0.3 88 -1.1 95.2 -1.7z"/>
  <path d="M1872.8 624.6 c-4.4 -3.1 -5 -4.3 -14 -30.4 -2 -6 -10.1 -26.6 -31 -79.2 -5.7 -14.3 -11.5 -29.5 -13.1 -33.7 -4.5 -12.9 -11.5 -32 -13.1 -35.2 -0.7 -1.6 -5.3 -13.2 -10.1 -25.5 -4.9 -12.4 -12.6 -31.9 -17.1 -43.4 -4.5 -11.5 -8.6 -22.3 -9 -24 -0.9 -3.5 -15.5 -41.7 -18.4 -48 -1 -2.2 -4.8 -11.9 -8.5 -21.5 -3.7 -9.5 -9.7 -24.9 -13.4 -34.1 -3.7 -9.2 -6.7 -17.5 -6.7 -18.3 0 -0.8 -3.4 -10 -7.6 -20.5 -4.2 -10.4 -9.5 -24 -11.9 -30.2 -2.3 -6.1 -5.1 -13.1 -6.1 -15.3 -4.3 -9.4 -10.2 -26.3 -10.2 -29 0 -1.6 0.6 -3.5 1.4 -4.1 1 -0.9 13.2 -1.1 45.8 -0.9 l44.2 0.3 5.1 2.7 c2.9 1.5 5.8 3.6 6.7 4.6 2.1 2.3 6.3 10.8 9.1 18 1.1 3 2.6 6.3 3.1 7.5 2.7 5.4 14.3 36.9 14.3 38.5 0 1 1.1 4.2 2.5 7.2 1.3 3 4.6 11.1 7.3 18.2 4.7 12.5 12.3 32 29.7 76.3 4.7 12 8.6 22.4 8.6 23.3 0 0.9 2.6 8.2 5.7 16.1 3.2 8 9.4 23.7 13.7 34.9 4.4 11.2 12.2 31.3 17.4 44.4 5.2 13.2 9.6 25.1 9.9 26.6 0.6 2.5 12.7 34.3 18.3 48.3 1.5 3.8 3.2 6.8 3.6 6.8 0.4 0 1 -1.2 1.3 -2.7 0.4 -1.4 1.6 -4.6 2.8 -7 3.1 -6.5 20.4 -50.8 21 -53.6 0.5 -2.3 32.4 -83.6 35.6 -90.4 2.7 -5.8 11.5 -29.6 12.3 -32.7 0.3 -1.6 2.1 -6.7 4.1 -11.2 7.6 -17.9 42.4 -106.2 42.4 -107.3 0 -2.3 12.1 -31.9 17.3 -42.1 6.1 -12.3 12.2 -18.7 21.6 -23.2 l6.6 -3.2 39.5 0 c45.7 0 43.7 -0.4 41.8 8.4 -0.9 4.6 -8.2 23.7 -26.7 70.3 -3.4 8.5 -6.1 16 -6.1 16.9 0 1.4 -9 25.3 -11.2 30.1 -0.5 1.1 -4.7 11.7 -9.2 23.5 -4.5 11.9 -8.7 22.4 -9.2 23.5 -1.7 3.7 -17.4 44.6 -17.4 45.6 0 1 -15.5 42 -18 47.4 -0.7 1.7 -5.1 12.8 -9.6 24.5 -4.5 11.9 -8.7 22.4 -9.2 23.5 -2.1 4.4 -10.2 26.3 -10.2 27.6 0 1.3 -4.9 14.8 -7.2 19.4 -0.5 1.1 -4.7 11.7 -9.2 23.5 -4.5 11.9 -8.7 22.4 -9.2 23.5 -0.5 1.1 -4.7 11.7 -9.2 23.5 -4.5 11.9 -8.9 22.9 -9.7 24.5 -0.8 1.7 -1.8 5 -2.3 7.2 -1.4 6 -8.1 22.8 -10.4 26.1 -4.4 6.2 -3.8 6.1 -62.5 6.1 -48.7 0 -53.7 -0.2 -56 -1.7z"/>
  <path d="M2092.1 625.6 c-2 -1.9 -0.1 -9.4 7.5 -29.4 4.4 -11.4 20.8 -52.4 23 -57.2 0.7 -1.6 5.1 -12.5 9.6 -24 4.6 -11.5 8.8 -21.8 9.3 -22.7 0.6 -1 1 -2.5 1 -3.3 0 -1.5 6.3 -17.5 26.6 -67.5 5.6 -14 12.6 -31.2 15.3 -38.1 2.9 -6.8 5.1 -13.1 5.1 -13.8 0 -0.8 1.8 -5.9 4.1 -11.5 2.3 -5.5 7.9 -19.3 12.4 -30.5 4.5 -11.2 8.8 -21.8 9.6 -23.5 0.7 -1.6 5.1 -12.5 9.7 -24 4.5 -11.5 9 -22.4 9.8 -24.2 0.7 -1.7 1.4 -3.8 1.4 -4.6 0 -1.8 36.6 -92.5 40.2 -99.4 3.3 -6.4 6.9 -9.9 13.5 -13 l5.1 -2.3 53.8 0 53.7 0 2.7 2.5 c3.3 3.2 6.9 9.3 9.8 16.6 1.2 3 3.3 7.8 4.5 10.6 1.3 2.8 3.2 7.7 4.2 10.7 2.5 7.4 10.2 27.5 22.5 57.7 19.6 48.5 26.1 65 26.1 66.7 0 1 0.4 2.2 0.9 2.9 0.5 0.5 4.4 10.1 8.8 21.4 4.4 11.2 9 22.8 10.3 25.5 1.2 2.9 5.7 13.9 10 24.5 4.2 10.7 9.8 24.5 12.3 30.7 2.6 6.2 4.7 12 4.7 12.9 0 0.8 2.3 7.3 5.2 14.3 2.9 6.9 9.3 22.8 14.2 35.1 5 12.4 13.3 32.8 18.3 45.5 5.1 12.7 9.3 23.4 9.3 23.8 0 0.9 16.4 42.9 18.9 48.1 4 8.8 11.7 29.6 12.4 33.3 1.2 7.6 3.6 7.2 -47.6 7.2 l-45.7 0 -3.4 -2.2 c-3 -2 -4.4 -4.6 -9.8 -18.4 -3.5 -8.9 -6.9 -17.6 -7.9 -19.4 -2.7 -5.7 -10.9 -27.5 -10.9 -28.7 0 -1.2 -5.7 -16 -8.2 -21.3 l-1.2 -2.7 -61.4 -0.6 c-33.7 -0.4 -86.5 -0.7 -117.4 -0.7 l-56 0 -2 3.4 c-1.1 1.7 -6.3 14.1 -11.6 27.3 -23.7 59.1 -24.4 60.7 -28.9 62.4 -2.9 1 -92.6 1.3 -93.6 0.2z m355.9 -166.7 c0 -1 -2.2 -6.5 -5.6 -13.9 -4.7 -10 -16.9 -40.5 -16.9 -42 0 -0.8 -0.7 -2.9 -1.5 -4.5 -0.8 -1.6 -5.2 -12.1 -9.8 -23.2 -4.6 -11.1 -9.4 -22.5 -10.6 -25.3 -1.3 -2.8 -5.7 -13.2 -9.7 -23 -4.1 -9.8 -8.2 -19.7 -9.2 -22 -4.1 -9.1 -7.2 -16.9 -7.2 -18.2 0 -0.8 -2.8 -8.1 -6.2 -16.1 -3.4 -8.1 -10 -23.9 -14.7 -35.2 -9.6 -23.4 -10.6 -25.4 -11.6 -24.3 -1.1 1.3 -14.1 34.1 -14.8 37.5 -0.4 1.5 -2 5.7 -3.6 9.3 -1.6 3.5 -6.4 14.9 -10.7 25.2 -4.2 10.3 -12.6 30.5 -18.5 44.9 -6 14.3 -11.6 28.1 -12.6 30.7 -2.2 6.7 -12.4 32.4 -15 38.3 -1.3 2.9 -5.9 13.9 -10.2 24.5 -4.3 10.7 -8.8 21.5 -9.9 24 -3.3 7 -5.9 13.4 -5.9 13.9 0 0.2 46 0.4 102.2 0.4 57.9 0 102.2 -0.4 102.2 -0.9z"/>
  <path d="M2650.5 625 c-0.9 -1.1 -1.2 -56.5 -1 -235.3 l0.3 -233.9 2.2 -5.6 c3.5 -8.3 9.4 -14.7 16.4 -17.6 l5.8 -2.3 123.6 -0.3 c128 -0.3 139.6 -0.1 165.4 3.9 29 4.5 57.2 14.2 75.4 26.2 4.1 2.7 9.3 6 11.4 7.5 6.2 4.1 19.2 17.5 25.1 25.7 29.2 41.3 34.8 116.5 12.4 165.8 -1.7 3.9 -3.2 7.6 -3.2 8.3 0 0.7 -2.9 5.6 -6.2 10.8 -7 10.8 -17.9 21.9 -30 30.8 -4.5 3.4 -9.1 6.7 -10.2 7.7 -6.8 5.7 -36.6 17.7 -57.2 23.1 l-5.1 1.3 4.2 4.5 c5.4 6.1 10.6 12.9 10.6 13.9 0 0.5 5.7 8.3 12.8 17.3 21.7 27.8 34.2 44.3 34.2 45 0 0.8 12.4 17 14.4 18.9 2.3 2.1 30.4 39.3 32.1 42.5 0.7 1.4 1.9 3.1 2.8 3.8 3.3 2.7 23.4 30.3 24.3 33.3 1.8 6.3 2.7 6.2 -46.1 6.2 -47.4 0 -45.6 0.2 -53.4 -5.5 -3.2 -2.3 -18.9 -22.1 -21.4 -26.8 -0.8 -1.6 -2.9 -4.3 -4.4 -6 -1.5 -1.6 -10.4 -13 -19.7 -25 -9.2 -12.1 -17.9 -23.1 -19.2 -24.4 -1.2 -1.3 -3 -3.6 -3.7 -5.1 -1.5 -3 -28.7 -38.8 -30.8 -40.5 -1.6 -1.4 -17 -21.6 -17 -22.4 0 -0.4 -4.2 -6.2 -9.4 -12.9 l-9.3 -12.3 -65.7 0 -65.7 0 -0.3 76.9 -0.3 76.8 -2.5 6 c-3.1 7.7 -9.8 15 -16.8 18.1 -5.2 2.3 -6.1 2.5 -39.6 2.8 -28.7 0.3 -34.4 0.1 -35.5 -1.1z m270.5 -256.1 c26.2 -2 39 -5.6 52.7 -14.6 12.4 -8 17.8 -16.2 23.6 -35.5 2.3 -7.7 2.7 -10.9 3.1 -28.6 0.6 -25.2 -0.8 -35.4 -6.9 -47.7 -5.4 -11 -12.1 -17.1 -25.8 -23.8 -5.6 -2.8 -12.4 -5.5 -14.9 -6 -33.5 -7.5 -33.7 -7.5 -126.9 -8 l-82.6 -0.5 0 83.6 0 83.5 82 -0.6 c45.1 -0.4 88.2 -1.1 95.7 -1.7z"/>
  <path d="M3155.4 625.1 c-5.3 -2.6 -5 10.4 -5 -234.7 0 -214.2 0.1 -228.8 1.7 -234.2 2.9 -9.2 7.6 -15.2 14.5 -18.8 l6.1 -3.1 170.2 -0.3 170.3 -0.2 1.9 2.1 c1.8 2 1.9 4.1 1.9 33 0 34.3 -0.4 36.5 -6.8 40.5 -3.4 2 -4.8 2 -132.3 2 l-129 0 0 64.9 0 64.9 108.1 0 c70.8 0 109.3 0.4 111.8 1 2 0.6 4.7 2.2 5.9 3.8 1.9 2.6 2 4 2 33.2 l0 30.5 -2.6 2.5 -2.5 2.6 -111.5 0 -111.4 0 0 66.9 0 66.9 123.1 0 c86.1 0 124.6 0.3 128.3 1.1 6.9 1.5 12.5 6.4 14.3 12.9 1 3.7 1.4 12 1.4 32.1 0 25.3 -0.1 27.4 -1.9 29.4 l-1.9 2.1 -177.4 -0.1 c-119.9 0 -178.1 -0.4 -179.5 -1.1z"/>
  <path d="M3569.1 625.5 c-2.6 -1.6 -3.4 -7 -3.4 -22 0 -17.9 1.1 -26.8 4.2 -35 3.6 -9.5 12.3 -17.5 22.9 -20.9 3.3 -1.1 34.9 -1.5 157.3 -1.9 l153.3 -0.5 9.7 -3.4 c9.9 -3.4 15.6 -7.6 18.8 -13.5 0.8 -1.4 2.8 -5.1 4.5 -8.2 3.7 -6.6 5.3 -14.7 5.3 -25.6 0 -18.7 -9.8 -30.1 -34.2 -39.8 -11.6 -4.6 -23.5 -8 -31.2 -8.7 -11 -1.1 -190.2 -38 -203.6 -42 -6.8 -1.9 -14.3 -4.1 -16.6 -4.7 -9.4 -2.5 -31 -12.8 -43 -20.6 -11.4 -7.5 -30.9 -26.5 -37.4 -36.7 -19.5 -30.4 -24.3 -69.3 -13.6 -109.9 7.2 -26.9 28.5 -56.7 51.5 -71.9 9.1 -6 22.7 -13.3 35.4 -18.6 10.6 -4.6 28.9 -9.1 48 -11.9 7.3 -1 41 -1.3 157.1 -1.3 146.8 0 148 0 149.5 2 2.3 3.2 1.5 52.2 -0.9 58.7 -3.1 8.2 -8.7 14.4 -16.4 18.4 l-7 3.6 -145.7 0.5 -145.7 0.5 -5.7 2.1 c-14.1 5.4 -19.3 10.1 -25.2 22.6 -6.1 13.1 -7.4 18.8 -7.4 35.6 0 20.1 2.5 28.2 10.8 36.9 10.7 10.9 25.6 16.3 71.6 26 19 3.9 44.2 9.2 56.2 11.7 12 2.6 23.1 4.6 24.7 4.6 1.7 0 8.6 1.1 15.1 2.6 6.6 1.4 23.1 4.9 36.6 7.7 41.9 8.6 62.3 14.4 86 24.5 6.3 2.8 14.3 6.6 17.7 8.6 3.5 2 6.7 3.7 7.3 3.7 1.9 0 19.9 15 24.6 20.5 14.6 17.3 22.2 36.7 24.2 62.5 2.5 29.7 -3.5 58 -17.1 80.9 -4.2 7.2 -17.1 24 -18.4 24 -0.4 0 -3.7 2.8 -7.4 6 -18.9 17.4 -50.6 28.8 -90.8 32.8 -12.3 1.2 -319.7 1.4 -321.6 0.2z"/>
 </g>
</svg>