<?xml version="1.0" encoding="utf-8"?>
<!DOCTYPE svg PUBLIC "-//W3C//DTD SVG 20010904//EN" "http://www.w3.org/TR/2001/REC-SVG-20010904/DTD/svg10.dtd">
<svg version="1.0" xmlns="http://www.w3.org/2000/svg" width="200px" height="200px" viewBox="0 0 200 200" preserveAspectRatio="xMidYMid meet">
 <g fill="#fffefe">
  <path d="M0 100 l0 -100 100 0 100 0 0 100 0 100 -100 0 -100 0 0 -100z m101 96 c0 -0.5 2.2 -1 4.9 -1 7.2 0 23.4 -4.4 33 -9 28 -13.5 47.9 -38.9 54.2 -69.5 4.9 -23.4 -0.6 -47.2 -16.1 -70 -9 -13.2 -22.2 -24.2 -38.1 -31.8 -18.4 -8.9 -37.3 -11.6 -55 -7.9 -37.7 7.8 -67 35.7 -76.4 72.6 -7.7 30.6 1.9 63.1 25.9 87.2 14.1 14.1 30.4 23 48.8 26.8 4.2 0.9 9.8 1.6 12.3 1.6 2.5 0 4.5 0.5 4.5 1 0 0.6 0.5 1 1 1 0.6 0 1 -0.4 1 -1z"/>
  <path d="M88.9 149.2 c-3.6 -3.1 -17.6 -15.3 -31.2 -27 -23.9 -20.7 -24.7 -21.4 -24.7 -25 0 -3.2 0.9 -4.7 6.3 -10.4 5.3 -5.8 6.8 -6.8 9.6 -6.8 3.7 0 4.3 0.5 28.9 21.8 8.4 7.2 15.4 13.2 15.7 13.2 0.3 0 11.2 -16 24.1 -35.5 27.7 -41.5 24.7 -39.2 38.5 -30.4 7.3 4.7 7.9 5.3 7.9 8.5 0 2.8 -5.6 11.8 -31.2 50.4 -36.3 54.4 -32.6 51 -43.9 41.2z"/>
 </g>
 <g fill="#c84c3d">
  <path d="M88.7 197.9 c-15.4 -1.6 -29.2 -6.6 -42.9 -15.4 -9.8 -6.3 -24.1 -21.1 -30 -31.1 -6.4 -10.8 -6.6 -11.4 -3.4 -11.4 1.9 0 2.6 0.5 2.6 2 0 1.1 0.7 2 1.5 2 0.8 0 1.5 0.4 1.5 1 0 0.9 1.9 3.6 4.8 6.6 0.7 0.8 2.7 1.4 4.3 1.4 1.7 0 3.8 0.9 5.1 2.2 1.9 1.9 2.3 2 2.6 0.6 0.2 -0.9 1.7 -1.9 3.8 -2.2 1.8 -0.4 3.4 -1.1 3.4 -1.6 0 -0.6 2 -1 4.5 -1 2.5 0 4.5 -0.4 4.5 -1 0 -0.5 1.9 -1 4.3 -1 3.4 0 4.8 -0.6 6.5 -2.5 1.3 -1.4 3.3 -2.5 4.7 -2.5 2 0 2.5 -0.5 2.5 -2.5 0 -1.3 0.7 -2.8 1.5 -3.2 2.3 -1.3 -1.2 -8.2 -4.2 -8.3 -1.9 0 -2.3 -0.5 -2.3 -3.5 0 -1.9 0.3 -3.5 0.6 -3.5 0.4 0 5.2 3.9 10.7 8.8 5.5 4.8 13 11.2 16.7 14.3 l6.6 5.7 10.9 -16.5 c7.5 -11.3 11.3 -16.2 12.2 -15.8 0.8 0.3 2.1 0.5 2.9 0.5 0.8 0 1.4 1 1.4 2.6 0 2.6 0.1 2.7 4.6 2 2.6 -0.3 5.7 -0.6 6.9 -0.6 1.2 0 3.2 -0.9 4.5 -2 1.3 -1.1 2.9 -2 3.7 -2 0.7 0 1.3 -0.4 1.3 -1 0 -0.5 1.7 -1 3.9 -1 2.1 0 4.4 -0.6 5 -1.4 0.6 -0.7 4 -1.6 7.8 -1.9 5.2 -0.4 7.1 -1 8.4 -2.6 2.1 -2.6 8.9 -2.9 13.3 -0.6 1.5 0.8 3 1.5 3.1 1.5 0.1 0 0.6 -2.5 1 -5.5 0.3 -3 1.1 -5.5 1.6 -5.5 0.5 0 0.9 -2.4 0.9 -5.4 0 -3.4 0.5 -5.6 1.3 -5.9 0.7 -0.3 0.5 -0.6 -0.5 -0.6 -1.4 -0.1 -1.8 -1 -1.8 -4.2 0 -3.8 0.2 -4 2.7 -3.7 2.4 0.3 2.9 0.9 3.5 4.3 0.4 2.2 0.7 8.5 0.7 14 0.2 37.4 -21.8 72.1 -56 88.5 -15.6 7.5 -35.7 10.8 -53.2 8.9z"/>
  <path d="M89 116.9 l-4.5 -4.1 5.3 0.6 c3 0.3 5.2 0.1 5.2 -0.4 0 -0.6 1.4 -1 3 -1 l3.1 0 -3.1 4.5 c-1.7 2.5 -3.4 4.5 -3.8 4.5 -0.4 0 -2.7 -1.9 -5.2 -4.1z"/>
 </g>
 <g fill="#da5141">
  <path d="M27.1 163.1 c-1 -0.7 -1.1 -1.3 -0.2 -2.7 0.7 -1.3 1 -1.4 1.1 -0.5 0 0.8 0.3 1.2 0.6 0.8 0.8 -0.8 -0.5 -4.7 -1.7 -4.7 -0.5 0 -0.9 0.7 -0.9 1.5 0 1 -1 1.5 -2.9 1.5 -2.5 0 -2.8 -0.3 -2.3 -2.2 0.4 -1.6 0.2 -2 -1 -1.5 -1 0.3 -1.5 0 -1.4 -1.1 0 -0.9 -0.4 -1.6 -1.1 -1.5 -0.7 0.2 -1 -0.4 -0.7 -1.2 0.4 -0.8 0.1 -1.5 -0.5 -1.5 -0.6 0 -1.1 -0.7 -1.1 -1.6 0 -0.8 -0.4 -1.3 -0.8 -1 -0.9 0.5 -2.2 -2.2 -6.7 -13.1 -3 -7.6 -5.5 -19.7 -5.5 -27.3 0 -5.2 0.2 -6 1.9 -6 1.9 0 3 3.1 3.2 8.9 0 1.4 0.3 2 0.6 1.4 0.2 -0.7 1.5 -1.3 2.8 -1.3 1.3 0 2.7 -0.4 3 -1 0.3 -0.5 3.1 -1 6.2 -1 7.6 0 10.3 -2.8 10.7 -11.1 0.3 -6.7 3.3 -10.9 7.8 -10.9 2.3 0 2.7 -0.5 3 -3.2 l0.3 -3.3 6.8 -0.3 6.7 -0.3 0 4.1 c0 4.6 -0.5 4.8 -3.7 1.8 l-2.3 -2.2 -6.5 7 c-3.6 3.8 -6.5 7.2 -6.5 7.6 0 0.4 7.2 6.9 16 14.4 8.7 7.6 15.7 14.1 15.4 14.6 -0.3 0.4 0.1 0.8 0.9 0.8 1.7 0 5.9 3.5 5.1 4.3 -0.3 0.3 1.5 2.5 4 5 2.5 2.4 4.3 4.7 3.9 5.1 -0.5 0.4 -0.9 1.2 -0.9 1.7 -0.1 0.5 -0.2 1.3 -0.3 1.8 0 0.5 -1.1 0.9 -2.3 0.9 -5.8 0.1 -12 2 -13.4 4 -1.2 1.7 -2.5 2.2 -6 2.2 -3.4 0 -4.4 0.4 -4.4 1.6 0 1.4 -0.7 1.6 -4.5 1.1 -2.6 -0.4 -4.5 -0.3 -4.5 0.3 0 0.5 -1.6 1.2 -3.5 1.6 -2.8 0.5 -3.5 1.1 -3.5 3 0 2.8 -1 3 -5 0.9 -2.7 -1.4 -2.9 -1.4 -3.7 1 -0.6 1.7 -1.2 2.2 -2.2 1.6z m48.9 -20.1 c0 -1.1 -0.6 -2 -1.3 -2 -1.9 0 -2.7 1 -2 2.6 0.8 2.1 3.3 1.7 3.3 -0.6z"/>
  <path d="M44.6 160.2 c-0.3 -0.6 -0.1 -1.4 0.5 -1.7 1.5 -1 2.5 0.3 1.2 1.6 -0.7 0.7 -1.3 0.7 -1.7 0.1z"/>
  <path d="M83.8 150.3 c-1.6 -0.4 -2.6 -3.3 -1.2 -3.3 1.3 0 4.4 2.1 4.4 3 0 1 -0.3 1.1 -3.2 0.3z"/>
  <path d="M118 137.6 c0 -2.7 2.5 -4.2 3.4 -2 0.8 2 -0.3 4.4 -2 4.4 -0.8 0 -1.4 -1 -1.4 -2.4z"/>
  <path d="M111.2 134.7 c0.1 -1.4 0.7 -2.3 1.3 -2.1 0.5 0.2 2.3 -2.4 4 -5.8 1.6 -3.5 12.3 -20.4 23.7 -37.5 11.5 -17.2 20.8 -31.5 20.8 -31.7 0 -0.2 -1.6 -1.4 -3.5 -2.6 -1.9 -1.2 -3.5 -2.8 -3.5 -3.6 0 -0.9 1.1 -1.4 3.5 -1.4 3.3 0 3.5 0.2 3.5 3.5 0 1.9 0.5 3.5 1 3.5 0.6 0 1 1.8 1 4 0 2.9 -0.4 4 -1.5 4 -2 0 -2 4.6 0.1 5.4 0.9 0.3 3.3 0.6 5.5 0.6 3.2 0 3.9 -0.3 3.9 -2 0 -1.1 0.7 -2 1.5 -2 0.8 0 1.5 -0.4 1.5 -1 0 -0.5 1.7 -1 3.9 -1 3.5 0 3.9 -0.3 4.3 -3 0.3 -1.6 0.2 -3 -0.2 -3 -1.1 0 -4 -5.8 -4 -7.9 0 -1.2 -0.4 -2.1 -1 -2.1 -0.5 0 -1 -0.7 -1 -1.5 0 -0.8 -0.4 -1.5 -1 -1.5 -0.5 0 -1 -1.6 -1 -3.5 0 -5.2 2.3 -4.4 7 2.5 7.2 10.7 13.3 25.1 15.4 36.8 0.4 2.4 0.2 3.2 -0.9 3.2 -0.8 0 -1.5 0.5 -1.5 1 0 0.6 0.7 1 1.5 1 0.8 0 1.5 0.3 1.6 0.8 0 0.4 0.2 1.9 0.4 3.5 0.2 1.8 -0.1 2.7 -1.1 2.7 -1 0 -1.4 1.4 -1.4 5.5 0 3 -0.4 5.5 -0.9 5.5 -0.6 0 -1 0.8 -1 1.8 -0.1 3.9 -1.4 9.2 -2.2 9.2 -0.5 0 -0.9 0.7 -0.9 1.5 0 2.1 -1.4 1.9 -4.7 -0.9 -4.4 -3.7 -7.9 -4.3 -10.1 -1.6 -1.4 1.7 -3.2 2.3 -8.5 2.7 -3.8 0.3 -7.2 1.2 -7.8 1.9 -0.6 0.8 -2.9 1.4 -5 1.4 -2.2 0 -3.9 0.5 -3.9 1 0 0.6 -0.6 1 -1.3 1 -0.8 0 -2.4 0.9 -3.7 2 -1.4 1.2 -3.7 2 -6.1 2 -2.1 0 -4.1 0.5 -4.5 1.1 -0.4 0.7 -2.1 0.9 -4.5 0.5 -3 -0.5 -3.9 -0.3 -3.9 0.8 0 2 -2.7 2.7 -4 1 -1.6 -1.8 -3 -1.8 -3 0.2 0 0.8 -0.4 1.3 -0.9 0.9 -0.5 -0.3 -1.8 0.5 -2.8 1.8 -2.9 3.7 -4.3 4.2 -4.1 1.4z m11.8 -10.2 c0 -0.8 -0.4 -1.5 -1 -1.5 -0.5 0 -1 0.7 -1 1.5 0 0.8 0.5 1.5 1 1.5 0.6 0 1 -0.7 1 -1.5z"/>
  <path d="M93.8 117.9 c-1.5 -0.4 -2.9 -0.5 -3.1 -0.3 -0.3 0.4 -8.8 -6.6 -29.5 -24.6 -6 -5.2 -6.5 -7 -2.2 -7 3 0 6.2 1.4 8.8 3.8 2.3 2.1 22.2 0.7 23 -1.6 0.2 -0.7 2.4 -1.2 5.2 -1.2 3.3 0 5 -0.5 5.4 -1.5 0.3 -0.8 1.4 -1.5 2.5 -1.5 1.1 0 2.2 -0.9 2.6 -2 0.4 -1.4 1.5 -2 3.5 -2 2.1 0 3.6 -0.9 5.4 -3.3 1.5 -1.9 2.6 -3.7 2.6 -4.1 0 -0.4 0.6 -1.4 1.4 -2.2 0.8 -0.7 1.6 -1.9 1.8 -2.4 0.2 -0.7 2.3 -1 4.9 -0.8 l4.6 0.3 -17.1 25.6 c-16.5 24.7 -17.2 25.5 -19.8 24.8z"/>
 </g>
 <g fill="#ee5a48">
  <path d="M6.6 119.1 c-0.9 -1 -2.1 -4.5 -2.6 -7.7 -0.5 -3.3 -1.4 -7.2 -1.8 -8.9 -1.3 -4.6 0.4 -20 3.2 -29.8 10.3 -34.9 39.2 -61.4 75.5 -68.9 12.5 -2.6 30.5 -2.1 43.1 1.2 10.8 2.8 25.5 9.8 34.5 16.5 8.9 6.6 21.2 19.5 19.5 20.5 -0.8 0.5 -0.4 0.9 1.2 1.4 1.9 0.5 2 0.8 0.8 1.6 -1.3 0.9 -1.3 1 0 1 0.8 0 2.3 1.1 3.2 2.4 1.7 2.3 1.7 2.4 -0.4 1.8 -2.1 -0.5 -2.1 -0.5 -0.2 2.6 1 1.8 2.6 3.2 3.6 3.2 1 0 1.8 0.5 1.8 1 0 0.6 -0.4 1 -1 1 -0.5 0 -0.7 1.3 -0.3 3.2 0.5 2.4 0.3 2.9 -0.7 2.3 -1 -0.6 -1.1 -0.2 -0.7 1.7 0.7 2.8 -0.5 3.6 -5.5 3.4 -1.4 -0.1 -2.4 0.2 -2.2 0.6 0.3 0.4 -0.4 0.8 -1.5 0.8 -1.5 0 -2.1 0.6 -2.1 2.1 0 2.1 -0.3 2.2 -9.5 1.7 -8.3 -0.5 -9.6 -0.3 -11.1 1.3 -1 1.1 -2.1 1.9 -2.5 1.9 -1.3 0 2.4 -7.3 4.4 -8.8 0.9 -0.7 1.7 -2.2 1.7 -3.2 0 -1 0.6 -2.3 1.4 -2.7 2.2 -1.3 3 -5.2 1.2 -5.9 -0.9 -0.3 -1.6 -1.3 -1.6 -2.1 0 -0.8 -0.4 -1.2 -0.9 -0.8 -0.6 0.3 -3.5 -1.1 -6.6 -3.1 -3.2 -2 -6.1 -3.2 -6.5 -2.7 -0.5 0.4 -4.1 5.8 -8.2 11.8 -6 9.1 -7.7 11 -9.5 10.7 -1.4 -0.2 -2.3 0.3 -2.8 1.7 -0.3 1.2 -1.1 2.1 -1.6 2.1 -0.5 0 -0.9 0.5 -0.9 1.1 0 1.7 -5.4 8.9 -6.7 8.9 -0.6 0 -1.4 1 -1.6 2.3 -0.4 1.9 -0.4 1.8 -0.6 -0.5 0 -1.6 -0.5 -2.8 -1.1 -2.8 -0.5 0 -0.6 0.7 -0.3 1.7 0.5 1.2 0.3 1.4 -0.7 0.8 -1 -0.6 -1.2 -0.4 -0.7 0.9 1.1 2.8 -0.3 3.9 -2.4 2 -1.7 -1.5 -1.9 -1.5 -2.5 0 -0.4 1.2 -1.9 1.6 -5.5 1.6 -2.7 0 -4.9 0.4 -4.9 0.9 0 1.6 -5.1 2.7 -13.5 3.1 -1.1 0.1 -2.3 0.6 -2.6 1.2 -0.6 0.9 -1.4 0.9 -3.4 0 -1.9 -0.9 -3.1 -0.9 -3.9 -0.3 -1.1 0.9 -4.6 -0.6 -6.6 -2.8 -1.4 -1.6 -5 -3 -5 -2.1 0 0.6 -1.8 -0.3 -3.9 -2.1 -2.2 -1.7 -3.8 -3.6 -3.7 -4.3 0.2 -0.6 0.1 -0.8 -0.1 -0.4 -0.3 0.5 -1.4 0.3 -2.5 -0.3 -1.1 -0.6 -2.7 -0.8 -3.6 -0.4 -1.6 0.6 -1.6 0.7 0.1 1.6 1.6 1 1.6 1.2 -1 3.2 -1.5 1.2 -3.2 2.1 -3.7 1.9 -0.5 -0.2 -1.6 0 -2.4 0.3 -1.3 0.5 -1.2 0.8 0.4 2 1.8 1.4 1.8 1.5 -0.7 0.9 -1.5 -0.3 -3 -0.1 -3.3 0.5 -0.6 1 0.6 1.5 2.7 1.2 1.6 -0.2 0.6 0.9 -2 2.2 l-2.6 1.4 2.1 1.8 c1.1 1 1.9 2.2 1.6 2.7 -0.3 0.5 -0.2 0.8 0.3 0.7 1.5 -0.4 4.3 1.3 4.3 2.5 0 0.6 -1.1 2.1 -2.4 3.3 l-2.3 2.2 0.2 -3.4 c0.1 -2 -0.3 -3.5 -1 -3.5 -1.3 0 -5.1 4.2 -4.7 5.2 0.3 1 -3.1 1.7 -9.3 2 -4.3 0.3 -5 0.6 -5.3 2.6 -0.4 2.6 -2.7 2.9 -3.7 0.5 -0.6 -1.6 -0.8 -1.5 -1.6 0.5 -0.5 1.3 -0.7 2.7 -0.4 3.2 0.3 0.4 -0.1 1.3 -0.9 1.9 -1 0.8 -1.7 0.6 -3 -0.8z m34.5 -63.1 c6.8 -0.5 14.1 -1.6 16.2 -2.5 2 -0.8 6.3 -1.5 9.5 -1.5 3.9 0 7.1 -0.7 9.7 -2.1 3.4 -1.7 6 -2.1 16.8 -2.2 11.3 -0.2 13 -0.4 13.9 -2.1 0.9 -1.6 1.8 -1.7 7.2 -1.1 3.7 0.3 7.9 0.1 10.6 -0.5 2.5 -0.7 7.9 -1.5 12.1 -1.9 5.6 -0.5 8.4 -1.3 10.4 -2.9 2.2 -1.8 4.1 -2.2 9.3 -2.2 l6.6 0 -3.9 -4.1 c-8.5 -8.8 -20.8 -16.5 -33.3 -20.8 -7.2 -2.5 -8.9 -2.6 -24.2 -2.5 -20.4 0.1 -27.3 1.1 -38.6 5.9 -15.7 6.7 -30 18.5 -38.6 32 -6.8 10.6 -6.8 10.9 -1 10.1 2.6 -0.3 10.4 -1 17.3 -1.6z"/>
  <path d="M143 87.8 c0 -0.9 0.5 -2 1.1 -2.3 1.7 -1.1 2 0 0.4 2.1 -1.3 1.7 -1.4 1.7 -1.5 0.2z"/>
  <path d="M147.5 81.1 c0 -1.6 0.6 -2.8 1.3 -2.8 0.6 0 1.2 0.8 1.2 1.7 0 1 -0.6 2.2 -1.2 2.8 -1 0.8 -1.3 0.4 -1.3 -1.7z"/>
  <path d="M157.4 78.6 c-0.8 -2.2 -0.2 -2.7 1.6 -1.6 1.2 0.7 1.2 1.2 0.3 2.1 -1 1 -1.4 0.9 -1.9 -0.5z"/>
 </g>
 <g fill="#f26655">
  <path d="M14.2 63.1 c-2.6 -1.6 7.1 -19.6 15.6 -29.2 5.6 -6.3 17.4 -15.2 25.3 -19.1 3.5 -1.7 6.6 -3.2 6.9 -3.3 0.3 -0.1 3.8 -1.2 7.8 -2.4 4 -1.3 7.9 -2 8.7 -1.7 0.9 0.3 1.5 0 1.5 -0.9 0 -1.7 0.9 -1.9 2.9 -0.6 1 0.7 1.9 0.4 2.7 -0.7 1 -1.4 1.6 -1.4 3.8 -0.4 4.2 1.9 3.1 2.9 -3.9 3.7 -3.6 0.3 -6.5 1 -6.5 1.4 0 0.4 -2.2 1.3 -5 2 -2.7 0.7 -5 1.7 -5 2.2 0 0.5 -0.9 0.9 -2 0.9 -2.4 0 -7 2.1 -7 3.2 0 0.4 -0.7 0.8 -1.5 0.8 -1.7 0 -15.5 9.2 -18.1 12.1 -2 2.3 -1.2 2.4 5.6 0.8 2.5 -0.6 9.5 -1.6 15.5 -2.4 9.7 -1.1 24.7 -3.3 62.5 -9.1 5.8 -0.8 11.2 -1.7 12 -1.8 3.7 -0.7 -17.6 -8.6 -23.1 -8.6 -2.1 0 -4.1 -0.4 -4.4 -1 -0.3 -0.5 -1.5 -1 -2.6 -1 -1 0 -1.9 -0.4 -1.9 -1 0 -0.5 0.7 -1 1.5 -1 0.8 0 1.5 -0.5 1.5 -1.1 0 -1.4 5.2 -0.2 6.2 1.4 0.6 0.9 0.8 0.9 0.8 0 0 -1.6 3.9 -0.9 14 2.4 9.1 3 13.5 5.2 22 10.9 8.3 5.6 15.8 13.1 16.9 17.2 l1 3.2 -4.3 0 c-2.3 0 -4.7 0.5 -5.4 1.2 -0.8 0.8 -1.5 0.8 -2.7 -0.2 -1.2 -1 -1.9 -0.9 -4 0.4 -1.4 0.9 -2.5 2.1 -2.5 2.6 0 0.5 -0.7 0.7 -1.5 0.4 -1.8 -0.7 -2 1.6 -0.2 3.6 1 1.2 0.9 1.2 -0.5 0.1 -0.9 -0.7 -2.1 -1 -2.7 -0.7 -0.5 0.4 -1.6 -0.1 -2.5 -0.9 -1.2 -1.2 -2 -1.4 -3.6 -0.5 -1.2 0.7 -2 0.7 -2 0.1 0 -1.2 -4.1 -0.5 -4.9 0.8 -0.3 0.5 -1.7 0.9 -3.1 0.9 -1.4 0.1 -5.3 0.1 -8.8 0.2 -3.5 0 -6.7 -0.2 -7.2 -0.5 -0.5 -0.3 -1.2 0 -1.6 0.6 -0.5 0.8 -0.3 0.9 0.7 0.4 1.1 -0.6 1.1 -0.5 0.3 0.4 -1.6 1.7 -14.3 3.2 -16.5 2 -2.3 -1.2 -2.5 -1.2 -4.5 0.8 -1.3 1.3 -1.9 1.4 -2.2 0.5 -0.6 -1.8 -4 -1.5 -9 1 -2.9 1.4 -6.8 2.2 -11.2 2.4 -3.7 0.1 -7.6 0.6 -8.6 1.2 -2.6 1.3 -9.8 2.5 -16.9 2.8 -10.3 0.4 -22 1.6 -23 2.3 -1.8 1.4 -4.2 1.9 -5.3 1.2z"/>
  <path d="M140.3 50.3 c-1.8 -0.7 -1.6 -2.3 0.2 -2.3 0.8 0 1.5 0.7 1.5 1.5 0 0.8 -0.1 1.5 -0.2 1.4 -0.2 0 -0.9 -0.3 -1.5 -0.6z"/>
 </g>
 <g fill="#f47c6d">
  <path d="M32.4 34.3 c0.8 -1.6 2.9 -4.2 4.8 -5.9 4.7 -4.5 16.4 -12.4 18.2 -12.4 0.9 0 1.6 -0.4 1.6 -0.8 0 -1.1 4.6 -3.2 7 -3.2 1.1 0 2 -0.4 2 -0.9 0 -1.1 11.7 -4.4 13 -3.6 0.6 0.3 1 0.1 1 -0.6 0 -0.7 1 -0.9 2.5 -0.7 1.4 0.3 2.5 0.2 2.5 -0.1 0 -0.4 6 -0.6 13.3 -0.4 7.2 0.1 13.2 0.2 13.2 0.3 0 0.1 1.7 0.4 3.8 0.6 7.4 0.6 24.5 7.6 30.7 12.4 l2.5 2 -2.5 0 c-1.4 -0.1 -4.1 0.2 -6 0.5 -1.9 0.3 -8 1.2 -13.5 2 -5.5 0.9 -19.2 2.9 -30.5 4.6 -11.3 1.7 -25.2 3.7 -31 4.4 -5.8 0.7 -13 1.7 -16 2.3 -3 0.6 -8.3 1.3 -11.8 1.7 l-6.3 0.5 1.5 -2.7z"/>
 </g>
</svg>