<?xml version="1.0" standalone="no"?>
<!DOCTYPE svg PUBLIC "-//W3C//DTD SVG 20010904//EN"
 "http://www.w3.org/TR/2001/REC-SVG-20010904/DTD/svg10.dtd">
<svg version="1.0" xmlns="http://www.w3.org/2000/svg"
 width="3840.000000pt" height="2160.000000pt" viewBox="0 0 3840.000000 2160.000000"
 preserveAspectRatio="xMidYMid meet">

<g transform="translate(0.000000,2160.000000) scale(0.100000,-0.100000)"
fill="#000000" stroke="none">
<path d="M18476 19702 c-3 -5 -126 -12 -273 -16 -147 -4 -270 -11 -273 -15 -3
-5 -86 -12 -185 -16 -99 -4 -184 -10 -190 -13 -10 -7 -268 -30 -367 -33 -32
-1 -58 -5 -58 -9 0 -4 -54 -11 -120 -15 -66 -4 -122 -10 -125 -15 -2 -4 -50
-11 -106 -15 -56 -4 -109 -11 -118 -15 -16 -8 -169 -28 -248 -32 -24 -1 -43
-5 -43 -9 0 -4 -40 -10 -90 -13 -49 -4 -92 -11 -95 -16 -3 -4 -42 -11 -87 -15
-46 -4 -87 -11 -93 -15 -5 -4 -41 -11 -80 -15 -38 -4 -75 -11 -80 -16 -6 -4
-20 -8 -30 -7 -32 1 -179 -24 -190 -32 -5 -4 -39 -11 -75 -15 -36 -4 -69 -11
-75 -15 -5 -4 -35 -11 -65 -14 -30 -4 -64 -11 -75 -16 -11 -5 -41 -11 -68 -15
-39 -5 -56 -14 -96 -55 -29 -29 -51 -61 -54 -79 -8 -36 -10 -1130 -3 -1152 2
-8 7 -124 11 -259 3 -134 10 -247 14 -250 5 -3 12 -72 16 -155 4 -82 11 -155
15 -160 5 -6 10 -40 12 -75 l3 -65 45 3 c25 2 50 8 55 12 6 5 38 12 73 16 34
3 62 10 62 14 0 4 32 10 70 14 39 3 78 10 88 16 16 9 125 28 187 33 17 1 35 5
40 8 6 4 43 10 83 14 39 4 74 11 77 15 3 5 46 12 95 16 50 3 93 10 95 15 3 4
46 11 95 15 50 3 90 10 90 13 0 4 15 8 33 9 67 3 252 27 262 33 6 4 55 10 110
14 55 4 105 11 110 15 6 4 64 11 130 15 66 4 125 11 130 15 6 5 105 14 220 20
116 7 215 16 220 20 6 5 91 11 190 15 99 4 182 11 185 16 3 4 130 11 283 15
153 4 280 11 283 16 7 11 1431 11 1438 -1 3 -4 128 -11 278 -15 150 -4 277
-11 283 -16 5 -4 91 -11 190 -15 99 -4 185 -10 190 -14 6 -5 105 -14 220 -20
116 -7 215 -16 220 -21 6 -4 65 -11 133 -15 67 -4 124 -11 127 -15 3 -4 53
-11 112 -15 60 -4 113 -10 118 -14 10 -6 174 -28 250 -34 22 -1 45 -5 50 -9 6
-4 50 -10 98 -14 48 -4 87 -10 87 -14 0 -4 38 -11 85 -15 47 -4 87 -10 90 -15
2 -4 37 -11 77 -15 40 -3 77 -10 83 -13 5 -4 21 -8 35 -9 68 -6 187 -25 201
-33 8 -4 46 -11 82 -15 37 -4 67 -11 67 -15 0 -4 30 -11 68 -15 37 -4 72 -10
77 -15 6 -4 26 -10 47 -13 41 -6 48 4 48 84 0 25 4 49 9 55 5 5 14 117 21 249
6 132 16 249 22 259 12 23 25 1374 14 1448 -11 71 -73 132 -152 149 -33 7 -63
16 -69 20 -5 4 -38 10 -73 14 -34 4 -64 10 -67 15 -3 4 -35 11 -72 15 -36 4
-74 11 -82 15 -19 10 -142 31 -188 32 -18 1 -33 5 -33 9 0 4 -36 11 -80 15
-44 3 -80 10 -80 14 0 4 -38 11 -85 15 -47 4 -87 11 -90 15 -3 5 -46 12 -95
16 -50 3 -90 9 -90 13 0 4 -19 8 -42 9 -80 4 -233 24 -249 32 -9 4 -62 11
-118 15 -56 4 -104 11 -106 15 -3 5 -59 11 -125 15 -66 4 -120 11 -120 15 0 4
-26 8 -57 9 -100 3 -358 26 -368 33 -5 3 -91 9 -190 13 -99 4 -185 11 -190 16
-6 4 -129 11 -273 15 -145 4 -265 11 -268 16 -7 11 -1471 11 -1478 0z m-522
-400 c3 -5 94 -12 202 -15 108 -4 202 -11 208 -16 6 -4 51 -12 101 -15 49 -4
94 -11 100 -15 5 -5 58 -14 118 -21 59 -7 107 -16 107 -20 0 -4 29 -11 65 -15
36 -3 65 -10 65 -15 0 -5 21 -12 48 -16 26 -3 52 -10 57 -14 6 -4 32 -13 60
-19 27 -7 56 -18 63 -24 18 -15 116 -15 134 0 7 6 36 17 63 24 28 6 55 15 60
19 6 4 29 11 52 15 24 4 45 10 48 15 3 4 31 11 62 15 32 4 63 10 68 15 6 4 57
13 115 20 58 7 110 17 115 21 6 4 51 11 100 15 50 3 95 11 101 15 6 5 99 12
208 16 108 3 196 10 196 15 0 11 237 11 244 0 3 -5 83 -12 177 -16 95 -3 177
-10 183 -15 6 -5 40 -11 76 -15 54 -6 94 -22 237 -92 94 -47 173 -89 175 -92
2 -4 24 -17 49 -30 45 -21 66 -38 68 -54 4 -24 18 -57 95 -218 14 -30 26 -61
26 -68 0 -6 5 -12 10 -12 6 0 10 -7 10 -16 0 -17 40 -105 52 -114 3 -3 10 -19
14 -35 4 -17 22 -59 41 -95 18 -36 33 -73 33 -82 0 -10 4 -18 9 -18 5 0 12
-13 16 -30 4 -16 11 -30 16 -30 5 0 8 -3 7 -7 -2 -11 9 -39 47 -118 49 -102
75 -163 75 -175 0 -5 4 -10 9 -10 5 0 12 -13 16 -29 3 -16 23 -62 44 -102 21
-41 36 -80 33 -87 -2 -6 1 -12 6 -12 5 0 13 -12 17 -27 3 -15 10 -30 13 -33
17 -12 42 -74 42 -102 l0 -31 -92 8 c-51 4 -95 11 -98 15 -3 5 -41 12 -85 16
-44 4 -85 10 -90 15 -6 4 -50 11 -98 15 -48 4 -87 10 -87 14 0 5 -47 11 -105
15 -58 4 -107 11 -110 14 -2 4 -27 7 -55 6 -28 -1 -53 2 -55 6 -3 4 -66 10
-140 14 -74 4 -137 11 -140 15 -3 4 -76 11 -162 15 -87 4 -162 11 -168 15 -5
5 -100 11 -210 15 -110 4 -207 9 -215 12 -8 4 -78 8 -155 10 -77 2 -288 8
-470 14 -331 10 -1431 3 -1450 -9 -5 -4 -71 -7 -145 -8 -74 0 -142 -3 -150 -7
-8 -3 -105 -8 -215 -12 -110 -4 -204 -10 -210 -15 -5 -4 -82 -11 -170 -15 -88
-4 -162 -11 -165 -15 -3 -4 -68 -12 -145 -18 -77 -6 -160 -14 -185 -17 -25 -3
-94 -10 -155 -17 -60 -6 -112 -14 -115 -18 -3 -4 -43 -10 -90 -14 -47 -4 -89
-11 -95 -16 -5 -4 -46 -10 -90 -14 -44 -4 -84 -11 -90 -16 -6 -5 -50 -12 -98
-16 l-87 -7 0 30 c0 17 13 54 29 84 15 30 31 67 35 84 4 16 11 32 14 35 9 7
52 95 52 106 0 5 15 41 34 79 92 190 111 231 111 240 0 14 59 129 68 133 4 2
7 11 7 20 0 10 12 40 25 67 14 28 25 58 25 68 0 9 4 17 9 17 5 0 12 14 16 30
4 17 10 30 15 30 5 0 11 14 15 30 4 17 11 30 16 30 5 0 9 8 9 17 0 10 15 49
33 88 19 38 47 97 62 130 16 33 28 63 27 68 -1 4 3 7 8 7 6 0 10 11 10 24 0
28 35 76 56 76 8 0 14 3 14 8 0 4 9 12 19 17 339 173 388 194 451 201 36 4 70
10 76 15 6 5 88 12 183 15 94 4 174 11 177 16 7 11 231 11 238 0z"/>
<path d="M17285 18980 c-16 -11 -37 -20 -45 -20 -8 0 -59 -23 -113 -50 -55
-28 -105 -50 -113 -50 -8 0 -14 -6 -14 -13 0 -7 -13 -39 -29 -71 -16 -31 -33
-70 -36 -86 -4 -17 -10 -30 -15 -30 -5 0 -11 -13 -15 -30 -3 -16 -19 -54 -35
-85 -16 -31 -32 -69 -35 -85 -4 -17 -10 -30 -15 -30 -5 0 -11 -14 -15 -30 -4
-17 -17 -49 -29 -73 -13 -23 -21 -48 -19 -54 3 -7 0 -13 -5 -13 -6 0 -13 -13
-17 -30 -4 -16 -10 -30 -15 -30 -5 0 -11 -14 -15 -30 -4 -17 -17 -50 -31 -75
-13 -25 -21 -45 -19 -45 2 0 -6 -20 -19 -45 -14 -25 -28 -59 -31 -76 -8 -35
-11 -34 85 -14 14 3 68 11 120 17 52 6 97 15 100 19 3 4 57 11 120 15 63 3
120 10 126 15 5 5 98 11 205 14 107 4 201 9 209 13 22 8 912 10 930 2 8 -4
129 -10 268 -12 l252 -5 0 38 c0 35 -9 50 -35 56 -66 15 -103 26 -117 33 -9 6
-35 13 -58 16 -22 4 -43 10 -46 15 -2 5 -27 11 -54 15 -28 4 -50 10 -50 13 0
4 -36 13 -80 20 -44 8 -83 17 -85 21 -3 5 -34 12 -70 15 -36 4 -65 11 -65 15
0 4 -37 11 -81 15 -45 3 -89 11 -98 16 -30 17 -245 30 -536 32 -159 2 -297 0
-305 -4 -8 -3 -66 -9 -129 -13 l-114 -7 7 32 c3 18 10 35 15 39 5 3 12 21 16
40 4 19 12 41 17 48 6 6 7 12 3 12 -4 0 -3 6 3 13 6 6 13 29 17 50 4 20 11 37
15 37 5 0 12 14 15 32 4 18 11 39 15 48 16 31 34 75 36 85 1 14 13 44 29 80 7
17 16 41 20 55 7 29 29 83 53 133 8 15 -44 6 -73 -13z"/>
<path d="M21066 18984 c6 -19 30 -74 45 -106 5 -10 9 -22 9 -27 0 -5 5 -22 11
-38 6 -15 10 -30 11 -33 0 -3 3 -9 8 -15 4 -5 11 -25 15 -42 3 -18 10 -33 15
-33 4 0 11 -16 14 -35 4 -19 13 -47 21 -62 8 -15 15 -35 15 -44 0 -9 3 -19 8
-23 4 -4 7 -11 8 -14 0 -4 6 -20 12 -35 7 -16 12 -34 12 -42 0 -8 4 -16 9 -19
5 -4 12 -24 16 -46 4 -22 10 -40 15 -40 4 0 10 -9 13 -21 5 -20 4 -20 -106
-14 -62 4 -125 10 -142 14 -82 18 -805 -5 -845 -28 -9 -5 -48 -12 -88 -16 -40
-4 -74 -11 -77 -15 -3 -4 -33 -11 -67 -15 -35 -4 -67 -11 -73 -15 -5 -4 -44
-13 -85 -20 -41 -7 -79 -16 -85 -20 -5 -4 -28 -11 -50 -15 -22 -4 -44 -10 -50
-15 -5 -4 -31 -11 -57 -14 -27 -4 -48 -11 -48 -15 0 -6 -58 -25 -110 -35 -40
-7 -50 -19 -50 -56 l0 -38 253 5 c138 2 259 7 267 11 21 8 913 10 925 2 6 -4
104 -10 220 -14 115 -4 214 -11 220 -15 5 -5 61 -12 123 -16 62 -4 114 -11
117 -15 3 -4 42 -11 87 -15 46 -4 88 -10 93 -13 10 -6 15 -7 92 -18 39 -6 41
-4 36 15 -3 12 -9 21 -13 21 -4 0 -11 12 -15 28 -3 15 -16 47 -28 72 -12 25
-22 50 -23 55 -2 20 -29 75 -36 75 -4 0 -8 8 -8 18 0 9 -14 43 -30 76 -16 32
-27 62 -24 67 3 5 1 9 -5 9 -5 0 -12 14 -16 30 -4 17 -11 30 -16 30 -5 0 -9 7
-9 16 0 9 -9 35 -19 58 -25 53 -35 79 -33 89 1 4 -2 7 -7 7 -5 0 -12 14 -16
30 -4 17 -11 30 -16 30 -5 0 -9 7 -9 16 0 9 -9 35 -19 58 -11 23 -31 67 -46
98 -18 42 -32 59 -50 64 -14 3 -25 10 -25 15 0 5 -7 9 -16 9 -9 0 -62 22 -118
50 -55 27 -116 53 -134 56 -29 6 -32 4 -26 -12z"/>
<path d="M18621 17073 c-129 -2 -239 -7 -245 -12 -6 -5 -123 -12 -261 -16
-137 -4 -254 -10 -260 -15 -5 -4 -86 -11 -180 -15 -93 -4 -174 -10 -180 -13
-5 -4 -39 -7 -75 -7 -36 0 -69 -3 -75 -7 -5 -3 -70 -9 -142 -13 -73 -4 -133
-11 -133 -15 0 -4 -54 -11 -120 -15 -66 -4 -122 -10 -125 -15 -2 -4 -52 -11
-110 -15 -58 -4 -105 -10 -105 -14 0 -4 -19 -8 -42 -9 -79 -4 -233 -23 -253
-32 -11 -5 -57 -12 -103 -15 -45 -4 -84 -11 -87 -15 -3 -4 -42 -11 -87 -15
-46 -4 -88 -11 -93 -16 -6 -4 -61 -14 -123 -21 -62 -6 -112 -15 -112 -19 0 -4
-32 -10 -70 -14 -39 -4 -72 -11 -75 -15 -3 -4 -36 -11 -75 -15 -38 -4 -70 -11
-70 -15 0 -4 -32 -11 -70 -15 -39 -4 -72 -11 -75 -16 -3 -4 -13 -5 -22 -2 -12
5 -15 2 -11 -9 4 -9 10 -52 13 -97 4 -44 11 -81 16 -81 4 0 11 -36 15 -80 3
-44 10 -80 14 -80 4 0 11 -29 15 -65 3 -36 11 -65 16 -65 5 0 7 -13 4 -29 -3
-17 -1 -32 4 -35 5 -3 12 -33 16 -66 4 -33 11 -62 15 -65 5 -3 12 -30 15 -60
4 -31 11 -58 15 -60 5 -3 12 -30 15 -60 4 -30 12 -55 17 -55 6 0 8 -11 6 -25
-3 -14 -2 -28 3 -30 4 -3 11 -26 15 -50 3 -25 10 -47 14 -50 5 -3 11 -24 15
-48 4 -23 11 -46 15 -52 4 -5 11 -26 15 -45 4 -19 11 -39 15 -45 4 -5 11 -29
15 -52 4 -24 11 -45 16 -49 5 -3 7 -10 3 -15 -3 -5 -1 -15 4 -22 6 -7 13 -29
17 -49 4 -21 11 -38 15 -38 5 0 11 -18 15 -40 4 -22 11 -42 16 -46 5 -3 9 -11
9 -19 0 -8 4 -24 9 -37 5 -13 10 -27 11 -33 1 -5 5 -14 10 -20 4 -5 11 -25 15
-43 4 -18 13 -45 21 -60 8 -15 14 -35 14 -44 0 -10 4 -18 9 -18 5 0 13 -15 17
-32 3 -18 12 -42 19 -53 7 -11 16 -35 20 -52 4 -18 11 -33 16 -33 5 0 9 -7 9
-16 0 -17 8 -36 69 -164 17 -36 31 -69 31 -74 0 -13 44 -101 53 -104 4 -2 7
-9 7 -15 0 -16 83 -181 93 -185 4 -2 7 -8 7 -14 0 -11 80 -178 90 -188 9 -9
29 -44 61 -105 43 -84 63 -119 85 -152 10 -15 17 -31 16 -35 -1 -5 3 -8 8 -8
6 0 10 -5 10 -10 0 -9 36 -66 50 -80 3 -3 11 -16 18 -30 15 -31 30 -55 62
-100 14 -19 31 -46 38 -60 18 -36 35 -64 50 -80 27 -32 82 -109 82 -116 0 -4
16 -26 35 -50 19 -23 35 -45 35 -49 0 -4 20 -31 45 -59 25 -29 45 -58 45 -64
0 -6 9 -16 20 -22 11 -6 20 -16 20 -22 0 -6 23 -37 50 -69 28 -32 50 -61 50
-64 0 -4 33 -44 73 -88 39 -44 72 -84 72 -88 0 -4 55 -66 123 -137 67 -72 122
-133 122 -137 0 -9 337 -345 345 -345 4 0 63 -53 131 -117 69 -65 131 -120
137 -122 7 -2 44 -33 83 -68 39 -34 74 -63 78 -63 4 0 33 -22 65 -50 32 -27
63 -50 69 -50 6 0 16 -9 22 -20 6 -11 15 -20 21 -20 6 0 35 -20 63 -45 29 -25
57 -45 61 -45 4 0 27 -16 51 -35 23 -19 45 -35 49 -35 4 0 24 -13 45 -30 21
-16 43 -30 49 -30 7 0 14 -7 17 -15 4 -8 11 -15 17 -15 5 0 25 -11 43 -25 18
-14 36 -25 40 -25 4 0 21 -10 38 -23 17 -13 38 -27 46 -31 8 -4 33 -18 55 -32
22 -13 52 -30 68 -36 15 -7 27 -16 27 -20 0 -4 5 -8 11 -8 6 0 22 -9 36 -20
14 -11 32 -20 39 -20 12 0 14 483 14 3075 l0 3075 -97 -2 c-54 -2 -203 -4
-332 -5z m-940 -669 c8 -6 47 -16 86 -23 40 -7 75 -17 78 -21 3 -5 23 -11 45
-15 22 -4 40 -11 40 -15 0 -5 14 -11 30 -15 17 -4 30 -11 30 -16 0 -5 5 -9 11
-9 18 0 123 -53 160 -82 20 -15 42 -28 48 -28 6 0 11 -5 11 -10 0 -6 8 -13 18
-17 29 -11 242 -206 242 -222 0 -4 11 -18 25 -31 14 -13 25 -27 25 -32 0 -5
11 -19 24 -31 14 -13 28 -35 31 -50 4 -15 11 -27 16 -27 5 0 16 -15 24 -32 30
-62 40 -78 47 -78 5 0 8 -7 8 -16 0 -9 9 -35 19 -58 18 -39 33 -75 35 -86 1
-3 4 -9 7 -15 4 -5 10 -28 14 -50 4 -22 11 -45 16 -51 5 -6 12 -40 16 -75 3
-35 11 -67 16 -71 15 -9 15 -391 0 -409 -6 -8 -14 -44 -18 -81 -3 -38 -10 -68
-15 -68 -4 0 -11 -17 -15 -37 -4 -21 -11 -43 -16 -49 -5 -7 -9 -16 -8 -20 5
-21 -102 -242 -143 -295 -15 -20 -28 -41 -28 -46 0 -5 -22 -34 -50 -65 -27
-31 -50 -60 -50 -65 0 -10 -115 -123 -125 -123 -4 0 -32 -22 -64 -50 -32 -27
-61 -50 -65 -50 -4 0 -23 -12 -41 -26 -32 -24 -226 -127 -233 -124 -4 2 -61
-19 -83 -30 -9 -5 -34 -12 -55 -16 -22 -3 -43 -10 -49 -14 -5 -5 -41 -11 -80
-15 -38 -4 -75 -12 -82 -17 -27 -22 -465 6 -498 32 -5 4 -29 11 -52 15 -24 4
-45 10 -48 15 -3 5 -23 11 -44 15 -22 3 -47 13 -58 20 -10 8 -24 15 -32 15
-15 0 -103 41 -111 51 -3 4 -30 21 -60 38 -86 50 -92 54 -118 84 -13 15 -29
27 -35 27 -13 0 -207 190 -207 203 0 5 -18 30 -40 56 -22 26 -40 53 -40 59 0
7 -4 12 -9 12 -11 0 -137 253 -147 295 -4 17 -11 35 -16 42 -5 7 -7 17 -3 23
3 5 2 10 -3 10 -6 0 -13 28 -17 63 -4 34 -12 65 -19 69 -15 10 -16 479 0 499
6 8 15 40 18 71 4 32 12 60 17 64 5 3 7 10 3 15 -3 5 -1 15 4 22 5 7 12 26 16
42 7 31 36 96 47 105 4 3 10 19 13 37 4 17 14 37 22 44 8 6 14 17 14 24 0 6
14 31 30 53 17 23 30 45 30 48 0 4 16 26 35 50 19 23 35 45 35 49 0 8 218 225
226 225 3 0 24 16 47 35 22 19 45 35 49 35 5 0 24 10 41 23 48 33 67 44 127
72 30 14 69 32 85 40 17 8 42 17 58 21 15 3 27 9 27 13 0 3 30 12 68 20 77 15
82 16 102 24 29 12 97 15 311 13 134 -1 222 -6 230 -12z"/>
<path d="M17056 16171 c-3 -5 -21 -12 -39 -15 -43 -8 -242 -109 -289 -146 -20
-17 -39 -30 -43 -30 -8 0 -71 -55 -130 -115 -43 -43 -47 -50 -30 -53 11 -2 25
-8 30 -12 6 -5 27 -11 48 -15 20 -4 37 -11 37 -16 0 -4 21 -11 48 -15 26 -3
52 -10 57 -14 6 -4 18 -6 27 -5 10 2 20 -1 24 -6 12 -19 24 -6 55 59 18 37 42
81 53 97 23 34 49 79 65 113 6 12 15 22 21 22 5 0 10 6 10 13 0 8 9 22 20 32
11 10 20 23 20 30 0 6 13 22 30 35 16 14 29 31 30 38 0 14 -36 17 -44 3z"/>
<path d="M17720 16171 c0 -4 18 -29 40 -54 22 -25 40 -49 40 -54 0 -4 10 -18
23 -29 12 -12 29 -35 37 -50 8 -16 17 -31 20 -34 11 -11 32 -49 75 -137 44
-90 53 -101 69 -86 4 4 17 8 29 9 31 4 109 24 127 33 9 5 31 12 50 16 37 8 70
25 70 36 0 10 -124 130 -167 162 -96 70 -235 147 -267 147 -8 0 -17 4 -20 9
-4 5 -24 12 -46 16 -22 4 -42 11 -46 16 -7 11 -34 12 -34 0z"/>
<path d="M17261 16043 c-17 -21 -42 -50 -56 -64 -13 -15 -22 -29 -19 -31 2 -3
-2 -11 -11 -18 -8 -7 -15 -18 -15 -25 0 -7 -7 -15 -15 -19 -8 -3 -15 -10 -15
-16 0 -6 -12 -27 -26 -46 -15 -19 -23 -34 -19 -34 4 0 -4 -15 -19 -34 -47 -62
-34 -76 70 -76 36 0 64 -4 64 -10 0 -5 25 -10 55 -10 l55 0 0 210 c0 117 -4
210 -9 210 -5 0 -23 -17 -40 -37z"/>
<path d="M17520 16076 c0 -3 -1 -97 -1 -208 l0 -203 47 -3 c26 -2 52 2 57 7 6
6 41 11 77 11 36 0 71 5 77 11 11 11 -3 45 -52 124 -14 22 -28 47 -32 55 -8
17 -6 14 -75 100 -29 36 -58 74 -64 85 -10 18 -34 33 -34 21z"/>
<path d="M16341 15567 c-22 -45 -41 -90 -41 -99 0 -9 -4 -19 -9 -22 -5 -4 -12
-24 -16 -46 -4 -22 -10 -40 -15 -40 -4 0 -11 -24 -14 -52 -4 -29 -12 -58 -17
-64 -6 -7 -9 -34 -7 -61 l3 -48 214 -3 c149 -2 218 1 227 9 9 7 14 32 14 70 0
32 4 60 9 63 4 3 11 37 15 76 4 38 11 72 16 75 4 3 6 14 3 24 -3 10 0 22 6 25
17 11 14 56 -4 56 -8 0 -15 4 -15 8 0 4 -26 13 -57 20 -32 6 -62 13 -68 15 -5
2 -30 9 -55 16 -40 10 -72 23 -131 52 -13 6 -25 -9 -58 -74z"/>
<path d="M18400 15629 c-19 -5 -44 -14 -55 -19 -26 -12 -108 -34 -117 -32 -5
1 -8 -2 -8 -7 0 -5 -23 -11 -51 -15 -43 -6 -61 -12 -98 -33 -2 -2 1 -9 8 -17
6 -8 14 -37 18 -65 3 -28 9 -51 14 -51 4 0 11 -36 15 -80 3 -44 11 -80 15 -80
5 0 9 -22 9 -50 l0 -50 226 0 226 0 -7 78 c-4 42 -12 82 -17 89 -5 7 -7 17 -3
23 4 6 2 16 -3 23 -6 7 -13 29 -17 50 -4 20 -11 37 -16 37 -5 0 -9 7 -9 15 0
18 -82 195 -90 194 -3 0 -21 -5 -40 -10z"/>
<path d="M16934 15440 c-4 -27 -10 -50 -14 -50 -5 0 -12 -30 -15 -67 -4 -38
-12 -73 -17 -80 -5 -6 -8 -33 -6 -60 l3 -48 213 -3 212 -2 0 164 0 164 -82 6
c-46 2 -109 6 -140 8 -31 2 -60 6 -64 11 -4 4 -24 7 -45 7 l-38 0 -7 -50z"/>
<path d="M17800 15482 c0 -5 -26 -9 -57 -11 -32 -1 -95 -5 -140 -7 l-82 -5 -3
-161 c-2 -88 -1 -162 1 -164 2 -2 98 -4 214 -4 l209 0 -7 78 c-4 42 -11 82
-15 87 -4 6 -6 19 -4 30 1 10 -1 24 -5 30 -5 5 -12 33 -16 60 -4 28 -12 56
-17 63 -11 13 -78 17 -78 4z"/>
<path d="M16225 14912 c-9 -9 -5 -101 4 -107 5 -3 13 -30 16 -60 4 -31 11 -57
15 -60 5 -3 11 -23 15 -45 4 -22 11 -40 16 -40 5 0 9 -7 9 -17 0 -21 54 -136
74 -155 13 -14 21 -14 73 0 32 9 60 19 63 23 3 3 21 10 40 14 19 4 40 11 45
15 6 4 30 11 55 14 63 10 90 25 90 52 0 13 -5 26 -11 30 -6 3 -9 15 -6 25 3
10 1 21 -3 24 -5 3 -12 37 -16 75 -3 39 -11 70 -15 70 -5 0 -9 29 -9 64 0 41
-5 68 -12 73 -14 8 -435 13 -443 5z"/>
<path d="M16885 14911 c-9 -8 -5 -100 4 -105 5 -3 12 -37 16 -76 4 -38 10 -70
15 -70 4 0 10 -23 14 -50 l7 -50 97 6 c53 4 101 10 107 15 5 5 44 9 87 9 l78
0 0 163 0 163 -210 0 c-116 0 -213 -2 -215 -5z"/>
<path d="M17520 14916 c0 -1 -2 -74 -3 -164 l-2 -162 81 0 c44 0 84 -4 90 -9
16 -15 181 -22 193 -8 5 7 13 36 17 65 3 28 11 52 16 52 5 0 7 12 5 28 -2 15
-1 32 3 37 4 6 10 44 14 86 l7 75 -211 0 c-115 0 -210 0 -210 0z"/>
<path d="M18150 14869 c0 -26 -4 -50 -9 -53 -5 -3 -12 -39 -16 -81 -4 -41 -10
-77 -15 -80 -4 -3 -11 -30 -15 -60 -3 -30 -11 -55 -16 -55 -5 0 -9 -4 -9 -10
0 -5 9 -10 19 -10 11 0 22 -4 25 -9 3 -5 26 -12 51 -15 24 -4 47 -11 50 -16 3
-5 27 -12 53 -16 26 -4 49 -10 52 -14 8 -11 94 -36 111 -32 9 2 35 41 59 90
23 48 46 94 50 102 4 9 11 31 15 50 4 19 10 40 14 45 3 6 6 17 6 25 0 8 3 20
7 25 3 6 9 44 13 86 l7 75 -226 0 -226 0 0 -47z"/>
<path d="M17187 14378 c-7 -4 -42 -8 -79 -8 -65 0 -68 -1 -68 -24 0 -14 4 -27
9 -31 6 -3 21 -30 36 -60 14 -30 30 -55 35 -55 6 0 10 -5 10 -11 0 -7 16 -31
35 -55 19 -23 35 -45 35 -49 0 -10 93 -115 102 -115 5 0 7 93 6 207 l-3 207
-53 0 c-30 1 -59 -2 -65 -6z"/>
<path d="M17523 14383 c-6 -2 -8 -325 -3 -412 0 -7 80 77 80 84 0 4 19 30 42
58 24 27 49 62 57 76 7 14 22 42 33 61 27 51 42 74 52 82 23 16 -18 37 -82 42
-124 9 -171 11 -179 9z"/>
<path d="M16796 14321 c-4 -5 -29 -12 -56 -16 -27 -4 -52 -11 -55 -15 -3 -5
-37 -14 -75 -20 -39 -6 -70 -16 -70 -20 0 -5 -8 -10 -17 -12 -14 -3 3 -24 66
-86 47 -45 91 -82 97 -82 7 0 17 -6 21 -13 10 -17 124 -83 218 -126 39 -18 77
-36 86 -41 27 -14 89 -23 89 -13 0 5 -11 20 -25 33 -13 12 -22 26 -20 31 3 4
-6 16 -20 27 -14 11 -25 24 -25 29 0 6 -9 18 -20 28 -11 10 -20 24 -20 32 0 7
-6 16 -14 19 -8 3 -18 19 -21 35 -4 16 -10 29 -15 29 -4 0 -29 43 -55 95 -45
91 -57 106 -69 86z"/>
<path d="M17992 14303 c-11 -16 -25 -45 -33 -65 -7 -21 -16 -38 -20 -38 -4 0
-10 -13 -14 -29 -3 -16 -13 -32 -21 -35 -8 -3 -14 -10 -14 -17 0 -6 -13 -28
-28 -48 -16 -20 -32 -44 -35 -53 -4 -10 -11 -18 -17 -18 -5 0 -10 -6 -10 -13
0 -7 -13 -26 -30 -42 -16 -15 -27 -31 -25 -35 3 -5 -2 -10 -10 -14 -8 -3 -15
-11 -15 -17 0 -13 73 -3 78 12 2 5 10 9 19 9 17 0 62 19 140 58 102 52 118 62
165 102 26 22 51 40 55 40 12 0 123 113 123 125 0 16 -30 31 -90 45 -30 7 -60
16 -65 21 -6 4 -34 11 -63 15 -28 3 -52 10 -52 15 0 18 -19 8 -38 -18z"/>
<path d="M19380 16665 c0 -297 3 -415 11 -415 6 0 28 -13 49 -30 21 -16 41
-30 45 -30 3 0 21 -11 39 -25 18 -14 38 -25 43 -25 6 0 13 -7 17 -15 3 -8 10
-15 17 -15 6 0 28 -13 49 -30 21 -16 41 -30 45 -30 4 0 24 -13 45 -30 21 -16
41 -30 45 -30 3 0 21 -11 39 -25 18 -14 38 -25 44 -25 7 0 12 -4 12 -10 0 -5
5 -10 10 -10 12 0 73 -41 78 -52 2 -5 8 -8 14 -8 6 0 26 -11 44 -25 18 -14 36
-25 39 -25 3 0 22 -12 41 -26 l34 -26 0 -876 c0 -832 -1 -874 -17 -860 -10 8
-26 18 -35 21 -10 4 -18 11 -18 17 0 5 -5 10 -10 10 -12 0 -73 41 -78 53 -2 4
-8 7 -14 7 -5 0 -24 11 -42 25 -18 14 -36 25 -41 25 -4 0 -24 14 -45 30 -21
17 -41 30 -45 30 -5 0 -80 53 -112 80 -7 5 -15 10 -18 10 -4 0 -21 11 -39 25
-18 14 -36 25 -41 25 -4 0 -24 14 -45 30 -21 17 -41 30 -45 30 -4 0 -24 14
-45 30 -21 17 -45 30 -54 30 -15 0 -16 -153 -16 -1785 0 -1934 -4 -1809 53
-1765 14 11 30 20 36 20 6 0 11 4 11 9 0 5 8 12 18 15 9 4 35 18 57 31 22 14
51 30 65 37 14 7 27 15 30 18 4 5 111 74 175 113 11 6 36 24 56 40 20 15 40
27 44 27 4 0 26 16 49 35 24 19 46 35 50 35 3 0 15 8 25 18 11 9 38 31 60 47
l40 30 1 1273 c0 1335 -1 1306 40 1257 7 -8 18 -15 26 -15 7 0 17 -6 21 -12 8
-13 26 -26 78 -54 17 -9 46 -30 66 -45 20 -16 40 -29 44 -29 4 0 24 -12 44
-27 20 -16 44 -32 53 -38 16 -9 34 -21 136 -91 24 -16 51 -33 60 -39 9 -5 33
-22 52 -36 19 -14 43 -29 53 -32 9 -4 17 -11 17 -17 0 -5 6 -10 13 -10 8 0 21
-8 30 -18 16 -17 17 -81 17 -710 0 -444 4 -692 10 -692 5 0 45 37 88 83 206
215 242 254 242 260 0 4 20 27 45 50 25 24 45 47 45 51 0 4 31 42 70 84 38 43
70 81 70 86 0 4 27 39 60 76 33 37 60 71 60 75 0 5 7 15 15 24 27 28 65 79 65
85 0 4 4 12 10 19 55 67 90 113 90 120 0 5 18 30 40 56 22 26 40 51 40 56 0 4
11 23 25 41 14 18 25 37 25 43 0 6 4 11 9 11 10 0 34 38 47 73 3 9 10 17 15
17 5 0 16 15 24 33 19 39 33 63 62 103 12 17 20 34 16 38 -3 3 -2 6 3 6 5 0
20 20 34 45 14 25 28 45 31 45 4 0 10 14 14 30 4 17 10 30 13 30 4 0 12 10 18
23 25 52 77 142 84 147 5 3 12 18 15 33 4 15 11 27 16 27 5 0 8 3 8 8 -2 12
25 72 32 72 4 0 10 14 14 30 4 17 10 30 15 30 5 0 11 14 15 30 4 17 11 30 16
30 5 0 8 3 8 8 -2 12 25 72 32 72 4 0 10 14 14 30 4 17 10 30 15 30 5 0 11 14
15 30 4 17 11 30 16 30 6 0 9 6 7 13 -1 6 10 38 25 69 15 31 27 64 27 72 0 9
4 16 9 16 5 0 12 14 16 30 4 17 11 30 16 30 5 0 9 8 9 18 0 10 9 35 19 56 11
21 23 51 26 67 4 16 10 29 15 29 4 0 11 17 15 37 4 20 13 46 21 57 8 11 14 31
14 43 0 13 5 23 11 23 5 0 8 4 4 9 -3 5 -1 12 4 15 5 4 12 24 16 46 4 22 10
40 15 40 4 0 11 16 14 35 4 19 13 47 21 62 8 15 15 36 15 45 0 9 5 20 10 23 6
4 8 10 5 15 -3 5 -1 11 5 15 5 3 12 28 16 55 4 28 10 50 14 50 4 0 11 20 14
45 4 25 11 45 16 45 5 0 12 23 16 50 4 28 10 50 14 50 5 0 11 18 15 40 4 22
10 42 15 45 4 2 5 16 2 30 -2 14 0 25 6 25 5 0 13 25 17 55 3 30 10 57 15 60
5 3 12 28 16 55 4 28 10 50 14 50 5 0 12 29 15 65 4 36 11 65 16 65 4 0 6 11
3 24 -2 14 0 27 5 31 5 3 13 31 17 63 3 31 10 62 14 67 4 6 11 38 15 73 4 34
10 64 15 67 4 3 11 35 15 72 4 38 11 73 15 78 5 6 7 25 6 43 -1 18 1 35 6 38
4 3 8 25 8 49 0 54 -10 60 -102 70 -38 4 -68 11 -68 15 0 4 -32 11 -70 15 -39
4 -72 11 -75 15 -3 4 -38 11 -77 15 -40 4 -77 11 -83 15 -5 4 -58 13 -117 20
-60 7 -108 17 -108 21 0 5 -13 9 -30 9 l-30 0 0 -1270 c0 -888 -3 -1270 -11
-1270 -9 0 -76 46 -116 80 -7 5 -15 10 -19 10 -4 0 -22 11 -40 25 -18 14 -36
25 -39 25 -4 0 -24 14 -45 30 -21 17 -41 30 -45 30 -4 0 -24 14 -45 30 -21 17
-43 30 -48 30 -6 0 -15 6 -19 13 -8 12 -26 25 -78 53 -16 9 -46 30 -66 45 -20
16 -40 29 -44 29 -4 0 -24 14 -45 30 -21 17 -42 30 -47 30 -5 0 -16 9 -26 20
-16 19 -17 92 -17 1095 l0 1075 -29 0 c-17 0 -32 4 -35 9 -4 5 -60 12 -126 16
-66 4 -123 11 -125 15 -3 5 -62 11 -132 15 -71 4 -132 11 -138 14 -5 4 -41 7
-78 6 -38 0 -71 3 -73 7 -3 4 -12 8 -20 8 -12 0 -14 -119 -14 -871 l0 -871
-39 31 c-21 17 -42 31 -46 31 -4 0 -24 14 -45 30 -21 17 -43 30 -48 30 -6 0
-15 6 -19 13 -8 12 -21 21 -83 57 -62 36 -75 45 -83 58 -4 6 -13 12 -19 12 -5
0 -27 14 -48 30 -21 17 -41 30 -45 30 -5 0 -80 53 -112 80 -7 5 -15 10 -19 10
-4 0 -22 11 -40 25 -18 14 -35 25 -39 25 -3 0 -19 10 -35 22 l-30 22 0 638 0
638 -28 0 c-15 0 -32 4 -37 9 -6 5 -166 11 -357 15 l-348 6 0 -415z m1574
-1450 c8 -8 18 -15 22 -15 4 0 22 -11 40 -25 18 -14 36 -25 39 -25 4 0 24 -13
44 -28 20 -16 44 -32 54 -35 9 -4 17 -11 17 -17 0 -5 5 -10 10 -10 12 0 73
-41 78 -52 2 -5 8 -8 14 -8 5 0 24 -11 42 -25 18 -14 36 -25 41 -25 4 0 24
-13 45 -30 21 -16 41 -30 45 -30 4 0 24 -13 45 -30 21 -16 43 -30 49 -30 7 0
14 -7 17 -15 4 -8 11 -15 16 -15 6 0 28 -14 49 -31 l39 -31 0 -864 c0 -625 -3
-864 -11 -864 -6 0 -28 14 -49 30 -21 17 -41 30 -45 30 -5 0 -23 11 -41 25
-18 14 -36 25 -39 25 -4 0 -24 13 -44 28 -20 16 -44 32 -53 35 -10 4 -18 11
-18 17 0 5 -5 10 -10 10 -12 0 -73 41 -78 53 -2 4 -8 7 -14 7 -6 0 -26 11 -44
25 -18 14 -36 25 -39 25 -4 0 -24 14 -45 30 -21 17 -43 30 -49 30 -6 0 -11 5
-11 10 0 6 -8 14 -17 17 -23 8 -77 46 -81 56 -2 4 -9 7 -15 7 -6 0 -19 7 -29
17 -17 15 -18 56 -18 880 0 916 -1 893 44 848z"/>
<path d="M1414 9463 c-3 -10 -10 -27 -16 -39 -5 -11 -8 -36 -6 -55 4 -46 33
-59 136 -59 45 0 82 -3 82 -8 0 -4 19 -8 43 -9 74 -3 136 -25 182 -65 24 -21
47 -49 51 -61 4 -12 11 -25 16 -28 5 -3 11 -23 15 -45 3 -21 10 -42 15 -45 5
-3 12 -72 15 -153 3 -81 10 -149 15 -152 11 -7 11 -2551 0 -2558 -5 -3 -12
-139 -15 -302 -4 -164 -11 -300 -15 -303 -5 -3 -12 -64 -16 -134 -4 -71 -11
-136 -16 -145 -4 -10 -13 -62 -19 -116 -6 -55 -15 -104 -20 -110 -4 -6 -11
-27 -15 -46 -11 -57 -55 -135 -106 -185 -40 -39 -58 -49 -102 -57 -61 -11 -50
-11 -152 2 -44 6 -84 14 -90 19 -6 5 -35 12 -63 16 -29 4 -55 10 -58 15 -3 4
-42 11 -88 15 -73 6 -88 4 -123 -14 -50 -26 -95 -74 -120 -128 -10 -24 -22
-43 -26 -43 -5 0 -8 -30 -8 -67 0 -62 2 -68 32 -95 17 -15 40 -28 49 -28 10 0
21 -4 24 -10 8 -14 335 -14 335 0 0 6 16 10 36 10 42 0 117 16 159 35 116 51
236 114 272 142 23 18 45 33 50 33 5 0 20 13 33 30 14 16 30 29 35 30 12 0
115 102 115 113 0 5 16 23 35 41 19 19 35 37 35 41 0 4 16 25 35 48 19 22 35
45 35 50 0 5 10 23 22 40 31 44 96 174 103 208 4 16 10 29 15 29 5 0 12 20 16
45 3 25 10 45 14 45 5 0 12 29 15 65 4 36 11 67 15 70 5 3 6 14 3 25 -3 11 -1
26 5 33 6 7 14 64 18 127 4 65 12 118 18 122 8 5 12 437 14 1550 1 880 6 1552
11 1563 5 11 12 47 15 81 6 63 41 148 73 176 50 42 147 73 268 84 33 3 68 13
78 21 22 21 23 100 1 132 -14 20 -22 22 -63 17 -59 -8 -1265 -8 -1348 0 -55 5
-64 4 -69 -13z"/>
<path d="M17187 9462 c-12 -13 -17 -37 -17 -76 0 -51 2 -57 26 -66 14 -6 60
-10 103 -10 43 0 81 -3 85 -7 4 -5 20 -8 34 -9 100 -3 190 -68 212 -154 7 -25
16 -50 22 -57 5 -7 12 -84 15 -173 3 -88 10 -160 14 -160 5 0 9 -556 9 -1235
0 -685 -4 -1235 -9 -1235 -4 0 -11 -64 -13 -142 -4 -104 -10 -151 -22 -173 -9
-16 -16 -35 -16 -41 0 -15 -71 -84 -87 -84 -7 0 -13 -4 -13 -9 0 -5 -15 -13
-32 -16 -18 -4 -37 -11 -43 -15 -5 -4 -37 -11 -70 -15 -33 -4 -64 -10 -70 -13
-5 -4 -19 -7 -31 -8 -46 -2 -54 -11 -54 -61 0 -26 3 -57 6 -69 5 -20 6 -20
732 -20 719 1 727 1 730 21 2 11 8 24 13 30 16 16 10 51 -14 77 -19 20 -31 25
-68 23 -24 -2 -48 1 -54 5 -5 4 -48 10 -95 14 -46 4 -87 11 -90 15 -3 5 -19
12 -37 15 -41 9 -121 80 -129 114 -4 15 -11 32 -16 39 -5 6 -12 43 -15 82 -3
40 -10 74 -14 77 -5 3 -9 295 -9 650 0 712 -5 653 62 697 26 16 93 17 1048 17
752 0 1026 -3 1043 -12 12 -6 29 -14 37 -18 8 -4 16 -21 18 -39 2 -17 7 -31
13 -31 13 0 12 -1187 -2 -1195 -6 -4 -9 -39 -8 -86 1 -44 -1 -82 -5 -86 -3 -3
-6 -17 -6 -29 0 -13 -4 -25 -10 -29 -5 -3 -7 -12 -4 -19 3 -7 -2 -19 -11 -26
-8 -7 -15 -16 -15 -21 0 -16 -39 -48 -65 -55 -14 -3 -25 -10 -25 -15 0 -4 -17
-11 -37 -15 -21 -4 -43 -10 -49 -15 -6 -5 -37 -11 -70 -15 -32 -3 -66 -8 -74
-11 -8 -4 -27 -7 -42 -8 -47 -4 -49 -5 -43 -14 3 -5 1 -12 -5 -16 -14 -9 -12
-87 3 -106 11 -13 93 -15 727 -15 393 1 721 5 728 9 7 5 12 31 12 67 0 64 -7
72 -70 75 -19 1 -42 4 -50 8 -8 3 -46 8 -85 12 -38 3 -74 10 -80 14 -5 5 -26
12 -45 16 -42 9 -104 65 -131 120 -11 22 -23 71 -26 108 -3 37 -10 70 -14 73
-12 7 -12 2841 0 2848 4 3 11 38 14 78 3 40 13 89 23 108 20 42 73 100 91 100
7 0 13 4 13 9 0 15 112 39 231 49 42 4 83 13 92 21 22 18 23 99 1 130 -14 20
-22 22 -63 17 -65 -9 -1236 -9 -1293 0 -48 7 -85 -7 -72 -27 3 -5 0 -9 -5 -9
-6 0 -11 -21 -11 -49 0 -65 21 -81 106 -81 33 0 64 -3 68 -7 4 -4 21 -8 39 -9
92 -6 200 -67 213 -120 3 -13 10 -24 14 -24 5 0 12 -21 15 -47 4 -27 9 -55 12
-63 3 -8 4 -49 3 -92 -1 -45 3 -79 9 -83 8 -4 11 -166 11 -512 0 -567 1 -562
-68 -599 -34 -18 -70 -19 -1056 -19 -932 0 -1023 1 -1049 17 -58 33 -57 19
-57 654 0 320 4 585 9 588 4 3 11 31 14 63 8 75 37 132 88 176 49 42 109 59
266 76 40 4 79 13 87 21 21 16 20 78 0 119 -16 32 -18 33 -63 27 -69 -9 -1222
-12 -1228 -4 -2 5 -35 8 -72 8 -53 0 -72 -4 -84 -18z"/>
<path d="M4315 8918 c-49 -5 -92 -13 -95 -17 -3 -4 -27 -11 -54 -14 -27 -4
-54 -11 -60 -16 -6 -5 -32 -12 -58 -16 -27 -4 -48 -11 -48 -15 0 -4 -25 -13
-55 -20 -30 -7 -55 -16 -55 -21 0 -4 -12 -10 -27 -14 -15 -3 -30 -10 -33 -13
-6 -9 -124 -66 -129 -63 -2 2 -7 -1 -10 -6 -8 -10 -39 -30 -68 -43 -13 -5 -23
-14 -23 -20 0 -5 -5 -10 -12 -10 -6 0 -37 -22 -69 -50 -32 -27 -61 -50 -66
-50 -11 0 -193 -183 -193 -194 0 -4 -18 -29 -41 -54 -23 -26 -45 -57 -50 -69
-5 -13 -13 -23 -18 -23 -5 0 -12 -8 -15 -17 -4 -10 -17 -36 -31 -58 -13 -22
-37 -65 -52 -95 -15 -30 -31 -56 -35 -58 -5 -2 -8 -11 -8 -20 0 -9 -7 -30 -15
-46 -9 -16 -13 -31 -11 -34 3 -2 -1 -14 -9 -26 -8 -11 -15 -33 -15 -48 0 -16
-4 -28 -10 -28 -5 0 -12 -22 -16 -50 -4 -27 -10 -50 -14 -50 -5 0 -11 -28 -15
-62 -4 -35 -12 -69 -19 -77 -16 -20 -16 -609 0 -619 7 -4 15 -35 19 -69 4 -35
10 -63 15 -63 4 0 10 -19 13 -43 3 -24 13 -56 21 -72 9 -17 16 -38 16 -48 0
-11 6 -31 14 -45 7 -15 33 -66 57 -114 63 -125 73 -143 103 -182 14 -19 26
-39 26 -43 0 -5 13 -20 30 -33 16 -14 29 -30 30 -36 0 -15 277 -284 291 -284
6 0 28 -12 48 -27 49 -38 71 -52 104 -66 15 -6 27 -15 27 -18 0 -4 14 -10 30
-14 17 -4 30 -10 30 -14 0 -3 15 -13 33 -20 40 -17 38 -16 62 -25 11 -4 34
-14 50 -21 17 -8 44 -17 60 -21 17 -4 35 -10 40 -14 6 -4 27 -11 49 -14 21 -4
46 -11 55 -16 19 -10 146 -30 190 -30 16 0 31 -5 33 -12 6 -16 495 -18 529 -1
13 6 64 16 114 23 49 6 94 15 100 20 5 4 29 11 52 15 24 4 45 10 48 15 3 4 21
11 40 14 19 4 35 11 35 16 0 6 8 10 18 10 10 0 35 9 56 19 21 11 51 23 67 26
16 4 29 10 29 14 0 3 21 18 48 31 26 14 63 37 83 53 20 15 40 27 44 27 5 0 27
16 51 35 23 19 46 35 51 35 11 0 243 233 243 244 0 4 18 28 40 53 22 25 40 49
40 53 0 5 15 31 34 58 55 82 173 332 167 356 -1 4 3 13 8 20 5 6 12 29 16 51
4 22 11 45 15 50 5 6 11 37 15 70 4 33 13 63 19 67 15 10 16 626 0 636 -6 4
-14 36 -17 71 -4 35 -11 69 -16 75 -4 6 -12 29 -16 51 -4 22 -11 45 -17 52 -5
7 -7 17 -4 22 4 5 2 12 -3 15 -4 3 -11 20 -15 38 -11 59 -121 278 -171 344
-14 18 -25 36 -25 41 0 5 -27 39 -61 76 -33 37 -58 67 -54 67 3 0 -16 23 -43
50 -27 28 -53 50 -57 50 -4 0 -34 25 -68 55 -33 30 -66 55 -72 55 -7 0 -20 9
-31 21 -17 19 -36 31 -114 71 -14 7 -27 15 -30 18 -12 13 -139 70 -177 80 -23
6 -45 15 -48 20 -3 5 -28 12 -55 16 -28 4 -50 10 -50 14 0 4 -24 11 -52 14
-29 4 -57 11 -63 16 -33 26 -519 39 -720 18z m290 -148 c3 -5 28 -10 55 -10
61 0 202 -19 215 -29 6 -5 24 -11 40 -15 29 -7 42 -12 135 -56 74 -35 102 -53
152 -92 26 -21 50 -38 55 -38 11 0 193 -183 193 -194 0 -5 16 -28 35 -52 19
-23 35 -47 35 -53 0 -6 3 -11 8 -11 8 0 9 -2 69 -121 23 -46 45 -96 48 -111 4
-16 11 -28 16 -28 5 0 9 -8 9 -17 0 -10 7 -31 15 -47 8 -15 12 -32 9 -37 -3
-5 -1 -9 4 -9 6 0 13 -22 17 -50 4 -27 11 -52 15 -55 5 -3 12 -30 15 -60 4
-30 11 -55 15 -55 5 0 11 -35 15 -77 3 -43 12 -89 18 -102 17 -33 17 -669 1
-679 -7 -4 -15 -36 -19 -72 -4 -36 -11 -69 -15 -75 -4 -5 -11 -28 -15 -50 -4
-22 -11 -45 -16 -51 -5 -7 -9 -16 -8 -20 2 -10 -6 -36 -26 -79 -8 -16 -17 -42
-21 -57 -3 -16 -10 -28 -14 -28 -5 0 -11 -13 -15 -30 -4 -16 -11 -30 -16 -30
-5 0 -9 -5 -9 -12 0 -6 -11 -26 -25 -44 -14 -18 -25 -36 -25 -41 0 -5 -20 -31
-45 -60 -25 -28 -45 -54 -45 -58 0 -10 -83 -95 -93 -95 -5 0 -29 -18 -55 -40
-49 -42 -77 -61 -124 -82 -16 -7 -28 -16 -28 -19 0 -4 -13 -10 -30 -14 -16 -4
-30 -10 -30 -15 0 -5 -15 -12 -32 -15 -18 -4 -37 -10 -43 -13 -5 -4 -14 -8
-20 -9 -69 -17 -104 -28 -124 -37 -36 -16 -463 -15 -469 2 -2 6 -16 12 -30 12
-15 0 -45 5 -67 12 -22 6 -42 12 -45 13 -3 0 -10 3 -15 7 -6 3 -27 9 -48 13
-20 4 -37 11 -37 15 0 5 -13 11 -30 15 -16 4 -30 10 -30 14 0 3 -12 12 -27 18
-35 15 -57 29 -110 71 -23 17 -45 32 -50 32 -10 0 -203 192 -203 203 0 5 -16
28 -35 51 -19 24 -35 48 -35 55 0 6 -6 14 -14 17 -8 3 -18 19 -21 35 -4 16
-11 29 -16 29 -5 0 -9 5 -9 11 0 6 -9 24 -20 39 -11 16 -23 42 -26 59 -4 17
-10 31 -14 31 -5 0 -11 14 -15 30 -4 17 -10 30 -15 30 -4 0 -11 17 -15 38 -4
20 -11 42 -17 49 -5 7 -7 17 -4 22 4 5 2 12 -3 15 -5 4 -12 24 -16 46 -4 22
-11 42 -15 45 -5 3 -12 30 -15 60 -4 30 -11 55 -15 55 -5 0 -12 36 -16 80 -3
44 -11 80 -16 80 -5 0 -8 27 -7 60 1 33 -1 63 -4 67 -9 8 -9 408 0 416 3 4 5
34 4 67 -1 33 2 60 7 60 5 0 13 30 17 68 4 37 11 72 15 77 4 6 11 29 15 52 4
24 10 45 15 48 5 3 11 23 15 45 4 22 11 42 16 46 5 3 7 10 4 15 -4 5 -1 9 4 9
6 0 11 8 11 18 1 38 108 218 174 291 28 31 56 65 62 76 6 11 22 26 36 35 15 8
51 36 81 63 30 26 59 47 66 47 6 0 11 3 11 8 0 8 6 12 103 60 37 17 73 32 82
32 8 0 15 4 15 9 0 5 17 12 38 16 20 4 42 10 47 15 12 9 152 30 205 30 22 0
40 5 40 10 0 6 30 10 69 10 39 0 73 -4 76 -10z"/>
<path d="M14535 8918 c-38 -5 -79 -13 -90 -18 -11 -4 -33 -11 -50 -15 -16 -3
-43 -12 -60 -20 -61 -28 -125 -55 -131 -55 -3 0 -23 -13 -44 -30 -21 -16 -41
-30 -44 -30 -16 0 -146 -121 -146 -136 0 -7 -9 -18 -20 -24 -11 -6 -20 -16
-20 -21 0 -6 -14 -28 -30 -49 -17 -21 -33 -52 -36 -69 -4 -17 -10 -31 -14 -31
-5 0 -12 -15 -15 -32 -4 -18 -12 -39 -18 -46 -5 -7 -7 -15 -4 -19 4 -3 1 -13
-6 -21 -17 -21 -17 -396 0 -413 6 -6 9 -18 6 -25 -3 -8 -1 -20 5 -27 5 -6 13
-27 17 -44 3 -18 10 -33 15 -33 5 0 11 -13 15 -30 4 -16 10 -30 14 -30 3 0 12
-12 19 -27 23 -52 43 -83 53 -83 5 0 9 -6 9 -13 0 -8 9 -22 20 -32 11 -10 20
-22 20 -27 0 -11 145 -158 155 -158 4 0 32 -22 64 -50 32 -27 61 -50 65 -50 5
0 25 -13 45 -28 20 -15 47 -33 61 -40 39 -18 64 -36 73 -49 4 -7 13 -13 19
-13 5 0 27 -13 48 -30 21 -16 41 -30 45 -30 4 0 24 -12 44 -27 37 -29 66 -46
114 -71 15 -7 27 -18 27 -23 0 -5 5 -9 10 -9 14 0 72 -41 83 -57 4 -7 13 -13
20 -13 16 0 177 -162 177 -178 0 -7 6 -15 14 -18 8 -3 18 -19 21 -35 4 -16 11
-29 16 -29 5 0 8 -3 7 -7 -1 -8 15 -51 34 -87 5 -10 12 -43 15 -73 3 -29 10
-56 14 -59 12 -7 12 -211 0 -218 -4 -3 -11 -25 -15 -48 -4 -23 -10 -47 -15
-53 -4 -5 -14 -30 -21 -55 -29 -90 -208 -243 -311 -265 -19 -4 -40 -12 -48
-19 -21 -16 -366 -15 -382 2 -7 6 -24 12 -36 12 -13 0 -37 7 -53 15 -17 9 -31
15 -32 14 -7 -4 -98 44 -109 57 -6 8 -18 14 -26 14 -17 0 -195 178 -217 217
-8 15 -22 43 -31 61 -8 17 -19 32 -24 32 -5 0 -12 14 -16 30 -4 17 -11 30 -16
30 -5 0 -9 7 -9 16 0 9 -9 35 -19 58 -21 45 -33 76 -36 91 0 6 -4 17 -7 25 -3
8 -9 23 -12 33 -4 12 -16 17 -46 17 -75 0 -80 -8 -80 -115 0 -52 4 -95 9 -95
5 0 12 -40 15 -90 4 -49 11 -92 16 -95 4 -2 11 -35 15 -72 4 -38 12 -74 17
-80 6 -7 8 -19 5 -28 -4 -8 -2 -17 3 -20 4 -3 11 -23 15 -45 4 -22 11 -42 16
-46 5 -3 9 -14 9 -25 0 -10 6 -19 14 -19 7 0 19 -7 26 -15 7 -9 32 -20 56 -26
24 -6 44 -15 44 -20 0 -4 16 -11 35 -15 19 -3 37 -10 40 -14 3 -5 24 -11 48
-15 23 -4 47 -11 53 -16 6 -5 49 -14 95 -20 46 -6 95 -16 107 -22 31 -15 474
-16 493 -1 8 6 53 17 102 24 48 7 87 17 87 22 0 4 7 8 16 8 39 0 231 97 242
123 2 4 10 7 18 7 20 0 206 188 199 201 -4 5 -2 9 3 9 9 0 92 156 93 175 0 6
4 15 9 20 4 6 11 33 15 60 4 28 12 56 18 63 14 17 14 357 0 374 -6 7 -14 34
-18 61 -4 26 -11 50 -16 53 -5 3 -7 9 -4 13 7 12 -90 198 -125 243 -17 20 -30
40 -30 45 0 10 -195 203 -205 203 -4 0 -29 18 -55 40 -26 22 -51 40 -55 40 -4
0 -24 13 -44 28 -20 15 -47 33 -61 40 -33 16 -64 35 -71 45 -3 5 -19 15 -35
24 -57 31 -70 38 -101 61 -17 12 -36 22 -42 22 -7 0 -14 6 -17 14 -3 8 -19 18
-36 21 -16 4 -32 13 -35 21 -3 8 -10 14 -15 14 -6 0 -27 14 -48 30 -21 17 -43
30 -49 30 -7 0 -63 51 -125 113 -93 92 -119 125 -149 187 -20 41 -39 90 -43
108 -4 17 -10 32 -15 32 -12 0 -12 227 0 234 4 3 11 22 14 41 5 32 33 95 71
163 19 33 78 92 92 92 6 0 16 6 23 13 32 39 167 86 248 87 23 0 45 5 48 10 3
6 33 10 65 10 32 0 62 -4 65 -10 3 -5 25 -10 48 -10 44 -1 118 -14 152 -29 93
-39 128 -62 196 -130 43 -43 86 -98 100 -126 13 -27 27 -51 32 -53 4 -2 7 -7
7 -12 0 -5 5 -21 11 -37 6 -15 10 -30 11 -33 0 -3 3 -9 8 -15 4 -5 11 -25 15
-43 13 -63 26 -77 70 -77 22 1 50 6 62 13 20 11 22 19 21 112 0 55 -4 100 -8
100 -4 0 -10 46 -14 102 -4 56 -11 107 -15 113 -5 5 -12 36 -15 67 -4 32 -11
60 -16 63 -4 3 -11 20 -14 38 l-6 34 -71 6 c-39 3 -76 10 -82 15 -7 5 -34 13
-62 17 -27 4 -54 10 -60 15 -33 26 -452 39 -610 18z"/>
<path d="M22770 8919 c-47 -5 -92 -13 -102 -19 -9 -5 -39 -12 -67 -16 -28 -4
-51 -10 -51 -14 0 -5 -18 -11 -40 -15 -22 -4 -42 -10 -45 -15 -3 -5 -23 -11
-44 -15 -22 -3 -47 -13 -58 -20 -10 -8 -25 -15 -33 -15 -19 0 -129 -56 -152
-77 -10 -9 -18 -12 -18 -7 0 5 -4 4 -8 -1 -4 -6 -18 -16 -32 -23 -47 -24 -66
-37 -117 -79 -28 -24 -55 -43 -60 -43 -12 0 -253 -241 -253 -253 0 -5 -16 -28
-35 -51 -19 -24 -35 -46 -35 -51 0 -4 -13 -24 -30 -45 -16 -21 -30 -42 -30
-47 0 -6 -13 -28 -30 -51 -16 -22 -32 -52 -36 -66 -3 -15 -15 -43 -25 -63 -10
-21 -19 -45 -19 -55 0 -10 -4 -18 -9 -18 -5 0 -13 -15 -16 -32 -4 -18 -11 -37
-15 -43 -4 -5 -11 -29 -15 -52 -4 -24 -11 -45 -15 -48 -5 -3 -12 -31 -16 -63
-3 -31 -9 -61 -12 -66 -3 -6 -5 -24 -5 -40 0 -17 -5 -37 -11 -45 -17 -21 -15
-493 2 -514 8 -9 12 -29 11 -44 -2 -15 -1 -33 3 -38 3 -6 9 -36 12 -67 4 -32
11 -60 16 -63 4 -3 11 -23 15 -45 4 -22 10 -42 15 -45 5 -3 11 -23 15 -45 4
-22 11 -42 16 -45 4 -3 14 -25 20 -48 6 -23 14 -44 18 -47 3 -3 17 -26 31 -53
14 -26 33 -63 43 -82 10 -19 23 -35 28 -35 5 0 9 -5 9 -10 0 -14 41 -72 58
-83 6 -4 12 -13 12 -19 0 -11 101 -127 157 -180 57 -54 120 -108 128 -108 4 0
18 -11 31 -25 13 -14 26 -25 30 -25 4 0 15 -7 24 -15 9 -8 42 -28 72 -44 31
-15 68 -37 84 -48 16 -11 44 -24 62 -28 17 -3 32 -11 32 -16 0 -5 3 -8 8 -7 7
1 48 -14 83 -32 9 -5 33 -12 53 -15 20 -4 38 -11 41 -15 3 -5 24 -11 48 -15
23 -4 47 -11 53 -16 6 -5 55 -14 110 -20 54 -6 110 -16 123 -22 32 -16 504
-15 522 0 8 6 43 13 79 17 62 6 188 38 220 55 9 5 31 12 50 16 19 4 41 11 50
15 8 5 68 34 133 67 137 67 168 84 188 101 45 38 124 99 142 109 30 17 187
176 187 189 0 7 14 24 30 37 17 14 30 30 30 35 0 5 9 17 20 27 11 10 20 24 20
32 0 7 4 13 9 13 12 0 16 9 97 172 72 143 94 192 94 206 0 5 7 23 15 38 8 16
15 41 15 56 0 15 4 29 10 33 5 3 7 12 3 20 -3 9 0 21 6 29 6 7 14 42 18 77 3
35 11 67 17 71 16 10 15 550 0 569 -6 8 -15 44 -19 82 -3 37 -10 67 -14 67 -4
0 -13 34 -20 75 -7 41 -16 77 -21 80 -4 3 -11 23 -15 45 -4 22 -10 40 -15 40
-4 0 -11 12 -15 28 -3 15 -25 65 -48 111 -60 119 -61 121 -69 121 -5 0 -8 5
-8 11 0 7 -16 31 -35 55 -19 23 -35 48 -35 54 0 16 -294 310 -310 310 -6 0
-31 16 -54 35 -24 19 -48 35 -55 35 -6 0 -11 4 -11 8 0 4 -12 13 -27 20 -16 6
-47 23 -71 36 -23 13 -56 27 -72 31 -17 4 -30 10 -30 15 0 4 -24 14 -52 20
-29 7 -57 16 -63 20 -5 5 -27 11 -47 15 -21 4 -38 11 -38 15 0 4 -28 11 -62
15 -35 4 -65 11 -68 15 -16 26 -514 39 -710 19z m295 -149 c3 -5 29 -10 56
-10 61 0 190 -19 204 -30 6 -5 27 -11 48 -15 20 -4 37 -11 37 -16 0 -5 7 -9
16 -9 23 0 184 -79 184 -90 0 -6 5 -10 10 -10 14 0 72 -41 83 -57 4 -7 13 -13
20 -13 14 0 147 -131 147 -145 0 -6 12 -22 28 -36 28 -25 37 -38 72 -99 28
-48 44 -74 50 -80 11 -10 65 -125 62 -132 -1 -5 2 -8 7 -8 5 0 13 -14 16 -32
4 -18 11 -39 15 -48 4 -8 14 -31 23 -50 10 -19 20 -51 23 -70 4 -19 11 -40 16
-47 5 -7 7 -17 4 -22 -4 -5 -2 -12 3 -15 4 -3 11 -33 15 -65 4 -33 11 -63 16
-66 4 -3 11 -44 15 -93 4 -48 12 -93 19 -101 15 -20 15 -572 0 -592 -6 -8 -15
-45 -19 -84 -4 -38 -10 -74 -15 -80 -4 -5 -13 -41 -19 -78 -7 -38 -16 -76 -20
-85 -4 -10 -15 -33 -23 -52 -9 -19 -28 -62 -44 -95 -15 -33 -27 -63 -26 -67 1
-5 -2 -8 -8 -8 -5 0 -10 -5 -10 -10 0 -12 -41 -73 -52 -78 -5 -2 -8 -10 -8
-19 0 -18 -252 -273 -270 -273 -7 0 -28 -11 -46 -25 -18 -14 -37 -25 -42 -25
-6 0 -12 -3 -14 -7 -4 -9 -66 -43 -78 -43 -5 0 -21 -5 -37 -12 -15 -6 -30 -12
-33 -12 -3 -1 -9 -4 -15 -7 -5 -4 -32 -10 -60 -14 -27 -4 -56 -12 -64 -18 -20
-17 -439 -16 -472 0 -13 6 -46 17 -74 23 -58 12 -61 13 -98 28 -16 7 -34 12
-42 12 -7 0 -15 3 -17 8 -1 4 -34 22 -73 41 -38 19 -84 45 -102 58 -17 13 -34
23 -37 23 -3 0 -20 13 -38 30 -18 16 -59 53 -90 81 -32 29 -58 57 -58 63 -1 6
-14 22 -30 36 -17 13 -30 29 -30 35 0 7 -9 20 -20 30 -11 10 -20 24 -20 30 0
7 -7 15 -15 19 -8 3 -15 10 -15 16 0 6 -11 26 -25 44 -14 18 -22 36 -18 39 3
4 1 7 -5 7 -6 0 -13 13 -17 30 -4 17 -10 30 -15 30 -5 0 -11 14 -15 30 -4 17
-10 30 -14 30 -7 0 -33 56 -35 75 -1 6 -4 15 -8 20 -3 6 -9 25 -13 43 -3 17
-11 32 -15 32 -5 0 -12 23 -16 50 -4 28 -10 50 -15 50 -4 0 -11 21 -14 48 -3
26 -10 55 -15 64 -6 10 -12 43 -16 75 -3 32 -8 65 -11 73 -3 8 -5 30 -4 48 2
18 -3 40 -10 48 -17 20 -18 515 -2 536 6 7 14 48 18 90 4 43 11 80 15 83 5 3
7 12 3 20 -3 9 -1 21 5 28 5 6 13 33 16 60 4 26 11 47 15 47 5 0 12 15 15 33
4 19 16 54 28 78 12 24 22 49 23 54 2 20 25 65 33 65 4 0 13 12 19 28 15 34
29 56 71 109 17 23 32 45 32 49 0 9 135 144 145 144 3 0 26 16 49 35 24 19 46
35 50 35 3 0 24 13 47 29 22 16 53 33 70 36 16 4 29 10 29 15 0 5 15 12 33 15
17 4 41 14 52 21 11 8 32 14 46 14 15 0 29 4 31 9 4 12 116 31 186 31 28 0 52
5 52 10 0 6 30 10 69 10 39 0 73 -4 76 -10z"/>
<path d="M36580 8916 c-41 -6 -80 -14 -85 -18 -6 -3 -28 -9 -50 -13 -22 -4
-44 -11 -50 -15 -5 -4 -21 -11 -35 -15 -45 -13 -114 -48 -151 -77 -20 -15 -41
-28 -47 -28 -13 0 -182 -167 -182 -179 0 -11 -60 -102 -73 -112 -4 -3 -7 -10
-6 -15 1 -5 -3 -22 -9 -37 -7 -16 -12 -34 -12 -42 0 -8 -4 -16 -10 -20 -5 -3
-12 -33 -16 -66 -4 -32 -11 -62 -15 -65 -12 -7 -12 -254 0 -254 5 0 12 -29 16
-65 3 -36 10 -65 15 -65 4 0 11 -12 14 -27 9 -38 77 -173 88 -173 4 0 8 -5 8
-11 0 -7 16 -31 35 -55 19 -23 35 -46 35 -50 0 -11 142 -154 153 -154 5 0 34
-22 66 -50 32 -27 63 -50 69 -50 7 0 12 -4 12 -10 0 -5 15 -16 33 -25 38 -18
60 -31 108 -67 20 -16 40 -28 44 -28 4 0 24 -13 45 -30 21 -16 43 -30 48 -30
6 0 15 -6 19 -12 4 -7 17 -18 28 -25 37 -22 120 -73 140 -86 11 -6 39 -27 62
-44 23 -18 45 -33 48 -33 11 0 168 -162 183 -188 49 -86 72 -135 72 -152 0
-11 4 -20 9 -20 6 0 13 -21 16 -47 4 -27 9 -55 11 -63 7 -19 7 -217 1 -227 -2
-4 -8 -30 -12 -57 -6 -47 -58 -158 -76 -164 -5 -2 -9 -9 -9 -16 0 -15 -102
-116 -117 -116 -7 0 -16 -6 -20 -13 -11 -16 -89 -53 -133 -62 -19 -4 -38 -13
-42 -19 -10 -15 -376 -15 -386 0 -6 9 -51 25 -107 37 -24 6 -125 61 -125 69 0
4 -7 8 -15 8 -17 0 -209 189 -201 197 3 3 -5 16 -19 29 -13 12 -27 34 -31 48
-3 14 -10 26 -15 26 -5 0 -9 6 -9 14 0 7 -6 19 -14 25 -7 6 -19 32 -26 56 -7
25 -17 45 -21 45 -5 0 -9 7 -9 16 0 9 -7 30 -14 47 -8 18 -19 48 -24 67 -9 39
-34 47 -99 35 l-33 -6 0 -89 c0 -52 4 -92 11 -95 6 -4 10 -28 8 -54 -1 -25 1
-53 4 -61 3 -8 9 -45 12 -82 4 -37 10 -70 14 -73 5 -2 11 -32 15 -64 4 -33 11
-63 15 -66 5 -2 12 -21 15 -40 10 -52 42 -100 79 -117 89 -43 126 -58 141 -58
9 0 16 -4 16 -9 0 -6 21 -13 48 -17 26 -3 52 -10 57 -14 14 -10 121 -30 161
-30 18 0 34 -5 36 -12 6 -16 465 -18 499 -1 13 6 58 17 99 23 41 7 80 16 85
20 6 4 25 11 43 15 17 3 32 11 32 16 0 5 7 9 16 9 23 0 102 39 145 72 20 15
41 28 46 28 14 0 153 130 153 143 0 7 9 18 20 25 11 7 20 17 20 23 0 6 11 25
24 42 13 18 30 49 37 70 7 20 16 37 20 37 4 0 11 15 14 33 4 17 11 37 17 43 5
7 11 35 15 63 3 28 10 51 14 51 5 0 9 83 9 185 0 102 -4 185 -9 185 -5 0 -11
23 -15 51 -4 28 -11 58 -15 67 -27 57 -41 90 -47 115 -4 16 -12 31 -20 34 -7
2 -16 17 -19 33 -3 16 -13 31 -21 34 -8 3 -14 13 -14 21 0 21 -283 305 -303
305 -9 0 -20 6 -24 13 -11 16 -69 57 -83 57 -5 0 -10 4 -10 10 0 5 -15 17 -32
25 -40 19 -64 33 -105 63 -17 12 -34 22 -39 22 -4 0 -22 11 -40 25 -18 14 -37
25 -43 25 -6 0 -11 5 -11 10 0 6 -5 10 -11 10 -6 0 -29 14 -50 31 -21 17 -39
28 -39 24 0 -4 -15 4 -34 19 -19 14 -40 26 -46 26 -6 0 -13 7 -16 15 -4 8 -12
15 -19 15 -6 0 -20 9 -30 20 -10 11 -22 20 -27 20 -10 0 -158 146 -158 156 0
3 -13 23 -28 43 -33 43 -72 122 -72 145 0 9 -5 16 -11 16 -6 0 -9 10 -8 23 1
12 -2 30 -6 40 -11 25 0 244 13 259 5 7 13 28 17 46 3 17 10 32 15 32 5 0 11
13 15 29 3 16 13 32 21 35 8 3 14 11 14 19 0 16 71 87 88 87 7 0 12 4 12 8 0
13 120 71 170 82 25 5 64 10 87 10 23 0 45 5 48 10 3 6 33 10 65 10 32 0 62
-4 65 -10 3 -5 27 -10 53 -10 48 0 107 -12 152 -32 56 -23 110 -53 110 -60 0
-5 6 -8 13 -8 16 0 127 -111 127 -127 0 -7 6 -16 13 -20 11 -7 24 -30 29 -53
1 -3 8 -11 15 -18 7 -7 13 -22 13 -33 0 -10 4 -19 10 -19 5 0 12 -16 16 -35 3
-19 10 -35 14 -35 5 0 11 -19 15 -42 9 -51 38 -78 80 -73 71 7 69 0 62 183 -4
90 -11 169 -16 176 -5 6 -12 44 -16 84 -4 39 -11 74 -15 77 -5 3 -6 14 -3 24
3 10 0 22 -6 25 -6 4 -11 18 -11 30 0 34 -16 42 -95 50 -38 4 -72 11 -75 15
-3 5 -27 12 -55 16 -27 4 -54 10 -60 15 -34 27 -466 39 -615 16z"/>
<path d="M6351 8866 c-7 -8 -11 -37 -9 -68 l3 -53 65 -3 c36 -1 74 -6 85 -11
11 -5 41 -12 67 -15 100 -12 161 -73 175 -176 3 -25 11 -48 17 -52 16 -10 16
-2526 0 -2536 -6 -4 -15 -23 -19 -42 -7 -37 -60 -100 -82 -100 -7 0 -13 -4
-13 -9 0 -5 -15 -13 -32 -16 -18 -4 -37 -10 -43 -13 -5 -4 -19 -8 -30 -9 -69
-8 -127 -24 -140 -37 -17 -16 -21 -86 -5 -86 6 0 10 -6 10 -13 0 -10 119 -13
615 -13 577 0 615 1 615 17 0 10 4 20 9 23 9 6 -7 85 -18 87 -3 0 -44 5 -91
10 -163 17 -154 15 -229 52 -32 16 -51 35 -68 66 -12 24 -20 47 -18 52 3 4 1
10 -5 14 -5 3 -10 23 -10 44 0 21 -2 40 -5 43 -8 7 -6 1095 1 1124 4 13 12 24
19 24 7 0 15 6 18 13 3 9 190 12 890 12 838 0 887 -1 904 -18 17 -17 18 -56
18 -631 0 -593 -1 -614 -20 -652 -33 -65 -71 -95 -137 -109 -18 -4 -37 -10
-43 -13 -5 -4 -19 -8 -30 -9 -11 -2 -45 -7 -76 -11 -78 -11 -91 -23 -87 -86
l3 -51 610 -1 c369 0 615 3 623 9 15 11 16 103 2 112 -6 4 -46 11 -88 16 -117
14 -121 14 -128 22 -4 4 -19 7 -34 7 -15 0 -39 9 -53 20 -14 11 -30 20 -35 20
-5 0 -12 8 -16 18 -3 9 -9 24 -14 32 -25 43 -32 62 -26 71 3 5 0 17 -8 26 -18
22 -20 2532 -2 2554 6 8 10 22 9 31 -2 10 1 20 6 24 5 3 9 13 9 23 0 19 69 91
88 91 7 0 12 4 12 9 0 5 30 13 68 16 37 4 72 11 77 16 6 4 35 9 65 11 55 3 55
3 58 37 2 19 1 50 -3 68 l-6 33 -64 0 c-37 0 -65 -4 -65 -10 0 -7 -163 -10
-469 -10 -303 0 -472 4 -476 10 -3 6 -33 10 -65 10 -70 0 -83 -14 -78 -88 l3
-47 50 -3 c28 -1 59 -6 70 -11 11 -5 40 -12 65 -15 84 -10 180 -77 180 -125 0
-9 6 -23 13 -29 9 -10 13 -135 15 -540 2 -290 1 -540 -2 -557 -4 -20 -15 -34
-33 -42 -21 -10 -223 -13 -900 -13 l-873 0 -22 22 -23 23 -5 508 c-3 280 -2
511 3 514 4 2 7 22 7 43 0 21 4 41 10 45 5 3 7 11 4 18 -6 17 60 94 89 103 12
4 25 11 28 16 3 5 34 12 68 15 33 3 61 10 61 14 0 5 22 9 49 9 73 0 81 5 81
56 0 61 -24 84 -89 84 -28 0 -53 -4 -56 -10 -4 -6 -163 -10 -445 -10 -282 0
-441 4 -445 10 -10 16 -190 13 -204 -4z"/>
<path d="M10065 8847 c-4 -18 -5 -49 -3 -68 3 -33 5 -34 48 -37 24 -2 49 -7
55 -12 5 -4 38 -11 73 -15 34 -4 62 -11 62 -16 0 -5 8 -9 18 -9 46 -1 182 -96
182 -127 0 -6 6 -16 14 -22 8 -7 17 -28 21 -49 4 -20 12 -40 18 -44 17 -10 17
-2298 1 -2319 -6 -8 -14 -59 -18 -114 -4 -55 -11 -104 -16 -109 -4 -4 -6 -14
-4 -21 7 -18 -78 -105 -103 -105 -11 0 -23 -3 -27 -7 -8 -8 -10 -8 -133 -21
-45 -5 -89 -15 -98 -22 -18 -15 -21 -95 -3 -107 19 -11 1110 -12 1126 0 17 14
15 92 -3 107 -8 7 -57 16 -108 21 -50 5 -105 10 -122 12 -16 1 -34 5 -40 9 -5
3 -25 9 -42 13 -18 3 -33 11 -33 16 0 5 -6 9 -13 9 -18 0 -57 43 -57 63 0 9
-4 18 -9 22 -5 3 -13 31 -17 63 -3 31 -10 62 -14 67 -4 6 -7 36 -6 68 0 31 -3
59 -9 60 -11 4 -15 2050 -4 2061 6 6 119 -102 119 -113 0 -4 18 -25 40 -46 22
-21 40 -43 40 -48 0 -6 20 -30 45 -54 25 -24 45 -47 45 -51 0 -5 16 -23 35
-42 19 -19 35 -37 35 -42 0 -4 20 -27 44 -50 23 -24 45 -48 47 -55 2 -6 41
-52 87 -102 45 -49 82 -93 82 -96 0 -4 45 -56 100 -115 55 -59 100 -111 100
-115 0 -4 22 -31 49 -59 109 -114 174 -186 167 -186 -4 0 18 -25 49 -55 32
-30 54 -55 50 -55 -4 0 43 -53 104 -119 61 -65 111 -122 111 -126 0 -4 45 -56
100 -115 55 -59 100 -112 100 -117 0 -5 27 -35 60 -66 33 -32 60 -61 60 -64 0
-7 80 -96 155 -175 25 -26 45 -50 45 -55 0 -5 18 -27 40 -48 22 -21 40 -42 40
-47 0 -4 23 -28 50 -54 28 -26 50 -51 50 -56 0 -6 36 -49 80 -97 44 -49 80
-93 80 -99 0 -5 14 -22 30 -35 17 -14 30 -29 30 -34 0 -4 16 -25 36 -46 31
-34 39 -37 67 -32 51 11 67 32 67 86 0 26 -4 51 -10 54 -12 8 -14 2545 -2
2545 5 0 12 59 15 131 4 72 10 136 15 143 5 6 12 27 16 47 12 65 34 97 84 120
26 12 55 25 64 30 10 5 42 12 73 15 31 4 58 11 61 15 3 5 22 9 43 9 46 0 59
14 56 60 -5 70 -13 80 -61 80 -23 0 -46 -4 -49 -10 -4 -6 -165 -10 -451 -10
-289 0 -444 3 -444 10 0 16 -116 12 -129 -4 -7 -8 -11 -37 -9 -68 l3 -53 50
-3 c27 -2 54 -7 60 -12 5 -4 43 -11 83 -15 39 -4 72 -11 72 -15 0 -5 18 -11
39 -15 22 -4 45 -13 52 -21 6 -8 17 -14 23 -14 16 0 45 -66 52 -120 4 -25 10
-50 15 -55 4 -6 11 -60 15 -120 4 -61 12 -116 18 -124 12 -15 17 -1834 5
-1846 -8 -7 -89 67 -89 81 0 5 -45 54 -100 109 -55 55 -100 103 -100 106 0 4
-29 35 -65 70 -36 34 -65 66 -65 72 0 5 -57 69 -126 143 -70 74 -123 134 -119
134 4 0 -50 60 -119 134 -69 73 -126 136 -126 140 0 4 -22 31 -49 59 -28 29
-82 88 -121 132 -39 44 -93 103 -121 130 -27 28 -49 54 -49 59 0 4 -49 61
-110 126 -60 64 -110 120 -110 124 0 4 -37 48 -82 97 -46 50 -85 96 -88 103
-3 7 -17 26 -32 42 -65 71 -108 122 -108 130 -1 5 -14 20 -30 34 -17 13 -30
28 -30 33 0 6 -20 34 -45 63 -25 28 -45 55 -45 59 0 4 -18 29 -40 55 -22 26
-40 52 -40 58 0 6 -4 12 -8 14 -7 2 -60 91 -101 168 -9 18 -51 26 -51 11 0 -8
-102 -11 -330 -11 -213 0 -330 4 -330 10 0 6 -22 10 -50 10 -48 0 -49 -1 -55
-33z"/>
<path d="M25346 8872 c-3 -5 -105 -12 -228 -15 -124 -4 -227 -12 -232 -17 -6
-6 -20 -10 -32 -10 -26 0 -34 -17 -34 -69 0 -57 19 -67 140 -76 58 -4 110 -10
115 -13 6 -4 30 -14 54 -22 64 -22 92 -77 99 -188 2 -45 8 -85 13 -88 12 -7
12 -2264 0 -2264 -4 0 -11 -43 -14 -96 -3 -53 -10 -101 -16 -107 -6 -6 -11
-18 -11 -26 0 -25 -74 -88 -111 -96 -19 -4 -38 -10 -44 -13 -5 -4 -19 -7 -30
-9 -93 -10 -158 -23 -170 -33 -16 -13 -22 -109 -7 -111 4 -1 294 -2 645 -3
600 -2 637 -1 637 15 0 10 4 20 9 23 9 6 -7 85 -18 87 -12 1 -177 19 -206 22
-16 1 -34 5 -40 9 -5 3 -26 9 -45 13 -74 16 -148 110 -141 181 1 18 -2 35 -8
39 -17 10 -15 2635 2 2655 35 42 73 50 232 50 85 0 156 -4 159 -9 3 -4 33 -11
65 -15 33 -4 63 -11 66 -15 2 -5 21 -12 40 -15 53 -10 152 -64 191 -103 11
-13 26 -23 31 -23 11 0 63 -53 63 -64 0 -5 10 -19 23 -30 37 -36 89 -134 103
-191 4 -16 11 -35 16 -42 5 -6 12 -43 15 -82 3 -40 10 -74 14 -77 12 -7 12
-231 0 -238 -4 -3 -11 -37 -15 -76 -4 -38 -11 -70 -16 -70 -5 0 -12 -20 -16
-45 -3 -25 -9 -45 -13 -45 -4 0 -13 -17 -20 -37 -7 -21 -24 -52 -37 -70 -13
-17 -24 -34 -24 -38 0 -8 -116 -125 -125 -125 -3 0 -21 -11 -40 -26 -50 -38
-161 -91 -219 -105 -28 -6 -56 -15 -61 -20 -6 -4 -35 -11 -65 -15 -63 -8 -90
-26 -90 -61 0 -58 11 -63 130 -63 61 0 110 4 110 9 0 4 37 11 82 15 45 4 87
11 92 15 6 5 28 12 50 15 21 4 46 11 55 16 9 5 36 15 61 22 25 6 47 12 50 13
26 7 122 55 130 64 3 4 16 12 30 19 14 7 38 20 54 29 41 22 199 176 216 210 8
15 20 35 26 43 23 28 64 112 59 121 -3 4 -1 10 4 13 5 3 12 23 16 43 4 21 12
41 18 45 17 10 17 449 1 469 -7 8 -15 30 -19 49 -4 19 -10 40 -13 45 -4 6 -7
15 -8 20 -2 19 -28 75 -35 75 -4 0 -10 14 -14 31 -4 17 -13 33 -21 36 -8 3
-14 11 -14 19 0 18 -197 214 -215 214 -8 0 -15 4 -15 9 0 11 -162 91 -184 91
-9 0 -16 4 -16 9 0 5 -17 12 -37 16 -21 4 -42 10 -48 15 -5 4 -48 13 -95 20
-47 8 -90 17 -96 21 -5 5 -72 11 -147 15 -75 4 -137 11 -137 16 0 11 -667 11
-674 0z"/>
<path d="M27258 8849 c-20 -34 -23 -74 -8 -84 6 -4 8 -11 5 -16 -4 -5 23 -9
64 -9 38 0 73 -4 76 -10 3 -5 23 -10 44 -10 66 0 99 -11 141 -47 70 -60 82
-97 88 -265 2 -82 8 -148 13 -148 12 0 12 -2033 0 -2046 -5 -5 -11 -74 -13
-153 -3 -99 -8 -146 -16 -149 -7 -2 -12 -12 -12 -22 0 -10 -6 -25 -13 -32 -7
-7 -16 -21 -20 -30 -3 -10 -13 -18 -22 -18 -8 0 -15 -4 -15 -9 0 -5 -15 -13
-32 -16 -18 -4 -37 -10 -43 -13 -5 -4 -19 -7 -30 -9 -11 -1 -31 -4 -45 -7 -14
-3 -47 -8 -73 -11 l-48 -6 3 -62 3 -62 607 0 607 -1 7 45 c11 72 -10 88 -117
90 -31 1 -59 4 -63 9 -4 4 -20 7 -34 8 -47 1 -152 49 -152 68 0 8 -7 19 -15
26 -8 7 -15 21 -15 30 0 10 -5 20 -12 22 -8 3 -13 51 -16 164 -2 87 -6 166 -9
174 -7 19 -7 760 0 780 3 8 7 48 9 88 4 81 15 95 73 98 61 3 98 -25 278 -208
97 -100 177 -187 177 -193 0 -7 27 -38 60 -69 33 -32 60 -61 60 -65 0 -3 25
-31 55 -61 30 -30 55 -58 55 -62 0 -5 27 -36 60 -69 33 -33 60 -63 60 -67 0
-4 25 -32 55 -62 30 -30 55 -57 55 -61 0 -4 29 -35 65 -70 36 -35 65 -68 65
-72 0 -5 44 -55 98 -113 53 -57 99 -110 101 -117 2 -6 19 -29 37 -50 19 -20
34 -44 34 -52 0 -8 5 -15 11 -15 8 0 8 -5 -1 -15 -7 -8 -20 -15 -30 -15 -9 0
-20 -3 -24 -7 -4 -4 -17 -9 -29 -10 -92 -12 -134 -20 -144 -26 -8 -5 -13 -29
-13 -57 0 -28 5 -52 13 -57 6 -4 265 -8 574 -8 554 0 562 0 567 20 21 78 -7
115 -86 115 -26 0 -49 4 -53 9 -3 6 -14 8 -25 6 -11 -2 -22 0 -25 6 -4 5 -16
9 -27 9 -25 0 -102 37 -138 65 -41 32 -280 268 -280 276 0 4 -34 41 -76 83
-42 42 -73 76 -69 76 4 0 -50 60 -119 134 -69 73 -126 137 -126 141 0 4 -45
56 -100 115 -55 59 -100 112 -100 116 0 5 -23 31 -50 57 -28 27 -50 52 -50 56
0 4 -22 29 -50 56 -27 27 -50 53 -50 58 0 4 -22 30 -50 56 -27 26 -50 52 -50
56 0 4 -43 54 -95 110 -52 57 -95 106 -95 110 0 4 -17 27 -37 52 -49 59 -50
100 -5 138 18 15 32 32 32 39 0 13 41 56 54 56 5 0 116 105 248 233 132 127
245 234 251 236 7 2 45 37 85 78 40 40 75 73 79 73 6 0 72 58 159 141 17 16
34 29 38 29 4 0 33 23 65 50 32 28 61 50 65 50 5 0 25 14 46 30 21 17 43 30
49 30 7 0 14 6 17 14 3 8 19 18 35 21 16 4 29 10 29 14 0 4 19 14 43 21 23 8
47 17 52 21 6 4 27 10 48 14 20 4 40 11 42 16 3 4 33 11 66 15 32 4 62 11 65
15 3 5 22 9 43 9 30 0 42 6 55 25 17 26 21 55 7 55 -5 0 -11 14 -14 30 -6 29
-9 30 -57 30 -27 0 -50 -4 -50 -10 0 -7 -145 -10 -414 -10 -266 0 -417 4 -421
10 -3 6 -28 10 -54 10 -37 0 -52 -5 -68 -22 -34 -39 -19 -118 22 -118 13 0 26
-4 29 -9 3 -4 30 -11 60 -15 30 -3 68 -14 85 -23 31 -18 40 -33 21 -33 -5 0
-10 -6 -10 -13 0 -8 -7 -29 -16 -48 -19 -38 -1146 -1169 -1165 -1169 -7 0 -20
-7 -29 -15 -10 -9 -40 -18 -67 -22 -45 -5 -52 -3 -67 18 -10 14 -16 43 -16 75
0 28 -3 54 -6 57 -8 8 -8 666 -1 687 3 8 8 85 10 170 3 123 8 162 22 190 22
43 74 100 92 100 7 0 13 4 13 9 0 6 32 13 70 17 39 4 73 11 76 15 3 5 30 9 59
9 50 0 55 2 61 25 7 30 -1 82 -17 102 -13 15 -125 18 -134 3 -4 -6 -173 -10
-475 -10 -302 0 -471 4 -475 10 -3 6 -32 10 -63 10 -53 0 -58 -2 -74 -31z"/>
<path d="M30605 8847 c-4 -18 -5 -49 -3 -68 l3 -34 65 -3 c36 -1 74 -6 85 -11
11 -5 43 -12 71 -15 29 -4 65 -13 81 -21 30 -15 93 -75 79 -75 -5 0 -4 -6 2
-12 6 -7 13 -31 17 -53 4 -22 13 -46 19 -54 17 -22 16 -2513 -1 -2518 -7 -3
-13 -17 -13 -33 0 -68 -66 -153 -128 -165 -20 -4 -41 -10 -47 -13 -11 -7 -24
-9 -95 -17 -92 -11 -110 -16 -110 -30 0 -8 -4 -15 -10 -15 -5 0 -10 -13 -10
-30 0 -16 5 -30 10 -30 6 0 10 -8 10 -18 0 -16 35 -17 618 -17 685 -1 641 -5
642 66 0 58 -3 59 -205 82 -48 6 -124 38 -159 67 -19 16 -41 59 -37 74 1 5 -4
13 -11 17 -20 12 -19 2618 0 2642 8 9 11 21 7 27 -3 5 18 34 47 63 54 55 84
67 165 67 17 0 35 5 38 10 3 6 33 10 65 10 84 0 90 4 90 61 0 27 -4 49 -10 49
-5 0 -10 7 -10 15 0 12 -14 15 -70 15 -40 0 -70 -4 -70 -10 0 -7 -168 -10
-484 -10 -313 0 -487 4 -491 10 -3 6 -37 10 -75 10 l-69 0 -6 -33z"/>
<path d="M32132 8868 c-7 -7 -12 -20 -12 -29 0 -10 -5 -19 -11 -21 -9 -3 -9
-9 -1 -23 6 -11 13 -28 16 -37 4 -14 16 -18 56 -18 27 0 50 -4 50 -9 0 -5 29
-12 65 -16 36 -3 65 -11 65 -16 0 -5 8 -9 18 -9 43 0 172 -88 172 -117 0 -8 6
-16 14 -19 8 -3 18 -20 22 -37 3 -18 11 -38 18 -46 16 -20 16 -2419 0 -2429
-6 -4 -14 -41 -18 -82 -3 -41 -11 -76 -16 -78 -6 -2 -10 -12 -10 -23 0 -21
-73 -79 -100 -79 -9 0 -20 -3 -24 -7 -4 -5 -20 -8 -34 -9 -15 0 -34 -3 -42 -7
-8 -3 -44 -8 -80 -10 -46 -4 -68 -11 -77 -23 -17 -23 -17 -65 1 -89 13 -18 36
-19 574 -20 558 -1 561 -1 566 19 10 35 7 71 -7 90 -10 14 -35 20 -108 27
-126 12 -151 15 -169 22 -8 3 -28 8 -44 12 -57 12 -114 77 -107 123 1 6 -2 12
-8 12 -5 0 -12 35 -16 78 -3 42 -10 85 -16 95 -5 9 -12 130 -16 268 -3 137
-10 252 -15 255 -12 8 -10 1444 2 1444 6 0 10 29 10 68 0 94 10 105 52 58 18
-21 52 -60 76 -86 23 -26 42 -50 42 -53 0 -3 20 -26 45 -50 25 -25 45 -48 45
-52 0 -4 36 -47 80 -95 44 -48 80 -91 80 -95 0 -4 38 -49 85 -100 47 -51 85
-96 85 -100 0 -4 23 -29 50 -56 28 -27 50 -52 50 -56 0 -7 79 -94 161 -179 27
-28 49 -54 49 -59 0 -4 45 -56 100 -115 55 -59 100 -111 100 -115 0 -4 50 -61
110 -125 61 -65 110 -122 110 -126 0 -4 23 -29 50 -56 28 -26 50 -52 50 -56 0
-4 23 -30 50 -57 28 -27 50 -53 50 -58 0 -5 23 -30 50 -56 28 -26 50 -51 50
-55 0 -4 50 -61 110 -126 61 -64 110 -120 110 -125 0 -4 41 -51 90 -104 50
-54 90 -102 90 -108 0 -5 20 -28 45 -51 25 -22 45 -45 45 -49 0 -5 18 -27 40
-48 22 -21 40 -44 40 -50 0 -5 14 -21 30 -35 17 -14 30 -29 30 -33 0 -5 21
-33 47 -63 45 -52 50 -55 83 -49 64 12 62 1 60 356 0 193 -5 328 -10 333 -12
12 -14 1693 -2 1700 5 3 11 118 15 256 3 138 10 256 15 263 5 7 8 26 7 42 -2
17 1 35 5 40 4 6 10 27 14 48 4 20 11 37 16 37 6 0 10 7 10 15 0 8 7 15 15 15
9 0 18 6 21 14 3 8 23 17 45 21 21 4 41 10 44 15 3 4 32 11 65 15 33 4 63 11
66 16 3 5 21 9 41 9 43 0 62 21 63 68 0 45 -32 71 -87 72 -24 0 -43 -4 -43
-10 0 -7 -151 -10 -434 -10 -279 0 -437 4 -441 10 -3 6 -32 10 -64 10 -70 0
-91 -18 -91 -76 0 -52 14 -64 71 -64 26 0 50 -4 53 -9 3 -4 38 -12 77 -15 39
-4 79 -11 88 -15 96 -46 113 -59 131 -94 11 -21 20 -48 20 -60 0 -13 4 -27 10
-33 10 -10 30 -196 30 -284 0 -31 5 -61 10 -66 13 -13 26 -1408 15 -1617 -5
-115 -10 -147 -20 -145 -14 3 -175 156 -175 166 0 5 -106 120 -230 249 -33 34
-60 66 -60 70 0 5 -25 33 -55 63 -30 30 -55 57 -55 61 0 4 -29 36 -65 71 -36
36 -65 68 -65 73 0 4 -52 62 -115 130 -63 67 -115 126 -115 130 0 4 -52 63
-115 130 -63 68 -115 126 -115 131 0 4 -29 36 -65 71 -36 35 -65 66 -65 70 0
6 -26 35 -156 175 -24 26 -44 50 -44 53 0 4 -38 49 -85 100 -47 51 -85 96 -85
100 0 4 -29 40 -65 80 -36 40 -65 76 -65 81 0 4 -7 14 -15 23 -49 54 -85 100
-85 110 0 6 -4 11 -8 11 -9 0 -62 76 -62 88 0 4 -9 13 -19 19 -10 7 -26 26
-35 42 -9 17 -23 45 -32 61 -8 17 -19 30 -24 30 -5 0 -11 14 -15 30 -4 17 -11
30 -16 30 -5 0 -9 7 -9 15 0 17 -25 20 -35 5 -4 -6 -127 -10 -336 -10 -213 0
-329 4 -329 10 0 14 -84 12 -98 -2z"/>
<path d="M27930 4100 c0 -16 -4 -30 -9 -30 -6 0 -8 -10 -6 -22 3 -12 1 -26 -4
-32 -5 -6 -12 -37 -15 -68 -4 -32 -11 -60 -16 -63 -4 -3 -11 -22 -15 -42 -4
-21 -11 -40 -16 -43 -4 -3 -10 -21 -11 -40 -3 -34 -2 -35 38 -38 l41 -3 33 66
c36 73 95 130 144 141 17 3 36 9 41 12 12 8 69 12 237 18 l128 5 25 -27 25
-27 0 -608 c0 -394 -4 -610 -10 -614 -5 -3 -10 -42 -10 -86 0 -76 -1 -81 -33
-115 -32 -35 -35 -36 -120 -41 -101 -7 -116 -17 -96 -63 12 -26 19 -30 51 -30
20 0 40 5 43 10 4 6 103 10 265 10 162 0 261 -4 265 -10 3 -5 24 -10 45 -10
34 0 41 4 46 24 13 52 0 63 -83 70 -42 3 -79 10 -82 14 -3 5 -14 11 -23 15
-10 3 -18 13 -18 21 0 8 -6 16 -12 18 -10 4 -14 158 -16 716 -3 709 -2 711 18
722 13 7 67 10 153 7 208 -7 293 -21 343 -54 27 -17 67 -90 58 -104 -3 -5 0
-9 5 -9 6 0 11 -20 11 -45 l0 -45 40 0 40 0 0 100 c0 55 4 108 10 118 5 9 12
52 15 95 4 42 11 77 17 77 6 0 5 6 -2 15 -18 22 -54 18 -65 -7 -6 -12 -17 -24
-25 -28 -8 -4 -25 -12 -37 -18 -30 -16 -1259 -17 -1268 -2 -3 6 -15 10 -25 10
-10 0 -31 16 -46 35 -35 46 -74 49 -74 5z"/>
<path d="M23740 4081 c0 -5 -29 -12 -65 -16 -36 -3 -65 -10 -65 -15 0 -5 -15
-12 -32 -15 -18 -4 -49 -20 -69 -36 -20 -16 -41 -29 -46 -29 -11 0 -53 -43
-53 -54 0 -4 -13 -24 -29 -44 -16 -20 -33 -54 -36 -75 -4 -20 -11 -39 -15 -42
-4 -3 -6 -21 -4 -40 1 -19 -1 -37 -7 -40 -12 -8 -12 -52 0 -59 5 -3 7 -22 5
-41 -1 -19 1 -37 7 -40 5 -4 9 -13 9 -22 0 -18 41 -106 53 -111 4 -2 7 -9 7
-15 0 -16 141 -157 157 -157 7 0 13 -5 13 -10 0 -6 8 -13 18 -17 9 -3 33 -19
53 -35 20 -15 40 -28 44 -28 3 0 27 -16 52 -35 25 -19 50 -35 55 -35 12 0 67
-40 94 -67 12 -13 26 -23 31 -23 16 0 38 -30 78 -105 36 -66 38 -75 39 -164 0
-67 -3 -96 -12 -99 -6 -2 -12 -12 -12 -22 0 -10 -7 -26 -16 -34 -8 -9 -12 -16
-8 -16 4 0 -7 -16 -26 -35 -19 -19 -40 -35 -47 -35 -7 0 -13 -4 -13 -10 0 -5
-16 -12 -35 -16 -19 -3 -38 -10 -41 -15 -7 -12 -191 -12 -198 0 -3 5 -23 12
-43 16 -21 4 -57 22 -80 41 -23 19 -46 34 -52 34 -6 0 -11 5 -11 11 0 6 -16
29 -35 50 -19 22 -35 46 -35 54 0 8 -4 15 -9 15 -5 0 -12 14 -16 30 -4 17 -11
30 -15 30 -5 0 -12 16 -16 35 -8 43 -25 57 -61 53 -23 -2 -29 -9 -31 -32 -2
-16 1 -39 6 -50 6 -12 13 -57 17 -100 3 -44 9 -85 13 -90 4 -6 12 -31 17 -56
9 -38 16 -48 50 -66 22 -12 57 -25 78 -29 20 -4 37 -11 37 -16 0 -5 14 -9 30
-9 17 0 30 -4 30 -10 0 -6 70 -10 190 -10 120 0 190 4 190 10 0 6 9 10 19 10
11 0 22 4 25 9 3 5 22 12 41 15 19 4 35 11 35 16 0 6 7 10 15 10 21 0 154 129
161 156 3 13 10 24 14 24 5 0 12 15 15 33 4 17 12 38 19 46 15 20 15 269 -1
279 -6 4 -14 24 -18 44 -4 21 -13 42 -21 49 -8 6 -14 18 -14 26 0 19 -159 183
-177 183 -7 0 -13 5 -13 10 0 6 -8 13 -17 17 -10 3 -34 18 -53 33 -19 14 -46
32 -60 38 -58 30 -80 44 -80 52 0 5 -13 11 -30 15 -16 4 -30 11 -30 16 0 5 -8
12 -17 16 -25 8 -123 105 -123 120 0 7 -3 13 -7 13 -17 0 -46 69 -50 121 -10
104 2 142 64 210 35 37 67 62 85 66 16 3 31 10 34 14 7 11 204 12 204 1 0 -4
19 -13 43 -19 57 -16 152 -113 162 -166 4 -21 11 -37 15 -37 4 0 10 -13 14
-30 5 -25 10 -30 36 -30 23 0 31 5 36 25 9 35 -6 235 -17 235 -5 0 -9 11 -9
24 0 45 -10 56 -49 56 -20 0 -42 5 -47 10 -6 6 -40 13 -77 17 -37 3 -67 10
-67 14 0 5 -45 9 -100 9 -55 0 -100 -4 -100 -9z"/>
<path d="M6192 4048 c-16 -16 -15 -53 1 -65 6 -6 43 -13 82 -16 63 -5 72 -8
96 -37 37 -43 39 -80 39 -611 0 -252 4 -460 9 -463 4 -3 11 -37 15 -76 4 -38
11 -70 17 -70 5 0 9 -7 9 -17 0 -39 56 -132 119 -196 63 -65 164 -127 206
-127 8 0 15 -4 15 -10 0 -5 14 -10 30 -10 17 0 30 -4 30 -10 0 -6 75 -10 205
-10 130 0 205 4 205 10 0 6 14 10 30 10 17 0 30 5 30 10 0 6 7 10 16 10 23 0
125 50 160 79 18 14 43 35 57 46 15 11 26 25 27 31 0 6 9 19 20 29 11 10 20
24 20 32 0 7 5 13 10 13 6 0 9 3 8 8 -1 4 8 27 20 51 12 24 24 59 28 78 3 18
10 33 14 33 5 0 12 30 15 68 4 37 10 72 14 77 3 6 6 165 7 355 0 190 3 352 7
360 3 8 8 71 10 140 3 76 10 126 16 128 6 2 11 10 11 18 0 25 50 47 118 53 37
3 65 10 64 15 -2 5 2 12 9 17 11 6 10 13 -1 33 -14 26 -53 36 -65 16 -9 -15
-450 -13 -474 2 -27 17 -51 -5 -51 -48 l0 -34 53 -1 c110 -1 157 -32 157 -106
0 -17 6 -33 13 -35 16 -6 18 -938 1 -959 -6 -8 -14 -30 -18 -49 -5 -32 -25
-80 -47 -120 -5 -8 -14 -26 -20 -40 -29 -70 -191 -190 -257 -190 -11 0 -24 -4
-27 -10 -8 -13 -212 -13 -220 0 -3 6 -17 10 -30 10 -13 0 -36 5 -52 12 -15 6
-32 10 -37 9 -4 -1 -24 11 -44 26 -20 15 -46 33 -57 38 -11 6 -25 20 -31 33
-6 12 -18 30 -26 39 -24 27 -66 109 -73 145 -4 18 -10 38 -14 43 -4 6 -7 21
-6 35 0 14 -4 28 -10 32 -12 8 -21 877 -10 965 5 39 14 63 34 85 23 26 35 31
96 36 85 6 102 19 83 62 -13 30 -50 42 -63 20 -4 -6 -103 -10 -265 -10 -162 0
-261 4 -265 10 -9 14 -48 13 -63 -2z"/>
<path d="M9310 4016 l0 -43 61 -7 c78 -9 100 -18 136 -54 66 -67 63 -33 63
-682 0 -407 -3 -591 -11 -595 -6 -4 -9 -29 -8 -56 2 -27 0 -52 -4 -55 -4 -4
-7 -15 -7 -25 0 -24 -52 -47 -125 -57 l-60 -7 0 -40 c0 -36 3 -40 28 -43 15
-2 27 1 27 7 0 8 74 11 230 11 147 0 230 -4 230 -10 0 -5 15 -10 34 -10 28 0
35 4 40 26 11 43 -1 64 -37 64 -82 0 -137 13 -162 38 -14 13 -22 28 -20 32 3
5 0 10 -5 12 -7 2 -13 61 -17 151 -3 81 -10 150 -15 153 -13 8 -10 834 3 834
6 0 9 6 6 14 -3 8 -3 17 0 20 7 7 43 -23 43 -36 0 -5 20 -27 45 -50 25 -23 45
-46 45 -51 0 -5 38 -51 85 -102 47 -51 85 -97 85 -103 0 -5 23 -30 50 -56 28
-26 50 -50 50 -54 0 -4 23 -30 50 -57 28 -27 50 -53 50 -59 0 -5 23 -31 50
-57 28 -26 50 -51 50 -55 0 -4 26 -35 58 -69 125 -133 162 -175 156 -175 -3 0
42 -51 100 -114 58 -62 106 -117 106 -121 0 -4 34 -44 75 -90 41 -45 75 -90
75 -99 0 -21 55 -22 76 -2 16 17 18 42 4 51 -12 8 -14 1311 -2 1319 5 3 12 44
15 91 8 118 23 138 118 156 78 15 96 30 85 72 -6 27 -38 38 -51 17 -4 -6 -97
-10 -246 -10 -153 0 -239 4 -239 10 0 15 -36 12 -49 -4 -7 -8 -11 -27 -9 -43
3 -27 5 -28 87 -38 75 -10 87 -14 112 -43 20 -22 29 -43 29 -65 0 -18 6 -39
13 -45 9 -10 13 -133 16 -527 2 -283 0 -515 -4 -515 -8 0 -85 77 -85 86 0 3
-61 70 -135 149 -74 78 -135 146 -135 150 0 4 -52 63 -115 130 -63 68 -115
127 -115 131 0 5 -22 32 -49 59 -81 83 -161 171 -161 178 0 4 -18 24 -40 46
-22 21 -40 42 -40 46 0 4 -25 35 -55 68 -30 34 -55 66 -55 70 0 5 -15 27 -33
50 -19 23 -43 61 -53 84 -17 38 -44 58 -44 33 0 -6 -65 -10 -174 -10 -106 0
-177 4 -181 10 -3 6 -15 10 -26 10 -16 0 -19 -7 -19 -44z"/>
<path d="M12599 4055 c0 -3 -1 -22 -2 -42 l0 -38 74 -7 c63 -7 78 -12 104 -38
l30 -30 0 -694 c0 -668 -1 -695 -19 -715 -11 -12 -25 -21 -33 -21 -7 0 -13 -4
-13 -9 0 -5 -32 -13 -72 -18 l-71 -8 0 -40 c0 -40 0 -40 41 -43 25 -2 42 1 42
7 0 8 79 11 245 11 157 0 245 -4 245 -10 0 -5 18 -10 40 -10 l40 0 0 44 0 43
-70 7 c-38 4 -70 11 -70 17 0 5 -6 9 -13 9 -8 0 -22 9 -33 21 -18 20 -19 47
-19 715 l0 694 31 30 c26 27 39 32 102 37 l72 6 0 43 c0 40 -2 44 -24 44 -14
0 -28 -4 -31 -10 -4 -6 -105 -10 -270 -10 -165 0 -266 4 -270 10 -6 10 -54 14
-56 5z"/>
<path d="M14611 4046 c-17 -20 -10 -70 9 -73 107 -14 109 -14 149 -54 22 -22
49 -61 61 -87 11 -26 28 -60 35 -75 8 -16 15 -32 15 -37 0 -5 5 -21 11 -37 6
-15 10 -28 9 -28 -1 0 9 -21 23 -47 14 -27 28 -61 32 -78 4 -16 11 -30 16 -30
5 0 9 -6 9 -14 0 -8 5 -27 12 -43 7 -15 13 -32 13 -38 2 -12 23 -61 41 -97 8
-14 14 -36 14 -47 0 -12 4 -21 9 -21 5 0 13 -15 17 -32 3 -18 12 -42 19 -53 7
-11 16 -35 20 -52 4 -18 10 -33 15 -33 4 0 11 -12 14 -27 4 -16 13 -43 22 -60
27 -61 46 -105 59 -143 15 -42 38 -98 61 -143 8 -16 14 -32 14 -37 0 -5 5 -21
12 -37 6 -15 12 -30 13 -33 1 -3 7 -18 13 -33 7 -16 12 -34 12 -42 0 -8 4 -16
9 -19 5 -4 12 -24 16 -46 4 -22 11 -40 16 -40 5 0 9 -12 9 -27 0 -44 13 -55
56 -51 38 3 39 4 55 58 20 72 29 96 75 195 7 17 19 51 26 78 7 26 15 47 19 47
4 0 10 12 13 28 8 33 38 96 49 100 4 2 7 11 7 21 0 9 9 34 19 55 11 21 23 51
26 67 4 16 10 29 15 29 5 0 11 14 15 30 4 17 19 54 35 83 15 28 31 67 35 85 3
17 10 32 15 32 4 0 11 12 15 28 7 29 40 102 141 307 35 72 64 136 64 142 0 6
3 13 8 15 4 2 22 32 40 68 72 144 90 161 190 169 l66 6 0 34 c0 43 -24 62 -54
43 -27 -17 -431 -17 -448 0 -18 18 -42 -9 -42 -47 l0 -32 66 -6 c37 -4 73 -12
80 -18 16 -13 19 -85 4 -94 -6 -3 -15 -26 -21 -51 -6 -24 -15 -44 -20 -44 -5
0 -9 -9 -9 -21 0 -11 -6 -33 -14 -47 -21 -41 -40 -86 -41 -97 0 -5 -10 -30
-22 -55 -12 -25 -25 -57 -28 -72 -4 -16 -11 -28 -15 -28 -4 0 -11 -12 -14 -27
-4 -16 -13 -41 -20 -58 -8 -16 -23 -51 -35 -76 -12 -25 -21 -54 -21 -63 0 -9
-4 -16 -9 -16 -5 0 -12 -13 -16 -30 -4 -16 -11 -30 -16 -30 -5 0 -9 -8 -9 -18
0 -9 -8 -33 -19 -52 -10 -19 -22 -50 -25 -67 -4 -18 -11 -33 -16 -33 -5 0 -11
-14 -15 -30 -4 -17 -18 -51 -31 -76 -13 -25 -22 -50 -19 -55 4 -5 2 -9 -4 -9
-5 0 -12 -13 -16 -30 -8 -34 -24 -40 -32 -10 -3 11 -9 20 -13 20 -4 0 -11 12
-14 28 -8 33 -38 96 -48 100 -5 2 -8 10 -8 17 0 8 -5 26 -12 42 -7 15 -12 33
-13 38 -1 6 -12 33 -24 60 -12 28 -28 64 -35 80 -8 17 -19 44 -27 60 -7 17
-14 35 -15 40 0 6 -6 23 -12 38 -7 16 -12 35 -12 43 0 8 -4 14 -9 14 -5 0 -12
12 -15 28 -6 26 -24 67 -53 124 -7 14 -13 34 -13 43 0 9 -6 29 -13 43 -29 57
-47 98 -53 125 -3 15 -10 27 -14 27 -4 0 -11 17 -15 38 -4 20 -12 43 -17 50
-6 7 -8 15 -5 19 4 3 3 11 -3 18 -5 6 -12 29 -16 52 l-6 41 51 11 c29 6 63 11
76 11 15 0 25 6 25 14 0 8 6 16 13 19 21 7 -13 57 -39 57 -13 0 -26 -4 -29
-10 -4 -6 -98 -10 -250 -10 -152 0 -246 4 -250 10 -9 14 -21 12 -34 -4z"/>
<path d="M17702 4018 l3 -43 69 -11 c91 -15 112 -38 121 -138 4 -39 5 -343 3
-676 -3 -552 -5 -608 -21 -636 -30 -54 -48 -64 -133 -71 -68 -5 -81 -9 -89
-27 -17 -37 4 -66 47 -66 20 0 40 5 43 10 8 14 1052 14 1060 0 3 -5 30 -10 58
-10 50 0 53 2 69 35 37 76 48 101 54 130 4 17 11 36 16 42 6 7 8 19 5 27 -3 7
-1 18 5 24 5 5 12 38 15 72 l6 61 -34 -3 c-25 -2 -37 -10 -49 -33 -8 -16 -17
-32 -20 -35 -11 -11 -50 -69 -50 -75 0 -3 -23 -27 -51 -55 -55 -54 -95 -70
-176 -70 -28 0 -55 -4 -58 -10 -8 -12 -212 -14 -219 -2 -3 5 -43 12 -88 15
-57 5 -87 12 -94 22 -6 8 -16 15 -23 15 -6 0 -11 7 -11 15 0 8 -5 15 -12 15
-6 0 -8 3 -5 7 4 3 1 13 -6 21 -16 19 -24 570 -9 598 9 18 23 19 194 18 100 0
192 -4 203 -8 36 -13 49 -22 59 -42 6 -10 14 -21 18 -25 5 -3 11 -27 14 -55 9
-68 19 -84 55 -84 l29 0 -2 268 c-3 266 -3 267 -25 270 -30 4 -49 -30 -58
-100 -5 -47 -12 -62 -36 -83 -26 -21 -41 -25 -94 -25 -35 0 -67 -4 -70 -10 -8
-12 -255 -14 -255 -1 0 5 -9 11 -20 14 -19 5 -20 14 -20 316 l0 311 24 15 c20
13 50 15 183 11 250 -7 274 -10 330 -37 50 -24 103 -82 103 -114 0 -8 4 -16 9
-19 5 -4 12 -24 16 -46 5 -32 12 -41 32 -47 40 -9 58 8 61 61 2 25 -1 46 -6
46 -5 0 -12 53 -16 118 -5 81 -11 121 -21 132 -10 10 -15 11 -15 2 0 -16
-1055 -18 -1065 -2 -3 6 -17 10 -31 10 -23 0 -25 -3 -22 -42z"/>
<path d="M20825 4050 c-4 -6 -68 -10 -158 -11 -84 0 -170 -3 -192 -7 -36 -7
-40 -10 -40 -36 0 -31 24 -45 90 -50 47 -4 85 -24 85 -44 0 -10 6 -24 13 -30
9 -10 12 -157 12 -665 0 -594 -2 -655 -17 -688 -27 -55 -46 -67 -128 -76 -72
-8 -75 -9 -78 -36 -2 -16 2 -35 9 -43 13 -16 65 -19 74 -4 4 6 97 10 245 10
148 0 241 -4 245 -10 9 -14 58 -13 73 2 16 16 15 53 0 66 -7 5 -39 13 -71 17
-42 5 -65 14 -86 34 -38 36 -43 86 -39 391 l3 235 97 3 96 3 50 -43 c28 -24
51 -47 51 -51 1 -9 42 -69 53 -77 3 -3 10 -18 13 -33 4 -15 11 -27 16 -27 5 0
12 -8 16 -17 3 -10 18 -34 33 -53 14 -19 31 -46 38 -60 22 -43 40 -72 49 -79
10 -8 53 -68 53 -76 0 -13 175 -176 202 -187 15 -7 28 -16 28 -20 0 -4 16 -10
35 -14 19 -3 38 -10 41 -15 3 -5 16 -9 30 -9 13 0 24 -4 24 -10 0 -6 45 -10
115 -10 115 0 115 0 121 26 8 30 -14 49 -65 58 -19 3 -51 19 -72 36 -21 16
-41 30 -44 30 -9 0 -125 115 -125 124 0 4 -22 33 -50 65 -27 32 -50 61 -50 65
0 4 -18 29 -40 55 -22 26 -40 51 -40 56 0 4 -11 23 -25 41 -14 18 -25 37 -25
43 0 6 -5 11 -10 11 -6 0 -14 8 -17 18 -4 9 -18 32 -31 50 -13 17 -21 32 -17
32 4 0 -7 18 -24 39 -17 21 -31 43 -31 49 0 6 -4 12 -9 14 -4 2 -11 13 -15 25
-6 18 -1 23 29 34 19 7 35 16 35 20 0 4 11 10 24 13 36 9 174 151 192 196 3 8
11 26 17 40 6 14 10 39 8 56 -1 18 2 35 8 39 14 8 14 102 0 111 -6 3 -9 19 -7
35 3 16 1 29 -4 29 -4 0 -8 11 -8 23 0 13 -13 43 -30 65 -16 23 -30 46 -30 50
0 10 -43 52 -54 52 -4 0 -24 13 -44 29 -20 17 -50 33 -67 37 -16 4 -36 11 -42
17 -7 5 -13 6 -13 2 0 -4 -6 -2 -14 4 -8 6 -60 14 -115 18 -56 3 -104 10 -107
15 -7 12 -281 10 -289 -2z m305 -101 c8 -3 20 -7 25 -11 6 -3 25 -9 43 -13 17
-3 32 -11 32 -16 0 -5 6 -9 14 -9 22 0 116 -107 122 -140 4 -16 10 -30 15 -30
4 0 11 -21 14 -47 3 -27 10 -56 16 -65 11 -22 12 -65 0 -72 -4 -3 -11 -34 -14
-68 -6 -73 -27 -116 -82 -176 -42 -45 -91 -72 -131 -72 -13 0 -24 -4 -24 -10
0 -6 -55 -10 -144 -10 -122 0 -145 2 -150 16 -3 9 -6 169 -6 357 0 308 2 342
17 360 16 17 29 18 128 14 60 -2 117 -6 125 -8z"/>
<path d="M25732 4048 c-7 -7 -12 -27 -12 -45 l0 -33 53 0 c28 0 69 -5 89 -11
51 -14 80 -70 77 -151 -1 -32 1 -61 4 -65 9 -8 9 -1068 0 -1076 -3 -4 -5 -36
-4 -71 2 -63 1 -66 -37 -104 -39 -39 -75 -52 -149 -52 -31 0 -33 -2 -33 -33 0
-18 5 -38 12 -45 15 -15 64 -16 73 -2 4 6 98 10 250 10 152 0 246 -4 250 -10
3 -5 22 -10 40 -10 28 0 36 4 41 24 12 49 -1 63 -69 69 -87 8 -126 31 -133 80
-4 20 -11 40 -15 43 -11 6 -12 1268 -2 1278 5 4 12 26 18 49 12 50 37 65 127
75 68 8 85 23 74 65 -5 22 -12 27 -36 27 -17 0 -30 -4 -30 -10 0 -6 -96 -10
-269 -10 -169 0 -272 4 -276 10 -8 14 -28 13 -43 -2z"/>
<path d="M30765 4045 c-3 -8 -7 -21 -9 -28 -7 -25 20 -43 83 -55 36 -6 67 -15
70 -19 3 -4 15 -13 25 -19 11 -6 24 -19 30 -30 6 -10 16 -22 23 -27 6 -4 14
-21 18 -37 4 -17 10 -30 15 -30 4 0 68 -119 141 -265 72 -146 138 -270 145
-276 8 -6 11 -15 8 -20 -3 -5 -1 -9 5 -9 5 0 12 -13 16 -30 4 -16 10 -30 15
-30 4 0 11 -12 14 -27 4 -16 13 -41 21 -58 7 -16 17 -39 21 -50 10 -27 11
-485 2 -491 -5 -3 -8 -14 -8 -24 0 -36 -62 -70 -138 -77 l-70 -6 -4 -39 c-2
-21 -2 -41 1 -44 9 -9 81 -4 81 6 0 6 95 10 264 10 166 0 267 -4 271 -10 3 -5
22 -10 41 -10 41 0 64 33 45 67 -8 17 -24 21 -94 26 -71 5 -89 10 -111 30 -14
13 -26 34 -26 46 0 11 -4 21 -10 21 -6 0 -10 95 -10 265 0 170 4 265 10 265 6
0 10 7 10 16 0 22 101 227 121 244 3 3 8 12 12 20 4 8 20 38 37 65 16 28 33
58 36 68 3 9 10 17 14 17 5 0 11 14 15 30 4 17 10 30 15 30 5 0 21 24 35 53
42 83 63 120 72 126 4 3 17 23 28 45 11 21 25 41 32 43 7 3 13 10 13 17 0 15
69 81 93 89 9 4 17 10 17 15 0 5 24 13 52 16 61 8 78 20 78 51 0 33 -26 52
-51 37 -24 -15 -395 -17 -404 -2 -10 16 -55 12 -55 -5 0 -8 -4 -15 -10 -15
-14 0 -12 -37 3 -47 6 -4 43 -13 80 -20 38 -6 70 -13 72 -15 7 -6 -17 -88 -25
-88 -5 0 -11 -13 -15 -30 -4 -16 -10 -30 -15 -30 -4 0 -11 -12 -15 -27 -3 -15
-11 -30 -16 -33 -5 -4 -31 -49 -57 -101 -111 -216 -137 -264 -145 -270 -9 -7
-58 -94 -79 -141 -15 -33 -28 -36 -35 -8 -3 11 -9 20 -13 20 -5 0 -11 14 -15
30 -4 17 -10 30 -14 30 -3 0 -13 15 -20 33 -8 17 -15 34 -16 37 -1 3 -8 20
-16 38 -7 17 -17 32 -20 32 -4 0 -10 14 -14 30 -4 17 -10 30 -14 30 -3 0 -13
15 -20 33 -8 17 -15 34 -16 37 -1 3 -8 20 -16 38 -7 17 -17 32 -20 32 -4 0
-10 14 -14 30 -4 17 -10 30 -15 30 -5 0 -11 14 -15 30 -4 17 -10 30 -14 30 -6
0 -31 53 -35 75 -1 6 -8 23 -15 39 -6 17 -11 41 -9 55 3 23 9 27 58 34 64 10
80 21 80 52 0 33 -26 52 -51 37 -24 -15 -495 -17 -504 -2 -10 15 -45 12 -50
-5z"/>
</g>
</svg>
