<?xml version="1.0" encoding="utf-8"?>
<!DOCTYPE svg PUBLIC "-//W3C//DTD SVG 20010904//EN" "http://www.w3.org/TR/2001/REC-SVG-20010904/DTD/svg10.dtd">
<svg version="1.0" xmlns="http://www.w3.org/2000/svg" width="434px" height="261px" viewBox="0 0 434 261" preserveAspectRatio="xMidYMid meet">
 <g fill="#0091bd">
  <path d="M226.5 258.5 c-3.3 -0.7 -8.1 -2.2 -10.7 -3.4 l-4.8 -2 0 -8.6 0 -8.5 5.8 2.9 c12.2 6.2 24.3 7.7 35.3 4.5 6.7 -2 14.8 -9.7 16.7 -16 1.3 -4.5 1.7 -17.8 0.5 -17.2 -11.6 5.8 -21 7.7 -31.2 6.1 -23.5 -3.6 -38.3 -21.3 -38.3 -45.8 0 -22.6 13.3 -40.6 33.9 -46 10.3 -2.7 26.8 -1.5 34.1 2.4 2.1 1.1 7.4 0.7 17 -1.4 l2.2 -0.5 0 47.7 c0 52.2 -0.4 56.8 -5.7 66.4 -8.9 16.4 -31.7 24.5 -54.8 19.4z m26.4 -56.6 c3.5 -0.5 8.8 -2.1 11.8 -3.5 l5.3 -2.5 0 -26.3 0 -26.4 -5 -2.1 c-19.7 -8.5 -38 -3 -45.9 13.8 -3.5 7.5 -3.7 22 -0.4 29.2 4.3 9.5 12.7 16.3 22.2 17.9 2.5 0.4 4.8 0.8 5.1 0.9 0.3 0 3.4 -0.4 6.9 -1z"/>
  <path d="M127.2 217.9 c-2.4 -0.4 -6.9 -2 -10 -3.4 -16.6 -7.6 -25.7 -22.9 -25.5 -43 0.3 -28.6 20.1 -48.5 48.3 -48.5 6.6 0 10.5 0.7 20.8 3.6 l2.2 0.6 0 -26.6 0 -26.6 8 0 8 0 0 71.5 0 71.5 -8 0 -8 0 0 -3 c0 -1.6 -0.2 -3 -0.4 -3 -0.2 0 -2.4 1.1 -4.9 2.5 -8 4.5 -20.7 6.4 -30.5 4.4z m22.9 -15.5 c3 -0.9 7.1 -2.5 9.2 -3.7 l3.7 -2.1 -0.2 -27 -0.3 -27.1 -6.5 -2.4 c-4.9 -1.8 -8.7 -2.4 -15.5 -2.5 -7.9 -0.1 -9.7 0.2 -14.7 2.7 -6.7 3.3 -11.1 8 -14.7 15.7 -2.3 4.8 -2.6 6.8 -2.6 15.5 0 8.9 0.3 10.6 2.8 15.7 3.3 6.6 10 13 16 15.2 5.6 1.9 16.1 2 22.8 0z"/>
  <path d="M346.5 218 c-11.4 -2.1 -20.2 -6.8 -27.8 -14.9 -13.9 -14.9 -16.2 -40 -5.3 -58.6 3.7 -6.2 12.8 -14.2 20.3 -17.8 6.4 -3 7.4 -3.2 18.3 -3.2 10.8 0 11.9 0.2 18.2 3.2 15.1 7.1 23.8 22.1 23.8 41 l0 7.3 -35.6 0 -35.7 0 0.6 3.6 c1.5 9.2 8.5 18 17.6 22.3 4.9 2.3 6.9 2.6 16.1 2.6 11.8 0 17.1 -1.4 26.4 -7 l5.7 -3.4 -0.3 8.7 -0.3 8.7 -4.5 2.2 c-9.7 4.8 -26.9 7.2 -37.5 5.3z m31.2 -59.1 c-1.4 -10.5 -9.3 -18.6 -20.4 -20.9 -10.3 -2.2 -23 2.6 -28.7 10.8 -2.3 3.4 -5.6 11.2 -5.6 13.3 0 0.5 12.4 0.9 27.6 0.9 l27.7 0 -0.6 -4.1z"/>
  <path d="M0 149 l0 -68 39 0 39 0 0 8 0 8 -30 0 -30 0 0 21 0 21 26.5 0 26.5 0 0 7.5 0 7.5 -26.5 0 -26.5 0 0 23.5 0 23.5 31 0 31 0 0 8 0 8 -40 0 -40 0 0 -68z"/>
 </g>
 <g fill="#eb543b">
  <path d="M88.5 11 l-32 -0.5 15 -2.3 c18.9 -2.8 39.7 -5.2 45.2 -5.2 l4.3 0 0 4.5 c0 2.5 -0.1 4.4 -0.2 4.3 -0.2 -0.2 -14.7 -0.5 -32.3 -0.8z"/>
 </g>
 <g fill="#87c448">
  <path d="M359.8 89.6 l-7.8 -6.1 0 -18.3 0 -18.3 4.8 3.2 c2.6 1.8 6.4 4.6 8.5 6.2 l3.7 2.9 -0.1 14.1 c0 7.8 -0.4 16 -0.7 18.3 l-0.7 4 -7.7 -6z"/>
 </g>
 <g fill="#79c15e">
  <path d="M370.3 98.2 l-5.1 -4.7 0.6 -18.2 0.7 -18.2 4.8 4.2 4.8 4.2 -0.3 18.7 -0.3 18.6 -5.2 -4.6z"/>
 </g>
 <g fill="#6fbe6f">
  <path d="M377.8 105.3 l-4.8 -4.9 0 -18.9 0 -19 5 5 5 5.1 -0.2 18.7 -0.3 18.8 -4.7 -4.8z"/>
 </g>
 <g fill="#ef733d">
  <path d="M145 13.5 c-6.3 -0.7 -14.3 -1.3 -17.7 -1.4 -8.5 -0.1 -9.3 -0.6 -9.3 -5.1 0 -4.8 -0.4 -4.7 23.8 -5.6 l19.2 -0.7 0 7.1 c0 6.8 -0.1 7.2 -2.2 7.1 -1.3 -0.1 -7.5 -0.8 -13.8 -1.4z"/>
 </g>
 <g fill="#63ba83">
  <path d="M384.8 112.6 l-4.8 -5.3 0 -18.9 0.1 -18.9 5.9 6.3 6 6.3 0 12.7 c0 13.2 -0.8 23.3 -1.9 23.1 -0.3 -0.1 -2.7 -2.5 -5.3 -5.3z"/>
 </g>
 <g fill="#54b69b">
  <path d="M393.9 123 l-5.7 -7 0.5 -17.8 c0.3 -9.7 0.5 -18 0.6 -18.4 0.1 -0.4 2.8 2.7 5.9 7 l5.8 7.7 0 17.8 c0 9.7 -0.3 17.7 -0.7 17.7 -0.5 0 -3.3 -3.2 -6.4 -7z"/>
 </g>
 <g fill="#46b2b2">
  <path d="M402.2 133.9 l-4.2 -6.1 0.2 -18.6 0.3 -18.5 5.3 9.4 c5 9.1 5.2 9.8 5.2 17.1 0 9.8 -1.1 22.8 -2 22.8 -0.3 0 -2.5 -2.7 -4.8 -6.1z"/>
 </g>
 <g fill="#a0ce3e">
  <path d="M345.8 79.3 l-7.8 -5.4 0 -17.5 c0 -9.6 0.2 -17.4 0.5 -17.4 0.6 0 10.5 5.9 13.8 8.2 l2.7 1.9 0 18 c0 9.8 -0.3 17.9 -0.7 17.8 -0.5 0 -4.3 -2.6 -8.5 -5.6z"/>
 </g>
 <g fill="#3aafc6">
  <path d="M409.1 145.1 l-4.1 -7 0.7 -16.8 0.8 -16.8 4 9.5 c3.8 9.3 3.9 9.8 4.3 23.8 0.2 8.9 0 14.2 -0.6 14.2 -0.5 0 -2.8 -3.1 -5.1 -6.9z"/>
 </g>
 <g fill="#2facd7">
  <path d="M415.2 156.8 c-3.2 -7.3 -3.2 -7.4 -3.1 -22.8 l0.1 -15.5 1.9 6 c2.8 9.2 5.1 24.2 4.7 32.3 l-0.3 7.2 -3.3 -7.2z"/>
 </g>
 <g fill="#f2893e">
  <path d="M174.3 17.2 l-16.3 -2.6 0 -6.9 0 -6.9 16.9 0.3 c9.3 0.2 17.2 0.6 17.4 0.9 0.7 0.7 -0.5 18 -1.2 17.9 -0.3 -0.1 -7.9 -1.3 -16.8 -2.7z"/>
 </g>
 <g fill="#f59e33">
  <path d="M198 21.1 l-8.5 -1.7 -0.3 -6.4 c-0.5 -10.1 0 -11 5.6 -11 2.6 0 7.1 0.3 10 0.6 l5.2 0.7 0 9.8 c0 11.4 1.2 10.6 -12 8z"/>
 </g>
 <g fill="#f8ad24">
  <path d="M215.3 24.8 l-8.3 -2 0 -10 0 -10 6.8 0.6 c3.7 0.4 7.9 0.9 9.5 1.2 l2.7 0.6 0 10.9 c0 8.1 -0.3 10.9 -1.2 10.8 -0.7 -0.1 -5 -1 -9.5 -2.1z"/>
 </g>
 <g fill="#fbba19">
  <path d="M230.8 28.6 l-7.8 -2 0 -11 0 -10.9 6.8 0.7 c12.2 1.3 11.2 0.1 11.2 13.7 0 8.9 -0.3 11.9 -1.2 11.8 -0.7 -0.1 -4.8 -1.1 -9 -2.3z"/>
 </g>
 <g fill="#bdd93d">
  <path d="M333 71.1 l-7.5 -4.8 -0.3 -17.2 -0.2 -17.1 8 4 8 4 0 18 c0 9.9 -0.1 18 -0.2 17.9 -0.2 0 -3.7 -2.2 -7.8 -4.8z"/>
 </g>
 <g fill="#fdca13">
  <path d="M248.3 33.6 l-10.3 -3.1 0 -11.7 c0 -13.7 -1.1 -12.9 13 -10 l8.5 1.8 0.3 13.2 c0.1 7.3 -0.1 13.1 -0.5 13.1 -0.4 -0.1 -5.4 -1.5 -11 -3.3z"/>
 </g>
 <g fill="#faaf42">
  <path d="M415.3 216 c-3.5 -2.1 -6.3 -6.6 -6.3 -10 0 -3.6 3.1 -9 6.1 -10.5 4.2 -2.2 10.1 -1.9 13.4 0.7 11.9 9.4 -0.2 27.7 -13.2 19.8z"/>
  <path d="M207 13 c0 -8.2 0.3 -10 1.5 -10 1.2 0 1.5 1.8 1.5 10 0 8.2 -0.3 10 -1.5 10 -1.2 0 -1.5 -1.8 -1.5 -10z"/>
 </g>
 <g fill="#fed81f">
  <path d="M266.5 39.6 l-9 -3.3 -0.3 -13.1 -0.3 -13.2 3.3 0.7 c1.8 0.4 6.2 1.4 9.8 2.3 l6.5 1.6 0.3 14.2 c0.1 7.8 -0.1 14.2 -0.5 14.1 -0.5 0 -4.8 -1.5 -9.8 -3.3z"/>
 </g>
 <g fill="#d8e43c">
  <path d="M320.3 63.6 l-7.3 -4.1 0 -16.4 c0 -12.7 0.3 -16.2 1.3 -15.8 0.6 0.3 4 1.7 7.5 3.2 l6.2 2.8 0 17.3 c0 9.6 -0.1 17.4 -0.2 17.3 -0.2 -0.1 -3.6 -2 -7.5 -4.3z"/>
 </g>
 <g fill="#fee42b">
  <path d="M283.5 46.1 l-9 -3.8 -0.3 -14.2 c-0.2 -13.3 -0.1 -14.2 1.5 -13.7 1 0.2 5.7 1.7 10.6 3.1 l8.7 2.6 0 8.2 c0 9.8 -1.1 21.7 -1.9 21.7 -0.3 -0.1 -4.6 -1.8 -9.6 -3.9z"/>
 </g>
 <g fill="#efed3c">
  <path d="M309.2 57.6 l-6.4 -3.1 0.4 -14.7 c0.2 -8 0.6 -15 1 -15.3 0.9 -0.9 10.9 2.6 11.5 4 0.2 0.6 0.2 8.1 0.1 16.7 l-0.3 15.5 -6.3 -3.1z"/>
 </g>
 <g fill="#fef038">
  <path d="M298.1 52.4 l-7.4 -3.4 0.6 -8.3 c0.4 -4.5 0.7 -11.2 0.7 -14.9 l0 -6.7 7.4 2.6 7.4 2.6 -0.5 15.6 c-0.3 8.6 -0.6 15.7 -0.7 15.7 0 0.1 -3.4 -1.4 -7.5 -3.2z"/>
 </g>
</svg>