<?xml version="1.0" encoding="utf-8"?>
<!DOCTYPE svg PUBLIC "-//W3C//DTD SVG 20010904//EN" "http://www.w3.org/TR/2001/REC-SVG-20010904/DTD/svg10.dtd">
<svg version="1.0" xmlns="http://www.w3.org/2000/svg" width="300px" height="115px" viewBox="0 0 300 115" preserveAspectRatio="xMidYMid meet">
 <g fill="#040707">
  <path d="M246.8 80.3 c-2.2 -0.3 -2.8 -1 -2.8 -2.8 0 -2.2 0.2 -2.3 3.3 -1.4 4.3 1.2 8.5 0.2 9.2 -2.2 0.9 -2.7 0.3 -3.1 -2.9 -1.9 -5.5 2.1 -10.2 -1 -11.3 -7.4 -1.2 -7.3 4.9 -13.9 10.9 -11.7 1.3 0.4 4 0.6 6.1 0.3 l3.7 -0.4 0 9.6 c0 12.4 -1.4 16.1 -6.7 17.5 -3.8 1.1 -4.6 1.1 -9.5 0.4z m10 -17.7 c0.3 -4.9 -0.6 -6.5 -3.5 -6.6 -2.3 0 -5.3 3.9 -5.3 6.8 0 3.7 1.8 5.4 5.5 5 2.8 -0.3 3 -0.6 3.3 -5.2z"/>
  <path d="M223 72.2 c-4.4 -2.1 -6.2 -5.6 -5.6 -10.5 0.5 -4.6 2 -6.6 6.4 -8.4 4.3 -1.8 10.3 -0.3 12.6 3.2 2.1 3.1 2.1 9.9 0 13 -0.9 1.4 -3.2 2.9 -5.3 3.5 -4.6 1.3 -4 1.3 -8.1 -0.8z m7.8 -3.4 c0.7 -0.7 1.2 -3.3 1.2 -5.8 0 -5.1 -1.3 -7 -4.7 -7 -2.7 0 -4.3 2.7 -4.3 7.4 0 5.4 4.6 8.6 7.8 5.4z"/>
  <path d="M287.4 72.9 c-9.8 -2.8 -9.5 -17.2 0.3 -19.8 5.2 -1.4 9.7 -0.1 10.1 2.9 0.3 1.9 0.1 2.1 -1.5 1.5 -6 -2.5 -10.3 -0.2 -10.3 5.5 0 5.7 4.3 8 10.3 5.5 1.3 -0.5 1.7 -0.2 1.7 1.3 0 1.2 -0.3 2.3 -0.7 2.5 -1.9 1.1 -7.1 1.5 -9.9 0.6z"/>
  <path d="M206 59 l0 -14 3 0 3 0 0 14 0 14 -3 0 -3 0 0 -14z"/>
  <path d="M269 63 l0 -10 3 0 3 0 0 10 0 10 -3 0 -3 0 0 -10z"/>
  <path d="M7.3 62.9 c-2.4 -2.2 -4.3 -4.2 -4.3 -4.4 0 -0.9 4.9 -0.5 9.5 0.7 4.2 1.1 4.5 1.4 4.5 4.5 0 2.9 -0.3 3.3 -2.7 3.3 -1.9 0 -4.2 -1.4 -7 -4.1z"/>
  <path d="M98.2 58.8 c0.3 -3.9 0.6 -4.3 3.1 -4.6 2.1 -0.3 2.7 -0.9 2.7 -2.8 0 -3.6 2.1 -2.9 6.9 2.1 l4.2 4.5 -2.8 2.5 c-3 2.6 -5.3 3.2 -5.3 1.3 0 -0.9 -0.3 -0.9 -1.2 0 -0.7 0.7 -2.7 1.2 -4.6 1.2 -3.3 0 -3.3 0 -3 -4.2z"/>
  <path d="M269 47 c0 -1.6 0.7 -2 3 -2 2.3 0 3 0.4 3 2 0 1.6 -0.7 2 -3 2 -2.3 0 -3 -0.4 -3 -2z"/>
 </g>
 <g fill="#071f27">
  <path d="M48.5 104 c-9.5 -9.5 -9.8 -10 -7 -10 1.7 0 4.8 0.7 7 1.5 5.3 1.9 12.9 1.9 19.4 -0.1 2.9 -0.8 6.3 -1.4 7.7 -1.2 2.2 0.3 1.5 1.2 -7.3 10.1 l-9.8 9.7 -10 -10z"/>
  <path d="M83.2 84 c0.3 -3.3 0 -4 -1.4 -4 -1.4 0 -1.8 -0.8 -1.8 -3.5 0 -2.9 0.4 -3.5 2 -3.5 1.1 0 2.3 -0.8 2.6 -1.7 1.8 -5.5 3 -7.6 6.5 -11.3 2.1 -2.2 3.9 -4.9 3.9 -6 0 -1 0.5 -2 1.2 -2.2 0.9 -0.3 0.8 -1.6 -0.5 -4.9 -0.9 -2.5 -1.7 -5.8 -1.7 -7.4 0 -2.8 0.6 -2.4 10.5 7.5 5.8 5.8 10.5 10.8 10.5 11.2 0 0.5 -1.2 0.8 -2.7 0.8 -1.8 0 -2.3 0.3 -1.6 0.8 0.9 0.5 -1.4 3.4 -7.2 9.2 -7.9 7.9 -8.5 8.3 -8.5 5.7 0 -3.9 -1.8 -2.4 -2.6 2.1 -0.6 3.5 -6.6 11.2 -8.7 11.2 -0.5 0 -0.7 -1.8 -0.5 -4z m21.7 -26.8 c-1.4 -0.5 -3.9 0.6 -3.9 1.7 0 0.5 1.1 0.4 2.5 -0.2 1.3 -0.7 2 -1.4 1.4 -1.5z"/>
  <path d="M12.6 68.1 c-4.3 -4.5 -8.5 -8.1 -9.2 -8.1 -3 0 -1 -3 8.6 -12.5 9.5 -9.5 10 -9.8 10 -7 0 1.7 -0.7 4.8 -1.5 7 -0.8 2.2 -1.4 6.1 -1.5 8.7 l0 4.7 5 0.7 c4.9 0.6 5 0.7 5 4 0 3.3 -0.1 3.4 -3.9 3.4 -3.8 0 -4 0.1 -4.3 3.6 l-0.3 3.6 -7.9 -8.1z"/>
  <path d="M62.3 35.3 c-1.9 -0.4 -2.3 -1.1 -2.3 -4.4 0 -3.2 0.3 -3.9 2 -3.9 1.5 0 2 -0.7 2 -2.5 0 -2.2 0.4 -2.5 3.5 -2.5 l3.5 0 0 7 0 7 -3.2 -0.1 c-1.8 -0.1 -4.3 -0.4 -5.5 -0.6z"/>
  <path d="M67.5 19.9 c-6.2 -2.3 -10 -2.3 -17.7 -0.3 -3.3 0.8 -7.1 1.4 -8.4 1.2 -2.2 -0.3 -1.5 -1.3 7.3 -10 l9.8 -9.8 10.5 10.5 10.5 10.5 -3.5 -0.1 c-1.9 -0.1 -5.7 -1 -8.5 -2z"/>
 </g>
 <g fill="#15303c">
  <path d="M45.6 98.5 c-5.8 -2.1 -27.1 -23.5 -28.4 -28.6 -0.8 -3.4 -0.7 -3.8 1.2 -4.4 1.6 -0.6 0.9 -0.9 -3.1 -1.7 -3.7 -0.7 -5.3 -1.4 -5.3 -2.5 0 -1.2 0.7 -1.4 2.8 -1 2.7 0.5 2.7 0.5 2.9 -4.9 0.5 -11 1.5 -12.9 14.1 -25.7 10.6 -10.7 12.2 -11.9 17.2 -13.2 7.2 -1.9 16.3 -1.9 23.1 0.1 4.6 1.4 6.9 3.1 15.7 11.8 11.3 11 12.7 13 14.3 20.6 0.7 3.1 1.6 5 2.5 5 0.8 0 1.4 0.5 1.4 1.1 0 1.4 -4.1 4.8 -5.9 4.9 -1.6 0 -6.7 5.3 -8.6 9 -1.5 2.9 -2.3 7 -2.6 12.5 -0.3 5.7 -9.2 14.9 -16.3 17 -6.2 1.9 -19.8 1.9 -25 0z m24.7 -10.8 c2.9 -1.3 6.4 -3.6 7.9 -5 1.5 -1.4 3.8 -2.8 5 -3 2 -0.4 1.9 -0.4 -0.5 -0.6 -2.3 -0.1 -3.2 -0.8 -4.5 -4.1 -1.1 -2.5 -2.4 -4 -3.4 -4 -1.4 0 -1.8 -0.8 -1.8 -3.5 0 -3.3 0.2 -3.5 3.5 -3.5 2.4 0 3.5 0.5 3.5 1.5 0 0.8 0.9 1.5 1.9 1.5 1 0 2.1 0.7 2.5 1.5 0.6 1.7 2.6 2 2.6 0.4 0 -0.6 0.9 -2.4 2.1 -4 4.2 -6 1.6 -18.3 -5.8 -27.4 -2.6 -3.2 -9.1 -8.5 -10.4 -8.5 -0.5 0 -1.1 2.8 -1.5 6.1 l-0.7 6.1 -4.8 -0.5 c-3.9 -0.5 -4.9 -0.3 -4.9 0.8 0 1 -1.1 1.5 -3.5 1.5 -3.3 0 -3.5 -0.2 -3.5 -3.5 0 -2.1 0.5 -3.5 1.3 -3.5 0.6 0 1.9 -1.5 2.8 -3.3 1.1 -2.2 2.4 -3.3 4.1 -3.5 2 -0.2 2.5 -0.8 2.1 -2.1 -0.6 -2.5 -5.3 -3.3 -11 -2.1 -14.7 3.3 -26.7 16.5 -28 30.8 l-0.6 5.9 3.9 0.6 c2.2 0.4 5.1 0.7 6.7 0.7 2.4 0 2.7 0.4 2.7 3.5 l0 3.5 -5.1 0 -5 0 1.8 3.1 c4.3 7.6 14 14.8 22.7 17 4.8 1.2 12.2 0.2 17.9 -2.4z m-2.6 -60.9 c-0.2 -1.3 -0.4 -0.3 -0.4 2.2 0 2.5 0.2 3.5 0.4 2.3 0.2 -1.3 0.2 -3.3 0 -4.5z"/>
  <path d="M88.7 78.9 c0.7 -6.6 2.5 -10.8 6.3 -14.4 4 -3.8 6.1 -2.9 4.9 2.3 -1.4 6.6 -2.5 8.5 -7.3 13.1 l-4.5 4.5 0.6 -5.5z"/>
 </g>
 <g fill="#1d3e4f">
  <path d="M49.4 93.1 c-11.5 -2.9 -22.7 -13.3 -25.9 -23.8 -0.6 -2.2 -0.4 -2.3 5.7 -2.4 5.9 -0.1 5.5 -0.2 -5.7 -1.9 -13.6 -2.1 -17.5 -3.3 -17.5 -5.4 0 -1.3 0.5 -1.3 3.8 -0.2 2 0.7 5.6 1.6 7.8 1.9 l4.1 0.7 0.5 -7.4 c0.6 -9.4 4 -16.7 10.8 -23 7.8 -7.3 14.7 -10.1 25 -10.1 7.5 0 9.3 0.4 15.2 3.2 10.9 5.1 19 15.4 20.5 25.9 0.3 2.5 0.9 4 1.3 3.4 0.5 -0.8 1.2 -0.6 2.2 0.9 1.3 1.9 1.7 2 2.8 0.6 0.7 -0.8 1.8 -1.5 2.5 -1.5 0.7 0 1.5 -0.7 1.9 -1.5 0.8 -2.3 2.3 -1.8 3 1 0.4 1.4 1.3 2.5 2.2 2.5 0.9 0 1.4 0.6 1.1 1.3 -0.5 1.4 -3.9 1 -4.9 -0.6 -0.5 -0.8 -1.6 -0.5 -3.7 1.1 -1.7 1.2 -3.9 2.2 -5 2.2 -1.1 0 -2.2 0.9 -2.6 2 -0.3 1.1 -1 2 -1.4 2 -1.4 0 -5 7.7 -5.6 12.1 -1.1 7.9 -1.5 9.3 -2.6 8.2 -0.7 -0.7 -1.9 -0.3 -3.7 1.5 -4.9 4.5 -12.9 7.5 -21.2 7.8 -4.1 0.2 -8.9 0 -10.6 -0.5z m16.8 -10.1 c5.9 -2.3 12.4 -7 9.7 -7 -1.7 0 -1.8 -0.5 -3.5 -11.7 -0.5 -3.3 -1.1 -4.3 -2.5 -4.3 -1.5 0 -1.9 -0.8 -1.9 -4 0 -2.2 -0.4 -4 -1 -4 -0.5 0 -1 -1.6 -1 -3.6 0 -1.9 -0.5 -4.4 -1.1 -5.6 -1.1 -2 -1.1 -1.9 -4 0.8 -1.6 1.5 -2.9 3.4 -2.9 4.1 0 0.7 -0.4 1.3 -0.9 1.3 -0.5 0 -1.3 0.9 -1.6 2 -0.5 1.5 -1.5 2 -4.1 2 -3.3 0 -3.4 -0.1 -3.4 -4 0 -2.6 0.5 -4.3 1.4 -4.6 0.8 -0.3 1.8 -1.8 2.1 -3.3 0.3 -1.6 2.4 -4.3 4.5 -6.1 4.4 -3.7 5 -5 2.1 -5 -7.8 0 -20.1 8.2 -24.1 16 -2.5 4.9 -4.1 11.8 -2.9 12.6 0.5 0.3 0.9 1.6 0.9 3 0 1.8 0.5 2.4 2.1 2.4 1.8 0 2 0.5 1.8 3.8 -0.3 4.3 1.4 7.1 7.2 11.5 7.6 5.7 14.7 6.9 23.1 3.7z m18.5 -30 c-1.7 -6.4 -5.2 -11.8 -10.5 -16.4 l-2.2 -2 0.6 7.5 c0.4 4.1 1.1 7.6 1.6 7.7 0.4 0.2 0.8 2.4 0.8 4.8 0 3.7 0.3 4.4 1.9 4.4 1.3 0 2.3 1.1 3.1 3.4 0.6 1.9 1.9 3.6 2.8 3.8 1.4 0.3 1.8 -0.7 2.3 -4.7 0.3 -2.7 0.1 -6.6 -0.4 -8.5z m-16.6 -29.3 c-0.8 -0.8 -1.1 1 -1 6.9 l0.2 7.9 1 -6.8 c0.7 -4.9 0.6 -7.2 -0.2 -8z m-4.3 8.1 c-0.2 -0.9 -1 -0.1 -2 2 l-1.7 3.6 2 -2.1 c1.2 -1.1 1.9 -2.7 1.7 -3.5z"/>
  <path d="M39 67.5 c0 -3.1 0.3 -3.5 2.5 -3.5 1.4 0 2.5 -0.4 2.5 -1 0 -0.5 1.6 -1 3.5 -1 3.4 0 3.5 0.1 3.5 3.9 0 4.5 -1 5.1 -7.6 5.1 -4.4 0 -4.4 0 -4.4 -3.5z"/>
 </g>
 <g fill="#1b3564">
  <path d="M125 59 l0 -13 6.6 0 c11.2 0 16.4 4.2 16.4 13.3 0 8.2 -6 12.7 -17 12.7 l-6 0 0 -13z m15.3 5.9 c4.4 -5.4 0.4 -14.9 -6.3 -14.9 l-3 0 0 9.1 0 9.2 3.8 -0.6 c2 -0.4 4.5 -1.6 5.5 -2.8z"/>
  <path d="M154.8 71.3 c-1.2 -0.3 -1.8 -1.4 -1.8 -3.3 0 -2.8 0 -2.8 3 -1.4 1.6 0.9 4.8 1.4 7.2 1.2 3.5 -0.2 4.4 -0.7 4.6 -2.5 0.3 -1.8 -0.4 -2.4 -4 -3.3 -6.7 -1.7 -8.7 -2.8 -9.9 -5.4 -2.6 -5.6 1.9 -10.9 9.4 -11 6.8 -0.1 9.7 1.1 9.7 3.8 l0 2.4 -4.4 -1.6 c-3.5 -1.3 -4.9 -1.4 -7 -0.4 -1.4 0.6 -2.6 1.9 -2.6 2.7 0 1.6 1.2 2.2 9 4.6 3.3 1 4.7 2.1 5.4 4 1.3 3.9 0 7.7 -3.4 9.4 -2.7 1.4 -11.2 1.9 -15.2 0.8z"/>
  <path d="M181 59 l0 -13 7.3 0 c5 0 8 0.5 9.5 1.6 7.5 5.3 2.7 15.4 -7.3 15.4 -3.5 0 -3.5 0 -3.5 4.5 0 4.3 -0.1 4.5 -3 4.5 l-3 0 0 -13z m12.8 -1.2 c1.7 -1.7 1.5 -6.5 -0.4 -7.2 -0.9 -0.3 -2.7 -0.6 -4 -0.6 -2.2 0 -2.4 0.4 -2.4 4.5 0 4.3 0.1 4.5 2.8 4.5 1.5 0 3.3 -0.5 4 -1.2z"/>
 </g>
 <g fill="#22495e">
  <path d="M47.6 86.4 c-6.9 -2.5 -13 -7.9 -16.6 -14.5 l-1.9 -3.7 3.2 -0.7 c2.7 -0.6 1.7 -1 -6.3 -2.1 -10.9 -1.6 -12 -1.9 -12 -3.5 0 -0.7 1.2 -0.9 3.3 -0.6 12 2 12.2 2 10.8 0.3 -1.8 -2.1 -0.7 -10.2 2.1 -16.8 4.2 -9.7 16.4 -17.8 27 -17.8 2.9 0 4.5 -0.6 5.7 -2.2 2.8 -3.4 4.1 -1.4 4.1 6.5 0 4 0.5 7.9 1 8.7 0.7 1.1 1 0 1 -3.8 0 -3.8 0.4 -5.4 1.5 -5.8 1.5 -0.6 7.4 3.2 10.8 7.1 3 3.3 6.6 11.7 7.3 16.7 0.4 2.6 1.3 5.3 2 5.9 1.1 0.9 1.8 0.3 3.2 -3.2 1.8 -4.3 1.9 -4.3 3.1 -2.1 1.1 2.1 1.4 2.2 2.9 0.9 2.8 -2.4 6.2 -3.1 6.2 -1.3 0 0.9 -0.6 1.6 -1.3 1.6 -0.8 0 -2.2 0.9 -3.2 2 -1 1.1 -2.7 1.9 -3.6 1.8 -2.8 -0.5 -9.5 9.3 -10.4 15 -1.4 10.2 -2.2 11.2 -5.1 6.4 l-1.6 -2.9 -3.2 2.9 c-6.7 6.1 -20.8 8.6 -30 5.2z m18.4 -10.7 c2.4 -1.3 5.2 -3.7 6.1 -5.4 1.7 -3 1.7 -3.2 -0.5 -6.4 -2.4 -3.6 -3.4 -6.7 -4.3 -13.4 -0.3 -2.2 -0.9 -4.4 -1.4 -5 -0.5 -0.5 -0.9 -1.7 -0.9 -2.7 0 -1.8 -0.1 -1.8 -2.5 -0.1 -1.3 1 -2.7 2.7 -3.1 3.8 -0.3 1.1 -1.2 2.7 -1.9 3.5 -2 2.3 -4.7 9.9 -5.4 15.5 -0.6 5 -0.6 5 -4.6 5.5 l-4 0.5 3.1 2.2 c6.9 4.9 12.8 5.5 19.4 2z m19 -0.7 c0 -0.5 -1.1 -2.1 -2.5 -3.6 -2.9 -3.2 -3.1 -2.7 -0.8 2 1.4 3.1 3.3 4 3.3 1.6z m-8.2 -10.1 c-0.6 -1.6 -1.2 -2.9 -1.3 -2.7 -0.6 0.6 0.8 5.8 1.6 5.8 0.4 0 0.3 -1.4 -0.3 -3.1z m-32.4 -3.1 c0.3 -1.3 0.6 -3.2 0.6 -4.3 0 -3.5 6.4 -17.5 8.3 -18.1 0.9 -0.3 1.7 -0.9 1.7 -1.4 0 -1.4 -4.9 0.7 -8.7 3.6 -5.5 4.2 -11.1 16.2 -8.4 17.9 0.6 0.3 1.1 1.5 1.1 2.6 0 2.9 4.6 2.6 5.4 -0.3z m33.6 -7.7 c-0.9 -3.3 -2.8 -7.1 -3.6 -7.1 -0.2 0 0 0.9 0.6 1.9 0.5 1.1 1 2.8 1 3.8 0 1.6 1.7 4.3 2.6 4.3 0.2 0 -0.1 -1.3 -0.6 -2.9z m-8.3 -9.8 c-0.3 -1 -0.5 -0.2 -0.5 1.7 0 1.9 0.2 2.7 0.5 1.8 0.2 -1 0.2 -2.6 0 -3.5z m-5.8 -12.8 l-0.1 -3 -0.9 3 c-0.4 1.7 -2.4 4.6 -4.4 6.5 -1.9 1.9 -3.5 3.8 -3.5 4.4 0 0.6 2 -1 4.5 -3.4 3.5 -3.4 4.5 -5.1 4.4 -7.5z"/>
  <path d="M5.3 60.8 c-2.6 -1.3 -3 -2.8 -0.7 -2.8 2.1 0 5.4 1.8 5.4 3 0 1.3 -1.9 1.2 -4.7 -0.2z"/>
 </g>
 <g fill="#2e6485">
  <path d="M51.9 80.7 c-5.3 -1.5 -10 -4.6 -12.9 -8.7 l-2.1 -2.9 3.3 -0.5 c1.8 -0.3 4.4 -0.7 5.8 -0.8 2.2 -0.3 2.6 -0.9 3.1 -5.3 0.8 -5.7 3.4 -13.3 5.5 -15.6 0.8 -0.8 1.4 -2.1 1.4 -2.7 0 -0.6 1.8 -2.8 3.9 -4.9 2.7 -2.6 4.1 -4.9 4.4 -7.6 0.4 -2.2 0.2 -3.5 -0.4 -3.2 -0.5 0.4 -0.9 1.5 -0.9 2.5 0 1.1 -2 4.2 -4.5 7 -2.5 2.8 -4.5 5.7 -4.5 6.4 0 0.8 -0.6 1.9 -1.4 2.5 -0.8 0.6 -1.6 2.4 -1.9 3.9 -0.2 1.5 -1 4.1 -1.6 5.7 -0.6 1.7 -1.3 4.7 -1.6 6.8 -0.6 3.5 -0.8 3.7 -4.1 3.7 -1.9 0 -7.8 -0.5 -13 -1.2 -6.7 -0.8 -9.4 -1.5 -9.4 -2.5 0 -1.3 5.6 -1.2 12.9 0.3 2.1 0.5 2.3 0.3 1.1 -1.1 -2 -2.4 -0.6 -11.7 2.5 -17 4 -7 10.5 -11.2 18 -11.7 2.9 -0.2 3.6 -0.7 4.5 -3.3 1.3 -3.8 4.9 -8 6 -6.8 0.5 0.4 1 4.4 1.3 8.8 0.3 4.4 1.1 10.3 1.7 13 0.6 2.8 1.4 6.4 1.7 8 0.3 1.7 1.4 4.1 2.4 5.4 1 1.2 2.1 3.8 2.5 5.7 0.3 1.9 1.2 3.4 2 3.4 0.8 0 2.4 2 3.6 4.5 2.4 4.9 3.8 5.7 3.8 2.3 0 -3.9 1.2 -6.8 2.7 -6.8 1 0 1.2 0.6 0.8 1.9 -0.3 1 -0.9 3.9 -1.3 6.2 -0.6 3.4 -1.2 4.5 -2.8 4.7 -1.6 0.2 -2.5 -0.8 -4.4 -4.8 -1.3 -2.7 -2.7 -5 -3.1 -5 -0.4 0 -1.4 1.2 -2.1 2.7 -1.5 3.1 -8.6 6.9 -14.3 7.7 -2.2 0.3 -6.1 -0.1 -8.6 -0.7z m10.9 -10.1 c1.5 -0.8 3.6 -2.3 4.6 -3.5 1.1 -1.2 2.5 -2.1 3.3 -2.1 1.5 0 1.8 -2.6 0.3 -3.5 -0.5 -0.3 -1 -1.7 -1 -3.1 0 -1.3 -0.9 -3.3 -2 -4.4 -1.1 -1.1 -2 -2.8 -2 -3.7 0 -3.4 -1.2 -6.3 -2.6 -6.3 -2.8 0 -8.6 11 -10.7 20.4 -1 4.3 -0.9 4.9 0.8 6.2 2.4 1.8 5.9 1.8 9.3 0z m-16.8 -10.9 c0.1 -2.3 0.7 -5.3 1.5 -6.7 0.8 -1.4 1.4 -3.3 1.5 -4.4 0 -1.6 -0.3 -1.5 -2 0.6 -3 3.9 -3.9 7.1 -3.3 11.6 0.7 5.2 2.3 4.5 2.3 -1.1z"/>
  <path d="M76.8 63.2 c-1 -2 -2.1 -4.4 -2.6 -5.2 -1.6 -2.6 -3 -8.3 -3.7 -15 l-0.7 -6.4 2.3 1.5 c3.8 2.5 8.7 10.5 9.5 15.5 0.7 4.9 -0.5 12.5 -2.1 13.1 -0.5 0.1 -1.8 -1.4 -2.7 -3.5z"/>
  <path d="M10.6 62.5 c-4.7 -1.3 -7.5 -3 -6.5 -3.9 0.9 -1 11.9 2.8 11.9 4.1 0 0.7 -0.1 1.3 -0.2 1.2 -0.2 0 -2.5 -0.7 -5.2 -1.4z"/>
  <path d="M89.7 62.3 c-0.4 -0.3 -0.7 -1.3 -0.7 -2.1 0 -1.2 0.3 -1.2 1.5 -0.2 1.7 1.4 1.7 1.5 3.3 -2.2 1.3 -3.2 3.2 -3.7 3.2 -1 0 3.5 -5.3 7.5 -7.3 5.5z"/>
  <path d="M107.4 57.5 c-1 -0.8 -2.9 -1.5 -4.1 -1.5 -1.3 0 -2.3 -0.4 -2.3 -1 0 -0.5 0.5 -1 1.1 -1 0.7 0 1.8 -0.8 2.5 -1.7 1.1 -1.7 1.3 -1.6 2.3 1 0.8 1.9 1.7 2.7 3.6 2.7 1.6 0 2.5 0.6 2.5 1.5 0 1.9 -3 1.9 -5.6 0z"/>
 </g>
 <g fill="#326b91">
  <path d="M81 78 c-1.6 -4 -0.4 -5.2 2 -2 l2 2.5 0 -2.2 c0 -1.3 0.5 -2.3 1.1 -2.3 0.6 0 0.9 1.4 0.7 3.3 -0.4 4.6 -4 5 -5.8 0.7z"/>
  <path d="M49.3 73 c-3.5 -2.1 -4.1 -3.5 -1.9 -4.3 0.7 -0.3 1.5 -2.6 1.8 -5 0.7 -5.7 3.9 -13.7 5.6 -13.7 1.7 0 1.5 5.9 -0.3 9 -2 3.4 -1.9 8.6 0.1 9.4 5.5 2.1 12.4 -2.3 12.4 -8 0 -3 0.3 -3.4 2.5 -3.4 1.5 0 3.1 0.9 4 2.3 2 3 3.2 11.7 1.6 11.7 -0.6 0 -1.1 -0.7 -1.1 -1.5 0 -2.1 -1.4 -1.9 -3.6 0.6 -4.7 5.2 -15 6.6 -21.1 2.9z"/>
  <path d="M87.9 65.9 c1.1 -1.8 1.7 -3.9 1.3 -4.7 -0.4 -1.2 -0.1 -1.4 1.2 -0.9 1 0.4 2 0.7 2.2 0.7 1 0 0.2 2.4 -1.7 5.1 -2.9 4.2 -5.5 4 -3 -0.2z"/>
  <path d="M37.6 65.5 c-0.3 -1 0.1 -1.5 1.2 -1.5 1.4 0 1.7 -1 1.7 -6.3 0 -7.2 2.6 -12.1 8 -15.3 1.6 -1 4.3 -3.1 5.9 -4.7 2.2 -2.2 3.1 -2.5 3.7 -1.5 0.6 0.8 0.2 1.8 -1 2.9 -1 0.8 -2.2 2.6 -2.6 4 -0.4 1.3 -1.4 3.2 -2.3 4.2 -0.8 0.9 -1.6 2.7 -1.7 4 -0.2 1.2 -0.7 3.6 -1.4 5.2 -0.6 1.7 -1.3 4.7 -1.6 6.8 -0.6 3.6 -0.7 3.7 -4.9 3.7 -3 0 -4.6 -0.5 -5 -1.5z"/>
  <path d="M74 55.2 c0 -1.5 -0.5 -3.3 -1.1 -3.9 -0.6 -0.6 -0.9 -1.7 -0.6 -2.5 0.3 -0.7 1.1 0.2 2.1 2.4 1.8 4.3 2.1 6.8 0.6 6.8 -0.5 0 -1 -1.3 -1 -2.8z"/>
  <path d="M69.8 54.4 c-0.5 -0.4 -0.8 -1.6 -0.8 -2.8 0 -1.4 0.3 -1.7 1.1 -0.9 0.6 0.6 0.9 1.9 0.7 2.8 -0.1 0.9 -0.6 1.3 -1 0.9z"/>
  <path d="M56.1 45.5 c2.4 -4 5.3 -5.9 7.6 -5.1 1.2 0.5 1.4 -0.2 1.2 -3.1 -0.3 -5.4 0 -7.3 1 -7.3 0.4 0 1.1 2.8 1.4 6.3 0.3 3.4 0.9 7.2 1.3 8.5 0.6 2.1 0.3 2.2 -4 2.2 -2.5 0 -4.6 0.5 -4.6 1 0 0.6 -1.3 1 -3 1 l-2.9 0 2 -3.5z"/>
  <path d="M61 32.1 c0 -1.2 0.5 -2.1 1 -2.1 0.6 0 1 0.6 1 1.4 0 0.8 -0.4 1.8 -1 2.1 -0.5 0.3 -1 -0.3 -1 -1.4z"/>
 </g>
 <g fill="#3375a0">
  <path d="M81.5 79 c-1.4 -2.7 -2.5 -5.4 -2.5 -6 0 -2.1 1.9 -0.9 3.2 2 0.7 1.7 1.6 3 1.9 3 0.4 0 0.9 -2.2 1.3 -4.9 0.4 -2.9 1.4 -5.5 2.6 -6.6 2.5 -2.2 2.5 -1.5 0 5.8 -1.1 3.2 -1.9 6.2 -1.9 6.5 0.4 2.4 -0.3 5.2 -1.1 5.2 -0.5 0 -2.1 -2.2 -3.5 -5z"/>
  <path d="M52.3 71.5 c-3.2 -1.3 -3.2 -1.4 -2.6 -7.2 0.3 -3.2 1.2 -7 1.9 -8.5 0.8 -1.5 1.4 -3.4 1.4 -4.3 0 -0.9 1.4 -3.4 3.2 -5.6 3.2 -3.9 3.6 -4 8.7 -2.1 1 0.4 1.1 -0.1 0.6 -1.8 -0.5 -1.6 -0.4 -2.1 0.6 -1.8 0.8 0.3 1.8 2.2 2.2 4.4 0.5 2.1 1.3 4.7 1.8 5.6 0.5 1 0.9 2.8 0.9 4.2 0 1.3 0.7 2.9 1.5 3.6 0.8 0.6 2.1 3.6 3 6.5 1.8 6.5 1.8 6.5 0 6.5 -0.8 0 -1.7 -1.4 -2.1 -3.5 -0.3 -1.9 -0.8 -3.5 -1.1 -3.5 -0.2 0 -1.6 1.4 -3.1 3.1 -4.5 5.5 -10.8 7.1 -16.9 4.4z m8.8 -8.7 c3.6 -3.1 4.1 -4.5 2.5 -7.6 -1.6 -3.1 -4.4 -4.8 -5.6 -3.5 -1.4 1.7 -4.1 10.3 -3.5 11.3 0.9 1.4 4.8 1.3 6.6 -0.2z"/>
  <path d="M40.7 66.3 c-1.2 -1.2 -0.7 -2.3 1.1 -2.3 1.4 0 1.7 -0.8 1.4 -5.4 -0.4 -6.4 1.6 -11 5.9 -13.4 1.6 -1 2.9 -2.4 2.9 -3.2 0 -1.9 9.7 -11.6 10.6 -10.7 0.8 0.8 -4.2 7.6 -6.1 8.4 -0.8 0.2 -1.7 1.7 -2 3.3 -0.3 1.6 -1.3 3.4 -2.1 4.1 -0.8 0.6 -1.4 2 -1.4 3.1 0 1 -0.6 3.1 -1.4 4.6 -0.8 1.5 -1.7 4.9 -2.1 7.5 -0.7 4.3 -1 4.7 -3.4 4.7 -1.5 0 -3.1 -0.3 -3.4 -0.7z"/>
  <path d="M28.5 64.9 c-0.4 -0.6 -0.5 -1.3 -0.1 -1.6 0.8 -0.9 7.6 0.7 7.6 1.7 0 1.4 -6.7 1.3 -7.5 -0.1z"/>
  <path d="M20.5 64.5 c-0.5 -0.2 -2.7 -0.6 -4.7 -1 -5.7 -0.9 -4.8 -2.9 1 -2.1 7.9 1.1 10.2 1.7 10.2 2.7 0 0.9 -4.3 1.1 -6.5 0.4z"/>
  <path d="M95.9 58.2 c-1 -1.1 -1.3 -2.6 -0.9 -3.8 0.7 -1.7 0.9 -1.7 2 0.8 1.3 2.7 1.4 2.7 2.7 0.8 1.5 -2.1 5.3 -2.8 5.3 -1 0 0.6 -0.6 1 -1.3 1 -0.7 0 -1.8 0.9 -2.5 2 -1.5 2.5 -3.3 2.5 -5.3 0.2z"/>
  <path d="M108.8 58.3 c-1 -0.2 -1.8 -1 -1.8 -1.7 0 -1.7 7.2 -0.6 7.8 1.2 0.4 1.2 -2.4 1.5 -6 0.5z"/>
  <path d="M64.8 36.3 c-0.6 -2.4 0.1 -5.3 1.3 -5.3 0.5 0 0.9 1.6 0.9 3.5 0 3.6 -1.5 4.8 -2.2 1.8z"/>
 </g>
 <g fill="#3280b3">
  <path d="M83.7 82.3 c-1.2 -1.1 -0.8 -3.4 0.8 -5 2.1 -2.1 2.8 -1.1 2 2.6 -0.6 3 -1.5 3.8 -2.8 2.4z"/>
  <path d="M53.7 67.3 c-3.5 -0.9 -4 -5 -1.5 -12.1 2.7 -7.5 5 -9.2 9.8 -7.2 5.5 2.3 7.9 11.1 4.2 15.6 -3.1 3.9 -7.2 5.1 -12.5 3.7z m8 -8.9 c0.3 -0.9 -0.3 -2.5 -1.5 -3.6 l-2.1 -2.1 -1.4 3.4 c-1.7 4.1 -0.6 6.4 2.5 4.8 1 -0.6 2.2 -1.7 2.5 -2.5z"/>
  <path d="M5.3 60.7 c-4.3 -1.3 -4.3 -3.2 -0.1 -2.3 3.6 0.7 4.2 1.1 3.7 2.3 -0.2 0.5 -1.8 0.5 -3.6 0z"/>
  <path d="M47.1 59.8 c-0.1 -1 -0.5 -1.8 -1 -1.8 -1.5 0 -0.2 -3.4 2.5 -6.5 2.1 -2.4 2.4 -2.6 2.4 -0.9 0 1.1 -0.4 2.4 -0.9 3 -0.5 0.5 -1.4 2.5 -1.9 4.4 -0.6 1.9 -1.1 2.7 -1.1 1.8z"/>
  <path d="M69.8 59 c-0.6 -1.5 -1.1 -3.1 -2.8 -9.7 -0.4 -1.8 -0.4 -3.3 0.1 -3.3 1.6 0 4 6.8 3.7 10.6 -0.2 2.3 -0.6 3.3 -1 2.4z"/>
  <path d="M110.3 58.3 c-1.8 -0.2 -3.3 -1 -3.3 -1.7 0 -1.7 7.2 -0.6 7.8 1.2 0.2 0.6 0 1.1 -0.5 1 -0.4 0 -2.3 -0.3 -4 -0.5z"/>
  <path d="M51 46.9 c0 -3 2.2 -7.9 3.5 -7.9 1.1 0 1.2 0.7 0.3 3.3 -1.3 4 -3.8 7 -3.8 4.6z"/>
  <path d="M60 31.3 c0 -2.2 4.9 -8.5 6.1 -7.8 1.7 1.1 0.9 4.3 -1.1 4.8 -1.2 0.3 -2 1.4 -2 2.6 0 1.2 -0.6 2.1 -1.5 2.1 -0.8 0 -1.5 -0.7 -1.5 -1.7z"/>
 </g>
 <g fill="#3187be">
  <path d="M80.9 77.5 c-2 -3.8 -4 -6.4 -4.8 -6.2 -0.9 0.1 -1.9 -1.5 -2.7 -4.6 -0.7 -2.7 -2 -5.7 -2.9 -6.7 -0.9 -1 -1.4 -2.3 -1.1 -2.8 0.3 -0.4 -0.1 -1.9 -0.8 -3.3 -1.2 -2.3 -3.6 -12.7 -3.6 -15.6 0 -0.7 0.4 -1.3 0.9 -1.3 0.5 0 1.5 2.6 2.1 5.7 0.6 3.2 1.5 6.6 2 7.5 0.6 1 1 3.1 1 4.7 0 1.6 0.6 3.1 1.3 3.4 0.8 0.3 2 2.6 2.7 5.1 0.7 2.5 1.8 4.6 2.5 4.6 0.6 0 2.2 2.3 3.5 5 2.5 5.4 4 6.4 4 2.8 0 -3.8 1.2 -6.8 2.6 -6.8 1 0 1.1 0.6 0.5 2.3 -0.5 1.2 -1.2 4.6 -1.6 7.5 -0.4 2.8 -1 5.2 -1.5 5.2 -0.4 0 -2.3 -2.9 -4.1 -6.5z"/>
  <path d="M36.8 66.3 c-3.6 -0.9 -1.7 -2.3 3.2 -2.3 4.8 0 5 -0.1 5 -2.7 0 -2.6 3.1 -11.8 5.1 -15.3 0.5 -0.8 1.5 -2.9 2.3 -4.7 0.8 -1.7 2.3 -3.6 3.4 -4.2 1.1 -0.6 3.1 -3.4 4.4 -6.3 1.4 -3 3.3 -5.9 4.1 -6.7 1.4 -1.1 1.7 -0.9 2.2 1.2 0.4 1.4 0.2 4.4 -0.3 6.8 l-1 4.4 -0.1 -4.3 c-0.1 -4.2 -2.1 -5.3 -2.1 -1.2 0 1.1 -2 4 -4.5 6.6 -2.5 2.5 -4.5 5.4 -4.5 6.4 0 1 -0.7 2.3 -1.5 3 -0.8 0.7 -1.5 2 -1.5 3 0 1 -0.7 3.1 -1.5 4.6 -0.8 1.6 -1.8 5 -2.1 7.7 l-0.7 4.7 -4.1 -0.1 c-2.2 -0.1 -4.9 -0.3 -5.8 -0.6z"/>
  <path d="M21.5 64.5 c-9.6 -1.6 -19.5 -4.5 -19.5 -5.7 0 -0.8 2.7 -0.4 8.5 1.2 1.7 0.5 6.2 1.4 10 2 3.9 0.6 8.5 1.3 10.3 1.6 3.6 0.6 4.4 2.5 1 2.3 -1.3 -0.1 -5.9 -0.7 -10.3 -1.4z"/>
  <path d="M52.7 63.2 c-2.2 -2.4 -2.1 -3 0.3 -8.5 2.2 -5 3.9 -6.1 7.5 -4.7 5.7 2.1 7 10.2 2.2 13.5 -2.9 2.1 -8 1.9 -10 -0.3z"/>
  <path d="M89.7 62 c-0.4 -1.7 -0.2 -2 1.3 -1.5 1.4 0.4 2.1 -0.2 3 -3 1.3 -4.1 2.3 -4.4 3.7 -1.3 l1 2.3 1.2 -2.3 c0.6 -1.2 1.8 -2.2 2.6 -2.2 0.8 0 1.8 -0.8 2.4 -1.7 0.9 -1.6 1.1 -1.5 1.9 0.7 0.9 2.3 0.7 2.5 -1.9 2.8 -1.7 0.2 -3.4 1.2 -4 2.4 -0.7 1.3 -1.7 1.8 -2.9 1.5 -1.3 -0.3 -2.5 0.3 -3.5 1.9 -1.9 2.9 -4.1 3.1 -4.8 0.4z"/>
  <path d="M111.3 58.3 c-3.2 -0.6 -2.9 -1.9 0.4 -1.8 1.4 0 2.8 0.6 3.1 1.3 0.2 0.6 0 1.1 -0.5 1.1 -0.4 -0.1 -1.8 -0.4 -3 -0.6z"/>
 </g>
 <g fill="#ffffff">
  <path d="M84.3 82.9 c-0.6 -0.8 -2.2 -3.7 -3.6 -6.5 -1.4 -2.8 -3.5 -5.4 -4.5 -5.6 -1.4 -0.4 -2.2 -1.8 -2.7 -4.8 -0.4 -2.3 -1.6 -4.9 -2.6 -5.8 -1.1 -1 -1.9 -2.9 -1.9 -4.8 0 -1.7 -0.3 -3.4 -0.7 -3.8 -1.3 -1.3 -3.2 -11.9 -3.2 -18.5 -0.1 -5.9 -0.2 -6.3 -1.6 -4.5 -0.8 1 -1.5 2.7 -1.5 3.6 0 0.9 -1.8 3.5 -4 5.8 -2.2 2.3 -4 5 -4 6.1 0 1.1 -0.7 2.2 -1.5 2.5 -0.8 0.4 -1.5 1.7 -1.5 3 0 1.4 -0.7 3.6 -1.6 4.9 -0.8 1.3 -1.9 4.5 -2.3 7.2 l-0.7 4.8 -5.9 -0.3 c-9.7 -0.4 -26.9 -3.1 -33.2 -5.2 -6.1 -2 -3.8 -2.9 2.7 -1 4.2 1.3 19 3.6 28.1 4.5 l6.6 0.6 0.7 -4.1 c0.4 -2.3 1.3 -5.5 2.1 -7.1 0.8 -1.5 1.5 -3.9 1.5 -5.2 0 -1.4 0.6 -2.7 1.4 -3 0.7 -0.3 1.6 -1.7 2 -3.1 0.4 -1.5 2.4 -4.4 4.5 -6.5 2.1 -2.1 3.8 -4.4 3.8 -5.2 0 -1.8 3.2 -6.9 4.3 -6.9 1.4 0 2 3 2 9.3 0.1 3.4 0.8 8.9 1.6 12.2 0.9 3.3 1.8 7.3 2.1 9 0.3 1.6 1.2 3.5 1.9 4.3 0.7 0.7 1.8 3 2.4 5.1 0.6 2.2 1.7 4.1 2.5 4.5 0.8 0.3 2.6 2.9 4.1 5.8 l2.7 5.3 1.1 -5.5 c0.6 -3 1.9 -6.6 2.9 -8 0.9 -1.3 1.7 -3.2 1.7 -4.2 0 -1.1 0.5 -1.5 1.4 -1.2 0.9 0.3 1.9 -0.8 2.8 -3.2 1.5 -3.7 1.6 -3.7 2.9 -1.6 1.1 1.8 1.5 1.9 2.9 0.7 0.8 -0.8 2.5 -2.3 3.8 -3.5 1.2 -1.1 2.2 -1.5 2.2 -1 0 1.9 4 5 6.5 5 1.4 0 2.5 0.4 2.5 0.9 0 1.1 -7.1 0.2 -8.4 -1 -1.6 -1.5 -4.1 -1 -5.9 1.2 -1.1 1.2 -2.5 1.8 -3.5 1.5 -1.1 -0.4 -2.1 0.1 -2.7 1.3 -0.6 1 -2.3 3.6 -3.8 5.8 -1.7 2.5 -3.2 6.6 -4 10.8 -1 5.2 -1.5 6.4 -2.4 5.4z"/>
 </g>
</svg>