<?xml version="1.0" standalone="no"?>
<!DOCTYPE svg PUBLIC "-//W3C//DTD SVG 20010904//EN"
 "http://www.w3.org/TR/2001/REC-SVG-20010904/DTD/svg10.dtd">
<svg version="1.0" xmlns="http://www.w3.org/2000/svg"
 width="908.000000pt" height="238.000000pt" viewBox="0 0 908.000000 238.000000"
 preserveAspectRatio="xMidYMid meet">

<g transform="translate(0.000000,238.000000) scale(0.100000,-0.100000)"
fill="#000000" stroke="none">
<path d="M7227 2226 c-181 -51 -276 -270 -195 -448 35 -76 70 -112 140 -147
110 -55 252 -39 340 39 176 155 134 458 -76 545 -53 22 -152 28 -209 11z m188
-65 c94 -41 148 -132 148 -247 0 -88 -26 -147 -88 -202 -98 -86 -241 -82 -333
10 -101 99 -108 269 -16 376 74 87 180 110 289 63z"/>
<path d="M240 2226 c0 -2 44 -43 97 -90 l97 -86 381 0 380 0 95 90 95 89 -572
1 c-315 0 -573 -2 -573 -4z"/>
<path d="M1530 2140 l0 -90 383 0 382 0 90 90 90 90 -473 0 -472 0 0 -90z"/>
<path d="M3000 1920 l0 -310 30 0 30 0 0 115 0 115 140 0 140 0 0 25 0 25
-140 0 -140 0 0 140 0 140 165 0 165 0 0 30 0 30 -195 0 -195 0 0 -310z"/>
<path d="M3660 1920 l0 -310 180 0 180 0 0 25 0 25 -155 0 -155 0 0 285 0 285
-25 0 -25 0 0 -310z"/>
<path d="M4350 1923 c-82 -168 -150 -308 -150 -310 0 -1 12 -3 28 -3 25 0 32
9 72 93 l45 92 177 3 178 2 47 -95 c43 -85 50 -95 75 -95 27 0 26 1 -96 253
-192 393 -177 367 -203 367 -19 0 -42 -40 -173 -307z m250 80 c39 -80 70 -148
70 -150 0 -1 -68 -3 -150 -3 l-150 0 75 150 c41 83 77 150 80 150 3 0 37 -66
75 -147z"/>
<path d="M4990 2200 l0 -30 105 0 105 0 0 -280 0 -280 30 0 30 0 0 280 0 280
105 0 105 0 0 30 0 30 -240 0 -240 0 0 -30z"/>
<path d="M5770 1920 l0 -310 30 0 30 0 0 310 0 310 -30 0 -30 0 0 -310z"/>
<path d="M6260 1920 l0 -310 30 0 30 0 0 110 0 110 93 0 92 0 95 -109 c89
-103 97 -110 133 -110 l39 -1 -96 109 c-53 60 -96 111 -96 114 0 3 12 8 28 12
43 10 100 52 119 87 22 44 23 152 0 195 -42 79 -115 103 -319 103 l-148 0 0
-310z m355 236 c100 -42 99 -206 0 -256 -21 -10 -70 -16 -162 -18 l-133 -4 0
146 0 146 130 0 c91 0 141 -4 165 -14z"/>
<path d="M7910 1920 l0 -310 25 0 25 0 0 256 c0 175 3 255 11 252 5 -2 99
-116 208 -253 159 -202 203 -251 224 -253 l27 -3 0 310 0 311 -30 0 -30 0 -2
-257 -3 -257 -203 257 c-166 211 -207 257 -228 257 l-24 0 0 -310z"/>
<path d="M130 2028 l0 -114 437 -395 c240 -217 480 -433 534 -481 l97 -88 92
43 92 42 -603 535 c-332 294 -613 543 -626 553 l-23 18 0 -113z"/>
<path d="M1530 789 l1 -114 200 -180 c111 -99 225 -202 255 -228 l54 -49 0
116 0 115 -232 207 c-128 114 -243 216 -255 227 l-23 20 0 -114z"/>
</g>
</svg>
