<?xml version="1.0" encoding="utf-8"?>
<!DOCTYPE svg PUBLIC "-//W3C//DTD SVG 20010904//EN" "http://www.w3.org/TR/2001/REC-SVG-20010904/DTD/svg10.dtd">
<svg version="1.0" xmlns="http://www.w3.org/2000/svg" width="110px" height="214px" viewBox="0 0 110 214" preserveAspectRatio="xMidYMid meet">
 <g fill="#ffffff">
  <path d="M0 107 l0 -107 29 0 c28.3 0 29 0 29 2 0 1.4 -0.7 2 -2.3 2 -1.2 0 -5.5 1.6 -9.5 3.5 -6.1 2.9 -9.1 5.3 -18.5 15.1 -12.7 13.1 -16.9 19.2 -19.7 28.3 -2.5 8 -2.5 13.3 -0.1 20.4 7.3 21 29.8 32.8 51.6 27.2 21.7 -5.7 39.9 -23.8 43.5 -43.4 1.6 -8.4 -2 -20.2 -8.3 -27.7 -1.3 -1.6 -3.4 -4.8 -4.6 -7.1 -1.1 -2.3 -3.8 -5.9 -5.8 -7.9 -3.6 -3.7 -12.4 -8.4 -15.5 -8.4 -1.1 0 -1.8 -0.8 -1.8 -2 0 -1.9 0.7 -2 21.5 -2 l21.5 0 0 107 0 107 -55 0 -55 0 0 -107z"/>
  <path d="M40.7 71.9 c-9.3 -2.2 -17.3 -8.7 -21.3 -17.3 -3.6 -7.7 -3.2 -10.6 1.9 -15.3 13.6 -12.5 32.8 -20.3 50.1 -20.3 l8.1 0 2.7 4.3 c3.9 6.1 5.1 12.3 4.6 23.4 -0.5 12.8 -2.3 16.7 -9.6 20.7 -3 1.5 -7.7 3.5 -10.5 4.2 -5.7 1.5 -20.1 1.7 -26 0.3z"/>
 </g>
 <g fill="#a4d9c1">
  <path d="M83 53.8 c0 -3 1.3 -5.8 2.6 -5.8 0.9 0 1.4 1.2 1.4 3.5 0 2.8 -0.4 3.5 -2 3.5 -1.1 0 -2 -0.6 -2 -1.2z"/>
  <path d="M83.6 37.8 c-1 -3.8 -0.7 -4.8 1.4 -4.8 1.6 0 2 0.7 2 3.5 0 4 -2.4 4.9 -3.4 1.3z"/>
  <path d="M79 26 c-1.4 -2.2 -3.3 -4 -4.2 -4 -1.1 0 -1.8 -0.8 -1.8 -1.9 0 -1.7 0.8 -2 4.8 -2.3 l4.7 -0.3 -6 -2.3 c-3.6 -1.4 -9.2 -2.5 -14 -2.9 -6.8 -0.4 -9.2 -0.1 -16 2.1 -4.4 1.4 -10.2 3.9 -12.9 5.6 -3.5 2.2 -5.8 3 -8.2 2.8 l-3.4 -0.3 6.9 -7.3 c5.3 -5.6 8.6 -8 14.5 -10.8 17.6 -8.4 39 -4.2 47.3 9.2 1.5 2.5 3.8 6 5 7.9 l2.2 3.5 -3.3 0 c-2 0 -4 -0.8 -5.1 -2 -1 -1.1 -2.2 -2 -2.7 -2 -0.4 0 -0.8 0.9 -0.8 2 0 1.1 -0.7 2 -1.5 2 -0.9 0 -1.5 0.9 -1.5 2.5 0 3.5 -1.2 3.1 -4 -1.5z"/>
 </g>
 <g fill="#abb6d8">
  <path d="M24.3 193.3 c1 -4.9 2.7 -8.4 3.7 -7.8 1.3 0.8 1.3 4.5 0 4.5 -0.5 0 -1 0.4 -1 1 0 0.5 0.7 0.7 1.5 0.4 1 -0.4 1.5 0 1.5 1.1 0 0.9 0.5 1.3 1 1 0.6 -0.3 1 -0.2 1 0.4 0 1.8 -2.1 2.3 -3.7 0.9 -1.3 -1 -1.7 -1 -2 0 -0.9 2.4 -2.5 1.2 -2 -1.5z"/>
  <path d="M51.1 194.3 c-1 -1.1 -1.6 -1.3 -1.9 -0.5 -0.5 1.5 -5.2 1.6 -5.2 0.2 0 -0.5 -0.8 -1 -1.7 -1 -1 0 -2.7 -0.7 -3.8 -1.5 -1.7 -1.4 -1.8 -1.7 -0.4 -3 1.6 -1.6 4.9 -1.1 4.9 0.7 0 0.6 -0.7 0.8 -1.5 0.4 -0.8 -0.3 -1.5 -0.1 -1.5 0.3 0 1.8 2.9 1.9 3.5 0.1 0.8 -2.4 3.2 -3.3 4.7 -1.6 1.1 1.2 1.6 1.2 3.1 -0.2 1.8 -1.6 1.8 -1.5 1.2 2 -0.6 3.3 -0.5 3.7 1.4 3.5 1.6 -0.1 2.1 -0.8 2.1 -2.9 0 -1.5 0.5 -2.8 1 -2.8 0.6 0 1 1.1 1 2.5 0 2.3 0.2 2.4 2 1.3 2.3 -1.5 2.7 -3 0.5 -2.2 -0.8 0.4 -1.5 0.2 -1.5 -0.4 0 -1.3 3.1 -2.5 4 -1.5 0.4 0.4 1 2.5 1.3 4.6 0.6 3.6 0.5 3.7 -2.4 3.7 -1.6 0 -2.9 -0.5 -2.9 -1.2 0 -0.9 -0.3 -0.9 -0.8 -0.3 -1.1 1.7 -5.6 1.5 -7.1 -0.2z m-4.1 -3 c0 -2 -0.3 -2.4 -1.1 -1.6 -0.7 0.7 -0.9 1.9 -0.6 2.7 1 2.4 1.7 1.9 1.7 -1.1z"/>
  <path d="M75 195.1 c0 -0.6 0.5 -1.3 1 -1.6 0.6 -0.3 1 -1.3 1 -2.1 0 -0.8 -0.4 -1.4 -1 -1.4 -0.5 0 -1 0.7 -1 1.5 0 0.8 -0.4 1.5 -1 1.5 -1.5 0 -1.2 -4.7 0.3 -5.3 1.9 -0.7 3.4 0.4 4.7 3.3 l1 2.5 -0.5 -2.6 c-0.4 -2.1 0 -2.8 1.7 -3.3 2.9 -0.7 3.9 0.3 4.5 4.8 0.4 2.8 0.1 3.6 -1.1 3.6 -1.2 0 -1.6 -1.1 -1.7 -3.7 -0.2 -3.4 -0.2 -3.5 -0.6 -0.8 -0.6 3.9 -2.1 5.5 -3.3 3.5 -0.7 -1 -1 -1.1 -1 -0.2 0 0.6 -0.7 1.2 -1.5 1.2 -0.8 0 -1.5 -0.4 -1.5 -0.9z"/>
  <path d="M32.4 191.6 c-1.8 -1.4 -1.8 -1.6 -0.2 -3.2 1.5 -1.5 2 -1.6 3 -0.5 1.1 1.1 1 1.4 0 1.8 -1 0.4 -0.8 0.9 0.5 1.9 1.5 1.1 1.5 1.3 0.2 1.4 -0.8 0 -2.4 -0.6 -3.5 -1.4z"/>
  <path d="M65.6 190.4 c-0.8 -3.1 1 -5.7 2.3 -3.6 0.9 1.5 0.2 6.2 -0.9 6.2 -0.4 0 -1.1 -1.2 -1.4 -2.6z"/>
  <path d="M70 190 c0 -1.1 0.5 -2 1 -2 0.6 0 1 0.9 1 2 0 1.1 -0.4 2 -1 2 -0.5 0 -1 -0.9 -1 -2z"/>
  <path d="M23.4 182.6 c-0.3 -0.8 -0.2 -2.1 0.2 -2.8 0.6 -1.1 0.5 -1.1 -0.8 0 -1.9 1.5 -3.3 0.1 -2.4 -2.3 0.3 -0.8 0.1 -1.7 -0.4 -2 -0.6 -0.4 -1 0.7 -1 2.4 0 1.7 -0.4 3.1 -1 3.1 -0.5 0 -1 -1.3 -1 -3 0 -1.6 -0.4 -3 -1 -3 -0.5 0 -1 1.4 -1 3 0 3 -1.4 4.1 -2.3 1.8 -0.4 -1 -0.6 -1 -0.6 0 -0.1 1.3 -3.3 1.7 -4.5 0.5 -0.4 -0.5 -1.2 -0.9 -1.7 -0.9 -2.2 -0.3 -2.3 -0.5 -1.4 -1.2 0.6 -0.4 1.5 -1.6 2.1 -2.6 1.4 -2.7 2.9 -3 4.7 -1.1 1.4 1.3 1.7 1.3 3.1 0 1.8 -1.8 7.2 -2 7.9 -0.2 0.4 1 0.6 1 0.6 0 0.1 -1.9 4.9 -1.5 6 0.5 1 1.6 1 1.6 1.1 0 0 -3.3 1.8 -1.8 2.2 2 0.6 4.4 0.1 5.3 -1.7 2.9 -1.1 -1.5 -1.3 -1.6 -1.9 -0.2 -0.3 0.8 -1.3 1.5 -2.1 1.5 -0.9 0 -1.4 0.4 -1 0.9 0.3 0.5 0.1 1.2 -0.5 1.6 -0.6 0.3 -1.3 -0.1 -1.6 -0.9z m-12.9 -6.5 c-0.9 -1.6 -2.5 -0.3 -1.8 1.5 0.4 1 0.9 1.2 1.5 0.6 0.6 -0.6 0.7 -1.5 0.3 -2.1z m16.5 0.7 c0 -1.6 -0.3 -1.9 -1.1 -1.1 -0.6 0.6 -0.8 1.6 -0.5 2.2 1.1 1.7 1.6 1.3 1.6 -1.1z"/>
  <path d="M52.1 181.8 c0.1 -0.7 -0.1 -2.1 -0.6 -3.1 -0.4 -1 -0.3 -2.8 0.3 -4 1 -2.1 1.1 -2.1 1.3 0.8 0.1 1.7 0.3 4 0.4 5.3 0.1 1.2 -0.2 2.2 -0.7 2.2 -0.5 0 -0.8 -0.6 -0.7 -1.2z"/>
  <path d="M37.6 180.3 c-0.8 -0.8 -0.8 -9.3 0 -9.3 1.3 0 3.4 2.9 2.4 3.5 -1.3 0.8 -1.3 4.5 0 4.5 0.9 0 1.4 -2.9 1.3 -6.7 -0.1 -0.7 0.3 -1.3 0.8 -1.3 0.5 0 0.9 0.6 0.9 1.3 0 0.9 1.1 1.2 3.5 0.9 3.3 -0.4 3.5 -0.3 3.5 2.7 0 1.7 0 3.4 0.1 3.8 0 0.4 -0.4 0.9 -1 1.1 -0.6 0.2 -1.1 -1 -1.1 -2.9 0 -1.8 -0.3 -2.9 -0.7 -2.5 -0.5 0.4 -0.8 1.7 -0.8 2.8 0 1.7 -0.7 2.1 -4.1 2.4 -2.3 0.1 -4.5 0 -4.8 -0.3z"/>
  <path d="M61 176 c0 -4.6 0.2 -5 2.3 -5 1.3 0 2.8 0.5 3.5 1.2 0.7 0.7 2.4 1.2 4 1.3 2.3 0 2.7 0.4 2.7 2.8 -0.1 2.2 0.3 2.7 2.5 2.7 2.2 -0.1 2.3 -0.2 0.8 -1.1 -2.8 -1.6 -2.3 -4.9 0.7 -4.9 1.4 0 2.5 0.5 2.5 1 0 0.6 -0.8 1 -1.7 1 -1.5 0 -1.6 0.2 -0.3 1 1.1 0.7 1.9 0.5 2.9 -1 1.5 -2.3 4.6 -2.7 5.4 -0.7 0.3 0.7 0.3 2.5 0 4 -0.6 3.1 -3.6 3.7 -5.1 1.1 -0.8 -1.5 -1 -1.5 -1.5 -0.1 -0.4 1.1 -1.8 1.6 -4.7 1.4 -2.8 -0.1 -3.9 -0.5 -3.6 -1.4 0.3 -0.7 -0.1 -1.3 -0.8 -1.3 -0.8 0 -1.7 0.6 -1.9 1.3 -0.3 0.6 -0.6 -0.1 -0.6 -1.8 -0.1 -2.1 -0.4 -2.6 -1 -1.6 -0.5 0.7 -0.6 2.2 -0.4 3.2 0.3 1 0 1.9 -0.6 1.9 -0.6 0 -1.1 -0.8 -1.1 -1.7 -0.1 -1.7 -0.1 -1.7 -1.4 0 -2.1 2.7 -2.6 2.1 -2.6 -3.3z m4.2 -1.5 c0 -0.5 -0.5 -1.1 -1.1 -1.3 -0.6 -0.2 -1.1 0.4 -1.1 1.3 0 0.9 0.5 1.5 1.1 1.3 0.6 -0.2 1.1 -0.8 1.1 -1.3z"/>
  <path d="M87 179 c0 -1.2 1 -2.4 2.3 -3 l2.2 -0.9 -2.3 0 c-2.7 -0.1 -2 -2.1 0.8 -2.1 2.3 0 3.2 2.4 2 5.5 -1.2 3.1 -5 3.5 -5 0.5z"/>
  <path d="M93.7 175 c-0.4 -1.5 0 -2 1.4 -2 2.1 0 2.2 0.1 1.3 2.4 -0.8 2.2 -2.1 2 -2.7 -0.4z"/>
  <path d="M104 172 c0 -1.1 0.5 -2 1 -2 0.6 0 1 0.6 1 1.4 0 0.8 0.6 1.7 1.3 1.9 0.6 0.3 0.2 0.6 -1 0.6 -1.7 0.1 -2.3 -0.5 -2.3 -1.9z"/>
  <path d="M26 163 c0 -0.6 10.5 -1 29.5 -1 19 0 29.5 0.4 29.5 1 0 0.6 -10.5 1 -29.5 1 -19 0 -29.5 -0.4 -29.5 -1z"/>
  <path d="M33 153.3 c-5.1 -2 -8.5 -9 -5.6 -11.8 2.2 -2.2 3.3 -1.9 4.1 1.2 0.4 1.6 1.1 3.4 1.7 4 1.5 1.8 4.5 1.6 5.6 -0.3 0.8 -1.4 1.2 -1.4 3 -0.3 1.2 0.8 2.2 1.9 2.2 2.5 0 3 -7.3 6.2 -11 4.7z"/>
  <path d="M49 150.5 c0 -1.6 0.6 -2.5 1.5 -2.5 0.8 0 1.5 0.4 1.5 0.9 0 0.5 0.3 1.6 0.6 2.5 0.4 1.2 0 1.6 -1.5 1.6 -1.6 0 -2.1 -0.6 -2.1 -2.5z"/>
  <path d="M57.9 150.8 c-0.7 -1.2 -1.2 -4.3 -1.1 -6.8 0 -2.5 -0.2 -3.9 -0.5 -3.2 -0.2 0.6 -2 1.2 -3.9 1.2 -3.2 0 -3.4 -0.2 -3.4 -3.5 0 -3.9 2.4 -5 3.3 -1.5 0.7 2.6 4.3 2.6 5.7 0.1 1.4 -2.8 1.3 -3.8 -1 -6.1 l-2 -2 2 0 c1.1 0 2 -0.7 2 -1.5 0 -2.2 1.7 -1.8 3.4 0.7 1.9 2.6 2.1 5.8 0.5 5.8 -0.7 0 -0.9 1.1 -0.6 2.7 0.3 1.5 0.1 3.6 -0.5 4.8 -0.7 1.6 -0.5 3.2 0.6 6 2.1 5 2 5.5 -0.9 5.5 -1.5 0 -2.9 -0.8 -3.6 -2.2z"/>
  <path d="M66 151.5 c0 -0.5 1.2 -6.1 2.6 -12.2 1.8 -7.6 3.1 -11.3 4 -11.3 0.8 0 1.4 0.7 1.4 1.5 0 1 1 1.5 2.9 1.5 2.8 0 2.9 0.3 5 8.5 2.6 10.3 2.6 10.5 0.2 10.5 -1.5 0 -2.1 -1 -2.6 -4 -0.4 -2.2 -1.1 -4 -1.5 -4 -0.5 0 -1.2 -1.6 -1.6 -3.6 -0.8 -4.2 -1.9 -3.4 -2.7 1.9 -0.5 3.2 -0.3 3.7 1.4 3.7 1.4 0 1.9 0.7 1.9 2.5 0 2 -0.5 2.5 -2.4 2.5 -1.6 0 -2.7 0.7 -3.1 2 -0.4 1.3 -1.4 1.9 -3.1 1.8 -1.3 -0.1 -2.4 -0.7 -2.4 -1.3z"/>
  <path d="M26.4 132.8 c0.8 -4.2 5.7 -8.8 9.5 -8.8 3.1 0 8.1 3.4 8.1 5.5 0 0.8 -0.9 1.9 -2 2.5 -1.7 0.9 -2.4 0.7 -3.8 -1 -2.1 -2.6 -4.1 -2 -6.4 2 -1.1 1.9 -2.5 3 -3.9 3 -1.9 0 -2.1 -0.4 -1.5 -3.2z"/>
  <path d="M75 127 c0 -1.3 0.7 -2 2 -2 1.3 0 2 0.7 2 2 0 1.3 -0.7 2 -2 2 -1.3 0 -2 -0.7 -2 -2z"/>
  <path d="M26.4 98.5 c-2.7 -1.3 -6.5 -3.8 -8.4 -5.4 l-3.5 -3 3.8 -0.1 c3 0 3.7 0.3 3.7 2 0 1.5 0.7 2 2.5 2 4.1 0 7.5 2.1 7.5 4.7 0 1.2 -0.1 2.3 -0.3 2.3 -0.2 0 -2.5 -1.1 -5.3 -2.5z"/>
  <path d="M8.1 81.8 c-2.9 -4.7 -5.2 -13.5 -5.2 -20.3 0 -13.1 6.1 -26.6 16.7 -36.6 6.1 -5.7 8.4 -6.7 8.4 -3.6 0 3.2 -1.8 4.7 -5.7 4.7 -3.1 0 -3.3 0.2 -3.3 3.5 0 2.4 -0.6 3.9 -2 4.7 -1.1 0.7 -2 1.8 -2 2.5 0 0.6 -0.4 1.3 -0.8 1.5 -1.3 0.5 -6.1 12.1 -7.3 17.7 -1.2 5.8 0.4 17.4 2.8 19.9 1.4 1.4 1.8 8.2 0.5 8.2 -0.4 0 -1.3 -1 -2.1 -2.2z"/>
  <path d="M43 71 c0 -2.1 1 -2.4 4.8 -1.4 3.6 1 2.7 3.4 -1.3 3.4 -2.8 0 -3.5 -0.4 -3.5 -2z"/>
  <path d="M57 71.6 c0 -0.8 1.9 -1.8 4.4 -2.5 6 -1.5 6.6 -1.4 6.6 0.8 0 1.3 -1 2 -3.1 2.5 -5.1 1 -7.9 0.7 -7.9 -0.8z"/>
  <path d="M69 68 c0 -0.8 7 -5 8.5 -5 1.3 0 0.3 4.8 -1.1 5.4 -2.5 0.9 -7.4 0.7 -7.4 -0.4z"/>
  <path d="M27 64.1 c0 -1.3 -0.8 -2.1 -2.2 -2.3 -3 -0.4 -7.7 -9 -7.8 -14 0 -3.4 0.3 -3.8 2.6 -3.8 2.1 0 2.4 0.3 1.6 1.3 -1.7 2 2.9 10.9 8.4 16.2 l4.8 4.5 -3.7 0 c-3 0 -3.7 -0.4 -3.7 -1.9z"/>
  <path d="M44 26.5 c0 -2.2 0.4 -2.5 3.6 -2.5 4.4 0 4.2 1.8 -0.4 3.7 -3.1 1.3 -3.2 1.2 -3.2 -1.2z"/>
  <path d="M77 22.7 c0 -0.9 -1 -1.2 -3 -0.9 -2.5 0.4 -3 0.1 -3 -1.7 0 -1.7 0.6 -2.1 3.5 -2.1 3.2 0 3.5 0.2 3.5 3 0 1.7 -0.2 3 -0.5 3 -0.3 0 -0.5 -0.6 -0.5 -1.3z"/>
 </g>
 <g fill="#ffde16">
  <path d="M87.5 85 c-2.8 -3.2 -11.3 -7 -15.7 -7 -3.6 0 -3.8 -0.2 -3.8 -3.2 0.1 -3.6 2.9 -7.3 9.2 -12 2.2 -1.7 4.1 -4.3 4.8 -6.5 0.7 -2.1 2.1 -4.7 3 -5.8 1 -1.1 3.1 -4.5 4.7 -7.5 2.5 -4.9 2.8 -6.4 2.6 -14.3 l-0.2 -8.9 3.1 2.4 c4.2 3.3 8.4 11 10.5 19.3 1.4 5.7 1.5 8 0.6 14.2 -1.3 9.1 -6.5 20.1 -12.6 26.8 l-4.2 4.7 -2 -2.2z"/>
 </g>
 <g fill="#bad75d">
  <path d="M79.2 61.1 c5.4 -6.4 6.4 -22.2 2 -31.1 -3.4 -6.9 -4.9 -9.1 -5.8 -9 -0.5 0.1 -1.1 -0.7 -1.3 -1.6 -0.3 -1.5 0.5 -1.6 8.5 -1 7.9 0.6 9.2 1 11.2 3.3 2.2 2.4 2.4 3.4 2 10.7 -0.5 9.8 -3.5 16.6 -10.9 24.4 -2.7 2.8 -4.9 5.6 -4.9 6.2 0 0.5 -0.7 1 -1.6 1 -1.2 0 -1.1 -0.6 0.8 -2.9z"/>
 </g>
 <g fill="#6cafd0">
  <path d="M16.5 45.4 c-0.9 -4.8 0.4 -16.4 2.1 -19 2.4 -4 16.1 -12.2 24.5 -14.9 10.5 -3.3 21.8 -3.5 26.9 -0.4 4.6 2.8 9 7 9 8.6 0 0.7 -0.1 1.3 -0.2 1.3 -0.2 0.1 -3 0.3 -6.3 0.6 -13.8 1.2 -28.8 6.4 -39.2 13.6 -6.6 4.5 -13.3 10.8 -13.3 12.4 0 3 -2.8 1.2 -3.5 -2.2z"/>
 </g>
 <g fill="#8695c7">
  <path d="M41.3 163.3 c8.2 -0.2 21.2 -0.2 29 0 7.8 0.1 1.2 0.3 -14.8 0.3 -15.9 0 -22.3 -0.2 -14.2 -0.3z"/>
  <path d="M4.6 72.1 c-0.4 -0.5 -0.9 -3 -1.2 -5.5 -0.6 -4.2 -0.5 -4.6 1.5 -4.6 1.3 0 2.1 0.6 2.1 1.6 0 2.4 8.5 1.4 14.8 -1.7 l5 -2.5 3.1 2.6 c1.7 1.5 3.1 3.1 3.1 3.7 0 1.5 -7.3 4.3 -15.8 5.9 -8.6 1.6 -11.9 1.8 -12.6 0.5z"/>
  <path d="M3.4 55.9 c0.9 -6.3 3.7 -14.1 5.4 -14.7 1.7 -0.5 1.6 4.5 -0.3 9.8 -0.8 2.3 -1.5 5.5 -1.5 7.1 0 2.3 -0.5 2.9 -2.1 2.9 -2 0 -2.1 -0.4 -1.5 -5.1z"/>
  <path d="M16 42 c0 -2.7 -0.4 -5 -1 -5 -0.5 0 -1 0.7 -1 1.5 0 0.9 -0.9 1.5 -2.5 1.5 -1.4 0 -2.5 -0.4 -2.5 -0.9 0 -1.6 9.3 -13.2 12.7 -15.8 l3.2 -2.5 -2 4.3 c-2.4 4.8 -3.9 13.8 -3.2 18.7 0.5 2.7 0.2 3.2 -1.6 3.2 -1.9 0 -2.1 -0.6 -2.1 -5z"/>
 </g>
 <g fill="#8d86c0">
  <path d="M32.9 101 c-7.7 -2.1 -9.4 -5.5 -2.4 -4.7 5.3 0.5 5.8 0.9 5.3 3.4 -0.2 1.6 -0.8 1.8 -2.9 1.3z"/>
  <path d="M18.6 93.4 c-4.4 -3.4 -10.6 -10.7 -10.6 -12.6 0 -0.4 1.1 -0.8 2.5 -0.8 1.5 0 2.5 0.6 2.5 1.4 0 0.8 0.7 1.6 1.5 2 0.8 0.3 1.5 1.2 1.5 2 0 0.7 0.9 1.6 2.1 1.9 1.1 0.3 2.3 1.5 2.6 2.6 0.3 1.2 1.4 2.1 2.4 2.1 1.4 0 1.9 0.7 1.9 2.5 0 3.3 -0.8 3.2 -6.4 -1.1z"/>
  <path d="M6.1 77.1 c-3.7 -6.7 -3.3 -29.1 0.5 -29.1 0.9 0 1.4 1.1 1.4 3.1 l0 3.2 3.8 -5.2 c2.5 -3.5 4.4 -5.1 6 -5.1 1.6 0 2.2 0.6 2.2 2 0 2.8 4.3 11 6.9 13.4 2.7 2.5 2.7 3.2 -0.6 5 -3.6 2 -2.1 2.1 1.7 0.1 2.6 -1.4 3.1 -1.3 7.2 1 2.3 1.3 6.4 2.9 9.1 3.6 3 0.7 4.7 1.7 4.7 2.7 0 1.2 -0.9 1.4 -5.2 0.9 -2.9 -0.4 -5.4 -1.1 -5.6 -1.7 -0.2 -0.5 -1.3 -1 -2.5 -1 -1.2 0 -2.8 -0.4 -3.5 -0.8 -0.7 -0.5 -4.1 0.1 -8 1.5 -3.7 1.2 -8.6 2.3 -10.9 2.3 -4.1 0 -4.3 0.1 -4.3 3 0 3.4 -1.4 3.9 -2.9 1.1z m8.9 -8.8 c0.2 -0.2 -1.7 -0.3 -4.3 -0.1 -2.6 0.2 -4.7 0.6 -4.7 1.1 0 0.7 8 -0.2 9 -1z"/>
  <path d="M58 71.7 c0 -0.7 3.3 -2.3 7.3 -3.5 4.1 -1.3 9 -3.4 11 -4.7 4.7 -3.2 5.2 -3.1 3 0.5 -0.9 1.7 -2.5 3 -3.5 3 -1 0 -1.8 0.7 -1.8 1.5 0 0.9 -2 2 -5.2 3 -6.3 1.8 -10.8 2 -10.8 0.2z"/>
  <path d="M7.4 42.5 c1.6 -3.8 7.1 -12 8.6 -13 0.6 -0.4 1 0.9 1 2.9 0 2.9 -0.4 3.6 -2 3.6 -1.5 0 -2 0.7 -2 2.5 0 4.1 -2.1 7.5 -4.7 7.5 -2.3 0 -2.3 -0.1 -0.9 -3.5z"/>
  <path d="M21.5 24 c1 -1.1 2 -2 2.2 -2 0.2 0 -0.1 0.9 -0.7 2 -0.6 1.1 -1.6 2 -2.2 2 -0.6 0 -0.3 -0.9 0.7 -2z"/>
 </g>
 <g fill="#f89829">
  <path d="M34.8 101.3 c-2.7 -0.9 -4.8 -2.1 -4.8 -2.7 0 -2.1 4.7 -11.1 6.6 -12.7 1 -0.9 4 -1.9 6.5 -2.1 5.3 -0.6 14.7 -4.7 19.8 -8.6 2 -1.5 4.5 -2.9 5.6 -3.2 1.1 -0.3 2.1 -1.5 2.3 -2.7 0.2 -1.2 1.4 -2.9 2.8 -3.7 1.3 -0.9 3.6 -2.4 5.1 -3.3 l2.7 -1.8 -1.9 3.3 c-1.1 1.9 -3.4 5.1 -5.2 7.1 l-3.2 3.8 3.5 0.1 c4.5 0.2 12.6 3.8 15.6 6.9 l2.3 2.5 -4.9 4.4 c-5.9 5.1 -16.7 10.7 -25.1 12.9 -7.6 1.9 -21.6 1.9 -27.7 -0.2z"/>
 </g>
 <g fill="#818285">
  <path d="M24 195.4 c0 -0.3 0.5 -2.5 1.1 -5 1.3 -5.1 2.9 -5.3 4.4 -0.3 0.8 2.6 1.6 3.5 3.5 3.6 l2.5 0.3 -2.5 -2 c-2.3 -1.8 -2.4 -2 -0.8 -3.6 1.6 -1.6 3.8 -1.2 3.8 0.7 0 0.6 -0.4 0.7 -1 0.4 -1.6 -1 -1.1 0.7 0.6 1.9 2.6 1.9 0.7 4.6 -3.2 4.4 -1.9 -0.1 -3.4 -0.5 -3.4 -1 0 -0.4 -0.7 -0.8 -1.5 -0.8 -0.8 0 -1.5 0.5 -1.5 1 0 0.6 -0.4 1 -1 1 -0.5 0 -1 -0.3 -1 -0.6z"/>
  <path d="M37.7 195.4 c-1.1 -1.2 0.3 -2.3 2.1 -1.8 1.1 0.4 0.8 -0.2 -0.8 -1.5 -2.4 -2 -2.4 -2.2 -0.7 -3.5 2 -1.5 5.1 -1.1 4.1 0.5 -0.3 0.5 -1 0.7 -1.5 0.4 -0.5 -0.4 -0.9 -0.2 -0.9 0.3 0 0.6 0.7 1.2 1.5 1.6 0.8 0.3 1.5 0.1 1.5 -0.4 0 -0.5 0.7 -1.5 1.5 -2.4 1.8 -1.8 4.5 -1.1 4.5 1.1 0 1.1 0.6 0.8 1.9 -0.8 1.5 -1.9 2.2 -2.1 3.2 -1.2 0.6 0.6 1.8 0.9 2.5 0.6 1.1 -0.4 1.4 0.5 1.4 3.6 0 2.3 -0.4 4.1 -1 4.1 -0.5 0 -1 -1.3 -1 -3 0 -2.3 -0.4 -3 -2 -3 -1.4 0 -2 0.7 -2 2.1 0 1.5 0.5 1.9 1.5 1.5 0.9 -0.3 1.5 0 1.5 0.9 0 2 -3.6 1.9 -4.4 -0.2 -0.6 -1.4 -0.8 -1.4 -2.1 0.3 -1.2 1.6 -1.7 1.7 -3.4 0.7 -1.3 -0.8 -2.2 -0.9 -2.6 -0.3 -0.7 1.1 -3.8 1.3 -4.8 0.4z m9.6 -5.1 c-0.4 -1 -0.9 -1.1 -1.6 -0.4 -0.5 0.5 -0.7 1.8 -0.3 2.8 0.6 1.4 0.9 1.5 1.6 0.4 0.4 -0.8 0.6 -2.1 0.3 -2.8z"/>
  <path d="M59.4 194.5 c-0.7 -1.8 0.3 -3.5 2.2 -3.5 0.8 0 1.3 -0.4 0.9 -1 -0.3 -0.5 -1.3 -0.6 -2.3 -0.3 -1.5 0.6 -1.5 0.4 -0.4 -1 1.8 -2.1 4.2 -1.1 4.2 1.8 0 1.3 0.3 3 0.6 3.9 0.5 1.2 0 1.6 -2 1.6 -1.5 0 -2.9 -0.7 -3.2 -1.5z"/>
  <path d="M65.8 191.8 c-0.5 -4 0.4 -6.9 1.8 -5.6 0.3 0.3 0.7 2.7 0.8 5.2 0.3 6 -2 6.3 -2.6 0.4z"/>
  <path d="M70 192 c0 -2.2 0.5 -4 1 -4 0.6 0 1 1.8 1 4 0 2.2 -0.4 4 -1 4 -0.5 0 -1 -1.8 -1 -4z"/>
  <path d="M73.7 195.3 c-1.2 -1.2 -0.7 -6 0.7 -7.2 2 -1.6 5 1.4 4.2 4.3 -0.3 1.2 -0.6 2.4 -0.6 2.9 0 0.9 -3.4 0.9 -4.3 0z m3.3 -3.8 c0 -0.8 -0.4 -1.7 -1 -2 -0.6 -0.4 -1 0.5 -1 2 0 1.5 0.4 2.4 1 2 0.6 -0.3 1 -1.2 1 -2z"/>
  <path d="M79.9 195.8 c0 -0.2 -0.1 -2 -0.2 -4 -0.2 -2.8 0.2 -3.8 1.6 -4.2 2.4 -0.6 4.9 2.1 4.5 5.1 -0.4 3.5 -2.2 2.9 -2.8 -0.9 -0.4 -2.5 -0.7 -2.9 -1.2 -1.5 -0.4 0.9 -0.5 2.3 -0.2 3.1 0.3 0.8 0.1 1.7 -0.5 2.1 -0.6 0.3 -1.1 0.5 -1.2 0.3z"/>
  <path d="M24 184 c-0.1 -0.3 -0.3 -2.9 -0.4 -5.8 -0.2 -5.1 -0.1 -5.3 2.3 -5 2.1 0.2 2.7 0.9 2.9 3.6 0.3 2.7 -0.1 3.5 -1.7 3.9 -1.1 0.3 -2.2 1.2 -2.4 2.2 -0.3 0.9 -0.6 1.4 -0.7 1.1z m3 -7 c0 -1.1 -0.4 -2 -1 -2 -0.5 0 -1 0.9 -1 2 0 1.1 0.5 2 1 2 0.6 0 1 -0.9 1 -2z"/>
  <path d="M52 182.6 c0 -1 0.6 -1.3 1.8 -0.9 1.1 0.4 0.9 -0.1 -0.7 -1.4 -3.3 -2.7 -2.3 -7.3 1.5 -7.3 2.4 0 2.5 0.2 2.2 5.3 -0.3 4.5 -0.6 5.2 -2.5 5.5 -1.5 0.2 -2.3 -0.2 -2.3 -1.2z m3 -5.6 c0 -1.1 -0.4 -2 -1 -2 -0.5 0 -1 0.9 -1 2 0 1.1 0.5 2 1 2 0.6 0 1 -0.9 1 -2z"/>
  <path d="M0.4 179.6 c-0.3 -0.8 -0.4 -2.9 -0.2 -4.8 0.2 -2.7 0.7 -3.3 2.7 -3.3 1.3 0 2.6 0.6 2.9 1.4 0.3 0.9 -0.1 1.1 -1.7 0.6 -1.8 -0.5 -2.1 -0.2 -2.1 2.4 0 4.3 2.5 3.9 4.9 -0.6 1.4 -2.7 3.6 -3 5 -0.5 1 1.6 1 1.6 1.1 0 0 -1.4 0.9 -1.7 4.5 -1.6 l4.5 0.1 -0.2 4.1 c-0.1 3.7 -0.2 3.8 -0.5 0.9 -0.5 -4.1 -2.3 -4.3 -2.3 -0.3 0 1.7 -0.4 3 -1 3 -0.5 0 -1 -1.3 -1 -3 0 -1.6 -0.4 -3 -1 -3 -0.5 0 -1 1.4 -1 3 0 1.7 -0.4 3 -1 3 -0.5 0 -1 -0.8 -1 -1.7 0 -1.5 -0.2 -1.4 -1.4 0.3 -1.3 1.6 -1.8 1.7 -3.5 0.7 -1.3 -0.8 -2.2 -0.9 -2.6 -0.3 -0.9 1.5 -4.5 1.2 -5.1 -0.4z m10.1 -3.6 c-0.5 -0.8 -1.1 -0.8 -1.7 -0.2 -0.6 0.6 -0.7 1.6 -0.3 2.2 0.5 0.8 1.1 0.8 1.7 0.2 0.6 -0.6 0.7 -1.6 0.3 -2.2z"/>
  <path d="M30.7 180.3 c-1.1 -1 -0.8 -7.3 0.3 -7.3 0.6 0 1 1.4 1 3 0 1.7 0.5 3 1 3 0.6 0 1 -1.3 1 -3 0 -1.6 0.5 -3 1 -3 0.6 0 1 1.8 1 4 0 3.5 -0.3 4 -2.3 4 -1.3 0 -2.7 -0.3 -3 -0.7z"/>
  <path d="M37.7 180.3 c-1 -1 -0.8 -9.3 0.2 -9.3 1.3 0 2 2.5 1.4 4.9 -0.3 1.2 0 2.8 0.7 3.6 1 1.2 1 1.5 -0.2 1.5 -0.8 0 -1.8 -0.3 -2.1 -0.7z"/>
  <path d="M42.3 176 c0 -3 0.2 -4.3 0.4 -2.7 0.2 1.5 0.2 3.9 0 5.5 -0.2 1.5 -0.4 0.2 -0.4 -2.8z"/>
  <path d="M44.8 180.4 c-0.4 -0.5 -0.6 -2.5 -0.6 -4.3 0.1 -2.8 0.4 -3.2 2.7 -2.9 2.2 0.3 2.6 0.8 2.9 4.2 0.2 2.5 0 3.6 -0.7 3.1 -0.6 -0.3 -1.1 -1.8 -1.1 -3.3 0 -3.2 -1.7 -1.8 -2.2 1.8 -0.2 1.4 -0.6 2 -1 1.4z"/>
  <path d="M61 176.5 c0 -3.3 0.5 -4.7 1.6 -5.2 2.3 -0.9 5 1.1 4.6 3.3 -0.2 1.1 -0.3 3 -0.3 4.4 0 2.3 -0.1 2.4 -1.3 0.8 -1.6 -2.2 -2.6 -2.3 -2.6 -0.3 0 0.8 -0.4 1.5 -1 1.5 -0.5 0 -1 -2 -1 -4.5z m4.2 -2 c0 -0.5 -0.5 -1.1 -1.1 -1.3 -0.6 -0.2 -1.1 0.4 -1.1 1.3 0 0.9 0.5 1.5 1.1 1.3 0.6 -0.2 1.1 -0.8 1.1 -1.3z"/>
  <path d="M68.4 179.6 c-1 -2.7 0.5 -6.6 2.6 -6.6 2 0 3.1 2.3 2.6 5.5 -0.4 2.5 -4.4 3.3 -5.2 1.1z"/>
  <path d="M75 180 c0 -0.5 0.8 -1 1.8 -1 1.6 -0.1 1.6 -0.1 0 -1.1 -2.5 -1.4 -2.3 -4.9 0.1 -4.9 1.1 0 2.3 0.5 2.6 1 0.3 0.6 -0.2 1 -1.1 1 -1.6 0 -1.6 0.1 0.1 1.4 2.3 1.6 1.4 4.6 -1.5 4.6 -1.1 0 -2 -0.4 -2 -1z"/>
  <path d="M81.7 180.3 c-1.3 -1.3 -0.7 -6.4 0.8 -6.9 1.6 -0.6 4.5 1.2 4.5 2.8 0 0.5 -1 1.3 -2.2 1.8 -1.8 0.7 -1.9 0.9 -0.5 0.9 0.9 0.1 1.7 0.6 1.7 1.1 0 1.1 -3.3 1.4 -4.3 0.3z"/>
  <path d="M87.7 180.3 c-1.3 -1.3 -0.7 -3 1.6 -4.1 1.7 -0.8 1.8 -1.1 0.5 -1.1 -2.4 -0.1 -2.3 -2.1 0.1 -2.1 2.1 0 3.1 1.9 3.1 5.6 0 1.8 -0.5 2.4 -2.3 2.4 -1.3 0 -2.7 -0.3 -3 -0.7z"/>
  <path d="M94 177.1 l0 -3.9 4.5 0 c3.2 0 4.5 0.4 4.5 1.4 0 0.8 -0.6 1.1 -1.5 0.8 -1.1 -0.4 -1.5 0 -1.5 1.6 0 1.6 0.4 2 1.5 1.6 0.9 -0.3 1.5 0 1.5 1 0 1 -0.8 1.4 -2.2 1.2 -1.7 -0.2 -2.4 -1.1 -2.6 -3 -0.4 -3.8 -2.2 -3.6 -2.2 0.2 0 1.7 -0.4 3 -1 3 -0.5 0 -1 -1.8 -1 -3.9z"/>
  <path d="M104 176.1 c0 -2.8 0.5 -5.3 1 -5.6 0.6 -0.3 1 0 1 0.8 0 0.8 0.9 1.7 2 2 1.5 0.4 2 1.4 2 4.1 0 2 -0.4 3.6 -1 3.6 -0.5 0 -1 -1.3 -1 -3 0 -1.6 -0.4 -3 -1 -3 -0.5 0 -1 1.4 -1 3 0 1.7 -0.4 3 -1 3 -0.5 0 -1 -2.2 -1 -4.9z"/>
  <path d="M30.7 151.9 c-4.6 -2.7 -6.2 -15.3 -2.9 -21.9 2.3 -4.7 6.1 -6.5 10.7 -5 4.6 1.5 6.5 4.8 3.9 6.7 -1.5 1.1 -2.1 1 -4 -0.8 -4 -3.8 -7.4 -0.1 -7.4 8.1 0 8 3.5 11.8 7.4 8.1 1.8 -1.7 2.4 -1.8 3.9 -0.7 2 1.5 1.4 4.2 -1.4 5.6 -2.3 1.3 -7.9 1.2 -10.2 -0.1z"/>
  <path d="M47 139 l0 -14 5.4 0 c6.9 0 8.3 0.6 10.1 4.1 2 3.8 1.9 7.8 -0.4 11.3 -1.7 2.6 -1.8 3.3 -0.7 5.5 0.8 1.4 1.7 3.6 2 4.9 0.6 1.9 0.4 2.2 -1.8 2.2 -2 0 -2.9 -0.9 -4.5 -4.6 -2.5 -5.5 -4.5 -5.4 -4.9 0.4 -0.3 3.7 -0.6 4.2 -2.8 4.2 l-2.4 0 0 -14z m10.8 -1.2 c2.9 -2.9 0.7 -7.8 -3.5 -7.8 -2.1 0 -2.3 0.5 -2.3 4.5 0 4 0.2 4.5 2.3 4.5 1.3 0 2.8 -0.5 3.5 -1.2z"/>
  <path d="M66 152.3 c0 -0.5 1.4 -6.8 3.2 -14.1 l3.1 -13.3 3 0.3 c3 0.3 3.1 0.4 6.3 13.8 1.8 7.4 3.3 13.6 3.4 13.8 0 0.1 -1.3 0.2 -3 0.2 -2.3 0 -3 -0.5 -3 -1.9 0 -1.3 -0.9 -2 -3 -2.3 -3.1 -0.5 -5 0.7 -5 2.9 0 0.7 -1.1 1.3 -2.5 1.3 -1.4 0 -2.5 -0.3 -2.5 -0.7z m10.9 -11 c-0.1 -1.6 -0.4 -3.9 -0.9 -5.3 -0.8 -2.9 -1.5 -1.8 -2.5 4.3 -0.5 3.3 -0.4 3.7 1.5 3.7 1.5 0 2 -0.6 1.9 -2.7z"/>
 </g>
 <g fill="#f26522">
  <path d="M30 98.5 c0 -2.8 3.2 -9.5 4.6 -9.5 0.8 0 1.4 -0.8 1.4 -1.9 0 -5 15.7 -14.4 26 -15.6 3.3 -0.4 6.4 -1.3 7.1 -2.1 0.6 -0.8 1.8 -1.4 2.5 -1.4 0.8 0 1.4 -0.6 1.4 -1.2 0 -1.3 5.9 -5.2 6.6 -4.5 0.2 0.2 -1.4 2.8 -3.5 5.8 -4.1 5.7 -10.8 11.3 -17.8 14.8 -4.8 2.4 -15.2 5.3 -16.3 4.6 -1.2 -0.7 -5.7 5 -7.1 9 -1.3 3.5 -4.9 5 -4.9 2z"/>
 </g>
 <g fill="#c60b46">
  <path d="M25.2 97.4 c-6.1 -3 -6.6 -4.4 -1.7 -4.4 1.9 0 3.5 0.5 3.5 1 0 0.6 1.8 1 4 1 3.7 0 3.9 0.2 3.1 2.3 -1.2 3.1 -2.8 3.1 -8.9 0.1z"/>
  <path d="M34 92.6 c0 -0.9 -1.9 -1.5 -5.7 -1.9 -3.2 -0.3 -6.8 -0.9 -8 -1.2 -1.6 -0.5 -2.2 -0.2 -2.5 1.1 -0.5 2.6 -7.1 -4.4 -10.3 -11 -2.8 -5.7 -4.2 -12.6 -2.6 -12.6 0.6 0 0.8 0.7 0.4 1.7 -0.6 1.4 0.1 1.5 5.8 1.1 3.5 -0.3 9.4 -1.7 13.2 -3.2 l6.7 -2.7 5.8 2.8 c5.2 2.6 6.7 2.8 16.7 2.8 10.5 0 11.3 -0.1 18 -3.5 3.9 -1.9 7.4 -3.6 7.9 -3.8 1.3 -0.6 -4.8 8 -7 10 -1.1 0.9 -4.5 1.9 -7.8 2.3 -8.4 1.1 -18.5 6.4 -24.1 12.8 -2.5 2.8 -4.5 5.5 -4.5 5.9 0 0.5 -0.4 0.8 -1 0.8 -0.5 0 -1 -0.6 -1 -1.4z"/>
 </g>
 <g fill="#197f65">
  <path d="M91.7 22.9 c-1.5 -0.4 -5.8 -1.1 -9.5 -1.4 -4.8 -0.5 -7.4 -1.4 -9.2 -2.9 -4.6 -4 -6 -4.8 -12.3 -7.2 l-6.2 -2.3 6.1 0 c12.2 -0.2 23.1 3.5 31 10.3 4.3 3.7 4.3 4.7 0.1 3.5z"/>
 </g>
 <g fill="#223e99">
  <path d="M3.8 65.9 c-1.4 -12.7 4 -27.4 13.6 -37.4 3.2 -3.3 5.4 -5.1 5 -4 -2.4 6.8 -3.5 12.6 -3 17.2 0.2 2.8 0.1 5.3 -0.3 5.5 -1.6 0.7 -7.5 9.1 -11 15.8 l-3.9 7.3 -0.4 -4.4z"/>
 </g>
 <g fill="#8a0052">
  <path d="M25.5 97.4 c-6 -3 -12.7 -9.2 -16.6 -15.3 -3.9 -6.1 -3.6 -6.9 1 -3.2 6.3 5 14.6 8.3 22.1 8.9 l6.6 0.4 -3 5.9 c-1.7 3.2 -3.5 5.9 -4.1 5.9 -0.5 0 -3.2 -1.2 -6 -2.6z"/>
 </g>
 <g fill="#000000">
  <path d="M28.2 194.2 c-0.9 -1.2 -1.4 -1.4 -1.8 -0.4 -1.3 2.8 -2.2 0.9 -1.2 -2.5 1.5 -5.7 2.4 -5.9 3.8 -0.8 1.4 5 1.1 6.3 -0.8 3.7z"/>
  <path d="M32.5 195 c-0.3 -0.5 0.1 -1 0.9 -1 2 0 2.1 -1.6 0.1 -2.4 -2.4 -0.9 -1.8 -3.6 0.8 -3.5 1.6 0.1 1.8 0.2 0.5 0.6 -2.2 0.6 -2.3 1.2 -0.1 2.8 0.9 0.7 1.4 1.9 1 2.9 -0.7 1.8 -2.3 2.1 -3.2 0.6z"/>
  <path d="M38.5 195 c-0.3 -0.5 0.1 -1 0.9 -1 2.1 0 2 -1 -0.1 -2.5 -1.9 -1.4 -0.9 -3.6 1.5 -3.4 1.5 0.1 1.5 0.2 0 0.6 -2.3 0.6 -2.3 1.5 0.2 3.1 1.1 0.7 1.7 1.8 1.4 2.7 -0.7 1.7 -3 2 -3.9 0.5z"/>
  <path d="M44.4 193.5 c-0.8 -3.2 0.1 -5.5 2.1 -5.5 0.9 0 1.8 0.7 2.1 1.5 0.9 2.3 -0.5 6.5 -2.1 6.5 -0.8 0 -1.7 -1.1 -2.1 -2.5z m3.4 -1.7 c-0.5 -3.2 -2.8 -3.5 -2.8 -0.4 0 1.7 0.5 2.6 1.6 2.6 1 0 1.4 -0.7 1.2 -2.2z"/>
  <path d="M51.1 193.8 c-0.5 -1.3 -0.5 -3.1 0.1 -4 0.9 -1.9 3.8 -2.5 3.8 -0.7 0 0.5 -0.5 0.7 -1.1 0.3 -1.4 -0.8 -2.9 1.4 -2.2 3.3 0.3 0.7 1.2 1.3 2 1.3 0.8 0 1.1 0.5 0.8 1 -1 1.7 -2.5 1.1 -3.4 -1.2z"/>
  <path d="M59.6 194.4 c-0.8 -2 0.1 -3.4 2 -3.4 0.8 0 1.4 -0.5 1.4 -1.1 0 -0.6 -0.7 -0.9 -1.5 -0.5 -0.8 0.3 -1.5 0.1 -1.5 -0.5 0 -2.5 3.5 -0.2 3.8 2.5 0.5 3.9 -2.9 6.3 -4.2 3z m3.1 -2 c-0.9 -0.9 -2.8 0.6 -2.1 1.8 0.4 0.6 1 0.6 1.7 -0.1 0.6 -0.6 0.8 -1.3 0.4 -1.7z"/>
  <path d="M66.6 195.2 c-0.8 -1.3 -1.1 -8 -0.4 -8.7 0.3 -0.3 1.1 0.1 1.8 1 0.8 1 0.9 1.5 0.1 1.5 -0.6 0 -1.1 1.1 -1.1 2.5 0 1.4 0.5 2.5 1 2.5 0.6 0 1 0.5 1 1 0 1.2 -1.7 1.3 -2.4 0.2z"/>
  <path d="M73.4 193.6 c-0.8 -3.5 0.2 -5.8 2.3 -5.4 2.5 0.5 2.5 7.1 0.1 7.6 -1.2 0.2 -1.9 -0.5 -2.4 -2.2z m3.6 -2.2 c0 -3.1 -2.3 -2.8 -2.8 0.4 -0.2 1.5 0.2 2.2 1.2 2.2 1.1 0 1.6 -0.9 1.6 -2.6z"/>
  <path d="M80.2 192.2 c-0.2 -4 0 -4.3 2.1 -4 1.8 0.2 2.2 1 2.4 4.3 0.1 4 0.1 4 -0.5 0.6 -1 -4.9 -3 -5.1 -3.5 -0.4 l-0.4 3.8 -0.1 -4.3z"/>
  <path d="M57.2 192 c0 -1.9 0.2 -2.7 0.5 -1.7 0.2 0.9 0.2 2.5 0 3.5 -0.3 0.9 -0.5 0.1 -0.5 -1.8z"/>
  <path d="M70.2 192 c0 -1.9 0.2 -2.7 0.5 -1.7 0.2 0.9 0.2 2.5 0 3.5 -0.3 0.9 -0.5 0.1 -0.5 -1.8z"/>
  <path d="M52.5 183 c-0.3 -0.5 0.1 -1 0.9 -1 0.9 0 1.6 -0.4 1.6 -1 0 -0.5 -0.7 -1 -1.5 -1 -1.7 0 -2.2 -5.5 -0.6 -6.4 2.2 -1.4 4.1 0.7 4.1 4.3 0 4.7 -2.8 7.9 -4.5 5.1z m2.7 -5.2 c0.7 -1.8 -0.2 -3.9 -1.3 -3.2 -1.2 0.7 -1.2 4.4 0 4.4 0.5 0 1.1 -0.6 1.3 -1.2z"/>
  <path d="M24.1 178.9 c-0.1 -3.5 0.3 -4.8 1.6 -5.3 1.6 -0.7 3.3 0.8 3.3 3.1 0 2.2 -1.2 4.3 -2.5 4.3 -0.7 0 -1.6 0.6 -1.8 1.3 -0.3 0.6 -0.6 -0.9 -0.6 -3.4z m3.9 -1.9 c0 -1 -0.5 -2.2 -1 -2.5 -1.3 -0.8 -2.4 2 -1.6 4.1 0.8 2 2.6 0.9 2.6 -1.6z"/>
  <path d="M1.2 179.8 c-1.7 -1.7 -1.5 -6.3 0.3 -7.8 1.6 -1.4 4.5 -0.7 4.5 1.1 0 0.8 -0.5 0.8 -1.6 -0.2 -1.3 -1 -1.7 -1 -2.5 0.2 -1.8 2.9 -0.2 7.8 2.1 6.4 0.9 -0.5 1.1 -0.4 0.6 0.3 -0.9 1.5 -1.9 1.5 -3.4 0z"/>
  <path d="M7.7 180.4 c-1.4 -1.4 -0.7 -6.2 1 -6.8 2.3 -0.9 3.5 0.6 3.1 4 -0.3 2.8 -2.6 4.3 -4.1 2.8z m3.3 -3.4 c0 -1 -0.5 -2.2 -1 -2.5 -1.3 -0.8 -2.4 2 -1.6 4.1 0.8 2 2.6 0.9 2.6 -1.6z"/>
  <path d="M14.1 177.8 c0 -2.1 0.2 -3.8 0.7 -3.9 5.9 -0.8 6.7 -0.4 6.9 3.1 0.1 1.9 -0.1 2.6 -0.3 1.5 -1.2 -4.7 -1.5 -5.1 -2.6 -3.2 -0.5 1 -0.7 2.5 -0.4 3.3 0.3 0.8 0.1 1.4 -0.4 1.4 -0.6 0 -1 -1.4 -1 -3.2 0 -3.9 -1.7 -2.6 -2.3 1.7 -0.4 2.7 -0.4 2.6 -0.6 -0.7z"/>
  <path d="M31.2 179.8 c-1.5 -1.5 -1.6 -5.8 -0.1 -5.8 0.5 0 0.7 0.5 0.4 1 -0.8 1.3 0.4 5 1.6 5 0.5 0 0.9 -1.3 0.9 -3 0 -1.6 0.4 -3 0.9 -3 1.1 0 0.9 3.9 -0.3 5.8 -0.9 1.5 -1.9 1.5 -3.4 0z"/>
  <path d="M38.5 179.8 c-0.9 -2.6 -1 -6.3 -0.1 -6.3 0.5 0 0.9 1.7 1 3.8 0.2 3.8 -0.1 4.7 -0.9 2.5z"/>
  <path d="M49 178 c-0.6 -4.3 -2.3 -4.6 -3.1 -0.5 l-0.7 3 -0.1 -3.1 c-0.1 -2.1 0.5 -3.4 1.6 -3.8 2.4 -1 3.5 0.7 3.1 4.5 l-0.4 3.4 -0.4 -3.5z"/>
  <path d="M65.1 179.3 c-0.9 -1.6 -1.2 -1.6 -2.1 -0.3 -0.7 1.1 -1 0.3 -1 -3.2 0 -4.7 0.9 -5.8 3.6 -4 0.9 0.5 1.6 9.2 0.7 9.2 -0.1 0 -0.7 -0.8 -1.2 -1.7z m0.6 -5.7 c-0.4 -0.9 -1.1 -1.6 -1.7 -1.6 -1.1 0 -1.4 3.3 -0.3 4.4 1.1 1 2.6 -1.1 2 -2.8z"/>
  <path d="M69 179.5 c-1 -1.2 -1 -2.1 -0.2 -4 1.4 -3 2.8 -3.2 4.2 -0.5 0.7 1.4 0.7 2 0 2 -0.5 0 -1 -0.7 -1 -1.5 0 -0.8 -0.4 -1.5 -1 -1.5 -0.5 0 -1 1.4 -1 3.1 0 2.4 0.4 3 1.6 2.5 0.8 -0.3 1.2 -0.2 0.9 0.4 -0.9 1.4 -2.1 1.2 -3.5 -0.5z"/>
  <path d="M75.4 179.8 c-0.5 -0.7 -0.2 -0.9 0.8 -0.5 2.6 0.9 2.9 -0.4 0.6 -2.3 -1.2 -0.9 -1.8 -2.2 -1.4 -2.8 0.9 -1.5 3.6 -1.6 3.6 -0.2 0 0.5 -0.3 0.9 -0.7 0.9 -2.2 -0.4 -2.3 0.3 -0.3 1.9 1.3 1.1 2 2.4 1.6 3 -0.9 1.5 -3.3 1.5 -4.2 0z"/>
  <path d="M81.4 178.4 c-0.4 -1.7 -0.1 -3.1 0.9 -4.1 1.7 -1.8 3.7 -1 3.7 1.5 -0.1 1.5 -0.2 1.5 -1.1 -0.1 -1.3 -2.2 -2.6 -1.4 -2.4 1.5 0.1 1.5 0.8 2.2 1.8 2.2 0.9 -0.1 1.4 0.2 1.1 0.7 -1.1 1.8 -3.4 0.8 -4 -1.7z"/>
  <path d="M87.7 179.5 c-0.4 -0.8 -0.2 -1.7 0.3 -2 0.6 -0.4 1 0.1 1 1 0 0.9 0.4 1.4 0.9 1.1 0.5 -0.3 0.9 -1.7 0.9 -3.1 0 -2 -0.4 -2.5 -1.7 -2 -1.2 0.5 -1.3 0.3 -0.4 -0.6 0.6 -0.6 1.6 -0.8 2.2 -0.5 1.7 1.1 1.3 6.3 -0.5 7 -2.1 0.8 -2.1 0.8 -2.7 -0.9z"/>
  <path d="M99.2 179.8 c-1.7 -1.7 -1.5 -4.3 0.3 -5.8 1.3 -1.1 1.8 -1.1 2.8 0 1 1 0.9 1.2 -0.5 0.7 -0.9 -0.3 -1.9 0 -2.2 0.9 -0.8 2.2 0.4 4.3 2.1 3.7 1.1 -0.4 1.4 -0.2 0.9 0.5 -0.9 1.5 -1.9 1.5 -3.4 0z"/>
  <path d="M42.2 177 c0 -1.9 0.2 -2.7 0.5 -1.7 0.2 0.9 0.2 2.5 0 3.5 -0.3 0.9 -0.5 0.1 -0.5 -1.8z"/>
  <path d="M94.1 177.4 c-0.1 -2 0.5 -3.4 1.4 -3.8 1.7 -0.6 2 0.5 0.6 2 -0.5 0.5 -1.1 1.8 -1.4 2.9 -0.3 1.3 -0.5 1 -0.6 -1.1z"/>
  <path d="M105 179.5 c-0.4 -1.9 -0.7 -8.5 -0.3 -8.5 0.1 0 1.4 1 2.8 2.2 2.5 2.1 3.5 6.8 1.4 6.8 -0.6 0 -0.8 -0.8 -0.5 -1.7 0.3 -1 0.1 -2.5 -0.4 -3.3 -1 -1.6 -1.3 -1.1 -2.3 3.5 -0.3 1.1 -0.6 1.6 -0.7 1z"/>
 </g>
</svg>