<?xml version="1.0" encoding="utf-8"?>
<!DOCTYPE svg PUBLIC "-//W3C//DTD SVG 20010904//EN" "http://www.w3.org/TR/2001/REC-SVG-20010904/DTD/svg10.dtd">
<svg version="1.0" xmlns="http://www.w3.org/2000/svg" width="200px" height="200px" viewBox="0 0 200 200" preserveAspectRatio="xMidYMid meet">
 <g fill="#f8a31b">
  <path d="M0 100 l0 -100 100 0 100 0 0 100 0 100 -100 0 -100 0 0 -100z m133.2 70.5 c1.6 -2.2 -1.6 -3.5 -9.1 -3.5 -4.2 0 -8.1 -0.4 -8.8 -0.8 -2.1 -1.3 -3.3 -6.1 -3.3 -13.1 l0 -6.8 6 -0.7 c32.2 -3.7 57.1 -26.7 52.9 -49 -3.3 -17.8 -17.7 -30.3 -41.6 -36.1 -5.4 -1.3 -11.5 -2.6 -13.5 -3 l-3.8 -0.6 0 -16.9 c0 -12.4 -0.3 -16.9 -1.2 -17.2 -0.7 -0.3 -4.5 0.5 -8.4 1.8 -6.1 1.8 -18 4.3 -34.9 7.3 -3.1 0.5 -4 1.1 -4 2.6 0 1.7 0.9 2.1 5.5 2.6 10.1 1.1 12.9 1.9 14.2 4.2 1 1.7 1.3 12.3 1.3 44.9 l-0.1 42.6 3.6 0.6 c4.6 0.8 15.5 0.7 20.3 0 l3.7 -0.7 0 -32.5 0 -32.4 5.8 0.4 c11.8 1 22.3 7.2 25.9 15.3 2.6 6.2 3.2 33.4 0.7 41.1 -2.5 8.1 -8.9 14.4 -16.9 16.7 -19.3 5.5 -49.6 4.7 -62.2 -1.6 -11.6 -5.9 -14.7 -13.4 -14.7 -35.2 0 -13.4 0.2 -15.5 2.2 -20 1.3 -2.7 3 -5.8 4 -6.8 2.5 -2.8 8 -6.1 13 -7.7 3.6 -1.1 4.2 -1.7 4.2 -4.2 0 -3.6 -1.3 -3.6 -11.4 -0.3 -19.9 6.5 -31 15.8 -35.7 30.1 -2.4 7.3 -2.4 12.6 0 19.7 3.5 10 10.5 18.3 20.9 24.3 6.1 3.6 20 8.2 28.9 9.6 l7.5 1.2 -0.4 8.7 c-0.1 4.9 -0.8 9.3 -1.5 10 -0.6 0.6 -5 1.4 -9.6 1.8 -9 0.7 -10.3 1.1 -9.4 3.4 0.4 1.1 6.4 1.4 34.9 1.3 20.8 -0.1 34.6 -0.5 35 -1.1z"/>
 </g>
 <g fill="#fffffe">
  <path d="M60.1 173.6 c-2.4 -2.9 -1.1 -8.4 2.2 -9 1.2 -0.3 5.3 -0.7 9 -0.9 3.8 -0.3 7.4 -1 8 -1.6 0.6 -0.6 1.3 -3.7 1.5 -6.9 l0.4 -5.8 -7.5 -1.2 c-14.5 -2.2 -28.7 -8.2 -37.5 -15.8 -19.8 -16.9 -18.8 -48.8 2 -63.5 9.9 -6.9 24.2 -12.5 33.8 -13.1 l4.5 -0.3 0.3 6.1 0.3 6.1 -4.3 1.3 c-5 1.6 -10.5 4.9 -13 7.7 -1 1 -2.7 4.1 -4 6.8 -1.9 4.3 -2.2 6.7 -2.2 17 0 13.8 1.7 20.5 6.7 26.2 9.9 11.2 39.4 14.7 64.2 7.6 8 -2.3 14.4 -8.6 16.9 -16.8 2.4 -7.4 1.9 -28.8 -0.8 -35 -3 -7 -12 -13 -22.8 -15.2 l-2.8 -0.5 0 32.4 0 32.5 -3.7 0.7 c-4.9 0.8 -21.7 0.8 -26.7 -0.1 l-3.8 -0.6 0.7 -27.4 c0.8 -30.5 -0.1 -58.3 -1.9 -60.9 -0.8 -1 -3.9 -1.9 -9.2 -2.6 -9.6 -1.2 -10.8 -1.8 -11.2 -5.1 -0.6 -4.6 1.3 -6.4 7 -7.2 9.6 -1.3 28.2 -5.3 36.2 -7.8 6.2 -2.1 8.3 -2.3 10.2 -1.5 2.9 1.3 2.7 -0.3 2.4 19 l-0.2 15.7 3.9 0.6 c33.9 5.6 51.6 18.5 55.5 40.5 3.9 22.2 -11.6 42.2 -39.1 50.5 -4.5 1.3 -10.8 2.7 -14.1 3.1 l-6 0.7 0 3.8 c0 4.3 1.5 9 3.3 10.1 0.7 0.4 4.7 0.8 8.9 0.8 7.2 0 7.9 0.2 9.4 2.5 1.3 2.1 1.4 3 0.5 5.3 l-1.2 2.8 -37.4 0.1 c-26.4 0 -37.8 -0.3 -38.4 -1.1z"/>
 </g>
</svg>