<?xml version="1.0" encoding="utf-8"?>
<!DOCTYPE svg PUBLIC "-//W3C//DTD SVG 20010904//EN" "http://www.w3.org/TR/2001/REC-SVG-20010904/DTD/svg10.dtd">
<svg version="1.0" xmlns="http://www.w3.org/2000/svg" width="200px" height="200px" viewBox="0 0 200 200" preserveAspectRatio="xMidYMid meet">
 <g fill="#175fa7">
  <path d="M4 119 c0 -9.9 0 -10 2.4 -10 1.7 0 3.6 1.5 6.5 5.1 l4.1 5.2 0 -5.2 c0 -5.1 0.1 -5.2 2.7 -4.9 l2.7 0.3 0 9.5 c-0.1 9.3 -0.1 9.5 -2.5 9.7 -1.9 0.2 -3.3 -0.9 -6.4 -4.9 l-4 -5.3 -0.3 5.3 c-0.3 4.8 -0.5 5.2 -2.8 5.2 -2.4 0 -2.4 -0.1 -2.4 -10z"/>
  <path d="M30.5 126.6 c-2.8 -2.9 -4 -6.6 -3.1 -10.2 1.9 -7.6 12 -10.2 17.7 -4.5 4.1 4.1 4.1 10.1 0 14.2 -3.9 3.9 -10.9 4.1 -14.6 0.5z m11.1 -5.1 c1.5 -2.3 1.5 -2.7 0 -5 -3 -4.6 -8.6 -2.5 -8.6 3.2 0 4.6 5.9 5.9 8.6 1.8z"/>
  <path d="M51.9 128.6 c-0.2 -0.2 -0.3 -4.7 -0.1 -10 l0.3 -9.6 5.5 0 c5.4 0 9.2 1.2 10.6 3.4 1.4 2.1 0.8 6.3 -1.2 8.1 -1.9 1.7 -1.9 1.8 0 4.3 2.7 3.4 2.5 4.2 -0.9 4.2 -2.3 0 -3.4 -0.7 -4.8 -3 -0.9 -1.6 -2.3 -3 -3 -3 -0.8 0 -1.3 1.2 -1.3 3 0 2.5 -0.4 3 -2.3 3 -1.3 0 -2.6 -0.2 -2.8 -0.4z m10.9 -12.4 c0.3 -1.9 -0.2 -2.2 -2.7 -2.2 -2.3 0 -3.1 0.5 -3.1 1.8 0 2.5 0.9 3.2 3.4 2.8 1.3 -0.2 2.2 -1.2 2.4 -2.4z"/>
  <path d="M78 121.5 l0 -7.5 -3 0 c-2.5 0 -3 -0.4 -3 -2.5 0 -2.5 0.1 -2.5 9 -2.5 8.9 0 9 0 9 2.5 0 2.1 -0.5 2.5 -3 2.5 l-3 0 0 7.5 0 7.5 -3 0 -3 0 0 -7.5z"/>
  <path d="M93 119.1 l0 -10.1 3 0 c2.8 0 3 0.3 3 3.5 0 3.3 0.2 3.5 3.5 3.5 3.3 0 3.5 -0.2 3.5 -3.5 0 -3.1 0.3 -3.5 2.5 -3.5 l2.5 0 0 10 c0 9.9 0 10 -2.4 10 -2.1 0 -2.5 -0.5 -2.8 -3.7 -0.3 -3.5 -0.6 -3.8 -3.5 -4.1 -3 -0.3 -3.2 -0.1 -3.5 3.5 -0.3 3.3 -0.7 3.8 -3 4.1 l-2.8 0.3 0 -10z"/>
  <path d="M118 119 l0 -10 8 0 c7.8 0 8 0.1 8 2.4 0 2.3 -0.4 2.5 -5.2 2.8 -6.6 0.4 -6.9 2.2 -0.5 2.6 3.8 0.3 4.7 0.7 4.7 2.2 0 1.5 -0.9 1.9 -4.7 2.2 -6.3 0.4 -5.7 2.2 0.7 2.6 4.6 0.3 5 0.5 5 2.8 0 2.3 -0.2 2.4 -8 2.4 l-8 0 0 -10z"/>
  <path d="M140.3 119 c3 -7.4 4.6 -10 5.9 -10 1 0 1.8 -0.5 1.8 -1.1 0 -2.5 2.8 2.3 6.3 10.8 2 5.1 3.7 9.5 3.7 9.8 0 1.5 -5.7 0.3 -6.8 -1.5 -0.8 -1.3 -2.3 -2 -4.2 -2 -1.9 0 -3.3 0.7 -4 2 -0.7 1.3 -2.1 2 -4 2 l-2.8 0 4.1 -10z m8.7 1.6 c0 -1.2 -1.3 -3.6 -2 -3.6 -0.4 0 -1 0.9 -1.3 2 -0.4 1.5 0 2 1.4 2 1 0 1.9 -0.2 1.9 -0.4z"/>
  <path d="M161.3 128 c-2.5 -1 -2.7 -1.7 -1.4 -3.9 0.7 -1.1 1.5 -1.1 4.5 -0.1 3.4 1.1 5.6 0.8 5.6 -0.9 0 -0.5 -2 -1.4 -4.5 -2 -9.6 -2.4 -8.2 -12.1 1.8 -12.1 5.6 0 8.3 1.8 6.5 4.3 -1.1 1.5 -1.8 1.6 -4.2 0.8 -1.5 -0.6 -3.2 -0.9 -3.7 -0.5 -1.8 1.1 -0.8 2.3 2.5 2.9 4.9 1 7.9 4.1 7.1 7.3 -0.3 1.4 -1.4 3.2 -2.3 3.9 -1.9 1.4 -8.6 1.6 -11.9 0.3z"/>
  <path d="M184 121.5 l0 -7.5 -3 0 c-2.5 0 -3 -0.4 -3 -2.5 0 -2.5 0.1 -2.5 8.5 -2.5 8.4 0 8.5 0 8.5 2.5 0 2.1 -0.5 2.5 -3 2.5 l-3 0 0 7.5 c0 7.3 -0.1 7.5 -2.5 7.5 -2.4 0 -2.5 -0.2 -2.5 -7.5z"/>
  <path d="M85.2 104.8 c-1.6 -1.6 -1.5 -3.3 0.3 -4.8 3 -2.5 1.6 -4.4 -5.5 -7.8 -9.3 -4.3 -18.1 -12.6 -22.1 -20.7 -2.4 -4.9 -3.2 -8.1 -3.6 -14.4 -0.5 -7.4 -0.8 -8.1 -2.4 -7.6 -2 0.7 -2.5 -1 -1 -3.4 0.6 -0.9 1.1 -1 1.5 -0.2 1.3 2 2.3 1.2 3.5 -2.8 1.4 -4.9 8.6 -14.7 13.4 -18.4 2.1 -1.5 6.7 -4.2 10.4 -5.9 5.8 -2.8 8 -3.2 18.2 -3.7 9.4 -0.5 11.6 -0.9 11.7 -2.1 0 -0.8 0.3 -2.2 0.7 -3 0.4 -0.8 0.8 -3.1 1 -5 0.3 -3 0.6 -3.5 2.7 -3.2 3 0.3 4.9 2 3.4 3 -1.4 0.9 -2.8 4.3 -2.5 6 0.1 0.8 -0.4 2 -1.1 2.9 -1 1.3 -0.9 1.8 0.7 2.9 1 0.8 2.6 1.4 3.4 1.4 2.8 0 14.9 8 18.9 12.5 7.7 8.7 12.2 22.2 10.3 30.6 -1.5 6.4 -1.4 7.1 0.9 6.4 1.5 -0.5 2 -0.2 2 1.4 0 2.3 -1.6 3.6 -2.5 2.1 -1.2 -1.9 -2.3 -1 -4.5 3.5 -1.2 2.4 -4.8 6.9 -8 9.9 -10 9.2 -21.3 13.1 -36.4 12.4 l-8.1 -0.3 -0.5 4.5 c-0.5 4.7 -2.4 6.2 -4.8 3.8z m23.3 -13.8 c3.9 -0.5 9.3 -1.9 12 -3.2 l5 -2.3 -11.5 -0.6 c-6.3 -0.3 -12.7 -0.9 -14.2 -1.3 -3.3 -1 -5.3 0.7 -5.4 4.6 -0.2 2.3 0.3 2.7 3 3.1 1.7 0.2 3.3 0.4 3.6 0.5 0.3 0.1 3.7 -0.3 7.5 -0.8z m-19.9 -4.3 c1.6 -3.5 0 -6.3 -4.3 -7.7 -9.9 -3.3 -20.2 -10.6 -24.4 -17.5 -2.9 -4.7 -2.4 -0.4 0.7 6.2 3.1 6.6 11.6 15.3 18.2 18.7 6 3.2 8.4 3.2 9.8 0.3z m19.4 -12.6 c0 -0.5 -1.2 -1.9 -2.7 -3.1 -1.6 -1.2 -3.1 -2.9 -3.4 -3.8 -0.6 -1.5 -0.8 -1.5 -1.4 0.3 -0.3 1.1 -1.1 2.8 -1.5 3.7 -0.8 1.4 -0.3 1.8 3.3 2.6 5.7 1.3 5.7 1.3 5.7 0.3z m19.6 -1.2 c5.8 -3.6 4.4 -4.5 -8.7 -5.9 -7.3 -0.7 -8.4 -1.1 -10.5 -3.6 -3.1 -3.9 -3 -2.6 0.5 5.1 l3 6.5 6.2 0 c4.5 0 7.1 -0.6 9.5 -2.1z m-34.3 -4.3 c-0.3 -1.3 0 -3.3 0.6 -4.5 1.4 -2.4 -0.1 -2.8 -2 -0.5 -0.8 0.9 -2.6 1.5 -4.8 1.3 -5.1 -0.3 -8.5 0 -7.9 0.7 0.9 0.8 12.1 5.3 13.4 5.4 0.6 0 0.9 -1 0.7 -2.4z m37.7 -3.1 c0 -2.7 -3.2 -6.5 -7.7 -9.1 -4.3 -2.6 -4.4 -2.6 -8 -0.9 l-3.7 1.8 4.8 2.6 c14.8 8 14.6 7.9 14.6 5.6z m12.9 -9.2 c0.2 -14.2 -10.8 -28.3 -26.8 -34.3 l-5.1 -2 0.6 2.4 c0.3 1.5 0 2.9 -1.1 4 -1 1 -1.4 2.4 -1 3.7 0.4 1.2 0.1 2.7 -0.9 3.8 -0.8 0.9 -1.4 2.9 -1.3 4.5 0.2 2.5 1 3.1 8.5 6.1 10.8 4.4 19 10 22.7 15.6 3.5 5.2 4.3 4.5 4.4 -3.8z m-61.8 4.6 l4.1 -2 -4.6 -3 c-4.7 -2.9 -11.1 -5.9 -12.7 -5.9 -1.7 0 -0.9 5.8 1.2 8.4 1.9 2.5 4.9 4.4 7.2 4.5 0.4 0.1 2.6 -0.8 4.8 -2z m10.6 -7.1 c-0.2 -0.7 -1 -3 -1.8 -5 l-1.3 -3.8 -6.8 0 c-6.3 0 -11.8 1.4 -11.8 3 0 1 6.3 2 12.2 2 3.8 0 5 0.5 6.5 2.5 1.9 2.6 3.8 3.4 3 1.3z m16.1 -3.2 c0.5 -2.5 -2.2 -1.9 -3.4 0.8 -1 2.2 -1 2.4 1 1.7 1.1 -0.5 2.2 -1.6 2.4 -2.5z m-10.8 -2.5 c0 -1.2 -0.9 -2 -2.5 -2.3 l-2.5 -0.5 2.2 2.2 c2.9 2.9 2.8 2.9 2.8 0.6z m-31.2 -8.4 c5.9 -2.4 16.3 -3.1 25.3 -1.7 7.5 1.2 8.1 1.1 9.4 -0.6 0.8 -1.1 1.5 -3.3 1.5 -5.1 0 -1.7 0.5 -3.3 1.2 -3.5 0.7 -0.3 1.1 -1.9 1 -4.1 -0.2 -2 0.2 -3.7 0.8 -3.7 0.5 0 1 -0.5 1 -1.1 0 -0.8 -3 -1 -10.3 -0.7 -8.9 0.4 -11.3 0.9 -17 3.6 -8.4 3.9 -15.9 10.9 -19.2 17.8 -3.1 6.6 -3.1 7.3 0 3.6 1.4 -1.6 4.2 -3.7 6.3 -4.5z"/>
 </g>
 <g fill="#2e2f31">
  <path d="M5.3 181 c0 -3.6 0.2 -5 0.4 -3.2 0.2 1.7 0.2 4.7 0 6.5 -0.2 1.7 -0.4 0.3 -0.4 -3.3z"/>
  <path d="M13.2 181.3 c-0.1 -3.5 0.2 -6.3 0.7 -6.3 0.5 0 2.4 2 4.2 4.5 1.9 2.4 3.7 4.5 4.1 4.5 0.4 0 0.9 -2.1 1.1 -4.7 0.3 -4.3 0.4 -4.2 0.5 1.5 0.1 3.4 -0.1 6.2 -0.5 6.2 -0.5 -0.1 -2.6 -2.4 -4.8 -5.3 l-4 -5.2 -0.6 5.5 -0.6 5.5 -0.1 -6.2z"/>
  <path d="M31.2 181 l-0.1 -6.5 4.4 5 4.4 5 0.4 -5 c0.3 -4.8 0.3 -4.8 0.5 1.3 0.1 3.4 0 6.2 -0.3 6.2 -0.2 0 -2.2 -2.3 -4.4 -5 l-4 -5 -0.4 5.2 c-0.3 5.1 -0.3 5.1 -0.5 -1.2z"/>
  <path d="M48.6 185.4 c-3.2 -3.2 -1.5 -9.5 3 -10.8 3 -0.9 7.4 2.8 7.4 6.3 0 5.2 -6.8 8.2 -10.4 4.5z m8.6 -1.9 c1.7 -3.7 -0.3 -7.5 -4 -7.5 -3.5 0 -5.2 1.6 -5.2 5 0 3.4 1.7 5 5.2 5 2.1 0 3.2 -0.7 4 -2.5z"/>
  <path d="M65.4 181.4 c-1.4 -3.1 -2.3 -5.9 -2 -6.1 0.2 -0.3 1.5 1.9 2.7 4.8 l2.3 5.3 2.4 -5.3 c1.3 -2.9 2.6 -5.1 2.8 -4.8 0.5 0.5 -4.4 11.7 -5.1 11.7 -0.4 0 -1.7 -2.5 -3.1 -5.6z"/>
  <path d="M77 186.8 c0 -1.2 5.4 -11.8 6 -11.8 0.7 0 2.3 3 4.7 9 1.1 3 1.1 3.2 0 1.8 -0.8 -1.1 -2.8 -1.8 -4.7 -1.8 -2 0 -3.8 0.7 -4.6 1.8 -0.7 0.9 -1.4 1.4 -1.4 1z m8 -4.5 c0 -1.9 -1.3 -5.3 -2 -5.3 -0.6 0 -3 4.4 -3 5.5 0 0.3 1.1 0.5 2.5 0.5 1.4 0 2.5 -0.3 2.5 -0.7z"/>
  <path d="M96.2 181.8 c-0.2 -5 -0.5 -5.7 -2.4 -6.1 -1.3 -0.2 0 -0.4 2.7 -0.4 2.8 0 4 0.2 2.8 0.4 -1.9 0.4 -2.3 1.2 -2.6 6.1 l-0.3 5.7 -0.2 -5.7z"/>
  <path d="M107 181 c0 -3.3 0.4 -6 1 -6 0.6 0 1 2.7 1 6 0 3.3 -0.4 6 -1 6 -0.6 0 -1 -2.7 -1 -6z"/>
  <path d="M115.6 184.8 c-2.2 -3.2 -2 -5.5 0.9 -8.3 3.1 -3.2 5 -3.1 8.1 0.1 2 1.9 2.4 3.1 1.9 5.2 -1.2 5.4 -8 7.2 -10.9 3z m8.2 0 c0.7 -0.7 1.2 -2.4 1.2 -3.8 0 -3.4 -1.7 -5 -5.2 -5 -2.2 0 -3.1 0.6 -3.9 2.6 -1.9 5.1 4.2 9.9 7.9 6.2z"/>
  <path d="M132.2 181.3 c-0.1 -3.5 0.1 -6.3 0.6 -6.3 0.4 0 2.3 2.2 4.2 4.7 l3.5 4.7 0.6 -5 0.6 -4.9 0.1 6.3 c0.1 3.4 0 6.2 -0.2 6.2 -0.2 0 -2.1 -2.3 -4.2 -5.1 l-3.9 -5 -0.6 5.3 -0.6 5.3 -0.1 -6.2z"/>
  <path d="M155.3 181 c0 -3.6 0.2 -5.3 0.4 -3.7 0.2 1.5 1.1 2.7 1.9 2.7 0.8 0 1.4 0.5 1.4 1 0 0.6 -0.6 1 -1.4 1 -0.8 0 -1.7 1.2 -1.9 2.8 -0.2 1.5 -0.4 -0.2 -0.4 -3.8z"/>
  <path d="M163 184.5 c0 -1.6 -0.6 -2.5 -1.5 -2.5 -0.8 0 -1.5 -0.4 -1.5 -1 0 -0.5 0.9 -1 1.9 -1 1.6 0 1.9 -0.5 1.5 -2.5 -0.2 -1.4 0 -2.5 0.6 -2.5 0.6 0 1 2.6 1 6 0 3.3 -0.4 6 -1 6 -0.5 0 -1 -1.1 -1 -2.5z"/>
  <path d="M171 185.1 c-0.5 -1.1 -0.9 -3.9 -0.9 -6.3 l0.2 -4.3 0.6 4.7 c0.8 5.6 2 7.1 5.2 6.6 2.1 -0.3 2.5 -1 3 -5.8 l0.6 -5.5 0.1 5.1 c0.1 2.8 -0.3 5.5 -1 6.2 -1.9 1.9 -6.6 1.5 -7.8 -0.7z"/>
  <path d="M186 180.9 l0 -6 4.3 0.3 c4 0.3 4.2 0.5 4 3.2 -0.1 1.7 0.3 3.6 0.9 4.3 1.7 2.1 -0.9 4.3 -5.3 4.3 l-3.9 0 0 -6.1z m7.9 3.7 c1 -1.2 0.8 -1.7 -0.8 -2.5 -3.6 -2 -6.1 -1.4 -6.1 1.4 0 2.1 0.5 2.5 2.9 2.5 1.6 0 3.4 -0.6 4 -1.4z m-0.4 -6.6 c0 -1 -1.2 -1.6 -3.2 -1.8 -2.8 -0.3 -3.3 0 -3.3 1.8 0 1.8 0.5 2.1 3.3 1.8 2 -0.2 3.2 -0.8 3.2 -1.8z"/>
  <path d="M4 151.4 l0 -14.6 9.9 0.4 c8 0.2 10.3 0.7 12 2.2 2.5 2.3 2.7 6.3 0.5 9.5 -1.5 2.1 -1.5 2.3 0.5 3.8 1.8 1.2 2.1 2.3 1.9 5.6 -0.4 5.9 -4.2 7.7 -16 7.7 l-8.8 0 0 -14.6z m17 5.7 c0 -2.1 -1.9 -3.1 -6.1 -3.1 -2.4 0 -2.9 0.4 -2.9 2.5 0 2.3 0.4 2.5 4.5 2.5 3.7 0 4.5 -0.3 4.5 -1.9z m-2.2 -9 c0.6 -0.1 1.2 -1 1.2 -2.1 0 -1.7 -0.7 -2 -4.3 -2 -3.9 0 -4.3 0.2 -4.1 2.3 0.1 1.2 0.3 2.3 0.3 2.5 0.1 0.1 1.3 0.1 2.9 -0.2 1.5 -0.2 3.3 -0.5 4 -0.5z"/>
  <path d="M34 151.5 l0 -14.5 4 0 4 0 0 14.5 0 14.5 -4 0 -4 0 0 -14.5z"/>
  <path d="M54.6 164.2 c-8.8 -6 -8.9 -19.8 -0.1 -25.2 3.9 -2.4 12.3 -2.7 16.5 -0.5 3.5 1.8 3.6 2.5 1.2 5.5 -1.5 1.9 -2.2 2.1 -4 1.1 -5.6 -3 -12.2 0.5 -12.2 6.6 0 5.4 3.7 8 10.3 7.5 3 -0.3 2.1 -4 -1 -4.4 -2.2 -0.2 -2.9 -0.9 -3.1 -3 l-0.3 -2.8 7 0 7.1 0 0 6.5 c0 5.9 -0.2 6.6 -2.7 8.2 -4.1 2.7 -15 2.9 -18.7 0.5z"/>
  <path d="M87 151.5 l0 -14.5 7.3 0 c13.1 0 20.5 6.1 19.3 15.8 -1.2 9 -7.4 13.2 -19.6 13.2 l-7 0 0 -14.5z m13.8 6.9 c1.2 -0.4 2.9 -1.9 3.7 -3.4 2.7 -5.2 -1.3 -11 -7.5 -11 -1.8 0 -2 0.7 -2 7.5 0 8.1 0.2 8.3 5.8 6.9z"/>
  <path d="M113.1 165.3 c0 -0.5 2.6 -6.9 5.7 -14.3 l5.7 -13.5 4.1 -0.3 4.1 -0.3 5.6 13.8 c3.2 7.6 5.7 14.1 5.7 14.6 0 0.4 -1.7 0.7 -3.8 0.7 -3.2 0 -4.1 -0.5 -5 -2.5 -1 -2.2 -1.8 -2.5 -6.7 -2.5 -5 0 -5.6 0.2 -6.5 2.5 -0.8 2.1 -1.6 2.5 -5 2.5 -2.2 0 -4 -0.3 -3.9 -0.7z m17.9 -12.2 c-0.1 -0.9 -0.7 -2.7 -1.4 -4 l-1.3 -2.4 -1.2 3.3 c-1.5 4.5 -1.5 4.8 1.4 4.8 1.7 0 2.5 -0.6 2.5 -1.7z"/>
  <path d="M152 155 l0 -11 -4 0 c-3.9 0 -4 -0.1 -4 -3.5 l0 -3.5 12.5 0 12.5 0 0 3.5 c0 3.5 0 3.5 -4.5 3.5 l-4.5 0 0 11 0 11 -4 0 -4 0 0 -11z"/>
  <path d="M167 165.3 c0 -0.5 2.6 -7 5.7 -14.5 l5.8 -13.8 4 0 4 0 5.3 12.8 c7.4 17.5 7.2 16.2 2.3 16.2 -3.4 0 -4.3 -0.4 -5.3 -2.5 -1 -2.2 -1.7 -2.5 -6.5 -2.5 -4.7 0 -5.5 0.3 -6.5 2.5 -0.9 2 -1.8 2.5 -5 2.5 -2.1 0 -3.8 -0.3 -3.8 -0.7z m18 -11.5 c-0.1 -0.7 -0.7 -2.4 -1.4 -3.7 l-1.4 -2.5 -1.5 3.1 c-0.9 1.7 -1.3 3.3 -1 3.7 1.1 1.1 5.3 0.6 5.3 -0.6z"/>
 </g>
 <g fill="#b2b2b2">
  <path d="M159.8 182.3 c-4.7 -0.5 -5 -2.3 -0.4 -2.3 2.1 0 3.6 0.6 4 1.5 0.3 0.8 0.4 1.4 0.3 1.3 -0.1 -0.1 -1.9 -0.3 -3.9 -0.5z"/>
  <path d="M119 175 c0 -0.5 0.7 -1 1.5 -1 0.8 0 1.5 0.5 1.5 1 0 0.6 -0.7 1 -1.5 1 -0.8 0 -1.5 -0.4 -1.5 -1z"/>
 </g>
 <g fill="#d0dfeb">
  <path d="M110.8 52.3 c-1 -0.2 -1.8 -1.1 -1.8 -1.8 0 -0.9 0.6 -1.2 1.5 -0.9 0.8 0.4 1.5 1.1 1.5 1.6 0 0.6 0.7 0.8 1.5 0.5 0.8 -0.4 1.7 -0.2 2 0.3 0.6 1 -1.6 1.1 -4.7 0.3z"/>
 </g>
 <g fill="#4a4a4a">
 </g>
 <g fill="#5c5c5c">
 </g>
 <g fill="#c4c4c4">
 </g>
 <g fill="#d4d4d4">
 </g>
</svg>