<?xml version="1.0" encoding="utf-8"?>
<!DOCTYPE svg PUBLIC "-//W3C//DTD SVG 20010904//EN" "http://www.w3.org/TR/2001/REC-SVG-20010904/DTD/svg10.dtd">
<svg version="1.0" xmlns="http://www.w3.org/2000/svg" width="270px" height="270px" viewBox="0 0 270 270" preserveAspectRatio="xMidYMid meet">
 <g fill="#640000">
  <path d="M127.4 260.1 c-4.4 -2.1 -8.4 -4.6 -8.7 -5.5 -1.4 -3.6 -0.7 -14.1 1.1 -17.6 2.9 -5.5 9.1 -8.2 17.3 -7.7 11.6 0.7 14.9 4.7 14.9 17.9 0 6.5 -0.4 8.9 -1.9 11.2 -4.5 6.8 -11 7.3 -22.7 1.7z m10.4 -4.2 c2.2 -0.7 3.8 -2.4 5.3 -5.4 l2.2 -4.3 -2.2 -3.5 c-1.2 -1.9 -3.4 -4 -5.1 -4.7 -2.5 -1 -3.4 -0.9 -6.3 0.9 -3.3 2 -5.7 5.7 -5.7 8.7 0 3 4.2 7.6 8.6 9.4 0.1 0 1.5 -0.5 3.2 -1.1z"/>
  <path d="M148.4 220.1 c-24.9 -12.7 -36.9 -19.3 -39.1 -21.7 l-3.3 -3.4 0 -59.1 c0 -57.7 0.1 -59.2 2 -62.4 1.7 -2.8 7.7 -6.2 37.8 -21.5 19.6 -10 37.3 -18.4 39.3 -18.7 3.2 -0.5 7 1.1 29.6 12.6 14.2 7.2 27.1 14.3 28.6 15.7 8.8 8.1 7 21.1 -3.4 25.4 -4.6 1.9 -16.3 0.9 -19.6 -1.7 -1.5 -1.2 -8.8 -5.4 -16.1 -9.3 l-13.2 -7.1 -26 13.1 -26 13.1 0 40.2 0 40.2 25.3 12.9 25.3 12.8 12.4 -6.2 c6.9 -3.4 14.2 -7.8 16.3 -9.8 3.7 -3.6 4.1 -3.7 12.2 -4.1 7.2 -0.3 8.9 0 11.8 1.8 4.3 2.6 5.6 5.6 6.4 14.5 0.6 7.9 -0.5 11.3 -4.9 15.2 -1.2 1.2 -12.2 7.2 -24.3 13.4 -20.1 10.3 -22.6 11.3 -28.6 11.8 l-6.6 0.4 -35.9 -18.1z m46.6 7 c3.5 -2.5 4.7 -8.1 2.4 -11.6 -2.6 -4 -7.1 -5.7 -10.5 -3.9 -3.4 1.7 -6.9 6.1 -6.9 8.6 0 4.5 6.5 10.2 10.5 9.2 1.1 -0.3 3.1 -1.4 4.5 -2.3z m41.9 -21.7 c5.9 -4.9 4.7 -13 -2.3 -15.9 -3.6 -1.6 -7.1 -0.2 -10.5 4.1 -3 3.8 -2.6 7.1 1.3 11 4.1 4.1 7.3 4.3 11.5 0.8z m-108.6 -11.4 c3.3 -2.6 5.2 -8.2 3.8 -10.9 -1.7 -3.1 -6.1 -6.1 -9 -6.1 -4.7 0.1 -10.5 6.9 -9.4 11.1 0.8 2.8 7 7.9 9.7 7.9 1.3 0 3.5 -0.9 4.9 -2z m0 -102 c1.4 -1.1 3.1 -3.6 3.7 -5.6 1.4 -4.1 -0.2 -7.3 -5.2 -10.4 -4.1 -2.5 -9.2 -0.2 -12.2 5.4 -1.8 3.6 -1.1 6 3.1 9.6 3.9 3.5 7 3.8 10.6 1z m108.7 -15.8 c2.3 -2.3 4 -4.8 4 -6.1 0 -3.2 -6.1 -9.1 -9.5 -9.1 -3.6 0 -9.5 5.9 -9.5 9.5 0 3.3 5.8 9.5 8.9 9.5 1.1 0 3.8 -1.7 6.1 -3.8z m-42 -18.9 c6.4 -5.8 4 -14.6 -4.2 -16 -3.3 -0.5 -4.1 -0.2 -7.3 3 -4.6 4.6 -4.6 7.8 -0.1 12.3 4.2 4.2 7.5 4.4 11.6 0.7z"/>
  <path d="M35 213.4 c-2.5 -1.4 -5.7 -3.7 -7.2 -5.2 -2.7 -2.5 -2.8 -2.9 -2.8 -12.8 l0 -10.2 3.4 -2.1 c2.6 -1.6 5 -2.1 10.7 -2.1 12.7 0 16.9 4.5 16.9 18.2 0 8.6 -1.9 12.6 -7.3 15.1 -4.9 2.3 -8.4 2.1 -13.7 -0.9z m10.9 -11.9 c3 -3.4 3 -3.7 1.6 -6.5 -4.2 -8.1 -12.7 -7.9 -16.9 0.4 -1.3 2.5 -1.3 3.3 -0.1 5.7 0.8 1.5 2.6 3.7 4.1 4.8 2.4 1.9 2.9 1.9 5.4 0.6 1.5 -0.8 4.1 -3 5.9 -5z"/>
  <path d="M28.9 85.7 l-3.4 -2.3 -0.3 -9 c-0.3 -10.9 0.6 -12.5 10.4 -18 7 -3.9 9.9 -4.1 15 -0.7 3.8 2.4 5.4 7.1 5.4 15.5 0 12.2 -4.7 16.8 -17.3 16.8 -5 0 -7.1 -0.5 -9.8 -2.3z m14 -7.5 c2.4 -1.2 3.8 -2.8 4.7 -5.3 1.1 -3.2 1 -4.1 -0.7 -6.8 -3.6 -5.9 -9.2 -6.5 -14.1 -1.6 -3.3 3.3 -3.9 5.6 -2.2 9.2 1.4 2.7 5.8 6.3 7.9 6.2 0.6 0 2.5 -0.8 4.4 -1.7z"/>
  <path d="M126.1 38.2 c-5.2 -2.6 -7.4 -6.3 -7.9 -13.2 -0.7 -9.4 -0.2 -10.3 7.9 -13.8 3.9 -1.8 8.2 -3.2 9.4 -3.2 1.2 0 5.4 1.4 9.4 3.1 l7.1 3.2 0 8.7 c0 9.6 -1.3 12.6 -7 15.5 -4 2.1 -14.6 1.9 -18.9 -0.3z m15.9 -11.1 c3 -4.8 3.1 -5.1 1.6 -8 -2 -3.7 -5.3 -6.1 -8.5 -6.1 -3 0 -9.1 6.3 -9.1 9.5 0 3.6 6.1 9.5 9.8 9.5 2.5 0 3.5 -0.8 6.2 -4.9z"/>
 </g>
 <g fill="#15a72b">
  <path d="M118 255.6 c-30.4 -14.4 -83.4 -41.6 -85.5 -43.8 -0.6 -0.6 -0.1 -0.6 1.2 0.1 5.3 2.7 14.1 0 17.4 -5.3 2.3 -3.7 2.5 -10.3 0.5 -15.1 -4 -9.6 -20 -10 -25.1 -0.7 -1.2 2.4 -1.4 -4.3 -1.5 -56.1 l0 -58.9 2.6 3.2 c5.1 6 11.4 7.5 18.1 4.3 4.6 -2.1 7.3 -6.7 7.3 -12.1 0 -8.6 -4 -13.6 -12.1 -15 -4 -0.7 -4 -0.7 21.8 -13.9 14.2 -7.2 34.2 -17.2 44.5 -22.2 16.6 -7.9 18.5 -8.6 16.7 -6.1 -1.2 1.5 -2.3 4.8 -2.6 7.1 -1.4 14.3 16.8 21.5 25.6 10.3 2.8 -3.6 2.9 -12.6 0.1 -17.1 -1.9 -3.1 -0.6 -2.6 24.3 9.8 23.3 11.7 31.3 15.9 25.2 13.4 -1.1 -0.5 -3.9 -1 -6.1 -1.3 -3.6 -0.3 -6.1 0.6 -19.8 7.7 l-15.6 8.1 -9.7 -4.9 -9.8 -4.9 -39.7 19.9 -39.8 19.9 0 52.8 0 52.7 39.8 19.9 39.7 19.9 9 -4.5 8.9 -4.5 17.1 8.4 c14.9 7.4 17.5 8.4 20.7 7.9 2.1 -0.4 13.9 -5.8 26.3 -12.2 22.4 -11.5 26.8 -14.6 28.1 -19.9 1.1 -4.3 -0.2 -5.1 -1.6 -1 -1.6 5 -3.6 7.4 -7.7 9.1 -5 2.1 -7.4 1.6 -3.2 -0.6 10.3 -5.4 11.9 -15.8 3.2 -21.1 -4.3 -2.7 -7.6 -1.9 -12.5 2.9 -4.1 3.9 -6.1 3.8 -3.4 -0.3 2.3 -3.5 7.4 -6.5 11.1 -6.5 4.5 0 9.6 3.1 11.7 7 2 3.8 2.5 2.6 0.6 -1.5 -2 -4.4 -7.1 -6.8 -13.4 -6.3 -4.6 0.4 -6.1 1 -9.2 4 -5.2 5 -31.2 17.9 -33.5 16.7 -0.9 -0.6 -1.7 -1.4 -1.7 -1.9 0 -0.6 6.8 -4.4 15 -8.5 l15 -7.5 0 -52.3 0 -52.3 -14 -6.9 c-9.7 -4.8 -14 -7.4 -13.8 -8.5 0.2 -0.8 1.1 -1.6 2 -1.8 1.8 -0.3 28.4 13.3 32.9 16.9 1.5 1.2 4.7 2.3 7.1 2.6 5 0.6 8.9 -1 12.8 -5.2 2.1 -2.3 2.5 -3.6 2.5 -9.1 0 -3.5 0.1 -6.4 0.3 -6.4 0.2 0 1.2 1.9 2.2 4.3 1.9 4 2 7.2 2 70 0 74.3 0.4 70.6 -7.6 75.6 -7 4.5 -53.1 28.1 -77.4 39.8 -16.3 7.8 -22.5 10.3 -25.5 10.3 -2.9 0 -8.7 -2.3 -21.5 -8.4z m25.3 3.9 c5.5 -3.8 7.6 -14 4.3 -20.4 -4.8 -9.2 -19.8 -8.6 -24.8 0.9 -3.9 7.5 -1.2 15.9 6.3 19.8 4.8 2.5 10.3 2.4 14.2 -0.3z"/>
  <path d="M128.9 258.5 c-11.5 -6.2 -6.4 -24.6 6.7 -24.5 10.3 0.1 15.4 10.1 10.3 19.9 -3 5.8 -10.9 7.9 -17 4.6z m13 -3.6 c3.5 -3.5 4.6 -6.7 3.7 -10.6 -1 -3.6 -6.2 -8.3 -9.5 -8.3 -3.9 0 -8.5 3.3 -10.5 7.4 -1.6 3.4 -1.6 3.8 0 7.2 2 4.1 6.6 7.4 10.6 7.4 1.6 0 3.8 -1.2 5.7 -3.1z"/>
  <path d="M182.8 231.4 c-1.5 -0.8 -3.2 -2.4 -3.8 -3.5 -1 -1.9 -0.8 -1.8 3.9 0.6 6.1 3 8 3.1 13.1 0.5 4.8 -2.4 5.7 -2.5 3.9 -0.3 -3.4 4 -12.1 5.5 -17.1 2.7z"/>
  <path d="M34 210.2 c-3.1 -1.5 -8 -7.2 -8 -9.3 0 -0.5 0.7 -0.9 1.5 -0.9 0.8 0 1.5 0.6 1.5 1.3 0 1.5 4.5 5.9 7.8 7.6 1.8 1 2.9 0.8 5.8 -0.5 9.3 -4.4 9.2 -15.7 -0.2 -20.1 -3.3 -1.6 -3.7 -1.6 -7.1 0.2 -2 1.1 -4.4 3.2 -5.2 4.7 -1.9 3.3 -4.2 3.8 -3.4 0.8 0.9 -3.6 5.8 -7.8 9.7 -8.5 7.8 -1.5 15.6 4.7 15.6 12.3 0 2.8 -0.8 4.3 -4.4 7.6 -8 7.6 -8.1 7.6 -13.6 4.8z"/>
  <path d="M27.6 208.1 c-1.6 -1.6 -2.6 -3.5 -2.3 -4.3 0.4 -1 0.6 -1 0.6 0.1 0.1 0.8 1.3 2.8 2.8 4.3 1.5 1.5 2.4 2.8 2.2 2.8 -0.3 0 -1.8 -1.3 -3.3 -2.9z"/>
  <path d="M186 208 c0 -0.5 1.6 -1 3.5 -1 1.9 0 3.5 0.5 3.5 1 0 0.6 -1.6 1 -3.5 1 -1.9 0 -3.5 -0.4 -3.5 -1z"/>
  <path d="M32.8 81.8 c-3.7 -2.1 -7.6 -8 -5.8 -8.6 0.6 -0.2 2.2 1 3.6 2.8 1.5 1.7 4 3.8 5.6 4.6 2.7 1.4 3.2 1.4 6.6 -0.4 2 -1 4.5 -3.3 5.6 -5.1 3.8 -6.6 -1.3 -14.2 -10.6 -16 -3.2 -0.7 -3.6 -0.9 -1.8 -1.1 7.4 -0.8 11.2 0.6 14 5.3 3.9 6.4 1.6 14.9 -5 18.4 -5.3 2.8 -7.5 2.9 -12.2 0.1z"/>
  <path d="M226.4 82.6 c-3.1 -1.4 -7.9 -6.5 -6.9 -7.4 0.3 -0.3 1.8 0.4 3.3 1.6 1.5 1.3 4.2 2.9 6 3.7 2.8 1.3 3.6 1.4 6 0.1 6.7 -3.5 8.6 -8 6.7 -16.1 -0.6 -2.8 -0.6 -2.9 0.9 -1.1 1 1.2 1.6 3.9 1.6 6.7 0 3.6 -0.6 5.4 -3 8.4 -1.6 2.1 -3 3.5 -3 3.1 0 -0.4 -1 0 -2.2 0.8 -2.7 1.9 -5.3 2 -9.4 0.2z"/>
  <path d="M188 63 c0 -0.5 1.7 -1 3.8 -0.9 3 0 3.3 0.2 1.7 0.9 -2.8 1.2 -5.5 1.2 -5.5 0z"/>
  <path d="M180 41.5 c3.3 -3.5 8.3 -4.7 13.7 -3.3 2.4 0.6 4.6 1.4 4.9 1.9 0.7 1.3 -4.3 1.1 -6.7 -0.2 -1.5 -0.8 -3.2 -0.5 -7.6 1.5 -6.9 3.2 -7.2 3.2 -4.3 0.1z"/>
  <path d="M130.4 34.6 c-7.8 -3.4 -10.1 -13.3 -4.8 -20.3 2.2 -2.9 3 -3.4 3.2 -2.1 0.2 0.9 -0.7 3 -1.9 4.7 -4.1 5.5 -1.9 11.8 5.4 15.4 3.3 1.7 3.8 1.7 6.6 0.3 3.9 -2.1 7.1 -6.3 7.1 -9.5 0 -1.4 -0.9 -4.1 -2 -5.9 -2.5 -4.1 -2.8 -7.1 -0.4 -5.1 2.4 2 4.4 6.5 4.4 10 0 4.8 -5.3 12.5 -9.2 13.3 -4.1 0.8 -4.8 0.7 -8.4 -0.8z"/>
 </g>
 <g fill="#ffcd05">
  <path d="M141 261.6 c1.9 -0.7 4.3 -1.7 5.3 -2.1 0.9 -0.4 1.7 -0.4 1.7 -0.1 0 1 -6.6 3.6 -8.7 3.6 -1 -0.1 -0.2 -0.7 1.7 -1.4z"/>
  <path d="M128.9 258.5 c-11.5 -6.2 -6.4 -24.6 6.7 -24.5 10.3 0.1 15.4 10.1 10.3 19.9 -3 5.8 -10.9 7.9 -17 4.6z"/>
  <path d="M194.1 235.6 c1.5 -1.3 9 -4.5 8.4 -3.6 -0.4 0.7 -2.2 1.8 -4.1 2.6 -3.2 1.3 -5.2 1.8 -4.3 1z"/>
  <path d="M182.9 231.5 c-5.7 -3.1 -8.1 -10.8 -5.2 -16.5 2.2 -4.3 7.6 -8 11.7 -8 7 0 14.3 7.1 13.2 13 -1.4 7.9 -2.4 9.6 -7.3 11.7 -4.1 1.7 -9.1 1.6 -12.4 -0.2z"/>
  <path d="M241.2 211.5 c2 -1.3 3.8 -3 4.1 -3.7 0.4 -0.9 0.6 -0.9 0.6 -0.1 0.1 1.3 -5.5 6.3 -7.2 6.3 -0.6 0 0.5 -1.1 2.5 -2.5z"/>
  <path d="M34 210.2 c-5.2 -2.6 -8.3 -7.7 -7.7 -12.9 1 -9 8.7 -14.1 17 -11.2 5 1.7 8.7 6.7 8.7 11.7 0 2.8 -0.8 4.3 -4.4 7.6 -8 7.6 -8.1 7.6 -13.6 4.8z"/>
  <path d="M226.4 210.6 c-6.8 -3 -9.9 -11 -6.7 -17.4 5 -10.3 18.6 -10.8 23.7 -0.8 1.7 3.5 1.8 4.4 0.7 8.5 -1.4 5.4 -3.4 7.9 -7.8 9.7 -4 1.7 -5.9 1.7 -9.9 0z"/>
  <path d="M114.5 201.1 c-5.6 -3.4 -6.9 -5.7 -7.3 -12.9 -0.2 -3.7 0.1 -7.8 0.7 -9.2 0.8 -2 1 -1 1 5.2 0.1 6.7 0.4 8 2.7 10.8 1.5 1.7 4.7 4.2 7.3 5.5 4.4 2.3 4.5 2.4 1.6 2.4 -1.6 0.1 -4.3 -0.7 -6 -1.8z"/>
  <path d="M247.3 197.5 c0 -3.3 0.2 -4.5 0.4 -2.7 0.2 1.8 0.2 4.5 0 6 -0.2 1.5 -0.4 0 -0.4 -3.3z"/>
  <path d="M117.5 198.2 c-4.6 -3 -6.6 -5.7 -7.2 -10 -0.9 -7 3.9 -13.7 10.3 -14.3 6.5 -0.5 8.6 0.1 12 3.5 2.8 2.8 3.4 4.2 3.4 7.5 0 5.3 -2.2 10.5 -5.2 12.5 -4 2.6 -9.9 3 -13.3 0.8z"/>
  <path d="M217 188.9 c0.7 -1.1 1.4 -1.8 1.7 -1.5 0.8 0.8 -0.5 3.6 -1.7 3.6 -0.7 0 -0.7 -0.6 0 -2.1z"/>
  <path d="M137.1 179.1 c-0.7 -0.5 -1.1 -1.7 -0.9 -2.7 0.4 -1.7 0.5 -1.7 1.7 0.4 1.4 2.7 1.2 3.5 -0.8 2.3z"/>
  <path d="M118.5 96.9 c-9.3 -5.4 -11.2 -15.1 -4.3 -21.8 5.6 -5.5 12.8 -5.3 18.5 0.4 2.7 2.7 3.3 4.1 3.3 7.4 0 5.3 -2.2 10.5 -5.2 12.5 -3.2 2.1 -9.9 2.9 -12.3 1.5z"/>
  <path d="M136 94.3 c0 -1.3 0.5 -2.3 1 -2.3 1.3 0 1.3 1.1 0 3 -0.8 1.2 -1 1.1 -1 -0.7z"/>
  <path d="M107.8 92 c-1.3 -4.3 -0.9 -13 0.7 -16.3 2 -4.1 5.6 -6.7 10.3 -7.4 l3.7 -0.5 -5 3 c-6.7 4 -7.9 6.2 -8.5 15.7 -0.4 5.6 -0.7 7.3 -1.2 5.5z"/>
  <path d="M32.8 81.8 c-11.9 -6.9 -7 -24.3 6.8 -24 5.3 0 8 1.5 10.4 5.5 3.9 6.4 1.6 14.9 -5 18.4 -5.3 2.8 -7.5 2.9 -12.2 0.1z"/>
  <path d="M226.5 82.6 c-11.4 -5 -10.4 -21.2 1.5 -24.6 12.2 -3.5 21 10.4 13 20.5 -1.6 2.1 -3 3.5 -3 3.1 0 -0.4 -1 0 -2.2 0.8 -2.7 1.9 -5.3 2 -9.3 0.2z"/>
  <path d="M217 80 c-0.9 -1.6 -0.8 -1.8 0.5 -1.4 0.8 0.4 1.5 1.2 1.5 2 0 2 -0.7 1.7 -2 -0.6z"/>
  <path d="M188.3 65.9 c1.1 -0.7 2.3 -0.7 3.5 0 1.4 0.9 1.1 1 -1.8 1 -2.9 0 -3.2 -0.1 -1.7 -1z"/>
  <path d="M185 62.9 c-9 -3.7 -11.5 -15.4 -4.6 -21.8 5.9 -5.5 16 -4.5 20.3 2 2.7 4.2 2.8 8.1 0.1 13.5 -2.7 5.6 -10.3 8.6 -15.8 6.3z"/>
  <path d="M130.4 34.6 c-7.6 -3.3 -10.1 -13.3 -5 -20 7.2 -9.5 22.6 -4.6 22.6 7.2 0 5.1 -5.2 12.8 -9.2 13.6 -4.1 0.8 -4.8 0.7 -8.4 -0.8z"/>
 </g>
 <g fill="#f4e9c8">
  <path d="M138.5 262.5 c2.2 -0.7 26.6 -12.6 54.3 -26.4 42.9 -21.5 50.6 -25.7 52.2 -28.4 1.9 -3.1 2 -5.6 2.1 -72.2 0.1 -59.3 0.3 -68.6 1.4 -66 1.2 2.4 1.4 15.2 1.5 68.8 0 74.3 0.4 70.6 -7.6 75.6 -7 4.5 -53.1 28.1 -77.4 39.8 -17.9 8.6 -22.3 10.3 -26 10.2 l-4.5 -0.1 4 -1.3z"/>
  <path d="M94.2 211.2 l-41.2 -20.7 0 -55.7 0 -55.8 41.2 -20.6 41.3 -20.6 12 5.9 12 6 -23.2 11.7 c-19.3 9.7 -23.5 12.2 -25.2 15 -2.1 3.3 -2.1 4.4 -2.1 59.4 l0 56 2.5 3.1 c1.7 1.9 10.3 7 24.5 14.2 l21.9 11.3 -11.1 5.8 c-6.2 3.2 -11.2 5.8 -11.2 5.7 -0.1 0 -18.7 -9.3 -41.4 -20.7z"/>
  <path d="M161.8 191.7 l-25.7 -13.2 -0.1 -43.2 0 -43.2 27 -13.5 26.9 -13.6 14.6 7.2 14.5 7.3 0 55.2 0 55.3 -15 7.5 c-8.2 4.1 -15.3 7.5 -15.7 7.4 -0.5 0 -12.4 -6 -26.5 -13.2z"/>
 </g>
</svg>