<svg width="200" height="327.59" version="1.1" viewBox="0 0 200 327.59" xmlns="http://www.w3.org/2000/svg">
	<path d="m200 199.8h-185.88v-194.78h185.88z" fill="#ffffff" stroke-width="1.0501"/>
	<path d="m199.97 267.14h-199.83v-1.1665h199.83z" fill="#373535" stroke-width="1.0501"/>
	<path d="m190 319.36c.79286 1.0052 1.9782 1.704 3.8004 1.704 1.8169 0 2.6312-.90844 2.6312-1.5616 0-.86542-.95143-1.0724-1.3761-1.1423-.46497-.0913-2.6312-.51065-3.0774-.62891-3.166-.76598-3.7493-2.5882-3.7493-3.7735 0-2.2388 2.0292-4.3138 5.6655-4.3138 2.005 0 3.4698.65579 4.3782 1.2578.65579.46765 1.0751.88693 1.3519 1.2095l-2.2604 2.0991c-.37627-.7176-1.2794-2.0265-3.615-2.0265-1.489 0-2.1878.6773-2.1878 1.3546 0 .95412.97831 1.2095 2.6797 1.5132 2.7469.48916 3.5182.6316 4.362 1.3062.83586.60741 1.3492 1.6771 1.3492 2.7952 0 2.0775-1.8652 4.518-5.9639 4.518-2.3572 0-4.6631-.74449-6.3401-2.3517l2.3517-1.9593m-13.761 0c.77405 1.0052 1.9593 1.704 3.7788 1.704 1.8384 0 2.6528-.90843 2.6528-1.5616 0-.86543-.97562-1.0724-1.3976-1.1423-.46496-.0913-2.6098-.51065-3.0747-.62891-3.1715-.76598-3.7548-2.5882-3.7548-3.7735 0-2.2388 2.0561-4.3138 5.6655-4.3138 2.0051 0 3.4751.6558 4.381 1.2578.6531.46764 1.0697.88693 1.3546 1.2095l-2.2604 2.0991c-.35209-.7176-1.2605-2.0265-3.615-2.0265-1.4944 0-2.1878.6773-2.1878 1.3546 0 .95412.9783 1.2095 2.6822 1.5132 2.7683.48915 3.5154.6316 4.354 1.3062.83587.60742 1.3546 1.6771 1.3546 2.7952 0 2.0775-1.868 4.518-5.9693 4.518-2.3303 0-4.6604-.74449-6.3401-2.3517l2.3759-1.9593m-7.2835-4.3782c-.3037-2.0775-1.5589-2.7979-2.9834-2.7979-1.6744 0-2.8382.97832-3.2145 2.7979zm3.5935 5.335c-1.6368 2.2119-3.7548 3.3542-6.4342 3.3542-3.4967 0-6.8052-2.1878-6.8052-7.0578 0-4.4508 2.841-6.969 6.5713-6.969 3.494 0 4.9398 2.0964 5.222 2.4941 1.0697 1.5374 1.325 3.8434 1.3519 5.1737h-9.7886c.34939 2.0937 1.6771 3.2817 3.752 3.2817 2.1663 0 3.0505-1.3035 3.4241-1.8625l2.7066 1.5857m-27.352-10.278h3.2172v1.5374c.13976-.20964.47034-.65041 1.0267-1.0025.79555-.58053 2.0023-.92993 3.0264-.92993 1.5159 0 2.7979.69611 3.4751 1.583.81705 1.1181.81705 2.5426.81705 4.2653v7.7862h-3.1446v-6.7353c0-1.0052 0-1.6584-.12095-2.0292-.27683-1.1638-1.1181-1.798-2.169-1.798-1.024 0-1.9782.63429-2.4404 1.5159-.47034.95681-.47034 2.3329-.47034 3.2897v5.757h-3.2172v-13.24m-5.9935 4.9425c-.30371-2.0775-1.5642-2.7979-2.9592-2.7979-1.7012 0-2.8678.97831-3.2387 2.7979zm3.6122 5.335c-1.6529 2.2119-3.7789 3.3542-6.48 3.3542-3.4482 0-6.8052-2.1878-6.8052-7.0578 0-4.4508 2.8651-6.969 6.5982-6.969 3.494 0 4.9587 2.0964 5.2167 2.4941 1.0966 1.5374 1.3304 3.8434 1.3546 5.1737h-9.8127c.37358 2.0937 1.6771 3.2817 3.7734 3.2817 2.1663 0 3.056-1.3035 3.4482-1.8625l2.7066 1.5857m-14.444-10.278-4.3808 13.24h-3.4054l-4.2896-13.24h3.2897l2.7494 9.1112 2.7038-9.1112zm-14.164 13.24h-3.1257v-13.24h3.1257zm0-15.312h-3.1257v-3.1929h3.1257zm-7.9286 4.3568v5.9907c0 1.6288 0 2.3276 1.5132 2.3276.46496 0 .86274-.0214 1.3277-.11295v2.6554c-.98099.13982-1.5857.20964-2.3303.20964-.6531 0-2.8893 0-3.4967-1.6099-.20964-.55634-.20964-1.3734-.20964-2.728v-6.7326h-1.9324v-2.2845h1.9324v-4.7061h3.1956v4.7061h2.841v2.2845h-2.841m-6.961 10.955h-3.1688v-13.24h3.1688zm0-15.312h-3.1688v-3.1929h3.1688zm-7.9555 4.3568v5.9907c0 1.6288 0 2.3276 1.5374 2.3276.46766 0 .86274-.0214 1.3035-.11295v2.6554c-.97562.13983-1.5831.20964-2.2818.20964-.70148 0-2.8893 0-3.5182-1.6099-.20964-.55635-.20964-1.3734-.20964-2.728v-6.7326h-1.9379v-2.2846h1.9379v-4.7061h3.1688v4.7061h2.841v2.2846h-2.841m-9.5143 2.6582c-.30102-2.0775-1.5831-2.7979-2.9806-2.7979-1.7012 0-2.8435.97831-3.2198 2.7979zm3.5908 5.335c-1.6315 2.2119-3.7762 3.3542-6.4558 3.3542-3.4751 0-6.8294-2.1878-6.8294-7.0578 0-4.4508 2.8893-6.969 6.6196-6.969 3.494 0 4.9425 2.0964 5.2195 2.4941 1.0697 1.5374 1.3062 3.8434 1.325 5.1737h-9.7831c.37358 2.0937 1.6557 3.2817 3.7493 3.2817 2.169 0 3.056-1.3035 3.4482-1.8625l2.7066 1.5857m-21.518.37358c1.5374 0 3.2198-1.0724 3.2198-4.0556 0-3.3113-2.3114-3.9402-3.2683-3.9402-1.4433 0-3.1204 1.0509-3.1715 3.9186-.043 2.677 1.4487 4.0772 3.2198 4.0772m-6.3401-10.651h3.1204v1.2122c.51603-.50797 1.5911-1.6072 3.6418-1.6072 3.9133 0 6.0096 3.494 6.0096 7.1546 0 3.9374-2.4727 6.8724-6.0096 6.8724-1.8196 0-2.9619-.86274-3.6418-1.4648v5.3833h-3.1204v-17.55m-23.225 0h3.1635v1.4917c1.0509-1.3062 2.9134-1.8868 4.1766-1.8868 1.2337 0 2.8166.49185 3.6553 2.0481.56172-.76599 1.9351-2.0481 4.2437-2.0481 1.3519 0 2.6071.37359 3.494 1.3277 1.0724 1.1906 1.0455 2.5909 1.0455 3.9616v8.3452h-3.1419v-7.2997c0-1.2525.18814-3.33-2.2388-3.33-.99981 0-1.8169.53484-2.2308 1.2363-.6101.95412-.70685 2.0534-.70685 3.1688v6.2246h-3.1419v-7.3669c0-.97831 0-1.3062-.11826-1.7012-.23114-.88693-.93262-1.5616-2.0292-1.5616-.95143 0-1.8841.53484-2.4189 1.54-.5886.99982-.5886 2.2845-.5886 3.5639v5.5258h-3.1635v-13.24m-9.4606 2.47c-1.9996 0-3.4482 1.5857-3.4482 4.0342 0 2.7226 1.6771 4.2142 3.5908 4.2142 2.3303 0 3.4726-2.0265 3.4027-4.1954-.04569-2.1878-1.3277-4.053-3.545-4.053m.14245 11.162c-4.1015 0-6.8481-3.0317-6.8481-7.0578 0-4.037 2.7952-6.9717 6.7326-6.9717 3.6607 0 6.8239 2.5909 6.8508 6.9717 0 4.1202-2.7226 7.0578-6.7353 7.0578m-8.2323-5.6145c-.23652.60473-.67729 1.704-1.6099 2.7952-1.3277 1.5884-3.4268 2.9189-6.48 2.9189-4.9398 0-8.716-3.639-8.716-9.8826 0-6.3643 4.1067-9.7642 8.8559-9.7642 5.8268 0 7.2244 4.4722 7.6464 5.7785l-3.4967.88424c-.06988-.30371-.23114-1.1181-.69879-1.8196-.39778-.57784-1.4245-1.6502-3.3569-1.6502-3.0505 0-5.1737 2.513-5.1737 6.4987 0 4.2896 2.2631 6.6439 5.1737 6.6439 1.7739 0 2.8194-.86274 3.5881-1.8438.60741-.81436.83855-1.5132.981-1.9324l3.287 1.3734m97.105-35.118h3.2172v1.5804c.13707-.25802.46497-.6773 1.024-1.0482.79018-.58054 2.0051-.92994 3.056-.92994 1.5132 0 2.8166.6746 3.4726 1.6099.81167 1.0912.81167 2.5344.81167 4.2626v7.7862h-3.1473v-6.7836c0-.95413 0-1.6315-.11558-2.0051-.28219-1.1423-1.1369-1.7712-2.1663-1.7712-1.0482 0-1.9809.62891-2.4485 1.4648-.48648 1.0025-.48648 2.3328-.48648 3.3355v5.7596h-3.2172v-13.261m-9.4337 2.4672c-1.9809 0-3.4241 1.5616-3.4241 4.01 0 2.728 1.6798 4.2626 3.5854 4.2626 2.2873 0 3.4482-2.0238 3.3838-4.241-.0484-2.1878-1.3304-4.0314-3.545-4.0314m.16125 11.189c-4.1444 0-6.8938-3.0317-6.8938-7.0874 0-4.053 2.8194-6.9665 6.7595-6.9665 3.6766 0 6.8267 2.5613 6.8481 6.9665 0 4.1228-2.7253 7.0874-6.7137 7.0874m-16.691-.39509h-3.1904v-18.715h3.1904zm-6.6654 0h-3.1473v-13.261h3.1473zm0-15.339h-3.1473v-3.1715h3.1473zm-7.9017 6.7567c-.23114-.86005-1.1638-2.2362-2.9806-2.2362-1.8438 0-3.287 1.446-3.287 4.0798 0 2.4 1.2363 4.147 3.3355 4.147 2.0023 0 2.771-1.5374 3.166-2.6098l2.7522 1.4433c-1.0536 2.8704-3.6849 4.1498-5.9666 4.1498-3.6821 0-6.574-2.841-6.574-7.0389 0-4.053 2.892-7.0121 6.6654-7.0121 3.3542 0 5.0339 2.2362 5.7327 3.7734l-2.8435 1.3035m-23.41-4.6792h3.2198v1.5804c.13707-.25802.46496-.6773 1.024-1.0482.79555-.58053 2.0051-.92993 3.0317-.92993 1.5132 0 2.7979.6746 3.4698 1.6099.81705 1.0912.81705 2.5344.81705 4.2626v7.7862h-3.1446v-6.7836c0-.95412 0-1.6315-.11826-2.005-.27952-1.1423-1.1181-1.7712-2.1422-1.7712-1.0536 0-2.0078.62891-2.4512 1.4648-.48646 1.0025-.48646 2.3329-.48646 3.3355v5.7596h-3.2198v-13.261m-3.4403 0v13.261h-3.1742v-1.3761c-.53484.53485-1.8384 1.6744-4.2626 1.6744-2.169 0-3.1929-.92994-3.6821-1.5347-.91112-1.1423-.91112-2.3813-.91112-4.3594v-7.6653h3.2145v7.6141c0 .51335 0 .95681.09676 1.3089.3709 1.1611 1.3062 1.6771 2.47 1.6771 1.3277 0 2.1422-.74448 2.5613-1.4191.46765-.88692.51334-1.704.51334-3.5692v-5.6117h3.1742m-21.447 2.4672c-1.9809 0-3.4027 1.5616-3.4027 4.01 0 2.728 1.6771 4.2626 3.5423 4.2626 2.3303 0 3.4967-2.0238 3.4027-4.241-.04569-2.1878-1.3062-4.0316-3.5423-4.0316m.13976 11.189c-4.1014 0-6.8535-3.0317-6.8535-7.0874 0-4.053 2.7979-6.9665 6.738-6.9665 3.6794 0 6.8294 2.5613 6.875 6.9665 0 4.1228-2.7522 7.0874-6.7595 7.0874m-8.2028-5.6441c-.23652.60741-.6746 1.7256-1.6341 2.8194-1.3277 1.5427-3.3999 2.8947-6.4531 2.8947-4.9641 0-8.7376-3.6418-8.7376-9.8852 0-6.359 4.0987-9.7858 8.8531-9.7858 5.8268 0 7.2244 4.4991 7.6437 5.8026l-3.494.90843c-.04569-.35209-.20964-1.1208-.69879-1.8411-.39778-.58323-1.4245-1.6557-3.3569-1.6557-3.0291 0-5.1737 2.5426-5.1737 6.523 0 4.268 2.2604 6.6196 5.2195 6.6196 1.7256 0 2.7979-.83855 3.545-1.8411.62891-.81436.86005-1.489.97831-1.9351l3.3086 1.3761" stroke-width="1.68"/>
	<path d="m123.08 199.8h33.379l-16.68-12.135zm-122.9-199.8v199.8h76.781l15.133-46.754-76.76-56.217h184.65v-96.831zm139.6 6.4884 25.859 79.52h-11.149l-14.711-45.346-14.752 45.346h-11.108zm-35.25 142.51-16.513 50.804h16.912l34.854-25.208 34.81 25.208h16.886l-13.119-40.477 11.081-.0242 10.538 32.51v-47.946l-8.6408 6.3483h-15.301l-14.895-10.823h38.837v-10.493h-53.076l-14.941-10.821h68.017v-10.541l-152.21.0215z" fill="#a59468" stroke-width="1.0501"/>
	<path d="m199.97 250.02h-6.1199v-6.3777h6.1199zm-15.427-14.621c-.51335-3.6204-2.7576-4.8566-5.2113-4.8566-2.9672 0-5.0205 1.7281-5.6548 4.8566zm6.3053 9.4176c-2.8704 3.83-6.5848 5.9128-11.307 5.9128-6.1171 0-11.963-3.8782-11.963-12.433 0-7.7781 5.0017-12.216 11.589-12.216 6.1251 0 8.6488 3.6418 9.1112 4.3916 1.9431 2.6608 2.3383 6.703 2.3813 9.0171h-17.196c.67729 3.666 2.9485 5.7705 6.6385 5.7705 3.7868 0 5.3027-2.2201 6.0283-3.2011l4.7168 2.7576m-30.225-14.04v10.493c0 2.892 0 4.1283 2.6419 4.1283.85737 0 1.54-.0645 2.3303-.27683v4.6954c-1.6556.27952-2.8006.37628-4.0396.37628-1.1718 0-5.0689 0-6.1224-2.8517-.37358-.88693-.37358-2.384-.37358-4.7195v-11.845h-3.4107v-3.9966h3.4107v-8.2243h5.5634v8.2243h4.9721v3.9966h-4.9721m-16.718 4.6228c-.51334-3.6204-2.736-4.8566-5.1926-4.8566-2.9888 0-5.0448 1.7281-5.6737 4.8566zm6.308 9.4175c-2.8786 3.83-6.5902 5.9128-11.31 5.9128-6.0983 0-11.963-3.8782-11.963-12.433 0-7.7781 5.0232-12.216 11.587-12.216 6.1251 0 8.6946 3.6418 9.1353 4.3916 1.9217 2.6608 2.3141 6.703 2.3625 9.0171h-17.172c.6316 3.666 2.9216 5.7704 6.5875 5.7704 3.8138 0 5.3484-2.2201 6.0283-3.2011l4.7438 2.7576m-37.754.63429c2.7146 0 5.6306-1.8438 5.6306-7.0765 0-5.8188-4.0394-6.9422-5.7005-6.9422-2.5936 0-5.4908 1.8491-5.5823 6.8239-.0914 4.7894 2.5453 7.1949 5.6521 7.1949m-11.143-18.667h5.5393v2.1502c.88962-.9595 2.7066-2.849 6.3509-2.849 6.8267 0 10.538 6.1413 10.538 12.546 0 6.9127-4.3244 12.103-10.538 12.103-3.1984 0-5.1817-1.5669-6.3509-2.6205v9.4417h-5.5393v-30.771m-40.703.0128h5.5124v2.5936c1.8707-2.3383 5.1657-3.2924 7.3615-3.2924 2.1716 0 4.9318.84123 6.4477 3.5718.93531-1.2847 3.3651-3.5718 7.4528-3.5718 2.3169 0 4.5341.65041 6.0983 2.3786 1.8679 2.0588 1.8249 4.5098 1.8249 6.8938v14.672h-5.5151v-12.853c0-2.169.3279-5.8618-3.924-5.8618-1.7336 0-3.2011 1.0052-3.9268 2.1959-1.0751 1.7308-1.2148 3.5746-1.2148 5.5849v10.933h-5.5151v-12.987c0-1.6852 0-2.247-.18814-2.9458-.44346-1.5427-1.6341-2.7818-3.5961-2.7818-1.6825 0-3.2951 1.0052-4.2519 2.6877-.981 1.8222-1.0536 4.0154-1.0536 6.2837v9.7428h-5.5124v-23.245m-16.637 4.3002c-3.4806 0-6.0042 2.8032-6.0042 7.0793 0 4.7894 2.943 7.4314 6.2811 7.4314 4.045 0 6.101-3.5289 5.9586-7.3615-.08869-3.8782-2.3356-7.1492-6.2354-7.1492m.27683 19.649c-7.2378 0-12.076-5.3295-12.076-12.431 0-7.125 4.9291-12.216 11.847-12.216 6.4718 0 11.982 4.5045 12.03 12.216 0 7.2432-4.7894 12.431-11.802 12.431m-14.441-9.8933c-.42466 1.0724-1.2175 2.9888-2.8275 4.9264-2.3383 2.7091-6.0069 5.0717-11.331 5.0717-8.7188 0-15.349-6.3536-15.349-17.339 0-11.146 7.1922-17.126 15.562-17.126 10.229 0 12.635 7.8507 13.409 10.119l-6.1682 1.6341c-.09407-.6316-.37359-2.0078-1.1933-3.2467-.69879-1.0294-2.4968-2.8758-5.9101-2.8758-5.327 0-9.0682 4.3943-9.0682 11.425 0 7.4771 3.9724 11.587 9.1139 11.587 3.0854 0 4.9291-1.4917 6.2864-3.1984 1.0482-1.4272 1.4702-2.6608 1.7067-3.3892l5.7704 2.4109" fill="#a59468" stroke-width="1.0501"/>
</svg>
